<svg xmlns="http://www.w3.org/2000/svg" viewBox="0 0 307.56 377.87"><defs><style>.cls-1{fill:#dfdfdf;}.cls-1,.cls-2,.cls-4{stroke:#231f20;stroke-miterlimit:10;}.cls-1,.cls-2,.cls-3,.cls-4{stroke-width:1.49px;}.cls-2{fill:#f3959f;}.cls-3,.cls-4{fill:none;}.cls-3{stroke:#000;stroke-linecap:round;stroke-linejoin:round;}</style></defs><g id="Layer_2" data-name="Layer 2"><g id="Layer_1-2" data-name="Layer 1"><polygon class="cls-1" points="147.13 108.13 147.13 155.29 78.55 184.21 78.55 125.82 147.13 108.13"/><polygon class="cls-1" points="78.55 125.82 78.55 184.21 0.74 156.65 0.74 105.35 78.55 125.82"/><path class="cls-2" d="M126.79,36.56l-17.86-20v-.42l-69.28,8V11.92l69.28-7.37V3L105,.77,36.05,8.57v16.2L.74,59.35v46l77.81,20.47,68.58-17.69V59.35ZM6.88,59.35l3-3.09h0L37.56,28,75.8,72.53Z"/><polygon class="cls-3" points="75.8 72.53 6.88 59.35 9.87 56.26 9.9 56.26 37.56 28 75.8 72.53"/><polygon class="cls-1" points="108.93 4.54 108.93 16.09 39.65 24.13 39.65 11.92 108.93 4.54"/><polyline class="cls-2" points="37.56 28 77.32 73.32 78.55 125.82"/><polygon class="cls-1" points="108.93 4.54 108.93 16.09 39.65 24.13 39.65 11.92 108.93 4.54"/><line class="cls-4" x1="56.11" y1="49.14" x2="126.8" y2="36.57"/><line class="cls-4" x1="76.9" y1="72.84" x2="147.12" y2="59.36"/><polygon class="cls-1" points="75.8 72.53 6.88 59.35 9.87 56.26 9.9 56.26 37.56 28 39.85 30.66 75.8 72.53"/><line class="cls-4" x1="50.32" y1="42.86" x2="6.88" y2="59.35"/><polygon class="cls-1" points="306.81 108.13 306.81 155.29 238.23 184.21 238.23 125.82 306.81 108.13"/><polygon class="cls-1" points="238.23 125.82 238.23 184.21 160.43 156.65 160.43 105.35 238.23 125.82"/><path class="cls-2" d="M286.47,36.56l-17.86-20v-.42l-69.28,8V11.92l69.28-7.37V3L264.68.77l-69,7.8v16.2l-35.3,34.58v46l77.8,20.47,68.59-17.69V59.35ZM166.56,59.35l3-3.09h0L197.24,28l38.24,44.53Z"/><polygon class="cls-3" points="235.48 72.53 166.56 59.35 169.56 56.26 169.59 56.26 197.24 28 235.48 72.53"/><polygon class="cls-1" points="268.61 4.54 268.61 16.09 199.33 24.13 199.33 11.92 268.61 4.54"/><polyline class="cls-2" points="197.24 28 237.01 73.32 238.23 125.82"/><polygon class="cls-1" points="268.61 4.54 268.61 16.09 199.33 24.13 199.33 11.92 268.61 4.54"/><line class="cls-4" x1="215.79" y1="49.14" x2="286.49" y2="36.57"/><line class="cls-4" x1="236.58" y1="72.84" x2="306.8" y2="59.36"/><polygon class="cls-1" points="235.48 72.53 166.56 59.35 169.56 56.26 169.59 56.26 197.24 28 199.53 30.66 235.48 72.53"/><line class="cls-4" x1="210" y1="42.86" x2="166.56" y2="59.35"/><polygon class="cls-1" points="147.13 300.66 147.13 347.82 78.55 376.74 78.55 318.35 147.13 300.66"/><polygon class="cls-1" points="78.55 318.35 78.55 376.74 0.74 349.18 0.74 297.88 78.55 318.35"/><path class="cls-2" d="M126.79,229.09l-17.86-20v-.43l-69.28,8V204.45l69.28-7.37v-1.52L105,193.3l-68.95,7.8v16.2L.74,251.88v46l77.81,20.47,68.58-17.69V251.88ZM6.88,251.88l3-3.09h0l27.66-28.26L75.8,265.06Z"/><polygon class="cls-3" points="75.8 265.06 6.88 251.88 9.87 248.79 9.9 248.79 37.56 220.53 75.8 265.06"/><polygon class="cls-1" points="108.93 197.08 108.93 208.62 39.65 216.66 39.65 204.45 108.93 197.08"/><polyline class="cls-2" points="37.56 220.53 77.32 265.85 78.55 318.35"/><polygon class="cls-1" points="108.93 197.08 108.93 208.62 39.65 216.66 39.65 204.45 108.93 197.08"/><line class="cls-4" x1="56.11" y1="241.67" x2="126.8" y2="229.1"/><line class="cls-4" x1="76.9" y1="265.37" x2="147.12" y2="251.89"/><polygon class="cls-1" points="75.8 265.06 6.88 251.88 9.87 248.79 9.9 248.79 37.56 220.53 39.85 223.2 75.8 265.06"/><line class="cls-4" x1="50.32" y1="235.39" x2="6.88" y2="251.88"/><polygon class="cls-1" points="306.81 300.66 306.81 347.82 238.23 376.74 238.23 318.35 306.81 300.66"/><polygon class="cls-1" points="238.23 318.35 238.23 376.74 160.43 349.18 160.43 297.88 238.23 318.35"/><path class="cls-2" d="M286.47,229.09l-17.86-20v-.43l-69.28,8V204.45l69.28-7.37v-1.52l-3.93-2.26-69,7.8v16.2l-35.3,34.58v46l77.8,20.47,68.59-17.69V251.88ZM166.56,251.88l3-3.09h0l27.65-28.26,38.24,44.53Z"/><polygon class="cls-3" points="235.48 265.06 166.56 251.88 169.56 248.79 169.59 248.79 197.24 220.53 235.48 265.06"/><polygon class="cls-1" points="268.61 197.08 268.61 208.62 199.33 216.66 199.33 204.45 268.61 197.08"/><polyline class="cls-2" points="197.24 220.53 237.01 265.85 238.23 318.35"/><polygon class="cls-1" points="268.61 197.08 268.61 208.62 199.33 216.66 199.33 204.45 268.61 197.08"/><line class="cls-4" x1="215.79" y1="241.67" x2="286.49" y2="229.1"/><line class="cls-4" x1="236.58" y1="265.37" x2="306.8" y2="251.89"/><polygon class="cls-1" points="235.48 265.06 166.56 251.88 169.56 248.79 169.59 248.79 197.24 220.53 199.53 223.2 235.48 265.06"/><line class="cls-4" x1="210" y1="235.39" x2="166.56" y2="251.88"/></g></g></svg>