<svg xmlns="http://www.w3.org/2000/svg" viewBox="0 0 326.03 196.47"><defs><style>.cls-1{fill:#dfdfdf;}.cls-1,.cls-2,.cls-4{stroke:#231f20;stroke-miterlimit:10;}.cls-1,.cls-2,.cls-3,.cls-4{stroke-width:1.58px;}.cls-2{fill:#f3959f;}.cls-3,.cls-4{fill:none;}.cls-3{stroke:#000;stroke-linecap:round;stroke-linejoin:round;}</style></defs><g id="Layer_2" data-name="Layer 2"><g id="Layer_1-2" data-name="Layer 1"><polygon class="cls-1" points="155.97 114.63 155.97 164.62 83.27 195.28 83.27 133.37 155.97 114.63"/><polygon class="cls-1" points="83.27 133.37 83.27 195.28 0.79 166.06 0.79 111.68 83.27 133.37"/><path class="cls-2" d="M134.41,38.75,115.47,17.51v-.45L42,25.58V12.64l73.44-7.82V3.22L111.3.81,38.21,9.08V26.25L.79,62.91v48.77l82.48,21.69L156,114.63V62.91ZM7.29,62.91l3.18-3.27h0l29.32-30,40.53,47.2Z"/><polygon class="cls-3" points="80.35 76.88 7.29 62.91 10.47 59.64 10.5 59.64 39.82 29.68 80.35 76.88"/><polygon class="cls-1" points="115.47 4.82 115.47 17.06 42.03 25.58 42.03 12.64 115.47 4.82"/><polyline class="cls-2" points="39.82 29.68 81.97 77.72 83.27 133.37"/><polygon class="cls-1" points="115.47 4.82 115.47 17.06 42.03 25.58 42.03 12.64 115.47 4.82"/><line class="cls-4" x1="59.48" y1="52.09" x2="134.42" y2="38.77"/><line class="cls-4" x1="81.52" y1="77.21" x2="155.96" y2="62.92"/><polygon class="cls-1" points="80.35 76.88 7.29 62.91 10.47 59.64 10.5 59.64 39.82 29.68 42.24 32.51 80.35 76.88"/><line class="cls-4" x1="53.34" y1="45.43" x2="7.29" y2="62.91"/><polygon class="cls-1" points="325.25 114.63 325.25 164.62 252.54 195.28 252.54 133.37 325.25 114.63"/><polygon class="cls-1" points="252.54 133.37 252.54 195.28 170.06 166.06 170.06 111.68 252.54 133.37"/><path class="cls-2" d="M303.68,38.75,284.74,17.51v-.45L211.3,25.58V12.64l73.44-7.82V3.22L280.58.81,207.49,9.08V26.25L170.06,62.91v48.77l82.48,21.69,72.71-18.74V62.91ZM176.57,62.91l3.17-3.27h0l29.32-30,40.54,47.2Z"/><polygon class="cls-3" points="249.63 76.88 176.57 62.91 179.74 59.64 179.77 59.64 209.09 29.68 249.63 76.88"/><polygon class="cls-1" points="284.74 4.82 284.74 17.06 211.3 25.58 211.3 12.64 284.74 4.82"/><polyline class="cls-2" points="209.09 29.68 251.24 77.72 252.54 133.37"/><polygon class="cls-1" points="284.74 4.82 284.74 17.06 211.3 25.58 211.3 12.64 284.74 4.82"/><line class="cls-4" x1="228.75" y1="52.09" x2="303.7" y2="38.77"/><line class="cls-4" x1="250.79" y1="77.21" x2="325.24" y2="62.92"/><polygon class="cls-1" points="249.63 76.88 176.57 62.91 179.74 59.64 179.77 59.64 209.09 29.68 211.52 32.51 249.63 76.88"/><line class="cls-4" x1="222.61" y1="45.43" x2="176.57" y2="62.91"/></g></g></svg>