<svg xmlns="http://www.w3.org/2000/svg" viewBox="0 0 332.86 360.38"><defs><style>.cls-1{fill:#cae9f2;stroke-width:1.72px;}.cls-1,.cls-3,.cls-4,.cls-6{stroke:#231f20;stroke-miterlimit:10;}.cls-2{fill:#231f20;}.cls-3{fill:#dfdfdf;}.cls-3,.cls-4,.cls-5,.cls-6{stroke-width:1.58px;}.cls-4{fill:#f3959f;}.cls-5,.cls-6{fill:none;}.cls-5{stroke:#000;stroke-linecap:round;stroke-linejoin:round;}</style></defs><g id="Layer_2" data-name="Layer 2"><g id="Layer_1-2" data-name="Layer 1"><path class="cls-1" d="M129.77,244.11a5.75,5.75,0,0,1-4.77-5.66c0-.17,0-.35,0-.54a6,6,0,0,0-1.45-4.43c-3.12-3.54-11.34-9.38-31.23-8.59,0,0-33.53-1.86-49.18-8.38S2.07,212.7,1,219c3.91,2.37,6.56,6.42,8.12,10.71a60.87,60.87,0,0,1,2.69,13.41q5.67,46,11.35,92c.16,1.23.3,2.46.46,3.69a21.44,21.44,0,0,0,10.47,16c5.76,3.3,12.57,4.16,19.19,4.48,11.75.56,41.56.49,50.48-8.7,1.76-1.81,2.05-9.87,2.05-9.87l.41-.21,0,0c.51-.25,1.42-.71,2.63-1.38,0,0,0,0,.06,0,9-5,34.9-21.17,42.49-46C158.65,269.34,159.2,249.31,129.77,244.11Zm-4.33,70.13c-9.68,6.95-13.66-4.47-13.66-4.47l9-46.45c7-10.68,22.1-5.21,23.35,7.21S135.13,307.29,125.44,314.24Z"/><path class="cls-2" d="M103.39,230.29a21.31,21.31,0,0,1,7.94.61,9.35,9.35,0,0,1,3.64,1.83,2.67,2.67,0,0,1,1,2,1.59,1.59,0,0,1-.19.63,1.52,1.52,0,0,1-.52.45c-.3.18-.6.33-.9.49-1.22.58-2.43,1.1-3.71,1.58s-2.6.67-3.91,1-2.61.54-3.92.82-2.63.42-3.95.64a84.84,84.84,0,0,1-16,.7A96.48,96.48,0,0,1,67,238.84a127.63,127.63,0,0,1-15.36-4.53c-5-1.81-9.91-4-14.71-6.2a125.59,125.59,0,0,0-14.67-6,47.33,47.33,0,0,0-15.57-2.55,45.3,45.3,0,0,1,15.81,1.74,125.63,125.63,0,0,1,15,5.57,160.76,160.76,0,0,0,29.9,10.26A93.69,93.69,0,0,0,98.71,239c1.3-.17,2.61-.31,3.91-.52s2.6-.43,3.9-.69,2.61-.55,3.82-.85,2.47-.92,3.66-1.43c.3-.14.6-.27.86-.42a1.37,1.37,0,0,0,.26-.16.66.66,0,0,0,.12-.3,2,2,0,0,0-.72-1.46,8.73,8.73,0,0,0-3.33-1.87,19.77,19.77,0,0,0-3.84-.85A21.81,21.81,0,0,0,103.39,230.29Z"/><path class="cls-2" d="M115.78,244.81a20.3,20.3,0,0,1,.09,3.2c0,1-.1,2.07-.2,3.1s-.23,2-.41,3.08a19.91,19.91,0,0,1-.72,3.11,12.11,12.11,0,0,1-.62-3.17,18.46,18.46,0,0,1,.63-6.33A12.49,12.49,0,0,1,115.78,244.81Z"/><path class="cls-2" d="M106.16,315.88c-.5,1.5-1,2.94-1.29,4.39a32.27,32.27,0,0,0-.81,8.83c.07,1.49.25,3,.46,4.55a12.47,12.47,0,0,1-1.79-4.38,15.9,15.9,0,0,1-.29-4.77,16.45,16.45,0,0,1,1.15-4.64A12.66,12.66,0,0,1,106.16,315.88Z"/><path class="cls-2" d="M30,252.18a162.55,162.55,0,0,0,28.73,4.47,162.57,162.57,0,0,0,29.07-.95,93.84,93.84,0,0,1-29.17,2.66A94,94,0,0,1,30,252.18Z"/><path class="cls-2" d="M31.58,275.77c9.4,1.35,18.68,3.2,28.05,4a92.7,92.7,0,0,0,28.09-1.33,53.75,53.75,0,0,1-13.93,3.08,79.53,79.53,0,0,1-14.31,0A147.46,147.46,0,0,1,31.58,275.77Z"/><path class="cls-2" d="M32.55,300a116.32,116.32,0,0,0,28.54,5.07A116.68,116.68,0,0,0,90,302.76a76.64,76.64,0,0,1-29,4.05A76.61,76.61,0,0,1,32.55,300Z"/><path class="cls-2" d="M33.56,324.05a226,226,0,0,0,26.73,3.07,228,228,0,0,0,26.9-.33,103.1,103.1,0,0,1-27,2A103.79,103.79,0,0,1,33.56,324.05Z"/><path class="cls-2" d="M23,335a37.84,37.84,0,0,0,9.23,6.4c.84.4,1.66.86,2.52,1.23l2.58,1.09c1.77.61,3.51,1.28,5.33,1.71s3.63.85,5.46,1.22c.9.22,1.84.29,2.76.42l2.78.35c1.86.07,3.72.27,5.58.29s3.74,0,5.6-.12,3.73-.26,5.59-.45l5.61-.66q5.61-.7,11.18-1.59t11.08-2.16c1.83-.41,3.65-.91,5.44-1.46a24.43,24.43,0,0,0,5.2-2.17,21.69,21.69,0,0,1-5,2.6c-1.77.68-3.57,1.3-5.39,1.84-3.64,1.05-7.33,1.92-11,2.66s-7.46,1.32-11.2,1.89l-5.63.72c-1.89.2-3.8.33-5.7.49s-3.81.05-5.72.08-3.81-.22-5.72-.35a60.27,60.27,0,0,1-11.2-2.34,49.21,49.21,0,0,1-10.47-4.56A35.2,35.2,0,0,1,23,335Z"/><path class="cls-1" d="M306.22,244.11a5.73,5.73,0,0,1-4.77-5.66c0-.17,0-.35,0-.54a6,6,0,0,0-1.44-4.43c-3.13-3.54-11.34-9.38-31.23-8.59,0,0-33.53-1.86-49.18-8.38S178.51,212.7,177.4,219c3.9,2.37,6.55,6.42,8.12,10.71a60.87,60.87,0,0,1,2.69,13.41q5.65,46,11.35,92l.45,3.69a21.45,21.45,0,0,0,10.48,16c5.76,3.3,12.56,4.16,19.18,4.48,11.76.56,41.57.49,50.49-8.7,1.75-1.81,2-9.87,2-9.87l.42-.21.05,0c.51-.25,1.41-.71,2.62-1.38l.06,0c9-5,34.9-21.17,42.49-46C335.09,269.34,335.64,249.31,306.22,244.11Zm-4.33,70.13c-9.68,6.95-13.66-4.47-13.66-4.47l8.94-46.45c7-10.68,22.1-5.21,23.35,7.21S311.58,307.29,301.89,314.24Z"/><path class="cls-2" d="M279.84,230.29a21.32,21.32,0,0,1,7.94.61,9.41,9.41,0,0,1,3.64,1.83,2.7,2.7,0,0,1,1,2,1.59,1.59,0,0,1-.19.63,1.62,1.62,0,0,1-.52.45c-.31.18-.61.33-.91.49-1.22.58-2.43,1.1-3.7,1.58s-2.6.67-3.91,1-2.61.54-3.92.82-2.64.42-3.95.64a85,85,0,0,1-16,.7,96.63,96.63,0,0,1-15.88-2.2,127.48,127.48,0,0,1-15.35-4.53c-5-1.81-9.92-4-14.71-6.2a125.73,125.73,0,0,0-14.68-6,47.24,47.24,0,0,0-15.57-2.55,45.27,45.27,0,0,1,15.81,1.74,124.35,124.35,0,0,1,15,5.57,160.86,160.86,0,0,0,29.91,10.26A93.64,93.64,0,0,0,275.15,239c1.31-.17,2.62-.31,3.92-.52s2.6-.43,3.89-.69,2.62-.55,3.83-.85,2.46-.92,3.66-1.43c.29-.14.59-.27.86-.42a1.93,1.93,0,0,0,.26-.16.77.77,0,0,0,.11-.3,2.07,2.07,0,0,0-.71-1.46,8.88,8.88,0,0,0-3.33-1.87,19.94,19.94,0,0,0-3.84-.85A21.86,21.86,0,0,0,279.84,230.29Z"/><path class="cls-2" d="M292.23,244.81a21.57,21.57,0,0,1,.09,3.2c0,1-.1,2.07-.2,3.1s-.23,2-.41,3.08a21.11,21.11,0,0,1-.72,3.11,11.35,11.35,0,0,1-.62-3.17,18.46,18.46,0,0,1,.63-6.33A12.09,12.09,0,0,1,292.23,244.81Z"/><path class="cls-2" d="M282.61,315.88c-.51,1.5-.95,2.94-1.3,4.39a32.27,32.27,0,0,0-.81,8.83c.07,1.49.25,3,.47,4.55a12.31,12.31,0,0,1-1.8-4.38,15.91,15.91,0,0,1,.87-9.41A12.32,12.32,0,0,1,282.61,315.88Z"/><path class="cls-2" d="M206.43,252.18a155.69,155.69,0,0,0,57.79,3.52,96.83,96.83,0,0,1-57.79-3.52Z"/><path class="cls-2" d="M208,275.77c9.4,1.35,18.68,3.2,28.06,4a92.64,92.64,0,0,0,28.08-1.33,53.76,53.76,0,0,1-13.92,3.08,79.64,79.64,0,0,1-14.32,0A147.62,147.62,0,0,1,208,275.77Z"/><path class="cls-2" d="M209,300a113.26,113.26,0,0,0,57.43,2.73A78.93,78.93,0,0,1,209,300Z"/><path class="cls-2" d="M210,324.05a226.06,226.06,0,0,0,26.72,3.07,228,228,0,0,0,26.9-.33A106.93,106.93,0,0,1,210,324.05Z"/><path class="cls-2" d="M199.44,335a37.78,37.78,0,0,0,9.22,6.4c.85.4,1.67.86,2.52,1.23l2.59,1.09a55.09,55.09,0,0,0,5.33,1.71c1.79.53,3.63.85,5.45,1.22.91.22,1.84.29,2.77.42l2.77.35c1.87.07,3.72.27,5.59.29s3.74,0,5.6-.12,3.72-.26,5.59-.45l5.61-.66q5.61-.7,11.18-1.59t11.07-2.16c1.84-.41,3.65-.91,5.45-1.46a24.35,24.35,0,0,0,5.19-2.17,21.3,21.3,0,0,1-5,2.6c-1.77.68-3.56,1.3-5.38,1.84-3.65,1.05-7.34,1.92-11.06,2.66s-7.45,1.32-11.2,1.89l-5.63.72c-1.88.2-3.79.33-5.69.49s-3.82.05-5.72.08-3.82-.22-5.72-.35a60.1,60.1,0,0,1-11.2-2.34,49,49,0,0,1-10.47-4.56A35,35,0,0,1,199.44,335Z"/><polygon class="cls-3" points="159.43 114.63 159.43 164.62 86.72 195.28 86.72 133.37 159.43 114.63"/><polygon class="cls-3" points="86.72 133.37 86.72 195.28 4.25 166.06 4.25 111.68 86.72 133.37"/><path class="cls-4" d="M137.86,38.75,118.93,17.51v-.45L45.48,25.58V12.64l73.45-7.82V3.22L114.76.81,41.67,9.08V26.25L4.25,62.91v48.77l82.47,21.69,72.71-18.74V62.91ZM10.75,62.91l3.17-3.27h0l29.32-30,40.54,47.2Z"/><polygon class="cls-5" points="83.81 76.88 10.75 62.91 13.92 59.64 13.96 59.64 43.27 29.68 83.81 76.88"/><polygon class="cls-3" points="118.93 4.82 118.93 17.06 45.48 25.58 45.48 12.64 118.93 4.82"/><polyline class="cls-4" points="43.27 29.68 85.43 77.72 86.72 133.37"/><polygon class="cls-3" points="118.93 4.82 118.93 17.06 45.48 25.58 45.48 12.64 118.93 4.82"/><line class="cls-6" x1="62.93" y1="52.09" x2="137.88" y2="38.77"/><line class="cls-6" x1="84.97" y1="77.21" x2="159.42" y2="62.92"/><polygon class="cls-3" points="83.81 76.88 10.75 62.91 13.92 59.64 13.96 59.64 43.27 29.68 45.7 32.51 83.81 76.88"/><line class="cls-6" x1="56.8" y1="45.43" x2="10.75" y2="62.91"/><polygon class="cls-3" points="328.7 114.63 328.7 164.62 256 195.28 256 133.37 328.7 114.63"/><polygon class="cls-3" points="256 133.37 256 195.28 173.52 166.06 173.52 111.68 256 133.37"/><path class="cls-4" d="M307.14,38.75,288.2,17.51v-.45l-73.44,8.52V12.64L288.2,4.82V3.22L284,.81l-73.1,8.27V26.25L173.52,62.91v48.77L256,133.37l72.7-18.74V62.91ZM180,62.91l3.17-3.27h0l29.32-30,40.53,47.2Z"/><polygon class="cls-5" points="253.08 76.88 180.03 62.91 183.2 59.64 183.23 59.64 212.55 29.68 253.08 76.88"/><polygon class="cls-3" points="288.2 4.82 288.2 17.06 214.76 25.58 214.76 12.64 288.2 4.82"/><polyline class="cls-4" points="212.55 29.68 254.7 77.72 256 133.37"/><polygon class="cls-3" points="288.2 4.82 288.2 17.06 214.76 25.58 214.76 12.64 288.2 4.82"/><line class="cls-6" x1="232.21" y1="52.09" x2="307.15" y2="38.77"/><line class="cls-6" x1="254.25" y1="77.21" x2="328.69" y2="62.92"/><polygon class="cls-3" points="253.08 76.88 180.03 62.91 183.2 59.64 183.23 59.64 212.55 29.68 214.97 32.51 253.08 76.88"/><line class="cls-6" x1="226.07" y1="45.43" x2="180.03" y2="62.91"/></g></g></svg>