<svg xmlns="http://www.w3.org/2000/svg" viewBox="0 0 326.03 360.38"><defs><style>.cls-1{fill:#cae9f2;stroke-width:1.72px;}.cls-1,.cls-3,.cls-4,.cls-6{stroke:#231f20;stroke-miterlimit:10;}.cls-2{fill:#231f20;}.cls-3{fill:#dfdfdf;}.cls-3,.cls-4,.cls-5,.cls-6{stroke-width:1.58px;}.cls-4{fill:#f3959f;}.cls-5,.cls-6{fill:none;}.cls-5{stroke:#000;stroke-linecap:round;stroke-linejoin:round;}</style></defs><g id="Layer_2" data-name="Layer 2"><g id="Layer_1-2" data-name="Layer 1"><path class="cls-1" d="M214.54,244.11a5.73,5.73,0,0,1-4.77-5.66c0-.17,0-.35,0-.54a6,6,0,0,0-1.44-4.43c-3.13-3.54-11.34-9.38-31.23-8.59,0,0-33.53-1.86-49.18-8.38S86.83,212.7,85.72,219c3.9,2.37,6.55,6.42,8.12,10.71a60.87,60.87,0,0,1,2.69,13.41q5.66,46,11.35,92l.45,3.69a21.45,21.45,0,0,0,10.48,16c5.75,3.3,12.56,4.16,19.18,4.48,11.76.56,41.57.49,50.49-8.7,1.75-1.81,2-9.87,2-9.87l.42-.21.05,0c.51-.25,1.41-.71,2.62-1.38l.06,0c9-5,34.9-21.17,42.49-46C243.41,269.34,244,249.31,214.54,244.11Zm-4.33,70.13c-9.68,6.95-13.66-4.47-13.66-4.47l8.94-46.45c7-10.68,22.1-5.21,23.35,7.21S219.9,307.29,210.21,314.24Z"/><path class="cls-2" d="M188.16,230.29a21.32,21.32,0,0,1,7.94.61,9.41,9.41,0,0,1,3.64,1.83,2.7,2.7,0,0,1,1,2,1.59,1.59,0,0,1-.19.63,1.62,1.62,0,0,1-.52.45c-.31.18-.61.33-.91.49-1.22.58-2.43,1.1-3.7,1.58s-2.6.67-3.91,1-2.61.54-3.92.82-2.64.42-4,.64a85,85,0,0,1-16,.7,96.63,96.63,0,0,1-15.88-2.2,127.48,127.48,0,0,1-15.35-4.53c-5-1.81-9.92-4-14.71-6.2a125.73,125.73,0,0,0-14.68-6,47.24,47.24,0,0,0-15.57-2.55,45.27,45.27,0,0,1,15.81,1.74,124.35,124.35,0,0,1,15,5.57,160.86,160.86,0,0,0,29.91,10.26A93.64,93.64,0,0,0,183.47,239c1.31-.17,2.62-.31,3.92-.52s2.6-.43,3.89-.69,2.62-.55,3.83-.85,2.46-.92,3.66-1.43c.29-.14.59-.27.86-.42a1.93,1.93,0,0,0,.26-.16.77.77,0,0,0,.11-.3,2.07,2.07,0,0,0-.71-1.46,8.88,8.88,0,0,0-3.33-1.87,19.94,19.94,0,0,0-3.84-.85A21.86,21.86,0,0,0,188.16,230.29Z"/><path class="cls-2" d="M200.55,244.81a21.57,21.57,0,0,1,.09,3.2c0,1-.1,2.07-.2,3.1s-.23,2-.41,3.08a21.11,21.11,0,0,1-.72,3.11,11.35,11.35,0,0,1-.62-3.17,18.46,18.46,0,0,1,.63-6.33A12.09,12.09,0,0,1,200.55,244.81Z"/><path class="cls-2" d="M190.93,315.88c-.51,1.5-1,2.94-1.3,4.39a32.27,32.27,0,0,0-.81,8.83c.07,1.49.25,3,.47,4.55a12.31,12.31,0,0,1-1.8-4.38,15.91,15.91,0,0,1,.87-9.41A12.32,12.32,0,0,1,190.93,315.88Z"/><path class="cls-2" d="M114.75,252.18a155.69,155.69,0,0,0,57.79,3.52,96.83,96.83,0,0,1-57.79-3.52Z"/><path class="cls-2" d="M116.34,275.77c9.4,1.35,18.68,3.2,28.06,4a92.64,92.64,0,0,0,28.08-1.33,53.76,53.76,0,0,1-13.92,3.08,79.64,79.64,0,0,1-14.32,0A147.62,147.62,0,0,1,116.34,275.77Z"/><path class="cls-2" d="M117.32,300a113.26,113.26,0,0,0,57.43,2.73A78.93,78.93,0,0,1,117.32,300Z"/><path class="cls-2" d="M118.33,324.05a226.06,226.06,0,0,0,26.72,3.07,228,228,0,0,0,26.9-.33,106.93,106.93,0,0,1-53.62-2.74Z"/><path class="cls-2" d="M107.76,335a37.78,37.78,0,0,0,9.22,6.4c.85.4,1.66.86,2.52,1.23l2.59,1.09a55.09,55.09,0,0,0,5.33,1.71c1.79.53,3.63.85,5.45,1.22.91.22,1.84.29,2.77.42l2.77.35c1.87.07,3.72.27,5.59.29s3.74,0,5.6-.12,3.72-.26,5.59-.45l5.61-.66q5.61-.7,11.18-1.59t11.07-2.16c1.84-.41,3.65-.91,5.45-1.46a24.35,24.35,0,0,0,5.19-2.17,21.3,21.3,0,0,1-5,2.6c-1.77.68-3.56,1.3-5.38,1.84-3.65,1.05-7.34,1.92-11.06,2.66s-7.45,1.32-11.2,1.89l-5.63.72c-1.88.2-3.79.33-5.69.49s-3.82.05-5.72.08-3.82-.22-5.72-.35a60.1,60.1,0,0,1-11.2-2.34,49,49,0,0,1-10.47-4.56A35,35,0,0,1,107.76,335Z"/><polygon class="cls-3" points="155.97 114.63 155.97 164.62 83.27 195.28 83.27 133.37 155.97 114.63"/><polygon class="cls-3" points="83.27 133.37 83.27 195.28 0.79 166.06 0.79 111.68 83.27 133.37"/><path class="cls-4" d="M134.41,38.75,115.47,17.51v-.45L42,25.58V12.64l73.44-7.82V3.22L111.3.81,38.21,9.08V26.25L.79,62.91v48.77l82.48,21.69L156,114.63V62.91ZM7.29,62.91l3.18-3.27h0l29.32-30,40.53,47.2Z"/><polygon class="cls-5" points="80.35 76.88 7.29 62.91 10.47 59.64 10.5 59.64 39.82 29.68 80.35 76.88"/><polygon class="cls-3" points="115.47 4.82 115.47 17.06 42.03 25.58 42.03 12.64 115.47 4.82"/><polyline class="cls-4" points="39.82 29.68 81.97 77.72 83.27 133.37"/><polygon class="cls-3" points="115.47 4.82 115.47 17.06 42.03 25.58 42.03 12.64 115.47 4.82"/><line class="cls-6" x1="59.48" y1="52.09" x2="134.42" y2="38.77"/><line class="cls-6" x1="81.52" y1="77.21" x2="155.96" y2="62.92"/><polygon class="cls-3" points="80.35 76.88 7.29 62.91 10.47 59.64 10.5 59.64 39.82 29.68 42.24 32.51 80.35 76.88"/><line class="cls-6" x1="53.34" y1="45.43" x2="7.29" y2="62.91"/><polygon class="cls-3" points="325.25 114.63 325.25 164.62 252.54 195.28 252.54 133.37 325.25 114.63"/><polygon class="cls-3" points="252.54 133.37 252.54 195.28 170.06 166.06 170.06 111.68 252.54 133.37"/><path class="cls-4" d="M303.68,38.75,284.74,17.51v-.45L211.3,25.58V12.64l73.44-7.82V3.22L280.58.81,207.49,9.08V26.25L170.06,62.91v48.77l82.48,21.69,72.71-18.74V62.91ZM176.57,62.91l3.17-3.27h0l29.32-30,40.54,47.2Z"/><polygon class="cls-5" points="249.63 76.88 176.57 62.91 179.74 59.64 179.77 59.64 209.09 29.68 249.63 76.88"/><polygon class="cls-3" points="284.74 4.82 284.74 17.06 211.3 25.58 211.3 12.64 284.74 4.82"/><polyline class="cls-4" points="209.09 29.68 251.24 77.72 252.54 133.37"/><polygon class="cls-3" points="284.74 4.82 284.74 17.06 211.3 25.58 211.3 12.64 284.74 4.82"/><line class="cls-6" x1="228.75" y1="52.09" x2="303.7" y2="38.77"/><line class="cls-6" x1="250.79" y1="77.21" x2="325.24" y2="62.92"/><polygon class="cls-3" points="249.63 76.88 176.57 62.91 179.74 59.64 179.77 59.64 209.09 29.68 211.52 32.51 249.63 76.88"/><line class="cls-6" x1="222.61" y1="45.43" x2="176.57" y2="62.91"/></g></g></svg>