<svg xmlns="http://www.w3.org/2000/svg" viewBox="0 0 313.37 349.82"><defs><style>.cls-1,.cls-3,.cls-6{fill:#dfdfdf;}.cls-1,.cls-2,.cls-5,.cls-6,.cls-7,.cls-9{stroke:#231f20;stroke-miterlimit:10;}.cls-1,.cls-2,.cls-5{stroke-width:1.74px;}.cls-2,.cls-7{fill:#f3959f;}.cls-4{fill:#231f20;}.cls-5,.cls-8,.cls-9{fill:none;}.cls-6,.cls-7,.cls-8,.cls-9{stroke-width:1.37px;}.cls-8{stroke:#000;stroke-linecap:round;stroke-linejoin:round;}</style></defs><g id="Layer_2" data-name="Layer 2"><g id="Layer_1-2" data-name="Layer 1"><polygon class="cls-1" points="145.26 265.28 145.26 290.51 78.2 332.12 78.2 300.37 145.26 265.28"/><polygon class="cls-1" points="145.26 83.14 145.26 132.71 78.2 149.76 78.2 97.52 145.26 83.14"/><polygon class="cls-2" points="145.26 132.71 145.26 265.28 78.2 300.37 78.2 149.76 145.26 132.71"/><polygon class="cls-1" points="78.2 300.37 78.2 332.12 1.8 293.01 1.8 263.95 78.2 300.37"/><polygon class="cls-2" points="78.2 149.76 78.2 300.37 1.8 263.95 1.8 129.71 78.2 149.76"/><polygon class="cls-1" points="78.2 97.52 78.2 149.76 1.8 129.71 1.8 83.47 78.2 97.52"/><polygon class="cls-1" points="1.8 83.48 36.16 49.89 36.16 34.35 108.67 27.22 108.06 41.7 146.09 83.31 78.39 98.13 1.8 83.48"/><polyline class="cls-3" points="126.24 61.98 58.74 74.12 56.96 76.35"/><polygon class="cls-4" points="126.24 61.98 58.89 74.94 59.39 74.64 57.64 76.89 56.28 75.81 58.09 73.6 58.29 73.35 58.59 73.3 126.24 61.98"/><path class="cls-4" d="M49.4,67.66C46,69,42.53,70.3,39.09,71.6s-6.87,2.61-10.33,3.87L8.06,83.08,7.43,81.7h0l-.16.12L22.12,67.1,37,52.47l.65-.64.58.69q9.16,10.9,18.2,21.9c3,3.67,6.06,7.31,9,11s6,7.36,8.94,11.08C71.23,93,68.1,89.42,65,85.87s-6.25-7.14-9.37-10.71Q46.21,64.44,37,53.61l1.23,0L23.32,68.32l-15,14.57L8.29,83,8.2,83h0l-.63-1.37,20.89-7.1c3.48-1.19,7-2.32,10.47-3.47S45.89,68.77,49.4,67.66Z"/><path class="cls-4" d="M41.28,53.62c6.36,6.41,12.32,13.16,18.18,20S71,87.43,76.31,94.73C70,88.33,64,81.58,58.13,74.74S46.6,60.92,41.28,53.62Z"/><polyline class="cls-3" points="108.67 29.45 40.06 37.25 40.06 49.72 108.06 41.7"/><path class="cls-4" d="M108.67,29.45c-5.7.83-11.4,1.56-17.11,2.34L74.44,34l-8.57,1.09-8.57,1-17.15,2,.75-.84q0,6.24,0,12.47L40,48.89,57,47l8.5-1,8.52-.9,17-1.77c5.69-.54,11.36-1.13,17-1.62-5.65.85-11.3,1.6-17,2.4l-17,2.24-8.49,1.11-8.49,1-17,2.07-.94.12v-1q0-6.22,0-12.47v-.76l.74-.08,17.16-1.88,8.58-.94,8.59-.87L91.47,31C97.21,30.49,102.93,29.92,108.67,29.45Z"/><line class="cls-5" x1="36.16" y1="34.35" x2="40.06" y2="37.25"/><polygon class="cls-6" points="312.69 278.72 312.69 322.15 249.53 348.79 249.53 295.01 312.69 278.72"/><polygon class="cls-6" points="249.53 295.01 249.53 348.79 177.88 323.4 177.88 276.16 249.53 295.01"/><path class="cls-7" d="M294,212.81,277.5,194.35V194l-63.8,7.41V190.12l63.8-6.79v-1.39l-3.61-2.09L210.39,187V202L177.88,233.8v42.36L249.53,295l63.16-16.29V233.8Zm-110.43,21,2.76-2.84h0l25.47-26,35.22,41Z"/><polygon class="cls-8" points="247 245.93 183.53 233.8 186.29 230.96 186.31 230.96 211.78 204.93 247 245.93"/><polygon class="cls-6" points="277.5 183.33 277.5 193.96 213.7 201.37 213.7 190.12 277.5 183.33"/><polyline class="cls-7" points="211.78 204.93 248.4 246.66 249.53 295.01"/><polygon class="cls-6" points="277.5 183.33 277.5 193.96 213.7 201.37 213.7 190.12 277.5 183.33"/><line class="cls-9" x1="228.86" y1="224.4" x2="293.97" y2="212.82"/><line class="cls-9" x1="248.01" y1="246.22" x2="312.68" y2="233.8"/><polygon class="cls-6" points="247 245.93 183.53 233.8 186.29 230.96 186.31 230.96 211.78 204.93 213.89 207.38 247 245.93"/><line class="cls-9" x1="223.53" y1="218.61" x2="183.53" y2="233.8"/><polygon class="cls-6" points="312.69 99.58 312.69 143 249.53 169.64 249.53 115.86 312.69 99.58"/><polygon class="cls-6" points="249.53 115.86 249.53 169.64 177.88 144.26 177.88 97.02 249.53 115.86"/><path class="cls-7" d="M294,33.66,277.5,15.21v-.39l-63.8,7.4V11l63.8-6.79V2.79L273.89.71l-63.5,7.18V22.81L177.88,54.65V97l71.65,18.84,63.16-16.28V54.65Zm-110.43,21,2.76-2.84h0l25.47-26,35.22,41Z"/><polygon class="cls-8" points="247 66.79 183.53 54.65 186.29 51.81 186.31 51.81 211.78 25.79 247 66.79"/><polygon class="cls-6" points="277.5 4.19 277.5 14.82 213.7 22.22 213.7 10.98 277.5 4.19"/><polyline class="cls-7" points="211.78 25.79 248.4 67.52 249.53 115.86"/><polygon class="cls-6" points="277.5 4.19 277.5 14.82 213.7 22.22 213.7 10.98 277.5 4.19"/><line class="cls-9" x1="228.86" y1="45.25" x2="293.97" y2="33.68"/><line class="cls-9" x1="248.01" y1="67.07" x2="312.68" y2="54.66"/><polygon class="cls-6" points="247 66.79 183.53 54.65 186.29 51.81 186.31 51.81 211.78 25.79 213.89 28.24 247 66.79"/><line class="cls-9" x1="223.53" y1="39.47" x2="183.53" y2="54.65"/></g></g></svg>