<svg xmlns="http://www.w3.org/2000/svg" viewBox="0 0 332.86 148.49"><defs><style>.cls-1{fill:#cae9f2;stroke:#231f20;stroke-miterlimit:10;stroke-width:1.72px;}.cls-2{fill:#231f20;}</style></defs><g id="Layer_2" data-name="Layer 2"><g id="Layer_1-2" data-name="Layer 1"><path class="cls-1" d="M129.77,32.22A5.75,5.75,0,0,1,125,26.56c0-.17,0-.35,0-.54a6,6,0,0,0-1.45-4.44c-3.12-3.53-11.34-9.37-31.23-8.58,0,0-33.53-1.86-49.18-8.39S2.07.81,1,7.14c3.91,2.38,6.56,6.42,8.12,10.72s2.13,8.87,2.69,13.41q5.67,46,11.35,92c.16,1.23.3,2.46.46,3.69A21.46,21.46,0,0,0,34,143c5.76,3.3,12.57,4.16,19.19,4.48,11.75.56,41.56.49,50.48-8.7,1.76-1.81,2.05-9.88,2.05-9.88l.41-.2,0,0c.51-.25,1.42-.71,2.63-1.38l.06,0c9-5,34.9-21.16,42.49-46C158.65,57.45,159.2,37.42,129.77,32.22Zm-4.33,70.13c-9.68,7-13.66-4.47-13.66-4.47l9-46.45c7-10.68,22.1-5.21,23.35,7.21S135.13,95.39,125.44,102.35Z"/><path class="cls-2" d="M103.39,18.4a21.1,21.1,0,0,1,7.94.61A9.21,9.21,0,0,1,115,20.84a2.67,2.67,0,0,1,1,2,1.5,1.5,0,0,1-.19.63,1.42,1.42,0,0,1-.52.45,10,10,0,0,1-.9.49c-1.22.59-2.43,1.11-3.71,1.59s-2.6.66-3.91,1-2.61.54-3.92.81-2.63.43-3.95.65a84.84,84.84,0,0,1-16,.7A96.48,96.48,0,0,1,67,27a129.48,129.48,0,0,1-15.36-4.53c-5-1.81-9.91-4-14.71-6.21a125.53,125.53,0,0,0-14.67-6A47.33,47.33,0,0,0,6.67,7.7,45.3,45.3,0,0,1,22.48,9.44a125.57,125.57,0,0,1,15,5.56,160.07,160.07,0,0,0,29.9,10.27,94,94,0,0,0,31.36,1.87c1.3-.18,2.61-.31,3.91-.52s2.6-.43,3.9-.69,2.61-.56,3.82-.85,2.47-.92,3.66-1.44a8.58,8.58,0,0,0,.86-.41,1.37,1.37,0,0,0,.26-.16.66.66,0,0,0,.12-.3,2.08,2.08,0,0,0-.72-1.47,8.71,8.71,0,0,0-3.33-1.86,19.07,19.07,0,0,0-3.84-.85A21.81,21.81,0,0,0,103.39,18.4Z"/><path class="cls-2" d="M115.78,32.92a20.2,20.2,0,0,1,.09,3.19c0,1-.1,2.08-.2,3.1s-.23,2.06-.41,3.08a20,20,0,0,1-.72,3.12,12.19,12.19,0,0,1-.62-3.17,18,18,0,0,1,0-3.2,17.62,17.62,0,0,1,.59-3.13A12.49,12.49,0,0,1,115.78,32.92Z"/><path class="cls-2" d="M106.16,104c-.5,1.5-1,2.93-1.29,4.39a32.15,32.15,0,0,0-.81,8.82c.07,1.5.25,3,.46,4.56a12.47,12.47,0,0,1-1.79-4.38,15.92,15.92,0,0,1-.29-4.77A16.19,16.19,0,0,1,103.6,108,12.42,12.42,0,0,1,106.16,104Z"/><path class="cls-2" d="M30,40.29a161.75,161.75,0,0,0,28.73,4.46,161.63,161.63,0,0,0,29.07-.94,93.84,93.84,0,0,1-29.17,2.66A94,94,0,0,1,30,40.29Z"/><path class="cls-2" d="M31.58,63.88c9.4,1.35,18.68,3.2,28.05,4a93,93,0,0,0,28.09-1.34,53.76,53.76,0,0,1-13.93,3.09,79.53,79.53,0,0,1-14.31,0A147.46,147.46,0,0,1,31.58,63.88Z"/><path class="cls-2" d="M32.55,88.14A115.84,115.84,0,0,0,61.09,93.2,116.19,116.19,0,0,0,90,90.87a76.64,76.64,0,0,1-29,4A76.81,76.81,0,0,1,32.55,88.14Z"/><path class="cls-2" d="M33.56,112.16a230.26,230.26,0,0,0,26.73,3.07,228,228,0,0,0,26.9-.33,103.09,103.09,0,0,1-27,2A103.35,103.35,0,0,1,33.56,112.16Z"/><path class="cls-2" d="M23,123.09a37.84,37.84,0,0,0,9.23,6.4c.84.4,1.66.85,2.52,1.23l2.58,1.09c1.77.6,3.51,1.27,5.33,1.7s3.63.86,5.46,1.23c.9.22,1.84.29,2.76.42l2.78.34c1.86.08,3.72.28,5.58.29s3.74,0,5.6-.12,3.73-.26,5.59-.44l5.61-.67c3.74-.46,7.47-1,11.18-1.58s7.42-1.29,11.08-2.17c1.83-.41,3.65-.9,5.44-1.45a25.51,25.51,0,0,0,5.2-2.17,22.08,22.08,0,0,1-5,2.6c-1.77.68-3.57,1.3-5.39,1.84-3.64,1.05-7.33,1.92-11,2.65s-7.46,1.33-11.2,1.9l-5.63.72c-1.89.2-3.8.33-5.7.49s-3.81.05-5.72.08-3.81-.22-5.72-.35a60.27,60.27,0,0,1-11.2-2.34,49.21,49.21,0,0,1-10.47-4.56A35.2,35.2,0,0,1,23,123.09Z"/><path class="cls-1" d="M306.22,32.22a5.73,5.73,0,0,1-4.77-5.66c0-.17,0-.35,0-.54A6,6,0,0,0,300,21.58c-3.13-3.53-11.34-9.37-31.23-8.58,0,0-33.53-1.86-49.18-8.39S178.51.81,177.4,7.14c3.9,2.38,6.55,6.42,8.12,10.72s2.13,8.87,2.69,13.41q5.65,46,11.35,92l.45,3.69a21.47,21.47,0,0,0,10.48,16c5.76,3.3,12.56,4.16,19.18,4.48,11.76.56,41.57.49,50.49-8.7,1.75-1.81,2-9.88,2-9.88l.42-.2.05,0c.51-.25,1.41-.71,2.62-1.38l.06,0c9-5,34.9-21.16,42.49-46C335.09,57.45,335.64,37.42,306.22,32.22Zm-4.33,70.13c-9.68,7-13.66-4.47-13.66-4.47l8.94-46.45c7-10.68,22.1-5.21,23.35,7.21S311.58,95.39,301.89,102.35Z"/><path class="cls-2" d="M279.84,18.4a21.12,21.12,0,0,1,7.94.61,9.28,9.28,0,0,1,3.64,1.83,2.7,2.7,0,0,1,1,2,1.21,1.21,0,0,1-.71,1.08c-.31.19-.61.34-.91.49-1.21.59-2.43,1.11-3.7,1.59s-2.6.66-3.91,1-2.61.54-3.92.81-2.64.43-3.95.65a85,85,0,0,1-16,.7A96.63,96.63,0,0,1,243.42,27a129.32,129.32,0,0,1-15.35-4.53c-5-1.81-9.92-4-14.71-6.21a125.67,125.67,0,0,0-14.68-6A47.24,47.24,0,0,0,183.11,7.7a45.27,45.27,0,0,1,15.81,1.74,124.3,124.3,0,0,1,15,5.56A160.16,160.16,0,0,0,243.8,25.27a93.9,93.9,0,0,0,31.35,1.87c1.31-.18,2.62-.31,3.92-.52s2.6-.43,3.89-.69,2.62-.56,3.83-.85,2.46-.92,3.66-1.44c.29-.13.59-.26.86-.41a1.93,1.93,0,0,0,.26-.16.77.77,0,0,0,.11-.3A2.11,2.11,0,0,0,291,21.3a8.86,8.86,0,0,0-3.33-1.86,19.22,19.22,0,0,0-3.84-.85A21.86,21.86,0,0,0,279.84,18.4Z"/><path class="cls-2" d="M292.23,32.92a21.48,21.48,0,0,1,.09,3.19c0,1-.1,2.08-.2,3.1s-.23,2.06-.41,3.08a20.08,20.08,0,0,1-.73,3.12,11.77,11.77,0,0,1-.61-3.17,17.1,17.1,0,0,1,0-3.2,16.77,16.77,0,0,1,.59-3.13A12.09,12.09,0,0,1,292.23,32.92Z"/><path class="cls-2" d="M282.61,104c-.51,1.5-.95,2.93-1.3,4.39a32.15,32.15,0,0,0-.81,8.82c.07,1.5.25,3,.47,4.56a12.31,12.31,0,0,1-1.8-4.38A16,16,0,0,1,280,108,12.28,12.28,0,0,1,282.61,104Z"/><path class="cls-2" d="M206.43,40.29a161.61,161.61,0,0,0,28.73,4.46,161.52,161.52,0,0,0,29.06-.94,93.75,93.75,0,0,1-29.16,2.66A93.94,93.94,0,0,1,206.43,40.29Z"/><path class="cls-2" d="M208,63.88c9.4,1.35,18.68,3.2,28.06,4a93,93,0,0,0,28.08-1.34,53.78,53.78,0,0,1-13.92,3.09,79.64,79.64,0,0,1-14.32,0A147.62,147.62,0,0,1,208,63.88Z"/><path class="cls-2" d="M209,88.14a115.67,115.67,0,0,0,28.54,5.06,116.23,116.23,0,0,0,28.89-2.33A78.93,78.93,0,0,1,209,88.14Z"/><path class="cls-2" d="M210,112.16a230.34,230.34,0,0,0,26.72,3.07,228,228,0,0,0,26.9-.33,103,103,0,0,1-27,2A103.28,103.28,0,0,1,210,112.16Z"/><path class="cls-2" d="M199.44,123.09a37.78,37.78,0,0,0,9.22,6.4c.85.4,1.67.85,2.52,1.23l2.59,1.09c1.76.6,3.51,1.27,5.33,1.7s3.63.86,5.45,1.23c.91.22,1.84.29,2.77.42l2.77.34c1.87.08,3.72.28,5.59.29s3.74,0,5.6-.12,3.72-.26,5.59-.44l5.61-.67c3.74-.46,7.46-1,11.18-1.58s7.41-1.29,11.07-2.17c1.84-.41,3.65-.9,5.45-1.45a25.42,25.42,0,0,0,5.19-2.17,21.67,21.67,0,0,1-5,2.6c-1.77.68-3.56,1.3-5.38,1.84-3.65,1.05-7.34,1.92-11.05,2.65s-7.46,1.33-11.21,1.9l-5.63.72c-1.88.2-3.79.33-5.69.49s-3.82.05-5.72.08-3.82-.22-5.72-.35a60.1,60.1,0,0,1-11.2-2.34,49,49,0,0,1-10.47-4.56A35,35,0,0,1,199.44,123.09Z"/></g></g></svg>