<svg xmlns="http://www.w3.org/2000/svg" viewBox="0 0 340.78 223.44"><defs><style>.cls-1{fill:#cae9f2;stroke:#231f20;stroke-miterlimit:10;stroke-width:1.15px;}.cls-2{fill:#231f20;}</style></defs><g id="Layer_2" data-name="Layer 2"><g id="Layer_1-2" data-name="Layer 1"><path class="cls-1" d="M86.83,21.56a3.84,3.84,0,0,1-3.19-3.79c0-.11,0-.24,0-.36a4.05,4.05,0,0,0-1-3C80.6,12.08,75.1,8.17,61.79,8.7c0,0-22.43-1.25-32.9-5.61S1.38.54.64,4.78A13.75,13.75,0,0,1,6.07,12a41.24,41.24,0,0,1,1.8,9q3.8,30.77,7.59,61.53c.11.82.21,1.65.31,2.47a14.35,14.35,0,0,0,7,10.74c3.85,2.2,8.41,2.78,12.83,3,7.87.37,27.82.33,33.78-5.82,1.18-1.21,1.37-6.61,1.37-6.61l.28-.13,0,0c.33-.17.94-.48,1.75-.93l0,0c6-3.34,23.35-14.16,28.43-30.8C106.15,38.44,106.52,25,86.83,21.56Zm-2.9,46.92c-6.47,4.65-9.13-3-9.13-3l6-31.08c4.65-7.14,14.79-3.49,15.62,4.82S90.42,63.83,83.93,68.48Z"/><path class="cls-2" d="M69.18,12.31a14,14,0,0,1,5.31.41,6.24,6.24,0,0,1,2.44,1.22,1.82,1.82,0,0,1,.67,1.34,1.08,1.08,0,0,1-.13.42.9.9,0,0,1-.35.3,6,6,0,0,1-.6.33c-.82.39-1.63.74-2.48,1.06s-1.74.44-2.62.67-1.75.36-2.62.54-1.76.29-2.65.44a60.56,60.56,0,0,1-21.34-1A98.1,98.1,0,0,1,24.7,10.85a84.13,84.13,0,0,0-9.82-4A31.75,31.75,0,0,0,4.46,5.15,30.11,30.11,0,0,1,15,6.32a82.46,82.46,0,0,1,10,3.72c3.27,1.38,6.49,2.81,9.84,4a85.9,85.9,0,0,0,10.16,2.92,61.71,61.71,0,0,0,21,1.25c.88-.12,1.76-.21,2.63-.35s1.74-.29,2.6-.46S73,17,73.83,16.78s1.65-.61,2.45-1c.2-.09.4-.18.58-.28l.17-.1a.52.52,0,0,0,.07-.21,1.39,1.39,0,0,0-.47-1A6,6,0,0,0,74.4,13,15.29,15.29,0,0,0,69.18,12.31Z"/><path class="cls-2" d="M77.47,22a22.66,22.66,0,0,1-.07,4.21,21.92,21.92,0,0,1-.76,4.14,10.46,10.46,0,0,1-.39-4.26A10.35,10.35,0,0,1,77.47,22Z"/><path class="cls-2" d="M71,69.58a22.72,22.72,0,0,0-1.09,11.89A10.14,10.14,0,0,1,71,69.58Z"/><path class="cls-2" d="M20.06,27c.8.17,1.6.36,2.38.55l2.39.51,2.4.47,2.4.41c3.2.48,6.42.86,9.66,1.05s6.47.22,9.71.12l2.43-.1,2.43-.19,2.44-.21c.8-.1,1.62-.18,2.43-.26-1.58.42-3.19.73-4.8,1l-2.43.35L49.06,31a64.66,64.66,0,0,1-9.84.13,63.86,63.86,0,0,1-9.75-1.33l-2.4-.56-2.37-.64C23.14,28.07,21.58,27.57,20.06,27Z"/><path class="cls-2" d="M21.13,42.74c1.58.21,3.14.49,4.7.72s3.13.53,4.69.77c3.12.47,6.24.93,9.38,1.19a73.91,73.91,0,0,0,9.41.28c1.57-.05,3.14-.18,4.71-.38s3.12-.47,4.67-.79a33.93,33.93,0,0,1-4.58,1.34,44.43,44.43,0,0,1-4.74.72,51.85,51.85,0,0,1-9.57,0,78.87,78.87,0,0,1-9.44-1.48c-1.55-.34-3.1-.7-4.64-1.08S22.65,43.2,21.13,42.74Z"/><path class="cls-2" d="M21.78,59c.79.21,1.57.44,2.35.68l2.36.6,2.37.56,2.39.46a76.07,76.07,0,0,0,9.63,1.08,74.48,74.48,0,0,0,9.68-.16L53,62l2.41-.33,2.41-.38c.8-.16,1.6-.31,2.41-.45-.78.26-1.55.51-2.34.75l-2.37.64-2.41.49-2.43.4a53,53,0,0,1-9.84.43,54.24,54.24,0,0,1-9.75-1.36l-2.38-.63-2.36-.72L24,60C23.28,59.63,22.52,59.31,21.78,59Z"/><path class="cls-2" d="M22.46,75l2.23.37,2.23.34c1.49.22,3,.43,4.46.6,3,.33,6,.61,9,.75s6,.19,9,.16c1.5,0,3-.06,4.5-.14l2.26-.1c.75-.06,1.5-.1,2.26-.14-1.48.33-3,.56-4.47.8s-3,.34-4.51.47a72.38,72.38,0,0,1-9.08.1,71.55,71.55,0,0,1-9-1c-1.49-.28-3-.58-4.45-.92S23.89,75.53,22.46,75Z"/><path class="cls-2" d="M15.38,82.36a25.49,25.49,0,0,0,6.18,4.28,32.5,32.5,0,0,0,7,2.69,46.86,46.86,0,0,0,7.35,1.36c1.25,0,2.5.17,3.74.18s2.5,0,3.75-.09,2.49-.17,3.74-.29l3.76-.43c2.5-.32,5-.7,7.48-1.08s5-.87,7.4-1.45a27.74,27.74,0,0,0,7.12-2.43,14.17,14.17,0,0,1-3.37,1.74q-1.77.69-3.6,1.23-3.66,1.05-7.4,1.78c-2.48.53-5,.87-7.49,1.25l-3.77.49c-1.26.14-2.54.23-3.81.34a43.59,43.59,0,0,1-15.15-1.75,33.08,33.08,0,0,1-7-3.05A23.69,23.69,0,0,1,15.38,82.36Z"/><path class="cls-1" d="M204.89,21.56a3.84,3.84,0,0,1-3.19-3.79c0-.11,0-.24,0-.36a4.05,4.05,0,0,0-1-3c-2.09-2.36-7.59-6.27-20.9-5.74,0,0-22.43-1.25-32.9-5.61S119.44.54,118.7,4.78A13.75,13.75,0,0,1,124.13,12a41.24,41.24,0,0,1,1.8,9q3.8,30.77,7.59,61.53c.11.82.21,1.65.31,2.47a14.35,14.35,0,0,0,7,10.74c3.85,2.2,8.41,2.78,12.83,3,7.87.37,27.82.33,33.78-5.82,1.18-1.21,1.37-6.61,1.37-6.61l.28-.13,0,0c.34-.17.94-.48,1.75-.93l0,0c6-3.34,23.35-14.16,28.43-30.8C224.21,38.44,224.58,25,204.89,21.56ZM202,68.48c-6.47,4.65-9.13-3-9.13-3l6-31.08c4.65-7.14,14.79-3.49,15.62,4.82S208.48,63.83,202,68.48Z"/><path class="cls-2" d="M187.24,12.31a14,14,0,0,1,5.31.41A6.24,6.24,0,0,1,195,13.94a1.79,1.79,0,0,1,.67,1.34.94.94,0,0,1-.13.42.9.9,0,0,1-.35.3,6,6,0,0,1-.6.33c-.82.39-1.63.74-2.48,1.06s-1.74.44-2.62.67-1.74.36-2.62.54-1.76.29-2.65.44a60.5,60.5,0,0,1-21.33-1,98,98,0,0,1-20.12-7.18,84.13,84.13,0,0,0-9.82-4,31.75,31.75,0,0,0-10.42-1.71A30.11,30.11,0,0,1,133.1,6.32a82.46,82.46,0,0,1,10,3.72c3.27,1.38,6.49,2.81,9.84,4a85.52,85.52,0,0,0,10.17,2.92,61.68,61.68,0,0,0,21,1.25c.87-.12,1.75-.21,2.62-.35s1.74-.29,2.6-.46,1.75-.37,2.56-.57,1.65-.61,2.45-1c.2-.09.4-.18.58-.28l.17-.1a.76.76,0,0,0,.08-.21,1.4,1.4,0,0,0-.48-1A5.87,5.87,0,0,0,192.46,13,15.29,15.29,0,0,0,187.24,12.31Z"/><path class="cls-2" d="M195.53,22a21.83,21.83,0,0,1-.07,4.21,21.92,21.92,0,0,1-.76,4.14,10.46,10.46,0,0,1-.39-4.26A10.35,10.35,0,0,1,195.53,22Z"/><path class="cls-2" d="M189.09,69.58A22.72,22.72,0,0,0,188,81.47a10.14,10.14,0,0,1,1.09-11.89Z"/><path class="cls-2" d="M138.12,27c.8.17,1.6.36,2.39.55l2.39.51,2.39.47,2.4.41c3.2.48,6.42.86,9.66,1.05s6.47.22,9.71.12l2.43-.1,2.43-.19,2.44-.21c.81-.1,1.62-.18,2.43-.26-1.58.42-3.19.73-4.8,1l-2.43.35-2.44.27a64.64,64.64,0,0,1-9.84.13,63.86,63.86,0,0,1-9.75-1.33l-2.4-.56-2.37-.64C141.2,28.07,139.64,27.57,138.12,27Z"/><path class="cls-2" d="M139.19,42.74c1.58.21,3.14.49,4.7.72s3.13.53,4.69.77c3.13.47,6.25.93,9.38,1.19a73.91,73.91,0,0,0,9.41.28c1.58-.05,3.14-.18,4.71-.38s3.12-.47,4.67-.79a33.93,33.93,0,0,1-4.58,1.34,44.43,44.43,0,0,1-4.74.72,51.85,51.85,0,0,1-9.57,0,78.87,78.87,0,0,1-9.44-1.48c-1.55-.34-3.1-.7-4.64-1.08S140.71,43.2,139.19,42.74Z"/><path class="cls-2" d="M139.84,59c.79.21,1.57.44,2.35.68l2.36.6,2.37.56,2.39.46a76.07,76.07,0,0,0,9.63,1.08,74.48,74.48,0,0,0,9.68-.16L171,62l2.41-.33,2.41-.38c.8-.16,1.6-.31,2.41-.45-.78.26-1.55.51-2.34.75l-2.37.64-2.41.49-2.43.4a53,53,0,0,1-9.84.43,54.24,54.24,0,0,1-9.75-1.36l-2.38-.63-2.35-.72L142.09,60Z"/><path class="cls-2" d="M140.52,75l2.23.37,2.23.34c1.49.22,3,.43,4.46.6,3,.33,6,.61,9,.75s6,.19,9,.16c1.5,0,3-.06,4.5-.14l2.26-.1c.75-.06,1.5-.1,2.26-.14-1.48.33-3,.56-4.46.8s-3,.34-4.52.47a72.38,72.38,0,0,1-9.08.1,71.76,71.76,0,0,1-9-1c-1.49-.28-3-.58-4.45-.92S142,75.53,140.52,75Z"/><path class="cls-2" d="M133.44,82.36a25.49,25.49,0,0,0,6.18,4.28,32.5,32.5,0,0,0,7,2.69A47.08,47.08,0,0,0,154,90.69c1.25,0,2.5.17,3.74.18s2.5,0,3.75-.09,2.49-.17,3.74-.29l3.76-.43c2.5-.32,5-.7,7.48-1.08s5-.87,7.4-1.45a27.74,27.74,0,0,0,7.12-2.43,14,14,0,0,1-3.37,1.74q-1.77.69-3.6,1.23-3.66,1.05-7.4,1.78c-2.48.53-5,.87-7.49,1.25l-3.77.49c-1.26.14-2.54.23-3.81.34a43.59,43.59,0,0,1-15.15-1.75,33.08,33.08,0,0,1-7-3.05A23.69,23.69,0,0,1,133.44,82.36Z"/><path class="cls-1" d="M323,21.56a3.84,3.84,0,0,1-3.19-3.79c0-.11,0-.24,0-.36a4.05,4.05,0,0,0-1-3c-2.09-2.36-7.59-6.27-20.9-5.74,0,0-22.43-1.25-32.9-5.61S237.51.54,236.76,4.78A13.75,13.75,0,0,1,242.19,12a40.09,40.09,0,0,1,1.8,9q3.8,30.77,7.6,61.53l.3,2.47a14.35,14.35,0,0,0,7,10.74c3.85,2.2,8.41,2.78,12.83,3,7.87.37,27.82.33,33.78-5.82,1.18-1.21,1.38-6.61,1.38-6.61l.27-.13,0,0c.34-.17.94-.48,1.75-.93l0,0C315,81.77,332.34,71,337.42,54.31,342.27,38.44,342.64,25,323,21.56Zm-2.89,46.92c-6.48,4.65-9.14-3-9.14-3l6-31.08c4.65-7.14,14.79-3.49,15.62,4.82S326.54,63.83,320.06,68.48Z"/><path class="cls-2" d="M305.3,12.31a14,14,0,0,1,5.31.41,6.17,6.17,0,0,1,2.44,1.22,1.79,1.79,0,0,1,.67,1.34.94.94,0,0,1-.13.42.9.9,0,0,1-.35.3,6,6,0,0,1-.6.33c-.82.39-1.63.74-2.48,1.06s-1.74.44-2.62.67-1.74.36-2.62.54-1.76.29-2.64.44a60.54,60.54,0,0,1-21.34-1,98,98,0,0,1-20.12-7.18,84.13,84.13,0,0,0-9.82-4,31.75,31.75,0,0,0-10.42-1.71,30.11,30.11,0,0,1,10.58,1.17,82.46,82.46,0,0,1,10,3.72c3.27,1.38,6.49,2.81,9.84,4a85.52,85.52,0,0,0,10.17,2.92,61.68,61.68,0,0,0,21,1.25c.87-.12,1.75-.21,2.62-.35s1.74-.29,2.6-.46,1.75-.37,2.56-.57,1.65-.61,2.45-1c.2-.09.4-.18.58-.28l.17-.1a.76.76,0,0,0,.08-.21,1.4,1.4,0,0,0-.48-1A5.87,5.87,0,0,0,310.52,13,15.29,15.29,0,0,0,305.3,12.31Z"/><path class="cls-2" d="M313.59,22a21.83,21.83,0,0,1-.07,4.21,21.92,21.92,0,0,1-.76,4.14,10.46,10.46,0,0,1-.39-4.26A10.35,10.35,0,0,1,313.59,22Z"/><path class="cls-2" d="M307.15,69.58a22.72,22.72,0,0,0-1.09,11.89,9.55,9.55,0,0,1-1.39-6.12A9.66,9.66,0,0,1,307.15,69.58Z"/><path class="cls-2" d="M256.18,27c.8.17,1.6.36,2.39.55L261,28l2.39.47,2.4.41c3.2.48,6.42.86,9.66,1.05s6.47.22,9.71.12l2.43-.1,2.43-.19,2.44-.21c.81-.1,1.62-.18,2.43-.26-1.58.42-3.18.73-4.8,1l-2.43.35-2.44.27a64.64,64.64,0,0,1-9.84.13,63.86,63.86,0,0,1-9.75-1.33l-2.4-.56-2.37-.64C259.26,28.07,257.7,27.57,256.18,27Z"/><path class="cls-2" d="M257.25,42.74c1.58.21,3.14.49,4.71.72s3.12.53,4.68.77c3.13.47,6.25.93,9.38,1.19a74,74,0,0,0,9.42.28c1.57-.05,3.14-.18,4.7-.38s3.12-.47,4.67-.79a33.93,33.93,0,0,1-4.58,1.34,44,44,0,0,1-4.74.72,51.85,51.85,0,0,1-9.57,0,78.87,78.87,0,0,1-9.44-1.48c-1.55-.34-3.1-.7-4.64-1.08S258.77,43.2,257.25,42.74Z"/><path class="cls-2" d="M257.9,59c.79.21,1.57.44,2.35.68l2.36.6,2.37.56,2.39.46A76.07,76.07,0,0,0,277,62.36a74.66,74.66,0,0,0,9.69-.16L289.1,62l2.41-.33,2.41-.38c.8-.16,1.6-.31,2.41-.45-.78.26-1.55.51-2.34.75l-2.37.64-2.41.49-2.43.4a53,53,0,0,1-9.84.43,54.24,54.24,0,0,1-9.75-1.36l-2.38-.63-2.35-.72L260.15,60Z"/><path class="cls-2" d="M258.58,75l2.23.37,2.23.34c1.49.22,3,.43,4.46.6,3,.33,6,.61,9,.75s6,.19,9,.16c1.5,0,3-.06,4.5-.14l2.26-.1c.75-.06,1.5-.1,2.26-.14-1.48.33-3,.56-4.46.8s-3,.34-4.52.47a72.38,72.38,0,0,1-9.08.1,72,72,0,0,1-9-1c-1.49-.28-3-.58-4.45-.92S260,75.53,258.58,75Z"/><path class="cls-2" d="M251.5,82.36a25.49,25.49,0,0,0,6.18,4.28,32.5,32.5,0,0,0,7,2.69A47.08,47.08,0,0,0,272,90.69c1.25,0,2.5.17,3.74.18s2.5,0,3.75-.09,2.49-.17,3.74-.29l3.76-.43c2.5-.32,5-.7,7.48-1.08s5-.87,7.4-1.45A27.94,27.94,0,0,0,309,85.1a14.23,14.23,0,0,1-3.38,1.74q-1.77.69-3.6,1.23-3.66,1.05-7.4,1.78c-2.48.53-5,.87-7.49,1.25l-3.77.49c-1.26.14-2.54.23-3.81.34a43.59,43.59,0,0,1-15.15-1.75,33.08,33.08,0,0,1-7-3.05A23.69,23.69,0,0,1,251.5,82.36Z"/><path class="cls-1" d="M86.83,145.65a3.84,3.84,0,0,1-3.19-3.79c0-.12,0-.24,0-.37a4,4,0,0,0-1-3c-2.09-2.37-7.59-6.27-20.9-5.75,0,0-22.43-1.24-32.9-5.61S1.38,124.63.64,128.86A13.75,13.75,0,0,1,6.07,136a41.33,41.33,0,0,1,1.8,9q3.8,30.77,7.59,61.53c.11.82.21,1.64.31,2.47a14.33,14.33,0,0,0,7,10.73c3.85,2.21,8.41,2.78,12.83,3,7.87.37,27.82.32,33.78-5.83,1.18-1.21,1.37-6.6,1.37-6.6l.28-.14,0,0c.33-.16.94-.48,1.75-.92l0,0c6-3.34,23.35-14.16,28.43-30.8C106.15,162.52,106.52,149.12,86.83,145.65Zm-2.9,46.92c-6.47,4.65-9.13-3-9.13-3l6-31.08c4.65-7.15,14.79-3.49,15.62,4.82S90.42,187.91,83.93,192.57Z"/><path class="cls-2" d="M69.18,136.4a14.21,14.21,0,0,1,5.31.4A6.4,6.4,0,0,1,76.93,138a1.82,1.82,0,0,1,.67,1.33,1.08,1.08,0,0,1-.13.43.86.86,0,0,1-.35.29,6,6,0,0,1-.6.33c-.82.4-1.63.74-2.48,1.07s-1.74.44-2.62.66-1.75.37-2.62.55-1.76.28-2.65.43a60.56,60.56,0,0,1-21.34-1,98.73,98.73,0,0,1-20.11-7.19,84.13,84.13,0,0,0-9.82-4,31.74,31.74,0,0,0-10.42-1.7A30.33,30.33,0,0,1,15,130.4a85.94,85.94,0,0,1,10,3.72c3.27,1.39,6.49,2.82,9.84,4A85.86,85.86,0,0,0,45.06,141a62,62,0,0,0,21,1.26c.88-.12,1.76-.21,2.63-.35s1.74-.29,2.6-.47,1.75-.37,2.56-.57,1.65-.61,2.45-1a5.14,5.14,0,0,0,.58-.27l.17-.11a.48.48,0,0,0,.07-.2,1.37,1.37,0,0,0-.47-1,6,6,0,0,0-2.23-1.25A15,15,0,0,0,69.18,136.4Z"/><path class="cls-2" d="M77.47,146.11a22.65,22.65,0,0,1-.07,4.21,22,22,0,0,1-.76,4.15,11.31,11.31,0,0,1,.83-8.36Z"/><path class="cls-2" d="M71,193.66a22.74,22.74,0,0,0-1.09,11.89,9.52,9.52,0,0,1-1.39-6.12A9.66,9.66,0,0,1,71,193.66Z"/><path class="cls-2" d="M20.06,151c.8.18,1.6.36,2.38.56l2.39.5,2.4.48,2.4.4c3.2.49,6.42.87,9.66,1.05s6.47.23,9.71.13l2.43-.11,2.43-.18,2.44-.21c.8-.1,1.62-.19,2.43-.26-1.58.42-3.19.73-4.8,1l-2.43.35-2.44.26a65.75,65.75,0,0,1-19.59-1.19l-2.4-.56-2.37-.64C23.14,152.15,21.58,151.65,20.06,151Z"/><path class="cls-2" d="M21.13,166.83c1.58.21,3.14.49,4.7.72s3.13.53,4.69.76c3.12.47,6.24.93,9.38,1.2a75.8,75.8,0,0,0,9.41.28A46.72,46.72,0,0,0,54,169.4c1.56-.17,3.12-.46,4.67-.78A33.93,33.93,0,0,1,54.11,170a47.1,47.1,0,0,1-4.74.71,51.85,51.85,0,0,1-9.57,0,76.88,76.88,0,0,1-9.44-1.47c-1.55-.34-3.1-.7-4.64-1.08S22.65,167.29,21.13,166.83Z"/><path class="cls-2" d="M21.78,183.06c.79.22,1.57.44,2.35.68l2.36.61,2.37.55,2.39.47a75,75,0,0,0,19.31.91l2.42-.23,2.41-.33,2.41-.38,2.41-.46c-.78.27-1.55.52-2.34.76l-2.37.63-2.41.5-2.43.39a53.51,53.51,0,0,1-19.59-.93l-2.38-.62-2.36-.72L24,184C23.28,183.72,22.52,183.39,21.78,183.06Z"/><path class="cls-2" d="M22.46,199.13c.74.11,1.49.23,2.23.37l2.23.33c1.49.23,3,.43,4.46.6,3,.34,6,.62,9,.75s6,.2,9,.17c1.5,0,3-.07,4.5-.14l2.26-.11c.75-.06,1.5-.1,2.26-.13-1.48.33-3,.56-4.47.8s-3,.34-4.51.46a70.53,70.53,0,0,1-9.08.1,73.43,73.43,0,0,1-9-1c-1.49-.28-3-.59-4.45-.93S23.89,199.61,22.46,199.13Z"/><path class="cls-2" d="M15.38,206.44a25.25,25.25,0,0,0,6.18,4.29,33,33,0,0,0,7,2.69,45.72,45.72,0,0,0,7.35,1.35c1.25.06,2.5.18,3.74.19s2.5,0,3.75-.1,2.49-.16,3.74-.28l3.76-.44c2.5-.31,5-.69,7.48-1.08s5-.86,7.4-1.45a27.34,27.34,0,0,0,7.12-2.42,14.94,14.94,0,0,1-3.37,1.74c-1.18.45-2.38.87-3.6,1.23-2.44.7-4.91,1.28-7.4,1.77s-5,.88-7.49,1.25l-3.77.49c-1.26.14-2.54.23-3.81.34a43.35,43.35,0,0,1-15.15-1.74,33.6,33.6,0,0,1-7-3.05A23.72,23.72,0,0,1,15.38,206.44Z"/><path class="cls-1" d="M204.89,145.65a3.84,3.84,0,0,1-3.19-3.79c0-.12,0-.24,0-.37a4,4,0,0,0-1-3c-2.09-2.37-7.59-6.27-20.9-5.75,0,0-22.43-1.24-32.9-5.61s-27.51-2.54-28.25,1.69a13.75,13.75,0,0,1,5.43,7.17,41.33,41.33,0,0,1,1.8,9q3.8,30.77,7.59,61.53c.11.82.21,1.64.31,2.47a14.33,14.33,0,0,0,7,10.73c3.85,2.21,8.41,2.78,12.83,3,7.87.37,27.82.32,33.78-5.83,1.18-1.21,1.37-6.6,1.37-6.6l.28-.14,0,0c.34-.16.94-.48,1.75-.92l0,0c6-3.34,23.35-14.16,28.43-30.8C224.21,162.52,224.58,149.12,204.89,145.65ZM202,192.57c-6.47,4.65-9.13-3-9.13-3l6-31.08c4.65-7.15,14.79-3.49,15.62,4.82S208.48,187.91,202,192.57Z"/><path class="cls-2" d="M187.24,136.4a14.21,14.21,0,0,1,5.31.4A6.4,6.4,0,0,1,195,138a1.78,1.78,0,0,1,.67,1.33.94.94,0,0,1-.13.43.86.86,0,0,1-.35.29,6,6,0,0,1-.6.33c-.82.4-1.63.74-2.48,1.07s-1.74.44-2.62.66-1.74.37-2.62.55-1.76.28-2.65.43a60.49,60.49,0,0,1-21.33-1,98.6,98.6,0,0,1-20.12-7.19,84.13,84.13,0,0,0-9.82-4,31.74,31.74,0,0,0-10.42-1.7,30.33,30.33,0,0,1,10.58,1.16,85.94,85.94,0,0,1,10,3.72c3.27,1.39,6.49,2.82,9.84,4A85.47,85.47,0,0,0,163.13,141a61.94,61.94,0,0,0,21,1.26c.87-.12,1.75-.21,2.62-.35s1.74-.29,2.6-.47,1.75-.37,2.56-.57,1.65-.61,2.45-1a5.14,5.14,0,0,0,.58-.27l.17-.11a.7.7,0,0,0,.08-.2,1.39,1.39,0,0,0-.48-1,5.89,5.89,0,0,0-2.23-1.25A15,15,0,0,0,187.24,136.4Z"/><path class="cls-2" d="M195.53,146.11a25.65,25.65,0,0,1-.83,8.36,11.31,11.31,0,0,1,.83-8.36Z"/><path class="cls-2" d="M189.09,193.66A22.74,22.74,0,0,0,188,205.55a9.52,9.52,0,0,1-1.39-6.12A9.66,9.66,0,0,1,189.09,193.66Z"/><path class="cls-2" d="M138.12,151c.8.18,1.6.36,2.39.56l2.39.5,2.39.48,2.4.4c3.2.49,6.42.87,9.66,1.05s6.47.23,9.71.13l2.43-.11,2.43-.18,2.44-.21c.81-.1,1.62-.19,2.43-.26-1.58.42-3.19.73-4.8,1l-2.43.35-2.44.26a65.75,65.75,0,0,1-19.59-1.19l-2.4-.56-2.37-.64C141.2,152.15,139.64,151.65,138.12,151Z"/><path class="cls-2" d="M139.19,166.83c1.58.21,3.14.49,4.7.72s3.13.53,4.69.76c3.13.47,6.25.93,9.38,1.2a75.8,75.8,0,0,0,9.41.28,46.48,46.48,0,0,0,4.71-.39c1.57-.17,3.12-.46,4.67-.78a33.93,33.93,0,0,1-4.58,1.34,47.1,47.1,0,0,1-4.74.71,51.85,51.85,0,0,1-9.57,0,76.88,76.88,0,0,1-9.44-1.47c-1.55-.34-3.1-.7-4.64-1.08S140.71,167.29,139.19,166.83Z"/><path class="cls-2" d="M139.84,183.06c.79.22,1.57.44,2.35.68l2.36.61,2.37.55,2.39.47a75,75,0,0,0,19.31.91l2.42-.23,2.41-.33,2.41-.38,2.41-.46c-.78.27-1.55.52-2.34.76l-2.37.63-2.41.5-2.43.39a53.51,53.51,0,0,1-19.59-.93l-2.38-.62-2.35-.72-2.31-.86C141.34,183.72,140.59,183.39,139.84,183.06Z"/><path class="cls-2" d="M140.52,199.13c.74.11,1.49.23,2.23.37l2.23.33c1.49.23,3,.43,4.46.6,3,.34,6,.62,9,.75s6,.2,9,.17c1.5,0,3-.07,4.5-.14l2.26-.11c.75-.06,1.5-.1,2.26-.13-1.48.33-3,.56-4.46.8s-3,.34-4.52.46a70.53,70.53,0,0,1-9.08.1,73.65,73.65,0,0,1-9-1c-1.49-.28-3-.59-4.45-.93S142,199.61,140.52,199.13Z"/><path class="cls-2" d="M133.44,206.44a25.25,25.25,0,0,0,6.18,4.29,33,33,0,0,0,7,2.69,45.92,45.92,0,0,0,7.35,1.35c1.25.06,2.5.18,3.74.19s2.5,0,3.75-.1,2.49-.16,3.74-.28l3.76-.44c2.5-.31,5-.69,7.48-1.08s5-.86,7.4-1.45a27.34,27.34,0,0,0,7.12-2.42,14.73,14.73,0,0,1-3.37,1.74c-1.18.45-2.38.87-3.6,1.23-2.44.7-4.91,1.28-7.4,1.77s-5,.88-7.49,1.25l-3.77.49c-1.26.14-2.54.23-3.81.34a43.35,43.35,0,0,1-15.15-1.74,33.6,33.6,0,0,1-7-3.05A23.72,23.72,0,0,1,133.44,206.44Z"/><path class="cls-1" d="M323,145.65a3.84,3.84,0,0,1-3.19-3.79c0-.12,0-.24,0-.37a4,4,0,0,0-1-3c-2.09-2.37-7.59-6.27-20.9-5.75,0,0-22.43-1.24-32.9-5.61s-27.5-2.54-28.25,1.69a13.75,13.75,0,0,1,5.43,7.17,40.18,40.18,0,0,1,1.8,9q3.8,30.77,7.6,61.53l.3,2.47a14.33,14.33,0,0,0,7,10.73c3.85,2.21,8.41,2.78,12.83,3,7.87.37,27.82.32,33.78-5.83,1.18-1.21,1.38-6.6,1.38-6.6l.27-.14,0,0c.34-.16.94-.48,1.75-.92l0,0c6.05-3.34,23.35-14.16,28.43-30.8C342.27,162.52,342.64,149.12,323,145.65Zm-2.89,46.92c-6.48,4.65-9.14-3-9.14-3l6-31.08c4.65-7.15,14.79-3.49,15.62,4.82S326.54,187.91,320.06,192.57Z"/><path class="cls-2" d="M305.3,136.4a14.21,14.21,0,0,1,5.31.4,6.33,6.33,0,0,1,2.44,1.23,1.78,1.78,0,0,1,.67,1.33.94.94,0,0,1-.13.43.86.86,0,0,1-.35.29,6,6,0,0,1-.6.33c-.82.4-1.63.74-2.48,1.07s-1.74.44-2.62.66-1.74.37-2.62.55-1.76.28-2.64.43a60.54,60.54,0,0,1-21.34-1,98.6,98.6,0,0,1-20.12-7.19,84.13,84.13,0,0,0-9.82-4,31.74,31.74,0,0,0-10.42-1.7,30.33,30.33,0,0,1,10.58,1.16,85.94,85.94,0,0,1,10,3.72c3.27,1.39,6.49,2.82,9.84,4A85.47,85.47,0,0,0,281.19,141a61.94,61.94,0,0,0,21,1.26c.87-.12,1.75-.21,2.62-.35s1.74-.29,2.6-.47,1.75-.37,2.56-.57,1.65-.61,2.45-1a5.14,5.14,0,0,0,.58-.27l.17-.11a.7.7,0,0,0,.08-.2,1.39,1.39,0,0,0-.48-1,5.89,5.89,0,0,0-2.23-1.25A15,15,0,0,0,305.3,136.4Z"/><path class="cls-2" d="M313.59,146.11a25.65,25.65,0,0,1-.83,8.36,11.31,11.31,0,0,1,.83-8.36Z"/><path class="cls-2" d="M307.15,193.66a22.74,22.74,0,0,0-1.09,11.89,9.52,9.52,0,0,1-1.39-6.12A9.72,9.72,0,0,1,307.15,193.66Z"/><path class="cls-2" d="M256.18,151c.8.18,1.6.36,2.39.56l2.39.5,2.39.48,2.4.4c3.2.49,6.42.87,9.66,1.05s6.47.23,9.71.13l2.43-.11,2.43-.18,2.44-.21c.81-.1,1.62-.19,2.43-.26-1.58.42-3.18.73-4.8,1l-2.43.35-2.44.26a65.75,65.75,0,0,1-19.59-1.19l-2.4-.56-2.37-.64C259.26,152.15,257.7,151.65,256.18,151Z"/><path class="cls-2" d="M257.25,166.83c1.58.21,3.14.49,4.71.72s3.12.53,4.68.76c3.13.47,6.25.93,9.38,1.2a75.9,75.9,0,0,0,9.42.28,46.29,46.29,0,0,0,4.7-.39c1.57-.17,3.12-.46,4.67-.78a33.93,33.93,0,0,1-4.58,1.34,46.68,46.68,0,0,1-4.74.71,51.85,51.85,0,0,1-9.57,0,76.88,76.88,0,0,1-9.44-1.47c-1.55-.34-3.1-.7-4.64-1.08S258.77,167.29,257.25,166.83Z"/><path class="cls-2" d="M257.9,183.06c.79.22,1.57.44,2.35.68l2.36.61,2.37.55,2.39.47a75,75,0,0,0,19.32.91l2.41-.23,2.41-.33,2.41-.38,2.41-.46c-.78.27-1.55.52-2.34.76l-2.37.63-2.41.5-2.43.39a53.51,53.51,0,0,1-19.59-.93l-2.38-.62-2.35-.72-2.31-.86C259.4,183.72,258.65,183.39,257.9,183.06Z"/><path class="cls-2" d="M258.58,199.13c.74.11,1.49.23,2.23.37l2.23.33c1.49.23,3,.43,4.46.6,3,.34,6,.62,9,.75s6,.2,9,.17c1.5,0,3-.07,4.5-.14l2.26-.11c.75-.06,1.5-.1,2.26-.13-1.48.33-3,.56-4.46.8s-3,.34-4.52.46a70.53,70.53,0,0,1-9.08.1,73.88,73.88,0,0,1-9-1c-1.49-.28-3-.59-4.45-.93S260,199.61,258.58,199.13Z"/><path class="cls-2" d="M251.5,206.44a25.25,25.25,0,0,0,6.18,4.29,33,33,0,0,0,7,2.69,45.92,45.92,0,0,0,7.35,1.35c1.25.06,2.5.18,3.74.19s2.5,0,3.75-.1,2.49-.16,3.74-.28l3.76-.44c2.5-.31,5-.69,7.48-1.08s5-.86,7.4-1.45a27.54,27.54,0,0,0,7.13-2.42,15,15,0,0,1-3.38,1.74c-1.18.45-2.38.87-3.6,1.23-2.44.7-4.91,1.28-7.4,1.77s-5,.88-7.49,1.25l-3.77.49c-1.26.14-2.54.23-3.81.34a43.35,43.35,0,0,1-15.15-1.74,33.6,33.6,0,0,1-7-3.05A23.72,23.72,0,0,1,251.5,206.44Z"/></g></g></svg>