<svg xmlns="http://www.w3.org/2000/svg" viewBox="0 0 148.71 352.01"><defs><style>.cls-1{fill:#ff5f45;}.cls-1,.cls-2,.cls-3,.cls-4,.cls-5,.cls-6{stroke:#231f20;stroke-miterlimit:10;stroke-width:2px;}.cls-2{fill:#cbeaf3;}.cls-3{fill:#d13627;}.cls-4{fill:#ef4923;}.cls-5{fill:#f3a34d;}.cls-6{fill:none;}</style></defs><g id="Layer_2" data-name="Layer 2"><g id="Layer_1-2" data-name="Layer 1"><path class="cls-1" d="M95.61,7.43c0,3.55-9.51,6.42-21.25,6.42h0c-11.73,0-21.25-2.87-21.25-6.42S62.61,1,74.34,1h0C86.1,1,95.61,3.88,95.61,7.43Z"/><path class="cls-2" d="M147.2,276.79c0,3.08,0,5.81,0,8.1a84,84,0,0,1-4.28,26.59c-3.8,11.28-10.86,25.23-23.71,34.22a30.43,30.43,0,0,1-26.37,3.91,64.24,64.24,0,0,0-17.81-3H73.71a64.38,64.38,0,0,0-17.82,3,30.4,30.4,0,0,1-26.36-3.91c-12.86-9-19.91-22.94-23.72-34.22a84.25,84.25,0,0,1-4.28-26.59c0-2.45,0-5.38,0-8.72,1.21,6.35,33,14.05,72.65,14.05C113.4,290.22,145.43,283.09,147.2,276.79Z"/><path class="cls-2" d="M147.71,117.68c-7.91,5.74-38,11.69-73.58,11.69S9,123.87,1,118.26c0-.85,0-1.69,0-2.54C1.27,100.86,3.8,85.56,15.4,70.89c8.73-11,24.11-21.16,32.26-26.08a11.22,11.22,0,0,0,5.13-7.08c3.2,2.71,11.56,4.64,21.35,4.64,10.17,0,18.79-2.08,21.7-4.95a11.24,11.24,0,0,0,5.2,7.39c8.16,4.92,23.53,15,32.26,26.08C145.42,86.21,147.65,102.21,147.71,117.68Z"/><path class="cls-3" d="M95.84,37.42c-2.91,2.87-11.53,4.95-21.7,4.95-9.79,0-18.15-1.93-21.35-4.64a11.46,11.46,0,0,0,.3-2.49V29.88c3.4,2.59,11.54,4.41,21,4.41,9.92,0,18.36-2,21.47-4.75v5.61A11.43,11.43,0,0,0,95.84,37.42Z"/><path class="cls-4" d="M95.61,7.43V29.54c-3.11,2.77-11.55,4.75-21.47,4.75-9.51,0-17.65-1.82-21-4.41V7.43c0,3.55,9.52,6.42,21.25,6.42h0C86.1,13.85,95.61,11,95.61,7.43Z"/><path class="cls-5" d="M147.71,117.68v.65c0,12.57-.36,117.46-.51,158.46-1.77,6.3-33.8,13.43-73.06,13.43-39.63,0-71.44-7.7-72.65-14.05C1.36,234.74,1,130.84,1,118.33v-.07c8,5.61,37.68,11.11,73.13,11.11S139.8,123.42,147.71,117.68Z"/><path class="cls-6" d="M1.49,276.17a2.31,2.31,0,0,1,0-.37"/><path class="cls-6" d="M147.28,276.25a2,2,0,0,1-.08.54"/></g></g></svg>