<svg xmlns="http://www.w3.org/2000/svg" viewBox="0 0 301.14 298.38"><defs><style>.cls-1{fill:#ff4553;}.cls-1,.cls-2,.cls-3,.cls-4,.cls-5,.cls-6{stroke:#000;stroke-miterlimit:10;stroke-width:2px;}.cls-2{fill:none;}.cls-3{fill:#e61e25;}.cls-4{fill:#2e83ff;}.cls-5{fill:#e2e2e2;}.cls-6{fill:#a59f9f;}</style></defs><g id="Layer_2" data-name="Layer 2"><g id="Layer_1-2" data-name="Layer 1"><path class="cls-1" d="M167.84,1C94.77,1,35.53,18,35.53,38.87l.52,3.37c6,19.33,62.69,34.49,131.79,34.49S293.67,61.57,299.63,42.24l.51-3.37C300.14,18,240.91,1,167.84,1Zm92.87,58.14-1,.31-1.07.3-1.08.3-1.1.3-1.11.29c-1.49.39-3,.78-4.59,1.15l-1.52.36q-2.92.68-6,1.32c-1.17.24-2.36.48-3.57.71l-.88.17c-2.94.55-6,1.08-9.13,1.57l-1.9.29-1.93.28-1.5.22c-2.1.29-4.25.57-6.43.83l-2,.23-4.78.52-3.06.3-.9.08-1.8.16-2.27.19-1.85.14c-1.65.13-3.32.25-5,.35l-2.07.13-2.08.12h-.21l-2.31.11c-.66,0-1.31.07-2,.09s-1.47.07-2.21.09l-1,0-1.53.05c-1,0-2.09.07-3.14.09l-1.87.05-5,.08-2.25,0h-5.42l-2.25,0-5-.08L156,70.24c-1.05,0-2.09,0-3.13-.09l-1.54-.05-1,0c-.74,0-1.48,0-2.21-.09s-1.32,0-2-.09l-2.31-.11h-.21l-2.08-.12-2.07-.13c-1.68-.1-3.35-.22-5-.35L132.63,69l-2.27-.19-1.8-.16-.9-.08-3.06-.3-4.78-.52-2-.23c-2.18-.26-4.33-.54-6.42-.83l-1.51-.22L108,66.21l-1.89-.29c-3.15-.49-6.2-1-9.14-1.57l-.87-.17c-1.22-.23-2.41-.47-3.58-.71q-3.1-.64-6-1.32L85,61.79c-1.57-.37-3.1-.76-4.59-1.15l-1.11-.29-1.1-.3-1.08-.3L76,59.45l-1-.31c-21.23-6.22-33.1-14-33.1-20.28,0-12.85,49.07-31.53,126-31.53s126,18.68,126,31.53C293.82,45.19,281.94,52.92,260.71,59.14Z"/><path class="cls-2" d="M35.53,38.87l.52,3.37A11.49,11.49,0,0,1,35.53,38.87Z"/><path class="cls-2" d="M300.14,38.87a11.48,11.48,0,0,1-.51,3.37Z"/><path class="cls-2" d="M263.34,58.35l-1,.3Z"/><path class="cls-2" d="M263.88,58.18l-.54.17Z"/><path class="cls-2" d="M260.71,59.14l1.65-.49Z"/><path class="cls-2" d="M73.32,58.65l-1-.3Z"/><path class="cls-3" d="M263.88,58.18A112.82,112.82,0,0,0,280.6,51.6c-19.46-9.79-59.4-18.78-112.76-18.78s-93.29,9-112.76,18.78A112.82,112.82,0,0,0,71.8,58.18c-19.23-6-29.93-13.31-29.93-19.32,0-12.85,49.07-31.53,126-31.53s126,18.68,126,31.53C293.82,44.87,283.11,52.14,263.88,58.18Z"/><path class="cls-2" d="M72.34,58.35l-.54-.17Z"/><path class="cls-2" d="M75,59.14l-1.65-.49Z"/><path class="cls-3" d="M299.63,42.24,264.5,270.72c0,10.87-37.66,26.66-96.66,26.66s-96.65-15.79-96.65-26.66L68.1,250.65h.17c17,0,36.21-4.91,56.82-14.72,38.52-18.36,77.71-51.85,110.37-94.26,6.24-8.12,12.16-16.46,17.68-24.95a14.39,14.39,0,0,0,1.61.16,16.84,16.84,0,1,0-12.84-6.16c2.61-4,5.16-8,7.58-12a373.59,373.59,0,0,1-24.06,35.21c-31.47,40.86-69,73-105.78,90.53-19.82,9.46-38,13.95-53.5,13.51h0L41.2,75.75,38.63,59,36.05,42.24c6,19.33,62.69,34.49,131.79,34.49S293.67,61.57,299.63,42.24Z"/><path class="cls-2" d="M36.05,42.24a11.49,11.49,0,0,1-.52-3.37Z"/><path class="cls-2" d="M260.42,105.13q-3.51,5.84-7.28,11.59h0C255.61,112.87,258.07,109,260.42,105.13Z"/><path class="cls-2" d="M300.14,38.87a11.48,11.48,0,0,1-.51,3.37Z"/><path class="cls-4" d="M280.6,51.6a119.19,119.19,0,0,1-19.89,7.54l-1,.31-1.07.3-1.08.3-1.1.3-1.11.29c-1.49.39-3,.78-4.59,1.15l-1.52.36q-2.92.68-6,1.32c-1.17.24-2.36.48-3.57.71l-.88.17c-2.94.55-6,1.08-9.13,1.57l-1.9.29-1.93.28-1.5.22c-2.1.29-4.25.57-6.43.83l-2,.23-4.78.52-3.06.3-.9.08-1.8.16-2.27.19-1.85.14c-1.65.13-3.32.25-5,.35l-2.07.13-2.08.12h-.21l-2.31.11c-.66,0-1.31.07-2,.09s-1.47.07-2.21.09l-1,0-1.53.05c-1,0-2.09.07-3.14.09l-1.87.05-5,.08-2.25,0h-5.42l-2.25,0-5-.08L156,70.24c-1.05,0-2.09,0-3.13-.09l-1.54-.05-1,0c-.74,0-1.48,0-2.21-.09s-1.32,0-2-.09l-2.31-.11h-.21l-2.08-.12-2.07-.13c-1.68-.1-3.35-.22-5-.35L132.63,69l-2.27-.19-1.8-.16-.9-.08-3.06-.3-4.78-.52-2-.23c-2.18-.26-4.33-.54-6.42-.83l-1.51-.22L108,66.21l-1.89-.29c-3.15-.49-6.2-1-9.14-1.57l-.87-.17c-1.22-.23-2.41-.47-3.58-.71q-3.1-.64-6-1.32L85,61.79c-1.57-.37-3.1-.76-4.59-1.15l-1.11-.29-1.1-.3-1.08-.3L76,59.45l-1-.31A119.53,119.53,0,0,1,55.08,51.6c19.47-9.79,59.4-18.78,112.76-18.78S261.14,41.81,280.6,51.6Z"/><path class="cls-5" d="M38.65,59h0"/><path class="cls-5" d="M41.21,75.73v0"/><path class="cls-5" d="M261.42,103.46l-1,1.67c-2.35,3.89-4.81,7.74-7.32,11.59h0c-5.52,8.49-11.44,16.83-17.68,24.95-32.66,42.41-71.85,75.9-110.37,94.26-20.61,9.81-39.85,14.72-56.82,14.72H68.1c-15.82,0-29.64-4.31-40.78-12.89C-10.1,209-7.4,138.41,34,62.22a6.2,6.2,0,0,1,4.6-3.2L41.2,75.75C7.15,142.34,4.41,204.15,35,227.73c8.42,6.49,19,9.91,31.11,10.25h0c15.51.44,33.68-4,53.5-13.51C156.39,207,194,174.8,225.43,133.94a373.59,373.59,0,0,0,24.06-35.21c.35-.58.7-1.15,1-1.73a6.33,6.33,0,0,1,10.89,6.46Z"/><path class="cls-6" d="M271.4,100.23a16.65,16.65,0,0,1-16.65,16.65,14.39,14.39,0,0,1-1.61-.16q3.78-5.76,7.28-11.59l1-1.67A6.33,6.33,0,0,0,250.53,97c-.34.58-.69,1.15-1,1.73-2.42,4-5,8-7.58,12a16.62,16.62,0,1,1,29.49-10.49Z"/><path class="cls-2" d="M260.42,105.13q-3.51,5.84-7.28,11.59h0C255.61,112.87,258.07,109,260.42,105.13Z"/></g></g></svg>