<svg xmlns="http://www.w3.org/2000/svg" viewBox="0 0 253.14 411.41"><defs><style>.cls-1{fill:#cbeaf3;}.cls-1,.cls-3{stroke:#231f20;stroke-miterlimit:10;stroke-width:2px;}.cls-2{fill:#231f20;}.cls-3{fill:#ef4923;}</style></defs><g id="Layer_2" data-name="Layer 2"><g id="Layer_1-2" data-name="Layer 1"><path class="cls-1" d="M236.08,134.81s0-12.25-.34-16.32c-3.09-38.67-24.29-69.23-24.29-69.23s-7.66-15.64-29.3-16c-.28,0-17.62,0-22.77-8.48L97.14,23.4V37.28s-48.46,30-95.06,105.19c0,0-5.33,28.62,7.66,32.29v202s1.33,33.61,125.48,33.61c0,0,85.72-1.47,109.67-26.45a14.55,14.55,0,0,0,3.84-10.07V174.76S262,147.79,236.08,134.81Zm-40.73,1.59c-27.85.2-40.77-51.63-41.94-68.83-1.32-19.64,26.2-19.42,26.2-19.42,18.52,4.8,25.45,52.84,27.64,74.4C208,129.72,202.56,136.35,195.35,136.4Z"/><path class="cls-2" d="M208.12,67.57A116.64,116.64,0,0,1,214,81.35a134.77,134.77,0,0,1,4.28,14.37c.55,2.44,1.06,4.9,1.47,7.37s.7,5,.84,7.49c.29,5,.13,10.14-1.45,14.91a54.91,54.91,0,0,0-.1-14.77,138.73,138.73,0,0,0-2.7-14.54c-1.12-4.81-2.44-9.59-3.82-14.35S209.62,72.33,208.12,67.57Z"/><path class="cls-2" d="M224.1,143.13a36,36,0,0,1,4.64,5.52,41.87,41.87,0,0,1,3.62,6.27,27.76,27.76,0,0,1,2.24,7c.38,2.4.38,5.07-.85,7.21a15.59,15.59,0,0,0-.67-6.87c-.34-1.1-.71-2.19-1.15-3.26s-.88-2.15-1.38-3.2c-1-2.13-2.06-4.21-3.14-6.3S225.19,145.28,224.1,143.13Z"/><path class="cls-2" d="M68.65,96.53c-2.09,2.39-4.16,4.79-6.12,7.27s-3.94,5-5.84,7.48-3.74,5.08-5.5,7.7-3.49,5.24-5.09,8-3.17,5.44-4.56,8.26a92.92,92.92,0,0,0-3.84,8.59,63.05,63.05,0,0,0-4.33,18.32,46.29,46.29,0,0,1,.52-9.54,58.46,58.46,0,0,1,2.34-9.31,88.28,88.28,0,0,1,8.16-17.34,128.58,128.58,0,0,1,11.08-15.59A121.85,121.85,0,0,1,68.65,96.53Z"/><path class="cls-2" d="M8.4,146.79c9.59,1.68,19.23,3,28.89,4.12s19.33,2.07,29,2.75l7.28.5,3.63.26,3.64.19c4.85.24,9.7.54,14.56.72l14.57.4c4.86.1,9.72,0,14.57.07,2.43,0,4.86.06,7.29,0l7.29-.15,7.28-.15c2.43-.05,4.86-.07,7.28-.22l14.56-.74,3.64-.19c1.21-.06,2.42-.19,3.63-.28l7.27-.56c19.4-1.31,38.67-4,57.94-6.74l-14.37,2.56-7.2,1.26-1.8.32-1.8.24-3.62.5-14.49,1.9c-2.41.35-4.83.57-7.26.8l-7.27.69c-9.68,1.1-19.42,1.47-29.15,2.05-2.43.17-4.87.21-7.3.28l-7.3.19-7.31.2c-2.43.05-4.87,0-7.31,0q-29.22,0-58.37-2.61c-9.7-.87-19.38-2-29-3.3C27.53,150.42,17.91,148.91,8.4,146.79Z"/><path class="cls-2" d="M248.73,174.75c-19.86,3.17-39.89,5.24-59.95,6.75s-40.19,2.16-60.32,2.31l-15.09-.1-15.09-.47c-5-.09-10-.46-15.07-.74s-10.06-.49-15.06-1.05A538.67,538.67,0,0,1,8.4,173.09l14.92,2.18c2.49.35,5,.78,7.46,1.06l7.49.8,7.49.85c2.49.26,5,.61,7.49.77l15,1.16c20,1.26,40.11,2.15,60.19,1.9,20.08,0,40.16-.68,60.22-1.84l15-1c5-.41,10-.75,15-1.22C228.75,177,238.74,175.93,248.73,174.75Z"/><rect class="cls-3" x="94.28" y="1" width="69.23" height="27.63" rx="7.19"/></g></g></svg>