<svg xmlns="http://www.w3.org/2000/svg" viewBox="0 0 339.33 462.31"><defs><style>.cls-1{fill:#af6400;}.cls-1,.cls-2,.cls-3,.cls-4{stroke:#000;stroke-linecap:round;stroke-linejoin:round;stroke-width:2px;}.cls-2{fill:#513009;}.cls-3{fill:#d87e12;}.cls-4{fill:#381401;}</style></defs><g id="Layer_2" data-name="Layer 2"><g id="Layer_1-2" data-name="Layer 1"><path class="cls-1" d="M309,45c1-.25,1.89-.51,2.8-.76l.18-.06c1.2-.34,2.35-.69,3.47-1l1.1-.36,1-.32L318.7,42l1-.35c1.33-.48,2.59-1,3.77-1.48l.86-.38.76-.34.17-.08L326,39c.27-.12.53-.26.78-.38.51-.26,1-.52,1.46-.78s1-.6,1.51-.9c.23-.14.46-.3.68-.45h0l.58-.41a17.5,17.5,0,0,0,1.74-1.43v0C328.78,38.37,320.56,41.86,309,45Zm-3.35.86.39-.1-3.11.75C303.85,46.25,304.75,46,305.64,45.81Zm-31.92,5.88-5.6.75Q271,52.08,273.72,51.69Zm-220.93-2c-1.69-.29-3.34-.58-5-.88C49.44,49.13,51.09,49.43,52.79,49.71Zm-16-3.16c-1-.22-1.93-.45-2.86-.68C34.88,46.11,35.84,46.33,36.81,46.55ZM26.86,44l1.47.42,1.4.38,1.65.44c-2.08-.55-4.07-1.1-5.95-1.67ZM6.16,34.25c.2.21.42.42.65.63s.24.21.36.3.5.42.77.62a3.4,3.4,0,0,0,.3.23l.15.11.39.27c.14.11.3.21.45.31.35.23.71.45,1.09.68l.64.37c.26.16.53.3.8.45l1,.53.71.34c.6.3,1.24.59,1.9.87s1.35.57,2.06.86c.47.19,1,.38,1.46.56l.75.27.77.28c.78.28,1.59.55,2.41.82l1.46.46c-8.8-2.75-15-5.79-18.15-9Z"/><path class="cls-2" d="M335.46,29.5C335.46,13.76,261.23,1,169.67,1S3.87,13.76,3.87,29.5a6.86,6.86,0,0,0,2.29,4.75v0c2.92,3,8.58,5.87,16.53,8.49l1.62.51,1.11.35h0c1.88.57,3.87,1.12,5.95,1.67l2.57.64c.93.23,1.89.46,2.86.68l1.2.28,3,.64,2,.42,1.7.34,1.92.37,1.21.23c1.62.3,3.27.59,5,.88l1.27.22,2.14.35.53.09c1.33.21,2.69.43,4.07.63l.42.06c1.44.21,2.91.43,4.4.63l3,.41,4.61.59,3.51.42.23,0,3.33.37L82,53.7l.18,0,3,.31.51,0,3.21.32,1,.1,3.18.29,4.83.42,2.46.19,2.47.2,1.67.12,5,.35,3.1.21,5.76.34,3.22.17.67,0,2,.1c1.08.06,2.17.11,3.26.15l2.68.13h.3l3.59.14h.13l3.5.13h.54l3.12.1q6.61.19,13.41.3l3.39,0c1.68,0,3.37,0,5.06,0h10.68l3.79,0,2.58,0q4.35,0,8.63-.14c1.08,0,2.15,0,3.22-.07l2.25-.05,2.56-.07,1.2,0,1.29,0,1.59-.06c1.36,0,2.7-.08,4-.14l2-.07,4.78-.21c1.06,0,2.11-.09,3.16-.15l1.82-.09H217l4.28-.22,2.19-.13c3.63-.22,7.21-.45,10.72-.7l3-.23c.65,0,1.3-.09,1.95-.15l2.44-.2q7.26-.6,14.1-1.31l1.7-.18,2.3-.26,1.89-.21,4.11-.48,2.48-.31,5.6-.75,1.4-.2,3.05-.44q1.5-.21,3-.45l1.47-.23L285,50l2.33-.4,3.73-.66,2.28-.43,1-.19,1.89-.38.16,0c2.28-.46,4.48-.94,6.58-1.43h0l3.11-.75,1.12-.28,1.1-.28L309,45c11.57-3.09,19.79-6.58,23.74-10.32v0C334.52,33,335.46,31.27,335.46,29.5ZM169.67,50C87.44,50,20.78,40.82,20.78,29.5S87.44,9,169.67,9,318.55,18.18,318.55,29.5,251.89,50,169.67,50Z"/><path class="cls-3" d="M169.67,9C87.44,9,20.78,18.18,20.78,29.5S87.44,50,169.67,50s148.88-9.18,148.88-20.5S251.89,9,169.67,9Zm-77,26.7c-15.25,0-27.62-2.78-27.62-6.21s12.37-6.2,27.62-6.2,27.64,2.77,27.64,6.2S107.94,35.71,92.67,35.71Z"/><path class="cls-4" d="M120.31,29.5c0,3.43-12.37,6.21-27.64,6.21S65.05,32.93,65.05,29.5s12.37-6.2,27.62-6.2S120.31,26.07,120.31,29.5Z"/><path class="cls-2" d="M338.33,310.29c0,2.52-1.95,5-5.6,7.3h0a49,49,0,0,1-8.41,4.09l-.79.3c-.54.2-1.09.41-1.65.6l-1,.34-1,.34h0l-1.24.4c-1.25.4-2.57.79-3.93,1.18l-.79.22-.42.12-1,.27-1,.27c-1.35.35-2.75.69-4.18,1a.35.35,0,0,0-.11,0l-1.89.43c-.57.14-1.14.26-1.73.39l-.32.07-3.18.68-1.58.32-1.71.34-1.46.27-1.48.28-1.5.27-1.52.27q-3.06.52-6.29,1l-1.48.23-3,.46H280l-2.6.37-.42.06-3.15.43-3.11.4-1.74.22c-3.27.4-6.64.79-10.09,1.15-1.6.17-3.21.34-4.85.49-1,.11-2.06.21-3.11.3-.87.09-1.75.16-2.63.24l-3.73.32-1.75.15-3.71.29-.76.06-3,.22-3.8.26-2.79.18-3.25.2-3.29.19-3.32.18-6.73.32-3.4.14-3,.12h-.21l-3.25.12-1.08,0c-1,0-1.93.06-2.9.09l-2.92.08-3.78.09-2.54.05-1.27,0-3.58.06-3.15,0h-.79c-1.08,0-2.18,0-3.28,0l-2.94,0h-8.71l-3,0-2.77,0h-.7q-4.31,0-8.54-.13c-1.41,0-2.82-.05-4.22-.09l-1.78,0-2.41-.06-.52,0-2.91-.09-.72,0-1.29,0-2.66-.1h-.17l-3.3-.13c-.94,0-1.87-.07-2.81-.12l-2-.09-2-.09-3.38-.17-3.25-.17-3.24-.19h-.16c-1.89-.11-3.77-.24-5.64-.36l-4.1-.28-2.93-.22-.68-.05-3-.24q-3-.24-6-.51l-2.93-.26-.69-.07L84,334.84l-1.74-.17-2.72-.29c-.82-.09-1.63-.17-2.43-.27l-1.7-.19-1.8-.21L68,333l-2.71-.35-2.47-.34-1.52-.21L60.05,332l-1.35-.2-2.44-.37c-1.29-.19-2.55-.39-3.81-.6l-3.68-.62-3.53-.63-1.15-.22L43,329.1q-3.39-.66-6.54-1.34l-4.11-.93L31,326.52c-.42-.09-.82-.19-1.23-.3l-.43-.11-1.18-.3-2.78-.75-.64-.18-.88-.25-1.56-.46-1.79-.55-1-.32-1-.35-.9-.31-.87-.31c-.29-.11-.58-.22-.86-.31l-1.33-.52c-.45-.17-.9-.35-1.33-.54-.22-.08-.44-.18-.65-.27l-.78-.34q-1.16-.53-2.19-1.05l-.81-.42c-.26-.13-.53-.28-.78-.43L7.3,318l-.7-.43-.44-.29h0c-3.37-2.25-5.16-4.6-5.16-7s1.8-4.77,5.16-7v0c.13-.08.22-.17.34-.25,6.93,14.63,77.31,26.13,163.17,26.13h5.62l6.68-.07q1.23,0,2.43,0H185l4.32-.08h.16l3.78-.09.93,0,2.1-.05c3.65-.1,7.25-.23,10.82-.38l2.74-.11c9-.4,17.71-.92,26-1.57l2.34-.18q3.53-.29,7-.6l1.26-.11.74-.07,1.65-.16c4.36-.42,8.61-.87,12.72-1.36l2.11-.26c2.85-.35,5.65-.71,8.36-1.09l1.45-.21c4.87-.69,9.52-1.44,13.89-2.22l2.32-.44q3.86-.72,7.42-1.48l1-.24c1.92-.42,3.78-.85,5.56-1.3.72-.17,1.41-.35,2.11-.53l1.35-.36c1.35-.36,2.67-.73,3.92-1.11s2.27-.68,3.34-1c.59-.19,1.16-.39,1.72-.59.83-.29,1.64-.58,2.43-.88l.77-.3a55.07,55.07,0,0,0,5.93-2.69l.72-.39q1-.56,1.83-1.11a13.2,13.2,0,0,0,5-5C336.4,305.36,338.33,307.79,338.33,310.29Z"/><path class="cls-1" d="M6.5,303.05c-.12.08-.21.17-.34.25v0Z"/><path class="cls-1" d="M6.16,317.3l.44.29c-.15-.08-.29-.18-.44-.28Z"/><path class="cls-1" d="M9.62,319.3q1,.52,2.19,1.05C11,320,10.3,319.65,9.62,319.3Z"/><path class="cls-1" d="M25.42,325.06l2.78.75C27.25,325.56,26.32,325.32,25.42,325.06Z"/><path class="cls-1" d="M32.3,326.83l4.11.93C35,327.46,33.64,327.15,32.3,326.83Z"/><path class="cls-1" d="M36.41,327.76q3.15.67,6.54,1.34Q39.56,328.46,36.41,327.76Z"/><path class="cls-1" d="M45.24,329.53l3.53.63Z"/><path class="cls-1" d="M48.77,330.16l3.68.62C51.2,330.58,50,330.37,48.77,330.16Z"/><path class="cls-1" d="M68,333l5.56.68C71.68,333.5,69.82,333.26,68,333Z"/><path class="cls-1" d="M91.1,335.51q3,.27,6,.51Q94.05,335.78,91.1,335.51Z"/><path class="cls-1" d="M300.09,328.36l3.18-.68C302.23,327.92,301.17,328.14,300.09,328.36Z"/><path class="cls-1" d="M314.7,324.84c1.82-.52,3.54-1,5.17-1.58Q317.43,324.07,314.7,324.84Z"/><path class="cls-1" d="M332.73,317.58h0a53.45,53.45,0,0,1-10.85,5A54,54,0,0,0,332.73,317.58Z"/><path class="cls-2" d="M338.33,169.89c0,2.53-1.95,5-5.6,7.3h0a49,49,0,0,1-8.41,4.09l-.79.3-1.65.6-1,.34-1,.34h0l-1.24.4c-1.25.4-2.57.78-3.93,1.18l-.79.22-.42.12-1,.27-1,.26c-1.35.35-2.75.7-4.18,1.05l-.11,0-1.89.44-1.73.39-.32.07-3.18.68c-.52.1-1,.2-1.58.32l-1.71.33-1.46.28-1.48.28-1.5.27-1.52.27q-3.06.53-6.29,1l-1.48.23c-1,.15-2,.31-3,.45l-.08,0-2.6.37-.42.06-3.15.43-3.11.4-1.74.22c-3.27.4-6.64.79-10.09,1.15l-4.85.49c-1,.11-2.06.2-3.11.3l-2.63.24-3.73.32-1.75.15-3.71.29-.76.06-3,.22-3.8.26-2.79.18-3.25.2-3.29.19-3.32.17q-3.35.18-6.73.32c-1.13.06-2.26.1-3.4.15l-3,.12h-.21l-3.25.11-1.08,0-2.9.09-2.92.08-3.78.09-2.54.05-1.27,0-3.58,0-3.15,0h-.79l-3.28,0-2.94,0h-8.71l-3,0-2.77,0h-.7c-2.87,0-5.72-.08-8.54-.13l-4.22-.09-1.78,0-2.41-.07h-.52l-2.91-.09-.72,0-1.29,0-2.66-.1h-.17l-3.3-.13-2.81-.12-2-.09-2-.09-3.38-.17-3.25-.18-3.24-.18-.16,0-5.64-.35-4.1-.29-2.93-.21-.68,0-3-.24q-3-.24-6-.51c-1-.09-2-.17-2.93-.27l-.69-.06L84,194.45l-1.74-.18L79.49,194l-2.43-.27-1.7-.19-1.8-.21L68,192.64l-2.71-.36L62.82,192l-1.52-.21-1.25-.18-1.35-.2L56.26,191c-1.29-.2-2.55-.39-3.81-.6s-2.47-.41-3.68-.63-2.37-.42-3.53-.63c-.38-.07-.77-.13-1.15-.21L43,188.7c-2.26-.43-4.44-.88-6.54-1.33-1.41-.31-2.77-.62-4.11-.94-.42-.09-.85-.19-1.26-.3l-1.23-.3-.43-.11-1.18-.3-2.78-.75-.64-.18-.88-.25-1.56-.46c-.61-.18-1.21-.37-1.79-.56l-1-.32-1-.34-.9-.31-.87-.31-.86-.32-1.33-.51c-.45-.17-.9-.35-1.33-.54l-.65-.27-.78-.35c-.77-.35-1.5-.69-2.19-1l-.81-.42c-.26-.14-.53-.28-.78-.43l-.73-.43-.7-.43-.44-.29h0c-3.37-2.25-5.16-4.6-5.16-7s1.8-4.76,5.16-7v0c.13-.08.22-.17.34-.25,6.93,14.63,77.31,26.13,163.17,26.13h3.09l2.53,0q3.36,0,6.68-.06l2.43,0H185l4.32-.08h.16l3.78-.1.93,0,2.1-.06c3.65-.1,7.25-.22,10.82-.37.92,0,1.82-.07,2.74-.12,9-.39,17.71-.91,26-1.56l2.34-.19q3.53-.27,7-.59l1.26-.12.74-.07,1.65-.15c4.36-.42,8.61-.88,12.72-1.37l2.11-.25c2.85-.35,5.65-.71,8.36-1.1l1.45-.2c4.87-.7,9.52-1.44,13.89-2.23l2.32-.43q3.86-.72,7.42-1.49l1-.23c1.92-.42,3.78-.86,5.56-1.3.72-.17,1.41-.35,2.11-.53l1.35-.36c1.35-.36,2.67-.74,3.92-1.11s2.27-.69,3.34-1c.59-.18,1.16-.38,1.72-.58.83-.29,1.64-.59,2.43-.88l.77-.3a55.07,55.07,0,0,0,5.93-2.69l.72-.39q1-.56,1.83-1.11a13.27,13.27,0,0,0,5-5C336.4,165,338.33,167.4,338.33,169.89Z"/><path class="cls-1" d="M6.5,162.66c-.12.08-.21.17-.34.25v0Z"/><path class="cls-1" d="M6.16,176.91l.44.29-.44-.28Z"/><path class="cls-1" d="M9.62,178.91c.69.35,1.42.69,2.19,1C11,179.61,10.3,179.26,9.62,178.91Z"/><path class="cls-1" d="M25.42,184.67l2.78.75C27.25,185.17,26.32,184.93,25.42,184.67Z"/><path class="cls-1" d="M32.3,186.43c1.34.32,2.7.63,4.11.94C35,187.06,33.64,186.75,32.3,186.43Z"/><path class="cls-1" d="M36.41,187.37c2.1.45,4.28.9,6.54,1.33Q39.56,188.06,36.41,187.37Z"/><path class="cls-1" d="M45.24,189.13c1.16.21,2.33.43,3.53.63C47.57,189.56,46.39,189.35,45.24,189.13Z"/><path class="cls-1" d="M48.77,189.76c1.21.22,2.44.42,3.68.63C51.2,190.19,50,190,48.77,189.76Z"/><path class="cls-1" d="M68,192.64l5.56.68Z"/><path class="cls-1" d="M91.1,195.12q3,.27,6,.51Q94.05,195.39,91.1,195.12Z"/><path class="cls-1" d="M300.09,188l3.18-.68Z"/><path class="cls-1" d="M314.7,184.45q2.73-.78,5.17-1.58Q317.43,183.68,314.7,184.45Z"/><path class="cls-1" d="M332.73,177.19h0a52.88,52.88,0,0,1-10.85,5A54,54,0,0,0,332.73,177.19Z"/><path class="cls-1" d="M332.73,177.19v126a13.5,13.5,0,0,1-4.86,4.83q-.86.56-1.83,1.11l-.72.39-.66.35c-1.56.79-3.33,1.57-5.27,2.34l-.77.3c-.79.3-1.6.59-2.43.88l-1.72.59c-1.07.34-2.18.69-3.34,1s-2.57.75-3.92,1.11l-1.35.36c-.7.18-1.39.36-2.11.53-1.78.45-3.64.88-5.56,1.3l-1,.24q-3.57.76-7.42,1.48l-2.32.44c-4.37.78-9,1.53-13.89,2.22l-1.45.21c-2.71.38-5.51.74-8.36,1.09l-2.11.26c-4.11.49-8.36.94-12.72,1.36l-1.65.16-.74.07-1.26.11q-3.45.31-7,.6l-2.34.18c-8.34.65-17,1.17-26,1.57l-2.74.11c-3.57.15-7.17.28-10.82.38l-2.1.05-.93,0-3.78.09h-.16l-4.32.08h-.62q-1.2,0-2.43,0l-6.68.07h-5.62c-85.86,0-156.24-11.5-163.17-26.13l-.34.23V176.92l.44.28.7.43.73.43c.25.15.52.29.78.43l.81.42c.68.35,1.42.7,2.19,1l.78.35.65.27c.43.19.88.37,1.33.54l1.33.51.86.32.87.31.9.31,1,.34,1,.32c.58.19,1.18.38,1.79.56l1.56.46.88.25.64.18c.9.26,1.83.5,2.78.75l1.18.3.43.11,1.23.3c.41.11.84.21,1.26.3,1.34.32,2.7.63,4.11.94q3.15.69,6.54,1.33l1.14.22c.38.08.77.14,1.15.21,1.15.22,2.33.43,3.53.63s2.43.43,3.68.63,2.52.4,3.81.6l2.44.37,1.35.2,1.25.18,1.52.21,2.47.33,2.71.36,5.56.68,1.8.21,1.7.19,2.43.27,2.72.28,1.74.18,3.53.34.69.06c1,.1,2,.18,2.93.27q3,.27,6,.51l3,.24.68,0,2.93.21,4.1.29c1.87.13,3.75.24,5.64.35l.16,0,3.24.18,3.25.18,3.38.17,2,.09,2,.09,2.81.12,3.3.13h.17l2.66.1,1.29,0,.72,0,2.91.09h.52l2.41.07,1.78,0,4.22.09c2.82,0,5.67.1,8.54.13h.7l2.77,0,3,0H174l2.94,0,3.28,0H181l3.15,0,3.58,0,1.27,0,2.54-.05,3.78-.09,2.92-.08,2.9-.09,1.08,0,3.25-.11h.21l3-.12c1.14,0,2.27-.09,3.4-.15q3.39-.14,6.73-.32l3.32-.17,3.29-.19,3.25-.2,2.79-.18,3.8-.26,3-.22.76-.06,3.71-.29,1.75-.15,3.73-.32,2.63-.24c1.05-.1,2.08-.19,3.11-.3l4.85-.49c3.45-.36,6.82-.75,10.09-1.15l1.74-.22,3.11-.4,3.15-.43.42-.06,2.6-.37.08,0q1.53-.21,3-.45l1.48-.23q3.22-.51,6.29-1l1.52-.27,1.5-.27,1.48-.28,1.46-.28,1.71-.33c.53-.12,1.06-.22,1.58-.32l3.18-.68.32-.07,1.73-.39,1.89-.44.11,0c1.43-.35,2.83-.7,4.18-1.05l1-.26,1-.27.42-.12.79-.22q2.73-.76,5.17-1.58h0l1-.34,1-.34A52.88,52.88,0,0,0,332.73,177.19Z"/><path class="cls-1" d="M6.16,303.28l.34-.23c-.12.08-.21.17-.34.25Z"/><path class="cls-1" d="M6.6,177.2l-.44-.28h0Z"/><path class="cls-1" d="M11.81,180c-.77-.34-1.51-.69-2.19-1C10.31,179.26,11,179.6,11.81,180Z"/><path class="cls-1" d="M28.2,185.42c-.95-.25-1.88-.49-2.78-.75Z"/><path class="cls-1" d="M36.41,187.37c-1.41-.31-2.77-.62-4.11-.94C33.64,186.75,35,187.06,36.41,187.37Z"/><path class="cls-1" d="M43,188.7q-3.39-.64-6.54-1.33C38.51,187.82,40.69,188.27,43,188.7Z"/><path class="cls-1" d="M48.77,189.76c-1.2-.2-2.38-.41-3.53-.63C46.4,189.34,47.57,189.56,48.77,189.76Z"/><path class="cls-1" d="M52.45,190.39c-1.25-.2-2.47-.41-3.68-.63C50,190,51.21,190.18,52.45,190.39Z"/><path class="cls-1" d="M73.56,193.32,68,192.64Z"/><path class="cls-1" d="M97.08,195.63q-3-.24-6-.51Q94.06,195.39,97.08,195.63Z"/><path class="cls-1" d="M303.27,187.29l-3.18.68Z"/><path class="cls-2" d="M319.87,182.87q-2.44.81-5.17,1.58Q317.43,183.67,319.87,182.87Z"/><path class="cls-1" d="M332.73,177.19h0a52.88,52.88,0,0,1-10.85,5A54,54,0,0,0,332.73,177.19Z"/><path class="cls-2" d="M338.33,432.81c0,15.74-75.52,28.5-168.66,28.5S1,448.55,1,432.81c0-2.42,1.8-4.77,5.16-7v0l.34-.25c6.93,14.62,77.31,26.13,163.17,26.13,8.28,0,16.42-.11,24.36-.32.77,0,1.52,0,2.28-.06l.91,0,3-.1,1.37,0,4.76-.18q7.05-.28,13.87-.67l2.69-.15q4.59-.27,9-.6l3.34-.24,5.91-.48,1.27-.11.6-.05,2.16-.19q4.47-.4,8.78-.86l2.91-.31,3.13-.36,1.33-.16c6.24-.73,12.18-1.54,17.77-2.42.4-.05.78-.12,1.17-.18l1.95-.32,2.28-.38c1.77-.3,3.5-.62,5.18-.93l2.5-.48q3.87-.77,7.44-1.57l1.9-.44,1.1-.26c1.09-.27,2.15-.53,3.19-.81l1.35-.35,1-.28,2.61-.74.31-.09,1.55-.47,1.5-.48,1.44-.48,1.4-.49c1.07-.39,2.1-.78,3.08-1.17l1.24-.52.8-.35c5.68-2.51,9.35-5.21,10.69-8C336.4,427.89,338.33,430.31,338.33,432.81Z"/><path class="cls-1" d="M6.5,425.58l-.34.25v0Z"/><path class="cls-1" d="M332.73,317.59V425.73c-1.32,2.63-4.71,5.16-9.87,7.54l-.72.33-.8.35-1.24.52c-1,.39-2,.78-3.08,1.17l-1.4.49-1.44.48-1.5.48-1.55.47-.31.09-2.61.74-1,.28-1.35.35-3.19.81-1.1.26-1.9.44q-3.57.81-7.44,1.57l-2.5.48c-1.68.31-3.41.63-5.18.93l-2.28.38-1.95.32c-.39.06-.77.13-1.17.18-5.59.88-11.53,1.69-17.77,2.42l-1.33.16-3.13.36-2.91.31q-4.31.45-8.78.86l-2.16.19-.6.05-1.27.11-5.91.48-3.34.24q-4.45.33-9,.6l-2.69.15q-6.81.39-13.87.67l-4.76.18-1.37,0-3,.1-.91,0c-.76,0-1.51.05-2.28.06-7.94.21-16.08.32-24.36.32-85.86,0-156.24-11.51-163.17-26.13l-.34.22V317.31c.15.1.29.2.44.28l.7.43c.24.16.48.29.73.43s.52.3.78.43l.81.42c.68.35,1.42.7,2.19,1.05l.78.34c.21.09.43.19.65.27.43.19.88.37,1.33.54l1.33.52c.28.09.57.2.86.31l.87.31.9.31,1,.35,1,.32,1.79.55,1.56.46.88.25.64.18c.9.26,1.83.5,2.78.75l1.18.3.43.11c.41.11.81.21,1.23.3l1.26.31c1.34.32,2.7.63,4.11.93q3.15.69,6.54,1.34l1.14.21,1.15.22,3.53.63c1.21.21,2.43.42,3.68.62s2.52.41,3.81.6l2.44.37,1.35.2,1.25.18,1.52.21,2.47.34L68,333c1.82.23,3.68.47,5.56.68l1.8.21,1.7.19c.8.1,1.61.18,2.43.27l2.72.29,1.74.17,3.53.34.69.07,2.93.26q3,.27,6,.51l3,.24.68.05,2.93.22,4.1.28q2.81.19,5.64.36h.16l3.24.19,3.25.17,3.38.17,2,.09,2,.09c.94.05,1.87.09,2.81.12l3.3.13h.17l2.66.1,1.29,0,.72,0,2.91.09.52,0,2.41.06,1.78,0c1.4,0,2.81.07,4.22.09q4.23.09,8.54.13h.7l2.77,0,3,0H174l2.94,0c1.1,0,2.2,0,3.28,0H181l3.15,0,3.58-.06,1.27,0,2.54-.05,3.78-.09,2.92-.08c1,0,1.94-.05,2.9-.09l1.08,0c1.09,0,2.17-.07,3.25-.12h.21l3-.12,3.4-.14,6.73-.32,3.32-.18,3.29-.19,3.25-.2,2.79-.18,3.8-.26,3-.22.76-.06,3.71-.29,1.75-.15,3.73-.32c.88-.08,1.76-.15,2.63-.24,1.05-.09,2.08-.19,3.11-.3,1.64-.15,3.25-.32,4.85-.49,3.45-.36,6.82-.75,10.09-1.15l1.74-.22,3.11-.4,3.15-.43.42-.06,2.6-.37H280l3-.46,1.48-.23q3.22-.51,6.29-1l1.52-.27,1.5-.27,1.48-.28,1.46-.27,1.71-.34,1.58-.32c1.08-.22,2.14-.44,3.18-.68l.32-.07c.59-.13,1.16-.25,1.73-.39l1.89-.43a.35.35,0,0,1,.11,0c1.43-.35,2.83-.69,4.18-1l1-.27,1-.27.42-.12.79-.22q2.73-.76,5.17-1.58h0l1-.34,1-.34A53.45,53.45,0,0,0,332.73,317.59Z"/><path class="cls-1" d="M6.16,425.8l.34-.22-.34.25Z"/><path class="cls-1" d="M6.6,317.59c-.15-.08-.29-.18-.44-.28h0Z"/><path class="cls-1" d="M11.81,320.35c-.77-.35-1.51-.7-2.19-1.05Q10.66,319.82,11.81,320.35Z"/><path class="cls-1" d="M28.2,325.81c-.95-.25-1.88-.49-2.78-.75Z"/><path class="cls-1" d="M36.41,327.76c-1.41-.3-2.77-.61-4.11-.93Z"/><path class="cls-1" d="M43,329.1q-3.39-.64-6.54-1.34Q39.56,328.43,43,329.1Z"/><path class="cls-1" d="M48.77,330.16l-3.53-.63Z"/><path class="cls-1" d="M52.45,330.78c-1.25-.2-2.47-.41-3.68-.62Z"/><path class="cls-1" d="M73.56,333.71c-1.88-.21-3.74-.45-5.56-.68Z"/><path class="cls-1" d="M97.08,336q-3-.24-6-.51Q94.06,335.78,97.08,336Z"/><path class="cls-1" d="M303.27,327.68c-1,.24-2.1.46-3.18.68Z"/><path class="cls-2" d="M319.87,323.26q-2.44.81-5.17,1.58C316.52,324.32,318.24,323.8,319.87,323.26Z"/><path class="cls-1" d="M332.73,317.58h0a53.45,53.45,0,0,1-10.85,5A54,54,0,0,0,332.73,317.58Z"/><path class="cls-1" d="M332.73,34.67V162.81a13.58,13.58,0,0,1-4.86,4.83q-.86.56-1.83,1.11l-.72.39-.66.35c-1.56.79-3.33,1.57-5.27,2.34l-.77.3c-.79.29-1.6.59-2.43.88-.56.2-1.13.39-1.72.58-1.07.35-2.18.7-3.34,1s-2.57.75-3.92,1.11l-1.35.36c-.7.18-1.39.36-2.11.53-1.78.44-3.64.88-5.56,1.3l-1,.23q-3.57.77-7.42,1.49l-2.32.43c-4.37.79-9,1.53-13.89,2.23l-1.45.2c-2.71.39-5.51.75-8.36,1.1l-2.11.25c-4.11.49-8.36.95-12.72,1.37l-1.65.15-.74.07-1.26.12q-3.45.31-7,.59l-2.34.19c-8.34.65-17,1.17-26,1.56-.92.05-1.82.09-2.74.12-3.57.15-7.17.27-10.82.37l-2.1.06-.93,0-3.78.1h-.16l-4.32.08h-.62l-2.43,0q-3.32,0-6.68.06l-2.53,0h-3.09c-85.86,0-156.24-11.5-163.17-26.13l-.34.23V34.25c.2.21.42.42.65.63s.24.21.36.3.5.42.77.62a3.4,3.4,0,0,0,.3.23l.15.11.39.27c.14.11.3.21.45.31.35.23.71.45,1.09.68l.64.37c.26.16.53.3.8.45s.67.35,1,.53l.71.34c.6.3,1.24.59,1.9.87s1.35.58,2.06.86c.47.19,1,.38,1.46.56l.75.27c.25.1.51.2.77.28.78.28,1.58.56,2.41.82s1.69.55,2.57.81h0l1.43.43,1.47.42,1.4.38,1.65.44,2.57.64c.93.24,1.89.46,2.86.68l1.2.28,3,.64,2,.42,1.7.34,1.92.37,1.21.23c1.61.3,3.26.6,5,.88l1.27.22,2.14.35.53.09c1.33.21,2.69.43,4.07.63l.42.06c1.44.21,2.91.43,4.4.63l3,.41,4.61.59,3.51.42.23,0,3.33.37L82,53.7l.18,0,3,.31.51,0,3.21.32,1,.1,3.18.29,4.83.42,2.46.19,2.47.2,1.67.12,5,.35,3.1.21,5.76.34,3.22.17.67,0,2,.1c1.08.06,2.17.11,3.26.15l2.68.13h.3l3.59.14h.13l3.5.13h.54l3.12.1q6.61.19,13.41.3l3.39,0c1.68,0,3.37,0,5.06,0h10.68l3.79,0,2.58,0q4.35,0,8.63-.14c1.08,0,2.15,0,3.22-.07l2.25-.05,2.56-.07,1.2,0,1.29,0,1.59-.06c1.36,0,2.7-.08,4-.14l2-.07,4.78-.21c1.06,0,2.11-.09,3.16-.15l1.82-.09H217l4.28-.22,2.19-.13c3.63-.22,7.21-.45,10.72-.7l3-.23c.65,0,1.3-.09,1.95-.15l2.44-.2q7.26-.6,14.1-1.31l1.7-.18,2.3-.26,1.89-.21,4.11-.48,2.48-.31q2.85-.36,5.6-.75l1.4-.2,3.05-.44q1.5-.21,3-.45l1.47-.23L285,50l2.33-.4,3.73-.66,2.28-.43,1-.19,1.89-.38.16,0c2.28-.46,4.48-.94,6.58-1.43h0c.93-.21,1.83-.43,2.72-.65l2.61-.66c1.21-.32,2.4-.64,3.54-1l.18-.06c1.2-.34,2.36-.69,3.47-1l1.1-.36,1-.32L318.7,42l1-.35c1.33-.48,2.59-1,3.77-1.48l.86-.38.76-.34.17-.08L326,39c.27-.12.53-.25.78-.38.51-.26,1-.52,1.46-.78s1-.6,1.51-.9c.23-.14.46-.3.68-.45h0l.58-.41A17.5,17.5,0,0,0,332.73,34.67Z"/><path class="cls-1" d="M6.16,162.89l.34-.23c-.12.08-.21.17-.34.25Z"/><path class="cls-1" d="M24.31,43.21l1.11.35c-.88-.26-1.73-.53-2.57-.81s-1.63-.54-2.41-.82l-.77-.28-.75-.27c-.5-.18-1-.37-1.46-.56-.71-.28-1.4-.57-2.06-.86s-1.3-.57-1.9-.87l-.71-.34c-.36-.18-.7-.35-1-.53s-.54-.29-.8-.45l-.64-.37c-.38-.23-.74-.45-1.09-.68-.15-.1-.31-.2-.45-.31l-.39-.27L8.24,36a3.4,3.4,0,0,1-.3-.23c-.27-.2-.53-.41-.77-.62s-.24-.2-.36-.3-.45-.42-.65-.63v0C9.27,37.42,15.51,40.46,24.31,43.21Z"/><path class="cls-1" d="M31.38,45.23l-1.65-.44-1.4-.38L26.86,44l-1.43-.43C27.31,44.13,29.3,44.68,31.38,45.23Z"/><path class="cls-1" d="M36.81,46.55c-1-.22-1.93-.44-2.86-.68C34.88,46.1,35.84,46.33,36.81,46.55Z"/><path class="cls-1" d="M52.79,49.71c-1.7-.28-3.35-.58-5-.88C49.45,49.13,51.1,49.42,52.79,49.71Z"/><path class="cls-1" d="M273.72,51.69q-2.75.39-5.6.75Z"/><path class="cls-1" d="M306,45.71l2.22-.56-2.61.66c-.89.22-1.79.44-2.72.65Z"/><path class="cls-1" d="M332.73,34.63v0A17.5,17.5,0,0,1,331,36.1l-.58.41h0c-.22.15-.45.31-.68.45-.48.3-1,.61-1.51.9s-.95.52-1.46.78c-.25.12-.51.26-.78.38l-.71.34-.17.08-.76.34-.86.38c-1.18.5-2.44,1-3.77,1.48l-1,.35-1.18.41-1,.32-1.1.36c-1.11.35-2.27.7-3.47,1l-.18.06c-1.14.32-2.33.64-3.54,1L309,45C320.56,41.86,328.78,38.37,332.73,34.63Z"/></g></g></svg>