<svg xmlns="http://www.w3.org/2000/svg" viewBox="0 0 303.53 366.71"><defs><style>.cls-1{fill:#962d35;}.cls-1,.cls-2,.cls-3,.cls-4,.cls-5,.cls-6,.cls-7{stroke:#000;stroke-linecap:round;stroke-width:2px;}.cls-1,.cls-4,.cls-5,.cls-6,.cls-7{stroke-linejoin:round;}.cls-2{fill:#e61e25;}.cls-2,.cls-3{stroke-miterlimit:10;}.cls-3,.cls-7{fill:none;}.cls-4{fill:#e0e0e0;}.cls-5{fill:#845208;}.cls-6{fill:#d39d07;}</style></defs><g id="Layer_2" data-name="Layer 2"><g id="Layer_1-2" data-name="Layer 1"><path class="cls-1" d="M119.15,60.77c-.29-1-.59-1.93-.88-2.83C118.57,58.84,118.86,59.79,119.15,60.77Z"/><path class="cls-2" d="M218.89,82.44l-.38-.52-.43-.46-1-1.11L204.87,67.4l-8-8.55-.59-.63c-17.23-14.41-34.35-21.54-44-25.44-9-3.63-52.91-12.64-83.2-6C59.61,28.9,39.44,46,24.74,71.43c-3,5.14-6.92,11.83-11.81,19.78A80.64,80.64,0,0,0,1,133.51V333.1l177.76,32.57,61.83-27.05v-188A115.62,115.62,0,0,0,218.89,82.44ZM92.49,40.31h.18L94,40.24a37,37,0,0,1,11.11,1c.24.06.47.13.7.21s.64.21,1,.33a19.08,19.08,0,0,1,1.78.77h0a14.19,14.19,0,0,1,3.08,2.11,14.47,14.47,0,0,1,3.27,4.54,70.44,70.44,0,0,1,3.35,8.68c.29.9.59,1.85.88,2.83.14.49.29,1,.43,1.52a96.79,96.79,0,0,1,3.63,22,21,21,0,0,1-4.5,9.86c-6.94,7.88-48.27,8.63-55.43-3.37-4.17-7-.72-21.21,4.82-32.32,2.64-5.28,4.21-8.35,7.75-11.26,4.66-3.84,7.79-5.49,16.61-6.87Z"/><path class="cls-3" d="M108.73,25a210.15,210.15,0,0,1,32.08,28.58c12.62,13.83,25.8,28.26,32.77,50.84,5.82,18.82,5.18,41.47,5.18,41.47V365.67"/><path class="cls-1" d="M207.08,93.33a11.09,11.09,0,0,1-12.54-4.16L186,76.94a11.11,11.11,0,0,1,.39-13.21c-4.79-3.45-9.11-4.73-11.69-2.93-4.79,3.35-1.69,16,6.92,28.33s19.46,19.53,24.25,16.18C208.41,103.51,208.69,99,207.08,93.33Z"/><path class="cls-4" d="M214.51,85.12c-3.47-.09-8.68-4-12.91-10s-6.09-12.26-5-15.55A11.1,11.1,0,0,0,186,76.94l8.57,12.23a11.09,11.09,0,0,0,20-4Z"/><ellipse class="cls-5" cx="295.83" cy="9.13" rx="4.94" ry="9.3" transform="translate(48.26 171.33) rotate(-35)"/><ellipse cx="295.83" cy="9.13" rx="1.93" ry="3.63" transform="translate(48.26 171.33) rotate(-35)"/><path class="cls-6" d="M217.19,80.41l84.23-63.85,0,0a1.61,1.61,0,0,1-.22.23c-2.24,1.57-6.44-.58-9.38-4.79s-3.53-8.88-1.3-10.45a2.71,2.71,0,0,1,.3-.13l0,0L202,58.65s1.17,8.18,6.12,13.74A62.54,62.54,0,0,0,217.19,80.41Z"/><path class="cls-5" d="M218.11,80.8c-3.3-1.16-7.43-4.65-10.9-9.61s-5.35-10-5.31-13.54c-1.63-.57-3.08-.62-4.11.1-3.09,2.17-1.39,9.94,3.81,17.36s11.92,11.69,15,9.52C217.64,83.91,218.09,82.54,218.11,80.8Z"/><path class="cls-7" d="M208.78,54.23c.38,3.38,2.21,7.85,5.24,12.18s6.6,7.57,9.65,9.09"/><path class="cls-7" d="M216.55,49.24c.43,3.34,2.25,7.62,5.17,11.78s6.31,7.33,9.3,8.89"/><path class="cls-7" d="M224.27,44.23a29.57,29.57,0,0,0,5.14,11.4,29.78,29.78,0,0,0,9,8.73"/><path class="cls-7" d="M232,39.24a30.19,30.19,0,0,0,5.07,11,30.27,30.27,0,0,0,8.6,8.53"/><path class="cls-7" d="M239.79,34.22a31.26,31.26,0,0,0,5,10.63,31.19,31.19,0,0,0,8.27,8.35"/><path class="cls-7" d="M247.59,29.2a31.17,31.17,0,0,0,4.91,10.26,31.32,31.32,0,0,0,8,8.13"/><path class="cls-7" d="M255.37,24.16a32,32,0,0,0,4.83,9.91A32.2,32.2,0,0,0,267.86,42"/><path class="cls-7" d="M263.17,19.15a32.29,32.29,0,0,0,4.73,9.53,32.33,32.33,0,0,0,7.34,7.71"/><path class="cls-7" d="M271,14.09a33.15,33.15,0,0,0,4.62,9.2,32.91,32.91,0,0,0,7.07,7.49"/><path class="cls-7" d="M278.77,9.07a32.91,32.91,0,0,0,4.52,8.83A32.83,32.83,0,0,0,290,25.17"/><path class="cls-4" d="M58.88,192.63v10.21l6.68.48v4.61a13.93,13.93,0,0,1-3.49,2.27,6.92,6.92,0,0,1-3.19.51,6.64,6.64,0,0,1-5.5-3.8q-2-3.56-2-11.52,0-7.5,2-10.83c1.3-2.21,3-3.25,5.23-3.09a5.19,5.19,0,0,1,3.63,1.73,9.19,9.19,0,0,1,2,4.39l9.64-1.93a26.93,26.93,0,0,0-2.64-8,12.77,12.77,0,0,0-4.41-4.89q-2.66-1.65-8-2c-3.7-.27-6.65.32-8.84,1.75A17.06,17.06,0,0,0,43.58,181a39.34,39.34,0,0,0-2.18,13.82,43.38,43.38,0,0,0,2,13.66A21,21,0,0,0,49,217.78a15.25,15.25,0,0,0,9.38,3.64,17.58,17.58,0,0,0,8.08-1.09,27.18,27.18,0,0,0,7.84-5.69V193.72Z"/><path class="cls-4" d="M104.59,220.21a28.52,28.52,0,0,1-.22-4v-15.7a23.21,23.21,0,0,0-.66-5.31,12.41,12.41,0,0,0-1.8-4.4,8.33,8.33,0,0,0-4.08-3.15,25.65,25.65,0,0,0-6.48-1.14,17.83,17.83,0,0,0-4.68.24,7.91,7.91,0,0,0-3.39,1.36,9,9,0,0,0-2.64,3.21,18.92,18.92,0,0,0-1.39,5.28l8.57,2a6,6,0,0,1,1.39-3,4.34,4.34,0,0,1,3.3-.84,2.92,2.92,0,0,1,2.41,1.17,7,7,0,0,1,.68,3.57,22.85,22.85,0,0,1-3.17,1.4c-1,.34-3.18.91-6.55,1.69q-4.22,1-5.77,3.48a12.15,12.15,0,0,0-1.57,6.55A12.59,12.59,0,0,0,80.71,220a8,8,0,0,0,6.36,3.39,9.8,9.8,0,0,0,5.53-1.08,11.62,11.62,0,0,0,3.51-3.44,20,20,0,0,0,.31,2.28,16.82,16.82,0,0,0,.66,2.14l8.42.59A23.67,23.67,0,0,1,104.59,220.21Zm-9-11.7a12.79,12.79,0,0,1-.54,4.1,5.55,5.55,0,0,1-1.83,2.57,4,4,0,0,1-2.78.9,2.73,2.73,0,0,1-2.18-1.17,4.65,4.65,0,0,1-.74-2.68,4.12,4.12,0,0,1,.75-2.46,7.18,7.18,0,0,1,3.47-1.93,30.73,30.73,0,0,0,3.85-1.5Z"/><path class="cls-4" d="M131.9,208.65a9.84,9.84,0,0,0-3.34-4.15,20.23,20.23,0,0,0-6.66-2.61,10.89,10.89,0,0,1-3.84-1.47,2.53,2.53,0,0,1-.88-2,2.77,2.77,0,0,1,.7-1.93,2.56,2.56,0,0,1,2.21-.67,3.76,3.76,0,0,1,2.56,1.25,5.37,5.37,0,0,1,1.1,2.59l8.51-.67a19.71,19.71,0,0,0-2.22-5.68,9.13,9.13,0,0,0-3.32-3.25,15.44,15.44,0,0,0-6.19-1.4,13.08,13.08,0,0,0-6.32.8A8.08,8.08,0,0,0,110.5,193a12.27,12.27,0,0,0-1.34,6,13.37,13.37,0,0,0,1.24,5.8,9.1,9.1,0,0,0,3.07,3.78,31.56,31.56,0,0,0,6.49,2.75,14.78,14.78,0,0,1,3.86,1.67,3.26,3.26,0,0,1,.24,4.46,3.25,3.25,0,0,1-2.8,1,3.79,3.79,0,0,1-2.65-1.23,8.08,8.08,0,0,1-1.54-3.55l-8.9.64a15,15,0,0,0,3.49,8.14q2.73,3,9.14,3.43a12.4,12.4,0,0,0,7.17-1.22,9,9,0,0,0,3.86-4.35,14.82,14.82,0,0,0,1.22-5.91A13.9,13.9,0,0,0,131.9,208.65Z"/><path class="cls-1" d="M116.74,108.18c-8.63,9.81-60,10.73-68.92-4.18-5.18-8.67-.89-26.37,6-40.19,3.28-6.56,5.24-10.38,9.64-14C69.32,45,73.2,43,84.4,41.21c2.71-.42,5.42-.74,8.06-.89-8.82,1.38-11.95,3-16.61,6.87-3.54,2.91-5.11,6-7.75,11.26-5.54,11.11-9,25.35-4.82,32.32,7.16,12,48.49,11.25,55.43,3.37a21,21,0,0,0,4.5-9.86,96.79,96.79,0,0,0-3.63-22C123.58,76.55,126.37,97.25,116.74,108.18Z"/></g></g></svg>