<svg xmlns="http://www.w3.org/2000/svg" viewBox="0 0 127.48 200.21"><defs><style>.cls-1,.cls-3{fill:#e0e0e0;}.cls-1,.cls-4{stroke:#000;stroke-linecap:round;stroke-linejoin:round;}.cls-1,.cls-2,.cls-4{stroke-width:2px;}.cls-2{fill:#cbeaf3;stroke:#231f20;stroke-miterlimit:10;}.cls-4{fill:#2e83ff;}</style></defs><g id="Layer_2" data-name="Layer 2"><g id="Layer_1-2" data-name="Layer 1"><ellipse class="cls-1" cx="63.74" cy="27.01" rx="62.74" ry="26.01"/><ellipse class="cls-2" cx="63.74" cy="179.92" rx="47.48" ry="19.29"/><path class="cls-1" d="M111.23,179.92c0,10.65-21.26,19.29-47.49,19.29s-47.48-8.64-47.48-19.29L1,27C1,41.37,29.09,53,63.74,53s62.74-11.65,62.74-26Z"/><path class="cls-3" d="M7.52,52.56c10.24,8.59,31.54,14.51,56.22,14.51s46-5.92,56.22-14.51"/><path d="M7.52,52.56a51,51,0,0,0,13,6.79,98.27,98.27,0,0,0,14.1,3.94A131.2,131.2,0,0,0,49.1,65.4q7.31.66,14.64.67c4.89,0,9.78-.23,14.64-.68a128.87,128.87,0,0,0,14.5-2.11A97.48,97.48,0,0,0,107,59.34a51,51,0,0,0,13-6.78,47.42,47.42,0,0,1-12.61,7.7,88.48,88.48,0,0,1-14.13,4.55,131.1,131.1,0,0,1-29.48,3.26,131.65,131.65,0,0,1-29.47-3.26,87.63,87.63,0,0,1-14.14-4.56A47.44,47.44,0,0,1,7.52,52.56Z"/><ellipse class="cls-4" cx="63.74" cy="38.28" rx="56.47" ry="14.74"/></g></g></svg>