<svg xmlns="http://www.w3.org/2000/svg" viewBox="0 0 204.69 315.66"><defs><style>.cls-1{fill:#f9f18a;}.cls-1,.cls-2,.cls-3,.cls-4,.cls-7{stroke:#000;stroke-linecap:round;}.cls-1,.cls-2,.cls-5,.cls-6{stroke-miterlimit:10;}.cls-1,.cls-2,.cls-3,.cls-4,.cls-5,.cls-6,.cls-7{stroke-width:2px;}.cls-2{fill:#e61e25;}.cls-3{fill:#ddac3c;}.cls-3,.cls-4,.cls-7{stroke-linejoin:round;}.cls-4{fill:#513009;}.cls-5{fill:#aeced6;}.cls-5,.cls-6{stroke:#231f20;}.cls-6{fill:#cbeaf3;}.cls-7{fill:none;}</style></defs><g id="Layer_2" data-name="Layer 2"><g id="Layer_1-2" data-name="Layer 1"><rect class="cls-1" x="1" y="109.12" width="200.19" height="205.55"/><path class="cls-2" d="M136.61,244.48c3.81-5.08,11.25-15.1,14.58-26.71,3-10.51,8.42-29.35-2.24-43.36-.61-.81-11-14.06-27.13-12.87-7.87.59-16.66,6.64-19.33,8.7L98.88,168a36.62,36.62,0,0,0-16.22-5c-1.8-.11-18-.85-29.1,11.75-7.6,8.64-8.4,18.56-8.67,22.66-1.13,17.17,8.84,29.41,11.47,32.45a31,31,0,0,0,2.8,15.94,28.83,28.83,0,0,0,12.59,13.43,22,22,0,0,0,12,2.8,20.52,20.52,0,0,0,6.71-1.68,15.18,15.18,0,0,0,17.62-2.24,24.92,24.92,0,0,0,14.55.84c2.81-.71,7.84-2,11.19-6.71,4.27-6,2.55-13.08,2.24-14.27"/><polyline class="cls-3" points="166.09 71.04 179.69 71.04 201.03 108.57 1.18 108.57 22.48 71.04 157.18 71.04"/><line class="cls-3" x1="13" y1="87.74" x2="188.4" y2="87.74"/><path d="M124.42,179.55a59.21,59.21,0,0,0-10.6-4.73,48.89,48.89,0,0,0-5.56-1.46,43.07,43.07,0,0,0-5.66-.8,48.2,48.2,0,0,0-11.44.4,58.43,58.43,0,0,0-11.22,3,35.19,35.19,0,0,1,10.93-4.49,38.91,38.91,0,0,1,11.89-.87,39.45,39.45,0,0,1,11.6,2.8A36,36,0,0,1,124.42,179.55Z"/><ellipse class="cls-4" cx="158.31" cy="78.9" rx="8.99" ry="3.54"/><path class="cls-5" d="M203.39,6.79l-.29.37c-1,1-3.16.94-5.07-.23-2.12-1.31-3.14-3.48-2.29-4.87l.12-.17c.93-1.19,3.22-1.19,5.24,0S204.24,5.41,203.39,6.79Z"/><path class="cls-6" d="M203.1,7.16,186.54,27.68l-5,8.63L171,60.74l-9.81,20.67-8-1.17L173.51,33.6l5.61-9.71,16.74-22-.12.17c-.85,1.39.17,3.56,2.29,4.87C199.94,8.1,202.09,8.18,203.1,7.16Z"/><line class="cls-7" x1="186.13" y1="28.45" x2="178.7" y2="24.6"/><line class="cls-7" x1="183.69" y1="32.6" x2="176.3" y2="28.76"/><line class="cls-7" x1="181.37" y1="36.8" x2="173.9" y2="32.91"/><path class="cls-4" d="M114.81,152.63a8.22,8.22,0,0,1-4.79-4.45c-.15-.39-1.36-3.51.21-5.2s4.65-.83,6.09-.2c4.68,2,5.52,8.18,5.61,8.89q-3.59,3-7.25,6.36c-3.73,3.39-8.46,8-11.71,11.31l-5.56-2.18A85.08,85.08,0,0,0,105,159a80.62,80.62,0,0,0,6.09-8.76"/></g></g></svg>