<svg xmlns="http://www.w3.org/2000/svg" viewBox="0 0 169.61 352.91"><defs><style>.cls-1,.cls-3{fill:#e0e0e0;}.cls-1,.cls-2,.cls-5{stroke:#231f20;stroke-miterlimit:10;stroke-width:2px;}.cls-2{fill:#f496a0;}.cls-4{fill:#231f20;}.cls-5{fill:none;}</style></defs><g id="Layer_2" data-name="Layer 2"><g id="Layer_1-2" data-name="Layer 1"><polygon class="cls-1" points="166.75 274.38 166.75 303.34 89.77 351.11 89.77 314.66 166.75 274.38"/><polygon class="cls-1" points="166.75 65.3 166.75 122.2 89.77 141.77 89.77 81.8 166.75 65.3"/><polygon class="cls-2" points="166.75 122.2 166.75 274.38 89.77 314.66 89.77 141.77 166.75 122.2"/><polygon class="cls-1" points="89.77 314.66 89.77 351.11 2.07 306.22 2.07 272.85 89.77 314.66"/><polygon class="cls-2" points="89.77 141.77 89.77 314.66 2.07 272.85 2.07 118.75 89.77 141.77"/><polygon class="cls-1" points="89.77 81.8 89.77 141.77 2.07 118.75 2.07 65.68 89.77 81.8"/><polygon class="cls-1" points="2.07 65.69 41.52 27.13 41.52 9.29 124.75 1.11 124.05 17.73 167.71 65.49 89.99 82.5 2.07 65.69"/><polyline class="cls-3" points="144.92 41.01 67.43 54.94 65.39 57.5"/><polygon class="cls-4" points="144.92 41.01 67.6 55.89 68.18 55.54 66.17 58.13 64.61 56.88 66.68 54.34 66.92 54.06 67.26 54 144.92 41.01"/><path class="cls-4" d="M56.71,47.53q-5.91,2.3-11.83,4.52c-4,1.49-7.9,3-11.86,4.44L21.14,60.87c-4,1.45-7.91,2.94-11.89,4.35l-.71-1.56,0,0-.18.14,17-16.89c2.84-2.81,5.67-5.63,8.54-8.41l8.58-8.37.72-.7.64.77L54.39,42.69,64.8,55.29c3.46,4.21,7,8.38,10.37,12.63S82,76.38,85.43,80.65c-3.66-4-7.25-8.14-10.87-12.21s-7.17-8.2-10.76-12.3L53.09,43.8,42.47,31.37l1.35.07-8.5,8.44c-2.83,2.82-5.7,5.6-8.56,8.39L9.59,65l-.08.09-.1,0,0,0L8.67,63.6c4-1.41,8-2.74,12-4.1l12-4.06c4-1.37,8-2.67,12-4S52.68,48.81,56.71,47.53Z"/><path class="cls-4" d="M47.39,31.41c3.66,3.67,7.18,7.46,10.64,11.3s6.86,7.73,10.22,11.65,6.66,7.9,9.89,11.94,6.43,8.1,9.46,12.3C83.93,74.94,80.42,71.15,77,67.31S70.1,59.58,66.73,55.66s-6.65-7.91-9.88-11.94S50.42,35.62,47.39,31.41Z"/><polyline class="cls-3" points="124.75 3.67 45.98 12.62 45.98 26.94 124.05 17.73"/><path class="cls-4" d="M124.75,3.67c-6.54,1-13.09,1.79-19.64,2.68L85.45,8.86,75.62,10.1l-9.85,1.16L46.09,13.58l.86-1q.06,7.16,0,14.32l-1.08-1,19.52-2.22,9.77-1.11,9.77-1,19.55-2c6.52-.62,13-1.3,19.57-1.86-6.48,1-13,1.84-19.47,2.75L85.1,23.05l-9.74,1.28L65.6,25.52,46.1,27.9,45,28V26.94q0-7.17,0-14.32v-.87l.85-.1L65.57,9.5l9.85-1.08,9.86-1,19.73-2C111.59,4.86,118.16,4.21,124.75,3.67Z"/><line class="cls-5" x1="41.51" y1="9.29" x2="45.98" y2="12.62"/></g></g></svg>