<svg xmlns="http://www.w3.org/2000/svg" viewBox="0 0 181.74 172.53"><defs><style>.cls-1{fill:#cbeaf3;stroke:#231f20;stroke-miterlimit:10;stroke-width:2px;}.cls-2{fill:#231f20;}</style></defs><g id="Layer_2" data-name="Layer 2"><g id="Layer_1-2" data-name="Layer 1"><path class="cls-1" d="M150.78,37.44a6.67,6.67,0,0,1-5.54-6.58c0-.2,0-.41,0-.63a7,7,0,0,0-1.68-5.15C140,21,130.41,14.19,107.3,15.1c0,0-39-2.16-57.14-9.74S2.4.94,1.1,8.3c4.54,2.76,7.62,7.46,9.44,12.45S13,31.06,13.66,36.33q6.59,53.43,13.19,106.85c.18,1.43.35,2.86.53,4.29a25,25,0,0,0,12.17,18.64c6.69,3.83,14.6,4.83,22.29,5.2,13.66.65,48.3.57,58.66-10.11,2-2.1,2.38-11.47,2.38-11.47l.48-.24.06,0c.59-.29,1.64-.83,3-1.61l.07,0c10.5-5.8,40.55-24.59,49.37-53.48C184.33,66.75,185,43.48,150.78,37.44Zm-5,81.48c-11.25,8.08-15.87-5.19-15.87-5.19l10.39-54c8.08-12.41,25.68-6.06,27.13,8.37S157,110.84,145.75,118.92Z"/><path class="cls-2" d="M120.13,21.38a24.83,24.83,0,0,1,9.23.7,11.06,11.06,0,0,1,4.23,2.13,3.12,3.12,0,0,1,1.16,2.32,1.4,1.4,0,0,1-.82,1.25c-.36.22-.71.4-1.06.57-1.41.69-2.81,1.29-4.29,1.86s-3,.78-4.55,1.17-3,.63-4.55.95-3.07.49-4.6.74a99.69,99.69,0,0,1-18.6.8,111.43,111.43,0,0,1-18.46-2.56A149,149,0,0,1,60,26.05c-5.83-2.1-11.51-4.61-17.1-7.2a154.81,154.81,0,0,0-17-6.94A55,55,0,0,0,7.75,9a52.47,52.47,0,0,1,18.37,2,139.34,139.34,0,0,1,17.39,6.45c11.27,5,22.78,9.3,34.75,11.94a108.34,108.34,0,0,0,36.43,2.16c1.51-.2,3-.36,4.55-.61s3-.51,4.52-.8,3-.64,4.45-1,2.86-1.06,4.25-1.66c.34-.15.69-.31,1-.48a1.82,1.82,0,0,0,.3-.18.78.78,0,0,0,.13-.36,2.42,2.42,0,0,0-.82-1.7,10.28,10.28,0,0,0-3.87-2.16,22.44,22.44,0,0,0-4.47-1A26.12,26.12,0,0,0,120.13,21.38Z"/><path class="cls-2" d="M134.53,38.25a25.85,25.85,0,0,1,.11,3.71q-.06,1.82-.24,3.6c-.12,1.2-.27,2.39-.47,3.58a25.52,25.52,0,0,1-.84,3.62,14,14,0,0,1-.73-3.69,21.78,21.78,0,0,1,0-3.7,22.77,22.77,0,0,1,.68-3.65A14.72,14.72,0,0,1,134.53,38.25Z"/><path class="cls-2" d="M123.35,120.83c-.58,1.74-1.1,3.41-1.5,5.1a36.8,36.8,0,0,0-.94,10.25c.08,1.74.29,3.48.54,5.29a14.46,14.46,0,0,1-2.09-5.08,18.41,18.41,0,0,1,1-10.94A14.44,14.44,0,0,1,123.35,120.83Z"/><path class="cls-2" d="M34.84,46.81A187,187,0,0,0,68.22,52c5.61.36,11.24.4,16.87.21s11.26-.65,16.9-1.31a100.51,100.51,0,0,1-16.8,2.87A116.07,116.07,0,0,1,68.1,54,109.53,109.53,0,0,1,34.84,46.81Z"/><path class="cls-2" d="M36.69,74.22c5.46.79,10.89,1.7,16.31,2.57s10.84,1.62,16.29,2.09a125.54,125.54,0,0,0,16.34.47,94.7,94.7,0,0,0,16.29-2,62.38,62.38,0,0,1-16.18,3.58,92.37,92.37,0,0,1-16.63,0,138.93,138.93,0,0,1-16.39-2.55C47.31,77.19,42,75.77,36.69,74.22Z"/><path class="cls-2" d="M37.82,102.41A134.6,134.6,0,0,0,71,108.29,127.63,127.63,0,0,0,87.8,108a147.22,147.22,0,0,0,16.75-2.42,83,83,0,0,1-16.57,4,94.82,94.82,0,0,1-17.09.74A89.22,89.22,0,0,1,37.82,102.41Z"/><path class="cls-2" d="M39,130.32c5.17.85,10.33,1.64,15.5,2.25s10.35,1.07,15.55,1.31,10.39.35,15.6.28,10.42-.34,15.65-.65a107.43,107.43,0,0,1-15.58,2.21,129.67,129.67,0,0,1-15.77.16,130.83,130.83,0,0,1-15.68-1.77A108.15,108.15,0,0,1,39,130.32Z"/><path class="cls-2" d="M26.71,143a44.13,44.13,0,0,0,10.72,7.43,59.51,59.51,0,0,0,12.13,4.67c1,.26,2.08.62,3.15.8l3.19.64c1.05.25,2.14.33,3.21.48l3.22.41c2.17.09,4.33.31,6.5.33l3.25,0c1.08,0,2.17,0,3.25-.1,2.17-.18,4.33-.3,6.5-.52l6.52-.77c2.16-.29,4.34-.55,6.5-.86s4.33-.61,6.48-1c4.32-.69,8.62-1.51,12.87-2.51,2.13-.47,4.24-1.05,6.33-1.69,1-.33,2.07-.69,3.09-1.09a17.84,17.84,0,0,0,2.95-1.43,25,25,0,0,1-5.86,3c-2.06.79-4.14,1.52-6.26,2.14-4.23,1.24-8.52,2.27-12.84,3.1s-8.67,1.53-13,2.19l-6.54.84c-2.19.23-4.41.38-6.61.57-1.11.12-2.22.06-3.33.08H68.79c-1.11,0-2.22-.12-3.33-.17l-3.32-.24a71.39,71.39,0,0,1-13-2.71,59.63,59.63,0,0,1-6.24-2.28l-3-1.43c-1-.49-1.94-1.06-2.91-1.59A40.93,40.93,0,0,1,26.71,143Z"/></g></g></svg>