<svg xmlns="http://www.w3.org/2000/svg" viewBox="0 0 198.78 249.13"><defs><style>.cls-1{fill:#e0e0e0;}.cls-1,.cls-2,.cls-4{stroke:#231f20;stroke-miterlimit:10;}.cls-1,.cls-2,.cls-3,.cls-4{stroke-width:2px;}.cls-2{fill:#f496a0;}.cls-3,.cls-4{fill:none;}.cls-3{stroke:#000;stroke-linecap:round;stroke-linejoin:round;}</style></defs><g id="Layer_2" data-name="Layer 2"><g id="Layer_1-2" data-name="Layer 1"><polygon class="cls-1" points="197.78 145.35 197.78 208.74 105.58 247.62 105.58 169.12 197.78 145.35"/><polygon class="cls-1" points="105.58 169.12 105.58 247.62 1 210.57 1 141.62 105.58 169.12"/><path class="cls-2" d="M170.43,49.14l-24-26.94v-.57L53.29,32.44V16l93.13-9.91v-2l-5.28-3L48.45,11.51V33.29L1,79.77v61.85l104.58,27.5,92.2-23.77V79.77ZM9.25,79.77l4-4.14h0l37.18-38,51.4,59.85Z"/><polygon class="cls-3" points="101.89 97.49 9.25 79.77 13.27 75.63 13.31 75.63 50.49 37.64 101.89 97.49"/><polygon class="cls-1" points="146.42 6.11 146.42 21.63 53.29 32.44 53.29 16.02 146.42 6.11"/><polyline class="cls-2" points="50.49 37.64 103.94 98.56 105.58 169.12"/><polygon class="cls-1" points="146.42 6.11 146.42 21.63 53.29 32.44 53.29 16.02 146.42 6.11"/><line class="cls-4" x1="75.42" y1="66.05" x2="170.45" y2="49.16"/><line class="cls-4" x1="103.37" y1="97.91" x2="197.76" y2="79.79"/><polygon class="cls-1" points="101.89 97.49 9.25 79.77 13.27 75.63 13.31 75.63 50.49 37.64 53.56 41.22 101.89 97.49"/><line class="cls-4" x1="67.64" y1="57.61" x2="9.25" y2="79.77"/></g></g></svg>