<svg xmlns="http://www.w3.org/2000/svg" viewBox="0 0 319.89 160.62"><defs><style>.cls-1,.cls-2{fill:#e0e0e0;}.cls-1{stroke:#000;stroke-linecap:round;stroke-linejoin:round;stroke-width:2px;}</style></defs><g id="Layer_2" data-name="Layer 2"><g id="Layer_1-2" data-name="Layer 1"><path class="cls-1" d="M115.88,101.38c2,17.79-15.73,39.38-43.11,50.91-30.77,13-62.09,8.29-70-10.4S13.5,97.54,44.27,84.59c25.95-10.93,52.3-9.33,64.63,2.66"/><path class="cls-1" d="M115.13,111.38c14.16-15.75,53.72-34,91-47.67C223,57.82,232.1,53.61,255.32,49.8c20.58-4,46.59-10.07,58.12-24.4a24.87,24.87,0,0,0,5.3-10.78,9.68,9.68,0,0,0-4.09-9.73,24.68,24.68,0,0,0-11.42-3.74C285-.62,262.58,13.6,245.38,25.5,226.6,39.25,219,42.18,199.3,51.83,163.83,68.68,124,83.75,103.13,82.88"/><path class="cls-2" d="M137,87.66c-1.85,1.18-3.8,2.53-5.78,4.08a75.58,75.58,0,0,0-9.54,8.85A11.57,11.57,0,0,0,117,90.22"/><path d="M137,87.66l-3.8,3.3c-1.26,1.1-2.5,2.2-3.73,3.32s-2.42,2.26-3.61,3.41-2.35,2.33-3.49,3.53l0,0a.94.94,0,0,1-1.32,0,.93.93,0,0,1-.28-.8,11.78,11.78,0,0,0-.63-5.44A13.64,13.64,0,0,0,117,90.22a10.66,10.66,0,0,1,4.3,4.3,11.55,11.55,0,0,1,1.32,6.15L121,100c1.12-1.27,2.27-2.52,3.51-3.68a50.75,50.75,0,0,1,3.85-3.33,44.47,44.47,0,0,1,4.18-2.9A34.93,34.93,0,0,1,137,87.66Z"/><path class="cls-2" d="M240.05,36.86c-5.1,3.07-10.72,6.18-16.85,9.2C215.91,49.64,209,52.58,202.51,55"/><path d="M240.05,36.87a87.43,87.43,0,0,1-8.69,5.85c-3,1.8-6.09,3.43-9.23,5s-6.36,2.91-9.63,4.14a85.21,85.21,0,0,1-10,3.17c3.11-1.61,6.25-3.1,9.38-4.6l9.37-4.51,9.36-4.54C233.74,39.83,236.86,38.3,240.05,36.87Z"/><path class="cls-2" d="M313.73,9.91A32.3,32.3,0,0,0,287,9.82"/><path d="M313.73,9.91A62.49,62.49,0,0,0,307,8.47a45.92,45.92,0,0,0-13.38,0A63.54,63.54,0,0,0,287,9.82a20.89,20.89,0,0,1,6.38-2.92,26,26,0,0,1,14,0A21,21,0,0,1,313.73,9.91Z"/><path class="cls-2" d="M302.37,26.09c-7.44,8.14-18.55,11.78-29.33,14.08s-22,3.66-31.87,8.53"/><path d="M302.37,26.09a35.82,35.82,0,0,1-13.23,10,74.5,74.5,0,0,1-15.9,5.06c-5.43,1.14-10.87,2-16.24,3.07a88.58,88.58,0,0,0-15.83,4.48,59.48,59.48,0,0,1,15.48-6c5.37-1.39,10.81-2.34,16.17-3.5a94.78,94.78,0,0,0,15.7-4.54A43.51,43.51,0,0,0,302.37,26.09Z"/><path class="cls-2" d="M83.83,90.12c9.84,1.08,17.43,5.22,20.34,12.13,5.67,13.47-8.62,32.33-31.91,42.14a75,75,0,0,1-18.11,5.13"/><path d="M83.83,90.12a32.5,32.5,0,0,1,12.33,3.09A20.63,20.63,0,0,1,101.45,97a16.24,16.24,0,0,1,3.63,5.49,16.9,16.9,0,0,1,1.2,6.51,22.55,22.55,0,0,1-1.12,6.49,35.9,35.9,0,0,1-6.42,11.27,62.8,62.8,0,0,1-20.25,15.59,70.7,70.7,0,0,1-24.34,7.2,83.82,83.82,0,0,0,23.62-8.59,74.22,74.22,0,0,0,10.47-6.85,56.19,56.19,0,0,0,9-8.62,34.47,34.47,0,0,0,6.17-10.59,20.54,20.54,0,0,0,1.17-5.94,16.24,16.24,0,0,0-.9-5.91,17.17,17.17,0,0,0-7.93-9A34.44,34.44,0,0,0,83.83,90.12Z"/></g></g></svg>