<svg xmlns="http://www.w3.org/2000/svg" xmlns:xlink="http://www.w3.org/1999/xlink" viewBox="0 0 555.87 140.55"><defs><style>.cls-1{fill:#86b2c6;}.cls-2{fill:#fff;}.cls-3{fill:#b33351;}.cls-4{fill:url(#linear-gradient);}.cls-5{fill:#ffa65a;}.cls-6{fill:#f94166;}.cls-7{fill:#f3ffff;}</style><linearGradient id="linear-gradient" x1="341.26" y1="-60.07" x2="208.32" y2="210.71" gradientUnits="userSpaceOnUse"><stop offset="0" stop-color="#f6804d"/><stop offset="1" stop-color="#f46651"/></linearGradient></defs><g id="Layer_2" data-name="Layer 2"><g id="Layer_1-2" data-name="Layer 1"><rect class="cls-1" y="3.32" width="555.87" height="137.23" rx="68.47"/><rect class="cls-2" x="1.31" width="553.54" height="137.23" rx="68.61"/><path class="cls-3" d="M69.93,122.06a53.45,53.45,0,1,1,0-106.89H486.24a53.45,53.45,0,0,1,0,106.89Z"/><path class="cls-4" d="M69.93,119.89a51.28,51.28,0,1,1,0-102.55H486.24a51.28,51.28,0,0,1,0,102.55Z"/><path class="cls-5" d="M537.51,68.62a51.15,51.15,0,0,1-18.27,39.18,51.24,51.24,0,0,0-36.41-83.33L168.49,17.34H486.23A51.32,51.32,0,0,1,537.51,68.62Z"/><path class="cls-6" d="M460.86,119.89H69.92a51.28,51.28,0,0,1,0-102.55h5.29a46,46,0,0,0,7.65,90.5Z"/><path class="cls-7" d="M56.63,92.26c-2.12-.89-5-.52-6.11,1.49a5.33,5.33,0,0,0,.22,4.71c1.88,4.12,10.7,10.24,15.05,5.78C69.33,100.6,59.54,93.48,56.63,92.26Z"/><path class="cls-7" d="M496.77,35.73a5.41,5.41,0,0,1-1.52-2.07c-.66-2,1.12-4.13,3.16-4.6s4.15.27,6.07,1.12a48.86,48.86,0,0,1,6.83,3.69c2,1.27,4,3,4.16,5.31.27,4.24-4.79,6.3-8.08,4.78C503.59,42.21,499.73,38.63,496.77,35.73Z"/></g></g></svg>