<svg xmlns="http://www.w3.org/2000/svg" xmlns:xlink="http://www.w3.org/1999/xlink" viewBox="0 0 402.37 140.55"><defs><style>.cls-1{isolation:isolate;}.cls-2{opacity:0.2;mix-blend-mode:multiply;}.cls-3,.cls-6{fill:#fff;}.cls-4{fill:#b2574f;}.cls-5{fill:url(#linear-gradient);}.cls-6{opacity:0.31;mix-blend-mode:screen;}.cls-7{fill:#b8ffde;}.cls-8{fill:#fff5b9;}</style><linearGradient id="linear-gradient" x1="344.65" y1="13.58" x2="57.42" y2="123.88" gradientUnits="userSpaceOnUse"><stop offset="0" stop-color="#f53115"/><stop offset="1" stop-color="#f31a35"/></linearGradient></defs><g class="cls-1"><g id="Layer_2" data-name="Layer 2"><g id="Layer_1-2" data-name="Layer 1"><rect class="cls-2" y="3.32" width="402.37" height="137.23" rx="68.47"/><rect class="cls-3" x="1.31" width="400.04" height="137.23" rx="68.61"/><path class="cls-4" d="M69.93,122.06a53.45,53.45,0,1,1,0-106.89H332.74a53.45,53.45,0,1,1,0,106.89Z"/><path class="cls-5" d="M69.93,119.89a51.28,51.28,0,1,1,0-102.55H332.74a51.28,51.28,0,1,1,0,102.55Z"/><path class="cls-6" d="M384,68.62a51.15,51.15,0,0,1-18.27,39.18,51.24,51.24,0,0,0-36.41-83.33L168.49,17.34H332.74A51.33,51.33,0,0,1,384,68.62Z"/><path class="cls-2" d="M307.36,119.89H69.92a51.28,51.28,0,0,1,0-102.55h5.29a46,46,0,0,0,7.65,90.5Z"/><path class="cls-7" d="M56.63,92.26c-2.12-.89-5-.52-6.11,1.49a5.33,5.33,0,0,0,.22,4.71c1.88,4.12,10.7,10.24,15.05,5.78C69.33,100.6,59.54,93.48,56.63,92.26Z"/><path class="cls-7" d="M343.27,35.73a5.38,5.38,0,0,1-1.51-2.07c-.67-2,1.11-4.13,3.16-4.6s4.15.27,6.06,1.12a49.54,49.54,0,0,1,6.84,3.69c2,1.27,4,3,4.16,5.31.27,4.24-4.8,6.3-8.09,4.78C350.09,42.21,346.24,38.63,343.27,35.73Z"/><path class="cls-8" d="M157.4,46.27l-1.1,26.59,12.88.39L169,85.64l-27,.25.86-39.8Z"/><path class="cls-8" d="M199,84.85l-27.31.32.1-40.57,27.75-.82.42,11.34-15.48-.31.18,4.59,8,0,.44,10.31-8.26-.63.11,4.89,13.72,0Z"/><path class="cls-8" d="M226.05,44.94,223,53.86q-4.8-1.63-6.24.44Q214.83,57,220,60.61a47,47,0,0,0,4.7,2.89l.58.32.51.28,1,.54a14.59,14.59,0,0,1,1.47.91,10.41,10.41,0,0,1,4.26,6,10.58,10.58,0,0,1-.65,7.08,14,14,0,0,1-4.38,5.68,15.86,15.86,0,0,1-8,2.72,20.23,20.23,0,0,1-6.42-.63,47.85,47.85,0,0,1-6.55-2l5-8.85A7.21,7.21,0,0,0,216.06,77c1.34-.13,1.87-.91,1.59-2.36a4.85,4.85,0,0,0-1.49-2.53,15.94,15.94,0,0,0-3.42-2.24l-1.08-.53-1.07-.56c-.87-.44-1.59-.83-2.18-1.19q-5.5-3.21-6.71-8.1a11.4,11.4,0,0,1,1-8.17,12.72,12.72,0,0,1,5.92-5.64,21.64,21.64,0,0,1,11.27-2A24.71,24.71,0,0,1,226.05,44.94Z"/><path class="cls-8" d="M253.13,44.94l-3.07,8.92q-4.8-1.63-6.24.44-1.92,2.69,3.23,6.31a48.56,48.56,0,0,0,4.71,2.89l.58.32.51.28,1,.54c.68.39,1.17.69,1.47.91a10.41,10.41,0,0,1,4.26,6,10.64,10.64,0,0,1-.65,7.08,14,14,0,0,1-4.38,5.68,15.9,15.9,0,0,1-8,2.72,20.31,20.31,0,0,1-6.43-.63,48.17,48.17,0,0,1-6.54-2l5-8.85A7.23,7.23,0,0,0,243.14,77c1.34-.13,1.86-.91,1.58-2.36a4.78,4.78,0,0,0-1.49-2.53,15.43,15.43,0,0,0-3.42-2.24l-1.07-.53-1.07-.56c-.87-.44-1.6-.83-2.19-1.19q-5.49-3.21-6.7-8.1a11.4,11.4,0,0,1,.95-8.17,12.74,12.74,0,0,1,5.91-5.64,21.65,21.65,0,0,1,11.27-2A24.78,24.78,0,0,1,253.13,44.94Z"/><path d="M155.23,48.44,154.14,75l12.87.39-.21,12.39-27,.25.86-39.81Z"/><path d="M196.79,87l-27.31.33.09-40.58L197.32,46l.42,11.34L182.26,57l.18,4.59,8,0,.45,10.32-8.27-.63.12,4.89,13.71,0Z"/><path d="M223.88,47.11,220.81,56q-4.8-1.64-6.24.44-1.9,2.69,3.24,6.31a48.2,48.2,0,0,0,4.7,2.89l.58.32.52.28,1,.54a15.38,15.38,0,0,1,1.46.91,10.29,10.29,0,0,1,4.26,6,10.55,10.55,0,0,1-.65,7.07,13.75,13.75,0,0,1-4.38,5.68,15.74,15.74,0,0,1-8,2.73,20.23,20.23,0,0,1-6.42-.63,47.88,47.88,0,0,1-6.54-2l5-8.84a7.26,7.26,0,0,0,4.52,1.46c1.33-.12,1.86-.9,1.58-2.35A4.91,4.91,0,0,0,214,74.23,15.83,15.83,0,0,0,210.57,72l-1.07-.54-1.07-.56c-.87-.43-1.6-.83-2.19-1.18q-5.51-3.21-6.71-8.1a11.38,11.38,0,0,1,1-8.18,12.77,12.77,0,0,1,5.91-5.63,21.66,21.66,0,0,1,11.27-2A24.74,24.74,0,0,1,223.88,47.11Z"/><path d="M251,47.11,247.89,56q-4.8-1.64-6.24.44-1.91,2.69,3.23,6.31a48.56,48.56,0,0,0,4.71,2.89l.58.32.51.28,1,.54a15.87,15.87,0,0,1,1.47.91,10.38,10.38,0,0,1,4.26,6,10.55,10.55,0,0,1-.65,7.07,13.91,13.91,0,0,1-4.38,5.68,15.77,15.77,0,0,1-8,2.73,20.31,20.31,0,0,1-6.43-.63,48.31,48.31,0,0,1-6.54-2l5-8.84A7.25,7.25,0,0,0,241,79.12c1.34-.12,1.87-.9,1.59-2.35a5,5,0,0,0-1.49-2.54A16.22,16.22,0,0,0,237.64,72l-1.07-.54-1.07-.56c-.87-.43-1.6-.83-2.19-1.18q-5.49-3.21-6.7-8.1a11.43,11.43,0,0,1,.95-8.18,12.75,12.75,0,0,1,5.92-5.63,21.64,21.64,0,0,1,11.27-2A24.74,24.74,0,0,1,251,47.11Z"/><path class="cls-3" d="M157.4,46.27l-1.1,26.59,12.88.39L169,85.64l-27,.25.86-39.8Z"/><path class="cls-3" d="M199,84.85l-27.31.32.1-40.57,27.75-.82.42,11.34-15.48-.31.18,4.59,8,0,.44,10.31-8.26-.63.11,4.89,13.72,0Z"/><path class="cls-3" d="M226.05,44.94,223,53.86q-4.8-1.63-6.24.44Q214.83,57,220,60.61a47,47,0,0,0,4.7,2.89l.58.32.51.28,1,.54a14.59,14.59,0,0,1,1.47.91,10.41,10.41,0,0,1,4.26,6,10.58,10.58,0,0,1-.65,7.08,14,14,0,0,1-4.38,5.68,15.86,15.86,0,0,1-8,2.72,20.23,20.23,0,0,1-6.42-.63,47.85,47.85,0,0,1-6.55-2l5-8.85A7.21,7.21,0,0,0,216.06,77c1.34-.13,1.87-.91,1.59-2.36a4.85,4.85,0,0,0-1.49-2.53,15.94,15.94,0,0,0-3.42-2.24l-1.08-.53-1.07-.56c-.87-.44-1.59-.83-2.18-1.19q-5.5-3.21-6.71-8.1a11.4,11.4,0,0,1,1-8.17,12.72,12.72,0,0,1,5.92-5.64,21.64,21.64,0,0,1,11.27-2A24.71,24.71,0,0,1,226.05,44.94Z"/><path class="cls-3" d="M253.13,44.94l-3.07,8.92q-4.8-1.63-6.24.44-1.92,2.69,3.23,6.31a48.56,48.56,0,0,0,4.71,2.89l.58.32.51.28,1,.54c.68.39,1.17.69,1.47.91a10.41,10.41,0,0,1,4.26,6,10.64,10.64,0,0,1-.65,7.08,14,14,0,0,1-4.38,5.68,15.9,15.9,0,0,1-8,2.72,20.31,20.31,0,0,1-6.43-.63,48.17,48.17,0,0,1-6.54-2l5-8.85A7.23,7.23,0,0,0,243.14,77c1.34-.13,1.86-.91,1.58-2.36a4.78,4.78,0,0,0-1.49-2.53,15.43,15.43,0,0,0-3.42-2.24l-1.07-.53-1.07-.56c-.87-.44-1.6-.83-2.19-1.19q-5.49-3.21-6.7-8.1a11.4,11.4,0,0,1,.95-8.17,12.74,12.74,0,0,1,5.91-5.64,21.65,21.65,0,0,1,11.27-2A24.78,24.78,0,0,1,253.13,44.94Z"/></g></g></g></svg>