<svg xmlns="http://www.w3.org/2000/svg" xmlns:xlink="http://www.w3.org/1999/xlink" viewBox="0 0 402.37 140.55"><defs><style>.cls-1{isolation:isolate;}.cls-2{opacity:0.2;mix-blend-mode:multiply;}.cls-3,.cls-6{fill:#fff;}.cls-4{fill:#75a266;}.cls-5{fill:url(#linear-gradient);}.cls-6{opacity:0.31;mix-blend-mode:screen;}.cls-7{fill:#e8dddd;}.cls-8{fill:#e0dee8;}</style><linearGradient id="linear-gradient" x1="249.5" y1="-29.42" x2="148.1" y2="177.11" gradientUnits="userSpaceOnUse"><stop offset="0" stop-color="#5bdd52"/><stop offset="1" stop-color="#20a327"/></linearGradient></defs><g class="cls-1"><g id="Layer_2" data-name="Layer 2"><g id="Layer_1-2" data-name="Layer 1"><rect class="cls-2" y="3.32" width="402.37" height="137.23" rx="68.47"/><rect class="cls-3" x="1.31" width="400.04" height="137.23" rx="68.61"/><path class="cls-4" d="M69.93,122.06a53.45,53.45,0,1,1,0-106.89H332.74a53.45,53.45,0,1,1,0,106.89Z"/><path class="cls-5" d="M69.93,119.89a51.33,51.33,0,0,1-51.2-54.1C20.2,38.46,43.41,17.34,70.79,17.34H331.88c27.38,0,50.59,21.12,52.06,48.45a51.33,51.33,0,0,1-51.2,54.1Z"/><path class="cls-6" d="M384,68.62a51.15,51.15,0,0,1-18.27,39.18,51.24,51.24,0,0,0-36.41-83.33L168.49,17.34H332.74A51.33,51.33,0,0,1,384,68.62Z"/><path class="cls-2" d="M307.36,119.89H69.92a51.28,51.28,0,0,1,0-102.55h5.29a46,46,0,0,0,7.65,90.5Z"/><path class="cls-7" d="M56.63,92.26c-2.12-.89-5-.52-6.11,1.49a5.33,5.33,0,0,0,.22,4.71c1.88,4.12,10.7,10.24,15.05,5.78C69.33,100.6,59.54,93.48,56.63,92.26Z"/><path class="cls-7" d="M343.27,35.73a5.38,5.38,0,0,1-1.51-2.07c-.67-2,1.11-4.13,3.16-4.6s4.15.27,6.06,1.12a49.54,49.54,0,0,1,6.84,3.69c2,1.27,4,3,4.16,5.31.27,4.24-4.8,6.3-8.09,4.78C350.09,42.21,346.24,38.63,343.27,35.73Z"/><path class="cls-8" d="M159.21,84.89,154.28,72l-6.89,9-8.76-10.38-3.58,14L121,79.84l11.15-36.27,14.83,16.48,12.41-16.2,13.46,35.39Z"/><path class="cls-8" d="M191.29,85.43a20.73,20.73,0,0,1-8-2.28,19.19,19.19,0,0,1-6-4.87,18.4,18.4,0,0,1-3.93-14.83,20.32,20.32,0,0,1,3-7.75,23.52,23.52,0,0,1,21.63-10.83,20.92,20.92,0,0,1,8,2.29A18.56,18.56,0,0,1,212,52a18.35,18.35,0,0,1,3.52,6.82,18.6,18.6,0,0,1,.39,8,20.38,20.38,0,0,1-3,7.75,23.61,23.61,0,0,1-21.65,10.83Zm-4.95-20.79a7.15,7.15,0,0,0,1.53,5.89,7.88,7.88,0,0,0,5.61,2.84,9,9,0,0,0,6.38-1.89A8.34,8.34,0,0,0,203.28,66a7.08,7.08,0,0,0-1.58-5.89,7.64,7.64,0,0,0-5.59-2.84,9.07,9.07,0,0,0-6.38,1.89A8.39,8.39,0,0,0,186.34,64.64Z"/><path class="cls-8" d="M240.7,87.29,229.64,71.81l.58,12.92L217.16,85l-.35-38.76a43.78,43.78,0,0,1,15-1.63q6.66.45,10.71,3.28,5.07,3.54,5.77,10.69A11.69,11.69,0,0,1,248.1,63a10.82,10.82,0,0,1-1.58,3.79,9.8,9.8,0,0,1-3.75,3.28l8.43,8.57Zm-6-28.89a4.32,4.32,0,0,0-1-2.79,5.07,5.07,0,0,0-2.09-1.4,7.87,7.87,0,0,0-3.05-.54l.53,9.39a6.55,6.55,0,0,0,2.82-.47A4.07,4.07,0,0,0,234.74,58.4Z"/><path class="cls-8" d="M279.83,84.85l-27.31.32.1-40.58,27.75-.81.42,11.34-15.49-.3.19,4.58,8,0,.44,10.31-8.26-.63.11,4.89,13.71,0Z"/><path d="M157.05,87.06l-4.94-12.94-6.89,9-8.75-10.39-3.59,14L118.79,82,130,45.74l14.83,16.48L157.19,46,170.64,81.4Z"/><path d="M189.13,87.6a21.08,21.08,0,0,1-8-2.28,19.26,19.26,0,0,1-6-4.87,18.25,18.25,0,0,1-3.54-6.82,18.47,18.47,0,0,1-.4-8,20.26,20.26,0,0,1,3-7.75A23.52,23.52,0,0,1,195.74,47a20.86,20.86,0,0,1,8,2.28,18.72,18.72,0,0,1,6,4.87A18.2,18.2,0,0,1,213.34,61a18.6,18.6,0,0,1,.39,8,20.53,20.53,0,0,1-2.95,7.75,23.18,23.18,0,0,1-5.64,6.1A22.8,22.8,0,0,1,189.13,87.6Zm-5-20.79a7.15,7.15,0,0,0,1.53,5.89,7.92,7.92,0,0,0,5.62,2.84,9,9,0,0,0,6.37-1.89,8.44,8.44,0,0,0,3.43-5.49,7.07,7.07,0,0,0-1.59-5.89A7.6,7.6,0,0,0,194,59.43a9.09,9.09,0,0,0-6.38,1.88A8.39,8.39,0,0,0,184.17,66.81Z"/><path d="M238.53,89.46,227.47,74l.58,12.92L215,87.13l-.35-38.76a43.59,43.59,0,0,1,15-1.63A20.76,20.76,0,0,1,240.32,50q5.09,3.54,5.78,10.69a11.86,11.86,0,0,1-.17,4.44,10.87,10.87,0,0,1-1.58,3.8,9.89,9.89,0,0,1-3.75,3.28L249,80.8Zm-6-28.89a4.37,4.37,0,0,0-1-2.8,5,5,0,0,0-2.09-1.39,7.87,7.87,0,0,0-3.05-.54l.53,9.38a6.35,6.35,0,0,0,2.82-.46A4.08,4.08,0,0,0,232.57,60.57Z"/><path d="M277.66,87l-27.3.33.09-40.58L278.2,46l.42,11.34L263.14,57l.18,4.59,8,0,.44,10.32-8.26-.63.12,4.89,13.71,0Z"/><path class="cls-3" d="M159.21,84.89,154.28,72l-6.89,9-8.76-10.38-3.58,14L121,79.84l11.15-36.27,14.83,16.48,12.41-16.2,13.46,35.39Z"/><path class="cls-3" d="M191.29,85.43a20.73,20.73,0,0,1-8-2.28,19.19,19.19,0,0,1-6-4.87,18.4,18.4,0,0,1-3.93-14.83,20.32,20.32,0,0,1,3-7.75,23.52,23.52,0,0,1,21.63-10.83,20.92,20.92,0,0,1,8,2.29A18.56,18.56,0,0,1,212,52a18.35,18.35,0,0,1,3.52,6.82,18.6,18.6,0,0,1,.39,8,20.38,20.38,0,0,1-3,7.75,23.61,23.61,0,0,1-21.65,10.83Zm-4.95-20.79a7.15,7.15,0,0,0,1.53,5.89,7.88,7.88,0,0,0,5.61,2.84,9,9,0,0,0,6.38-1.89A8.34,8.34,0,0,0,203.28,66a7.08,7.08,0,0,0-1.58-5.89,7.64,7.64,0,0,0-5.59-2.84,9.07,9.07,0,0,0-6.38,1.89A8.39,8.39,0,0,0,186.34,64.64Z"/><path class="cls-3" d="M240.7,87.29,229.64,71.81l.58,12.92L217.16,85l-.35-38.76a43.78,43.78,0,0,1,15-1.63q6.66.45,10.71,3.28,5.07,3.54,5.77,10.69A11.69,11.69,0,0,1,248.1,63a10.82,10.82,0,0,1-1.58,3.79,9.8,9.8,0,0,1-3.75,3.28l8.43,8.57Zm-6-28.89a4.32,4.32,0,0,0-1-2.79,5.07,5.07,0,0,0-2.09-1.4,7.87,7.87,0,0,0-3.05-.54l.53,9.39a6.55,6.55,0,0,0,2.82-.47A4.07,4.07,0,0,0,234.74,58.4Z"/><path class="cls-3" d="M279.83,84.85l-27.31.32.1-40.58,27.75-.81.42,11.34-15.49-.3.19,4.58,8,0,.44,10.31-8.26-.63.11,4.89,13.71,0Z"/></g></g></g></svg>