<svg xmlns="http://www.w3.org/2000/svg" xmlns:xlink="http://www.w3.org/1999/xlink" viewBox="0 0 98.25 98.92"><defs><style>.cls-1{fill:#919191;}.cls-2{fill:#fff7ff;}.cls-3{fill:#1e1e1e;}.cls-4{fill:url(#linear-gradient);}.cls-5{fill:#605e5e;}.cls-6{fill:#e8e8e8;}.cls-7{fill:#fffff3;}.cls-8{fill:#fff;}</style><linearGradient id="linear-gradient" x1="13.1" y1="48.4" x2="86.61" y2="48.4" gradientUnits="userSpaceOnUse"><stop offset="0" stop-color="#6d6d6d"/><stop offset="1" stop-color="#e5e5e5"/></linearGradient></defs><g id="Layer_2" data-name="Layer 2"><g id="Layer_1-2" data-name="Layer 1"><circle class="cls-1" cx="49.13" cy="49.79" r="49.13"/><circle class="cls-2" cx="49.85" cy="48.4" r="48.4"/><path class="cls-3" d="M49.85,86.61A38.21,38.21,0,1,1,88.06,48.4,38.25,38.25,0,0,1,49.85,86.61Z"/><path class="cls-4" d="M49.85,85.15A36.76,36.76,0,1,1,86.61,48.4,36.8,36.8,0,0,1,49.85,85.15Z"/><path class="cls-5" d="M80.74,68.29A36.74,36.74,0,1,1,23.47,22.85a36.42,36.42,0,0,0-5.9,19.94,36.71,36.71,0,0,0,63.17,25.5Z"/><path class="cls-6" d="M76.28,73.89A36.38,36.38,0,0,0,82.16,54,36.73,36.73,0,0,0,19,28.46,36.73,36.73,0,1,1,76.28,73.89Z"/><path class="cls-2" d="M73.65,29.21c-1,.71-2.36.2-3.47-.33a30.64,30.64,0,0,1-4.75-2.65A9.89,9.89,0,0,1,62,22.1a2.58,2.58,0,0,1,0-2.46,2.55,2.55,0,0,1,1.92-.86A8.69,8.69,0,0,1,70,21.05C71.54,22.36,76.64,27.06,73.65,29.21Z"/><path class="cls-2" d="M34,73.3c-1.2.07-2.58.69-2.69,1.88a2.81,2.81,0,0,0,1.25,2.23A13.6,13.6,0,0,0,37,80a4.71,4.71,0,0,0,2,.3c2.78-.32,1.51-3.27.39-4.67A6.45,6.45,0,0,0,34,73.3Z"/><path class="cls-7" d="M41.94,36.19a2.42,2.42,0,0,0-1.63,1.74,2.33,2.33,0,0,0-.08.59v20a10.17,10.17,0,0,0-1.78-.28l-.66,0c-3.12,0-5.79,1.3-6.84,3.13a3.35,3.35,0,0,0-.5,1.76c0,2.7,3.28,4.89,7.34,4.89A10.64,10.64,0,0,0,40,67.76l3.34-8.44,1.77-4.47V45.23L49.43,44l3.91-9.89.56-1.42ZM66.41,29l-.11,0-.65,1.66-3.84,9.7,2.89-.85V53.61a12.48,12.48,0,0,0-1.78-.28l-.67,0c-3,0-5.63,1.22-6.75,3v0a1,1,0,0,0-.08.14,3.17,3.17,0,0,0-.44,1.2,2.76,2.76,0,0,0-.06.57c0,2.7,3.29,4.89,7.34,4.89a9.61,9.61,0,0,0,5.06-1.35,4.32,4.32,0,0,0,2.28-3.54V31.3A2.45,2.45,0,0,0,66.41,29Z"/><path d="M40.31,37.93l-.14,0a2.45,2.45,0,0,0-1.72,2.33v20A10.59,10.59,0,0,0,36,60,9.47,9.47,0,0,0,31,61.34a4.32,4.32,0,0,0-2.28,3.54c0,2.7,3.28,4.89,7.34,4.89a10.41,10.41,0,0,0,3.43-.57L40,67.76l3.34-8.44V47l1.77-.52,3.74-1.09L49.43,44l3.91-9.89Zm25.34-7.28-3.84,9.7-.56,1.42,1.67-.49V55.39a10.74,10.74,0,0,0-2.45-.3,9.57,9.57,0,0,0-5,1.33l0,0A4.32,4.32,0,0,0,53.13,60a3.5,3.5,0,0,0,.33,1.46c.93,2,3.72,3.44,7,3.44,3.12,0,5.78-1.3,6.84-3.13a3.39,3.39,0,0,0,.5-1.77V33.08A2.45,2.45,0,0,0,65.65,30.65Z"/><path class="cls-8" d="M41.94,36.19a2.42,2.42,0,0,0-1.63,1.74,2.33,2.33,0,0,0-.08.59v20a10.17,10.17,0,0,0-1.78-.28l-.66,0c-3.12,0-5.79,1.3-6.84,3.13a3.35,3.35,0,0,0-.5,1.76c0,2.7,3.28,4.89,7.34,4.89A10.64,10.64,0,0,0,40,67.76l3.34-8.44,1.77-4.47V45.23L49.43,44l3.91-9.89.56-1.42ZM66.41,29l-.11,0-.65,1.66-3.84,9.7,2.89-.85V53.61a12.48,12.48,0,0,0-1.78-.28l-.67,0c-3,0-5.63,1.22-6.75,3v0a1,1,0,0,0-.08.14,3.17,3.17,0,0,0-.44,1.2,2.76,2.76,0,0,0-.06.57c0,2.7,3.29,4.89,7.34,4.89a9.61,9.61,0,0,0,5.06-1.35,4.32,4.32,0,0,0,2.28-3.54V31.3A2.45,2.45,0,0,0,66.41,29Z"/><polygon points="45.84 73.89 39.2 73.89 58.64 24.75 65.29 24.75 45.84 73.89"/><polygon class="cls-8" points="47.04 73.89 40.39 73.89 59.84 24.75 66.48 24.75 47.04 73.89"/><path d="M55.49,56.3l0,.12L55,57.64l-1.51,3.8A3.5,3.5,0,0,1,53.13,60a4.32,4.32,0,0,1,2.28-3.54A1,1,0,0,1,55.49,56.3Z"/></g></g></svg>