<svg xmlns="http://www.w3.org/2000/svg" xmlns:xlink="http://www.w3.org/1999/xlink" viewBox="0 0 76.42 76.42"><defs><style>.cls-1{fill:#b33351;}.cls-2{fill:url(#linear-gradient);}.cls-3{fill:#f94166;}.cls-4{fill:#ffa65a;}.cls-5{fill:#fff8ff;}.cls-6,.cls-7,.cls-8{font-size:39.14px;font-family:FontAwesome5Free-Solid, "Font Awesome 5 Free";}.cls-6{fill:#fffff4;}.cls-8{fill:#fff;}</style><linearGradient id="linear-gradient" x1="1.46" y1="38.21" x2="74.97" y2="38.21" gradientUnits="userSpaceOnUse"><stop offset="0" stop-color="#f6804d"/><stop offset="1" stop-color="#f46651"/></linearGradient></defs><g id="Layer_2" data-name="Layer 2"><g id="Layer_1-2" data-name="Layer 1"><path class="cls-1" d="M38.21,76.42A38.21,38.21,0,1,1,76.42,38.21,38.25,38.25,0,0,1,38.21,76.42Z"/><path class="cls-2" d="M38.21,75A36.76,36.76,0,1,1,75,38.21,36.79,36.79,0,0,1,38.21,75Z"/><path class="cls-3" d="M69.1,58.1A36.74,36.74,0,1,1,11.83,12.66,36.43,36.43,0,0,0,5.92,32.6,36.72,36.72,0,0,0,69.1,58.1Z"/><path class="cls-4" d="M64.63,63.71a36.36,36.36,0,0,0,5.88-19.9A36.73,36.73,0,0,0,7.37,18.27,36.73,36.73,0,1,1,64.63,63.71Z"/><path class="cls-5" d="M62,19c-1,.71-2.37.2-3.47-.33A29.07,29.07,0,0,1,53.79,16a10,10,0,0,1-3.44-4.13,2.61,2.61,0,0,1,0-2.46,2.53,2.53,0,0,1,1.92-.86,8.66,8.66,0,0,1,6.06,2.27C59.9,12.17,65,16.87,62,19Z"/><path class="cls-5" d="M22.32,63.11c-1.19.07-2.57.7-2.69,1.89a2.85,2.85,0,0,0,1.25,2.22,13.65,13.65,0,0,0,4.48,2.54,4.55,4.55,0,0,0,2,.31c2.78-.33,1.5-3.28.39-4.67A6.47,6.47,0,0,0,22.32,63.11Z"/><text class="cls-6" transform="translate(25.53 52.51)">times</text><text class="cls-7" transform="translate(23.75 54.29)">times</text><text class="cls-8" transform="translate(25.53 52.51)">times</text></g></g></svg>