<svg xmlns="http://www.w3.org/2000/svg" xmlns:xlink="http://www.w3.org/1999/xlink" viewBox="0 0 425.97 107.7"><defs><style>.cls-1{fill:#415fb7;}.cls-2{fill:#fff;}.cls-3{fill:url(#linear-gradient);}.cls-4{fill:#00cef6;}.cls-5{fill:#2586b7;}.cls-6{fill:#fff8f3;}</style><linearGradient id="linear-gradient" x1="261.51" y1="-46.04" x2="159.64" y2="161.47" gradientUnits="userSpaceOnUse"><stop offset="0" stop-color="#55f4ed"/><stop offset="1" stop-color="#51b4f6"/></linearGradient></defs><g id="Layer_2" data-name="Layer 2"><g id="Layer_1-2" data-name="Layer 1"><rect class="cls-1" y="2.54" width="425.97" height="105.16" rx="52.47"/><rect class="cls-2" x="1.01" width="424.18" height="105.16" rx="52.58"/><path class="cls-1" d="M53.59,93.53a41,41,0,1,1,0-81.9h319a41,41,0,0,1,0,81.9Z"/><path class="cls-3" d="M53.59,91.87a39.29,39.29,0,1,1,0-78.58h319a39.29,39.29,0,0,1,0,78.58Z"/><path class="cls-4" d="M411.9,52.58a39.22,39.22,0,0,1-14,30A39.26,39.26,0,0,0,370,18.75L129.12,13.29H372.61A39.33,39.33,0,0,1,411.9,52.58Z"/><path class="cls-5" d="M353.16,91.88H53.58a39.3,39.3,0,0,1,0-78.59h4.06A35.23,35.23,0,0,0,63.5,82.64Z"/><path class="cls-6" d="M43.39,70.7c-1.62-.68-3.83-.4-4.68,1.14a4.11,4.11,0,0,0,.17,3.61c1.44,3.16,8.21,7.85,11.54,4.43C53.13,77.09,45.62,71.63,43.39,70.7Z"/><path class="cls-6" d="M380.68,27.38a4.14,4.14,0,0,1-1.17-1.59c-.5-1.52.86-3.16,2.43-3.52a7.57,7.57,0,0,1,4.65.86A38.16,38.16,0,0,1,391.82,26c1.51,1,3.08,2.29,3.19,4.07.21,3.26-3.67,4.83-6.19,3.67C385.9,32.35,383,29.6,380.68,27.38Z"/></g></g></svg>