<svg xmlns="http://www.w3.org/2000/svg" xmlns:xlink="http://www.w3.org/1999/xlink" viewBox="0 0 98.25 98.92"><defs><style>.cls-1{fill:#86b2c6;}.cls-2{fill:#fff8ff;}.cls-3{fill:#b33351;}.cls-4{fill:url(#linear-gradient);}.cls-5{fill:#f94166;}.cls-6{fill:#ffa65a;}.cls-7,.cls-8,.cls-9{font-size:40.7px;font-family:FontAwesome5Free-Solid, "Font Awesome 5 Free";}.cls-7{fill:#fffff4;}.cls-9{fill:#fff;}</style><linearGradient id="linear-gradient" x1="13.1" y1="48.4" x2="86.61" y2="48.4" gradientUnits="userSpaceOnUse"><stop offset="0" stop-color="#f6804d"/><stop offset="1" stop-color="#f46651"/></linearGradient></defs><g id="Layer_2" data-name="Layer 2"><g id="Layer_1-2" data-name="Layer 1"><circle class="cls-1" cx="49.13" cy="49.79" r="49.13"/><circle class="cls-2" cx="49.85" cy="48.4" r="48.4"/><path class="cls-3" d="M49.85,86.61A38.21,38.21,0,1,1,88.06,48.4,38.25,38.25,0,0,1,49.85,86.61Z"/><path class="cls-4" d="M49.85,85.15A36.76,36.76,0,1,1,86.61,48.4,36.8,36.8,0,0,1,49.85,85.15Z"/><path class="cls-5" d="M80.74,68.29A36.74,36.74,0,1,1,23.47,22.85a36.42,36.42,0,0,0-5.9,19.94,36.71,36.71,0,0,0,63.17,25.5Z"/><path class="cls-6" d="M76.28,73.89A36.38,36.38,0,0,0,82.16,54,36.73,36.73,0,0,0,19,28.46,36.73,36.73,0,1,1,76.28,73.89Z"/><path class="cls-2" d="M73.65,29.21c-1,.71-2.36.2-3.47-.33a30.64,30.64,0,0,1-4.75-2.65A9.89,9.89,0,0,1,62,22.1a2.58,2.58,0,0,1,0-2.46,2.55,2.55,0,0,1,1.92-.86A8.69,8.69,0,0,1,70,21.05C71.54,22.36,76.64,27.06,73.65,29.21Z"/><path class="cls-2" d="M34,73.3c-1.2.07-2.58.69-2.69,1.88a2.81,2.81,0,0,0,1.25,2.23A13.6,13.6,0,0,0,37,80a4.71,4.71,0,0,0,2,.3c2.78-.32,1.51-3.27.39-4.67A6.45,6.45,0,0,0,34,73.3Z"/><text class="cls-7" transform="translate(31.03 63.64)"></text><text class="cls-8" transform="translate(29.03 65.65)"></text><text class="cls-9" transform="translate(31.03 63.64)"></text></g></g></svg>