<svg id="Layer_1" data-name="Layer 1" xmlns="http://www.w3.org/2000/svg" viewBox="0 0 400 400"><defs><style>.cls-1{fill:#00773f;stroke:#0a0a0a;stroke-miterlimit:10;stroke-width:2.95px;}</style></defs><path class="cls-1" d="M340.61,6.69a37.22,37.22,0,0,1-3.3,13.19,35.86,35.86,0,0,1-5.9,9.46,19.41,19.41,0,0,1-8.5,5.74c-3.37,1.13-6.85,2.12-10,3.55l-9.55,4.22-9.81,3.86c-6.64,2.42-13.26,4.87-20.21,6.86a1.57,1.57,0,0,1-1.69-2.43c4.27-5.83,8.87-11.19,13.44-16.58l7-7.87,7.27-7.5c2.44-2.47,4.57-5.39,6.8-8.16a19.32,19.32,0,0,1,8.33-6A35.49,35.49,0,0,1,325.4,2.79a37.57,37.57,0,0,1,13.52,1.47A2.36,2.36,0,0,1,340.61,6.69Z"/><path class="cls-1" d="M72.11,87.89c14.37-59.73,109.63-98.5,208.68-57.46,69.93,29,115.73,117.52,97.54,177.68-5.7,18.84-19.39,40.6-31,39.32-22.59-2.5-14.39-75.19-50.66-90-39.64-16.16-98.19,53.7-120.22,39.32-20.46-13.37,16.82-66.7-11.34-94.51C138.16,75.63,71.11,92,72.11,87.89Z"/></svg>