<svg xmlns="http://www.w3.org/2000/svg" xmlns:xlink="http://www.w3.org/1999/xlink" viewBox="0 0 400 400"><defs><style>.cls-1{isolation:isolate;}.cls-2,.cls-8{fill:none;stroke:#149207;stroke-miterlimit:10;}.cls-2{stroke-width:3.04px;}.cls-3{fill:#0d8d07;}.cls-19,.cls-4{opacity:0.4;}.cls-4,.cls-6{mix-blend-mode:overlay;}.cls-5{fill:#fff;}.cls-6{opacity:0.2;}.cls-20,.cls-21,.cls-7{mix-blend-mode:soft-light;}.cls-7{fill:url(#radial-gradient);}.cls-8{stroke-width:4.71px;}.cls-9{fill:url(#linear-gradient);}.cls-10{opacity:0.39;fill:url(#linear-gradient-2);}.cls-11{fill:#de9410;}.cls-12,.cls-13,.cls-14,.cls-15,.cls-16{opacity:0.5;mix-blend-mode:screen;}.cls-12{fill:url(#radial-gradient-2);}.cls-13{fill:url(#radial-gradient-3);}.cls-14{fill:url(#radial-gradient-4);}.cls-15{fill:url(#radial-gradient-5);}.cls-16{fill:url(#radial-gradient-6);}.cls-17{fill:#bc7200;}.cls-18{fill:#149207;}.cls-19{mix-blend-mode:multiply;fill:url(#linear-gradient-3);}.cls-20{fill:url(#radial-gradient-7);}.cls-21{fill:url(#radial-gradient-8);}</style><radialGradient id="radial-gradient" cx="377.23" cy="-335.06" r="76.9" gradientTransform="translate(171.25 562.13) rotate(-35.89)" gradientUnits="userSpaceOnUse"><stop offset="0" stop-color="#fff"/><stop offset="1" stop-color="#fff" stop-opacity="0"/></radialGradient><linearGradient id="linear-gradient" x1="160.33" y1="65.18" x2="158.07" y2="397.88" gradientUnits="userSpaceOnUse"><stop offset="0" stop-color="#ff9800"/><stop offset="0.5" stop-color="#ffbe22"/><stop offset="1" stop-color="#cacf10"/></linearGradient><linearGradient id="linear-gradient-2" x1="24.53" y1="175.17" x2="74.57" y2="220.25" gradientTransform="matrix(1, 0, 0, 1, 0, 0)" xlink:href="#radial-gradient"/><radialGradient id="radial-gradient-2" cx="143.02" cy="152.23" r="14.15" gradientTransform="matrix(1, 0, 0, 1, 0, 0)" xlink:href="#radial-gradient"/><radialGradient id="radial-gradient-3" cx="157.53" cy="130.81" r="9.39" gradientTransform="matrix(1, 0, 0, 1, 0, 0)" xlink:href="#radial-gradient"/><radialGradient id="radial-gradient-4" cx="178.57" cy="130.81" r="9.39" gradientTransform="matrix(1, 0, 0, 1, 0, 0)" xlink:href="#radial-gradient"/><radialGradient id="radial-gradient-5" cx="217.19" cy="208.65" r="9.39" gradientTransform="matrix(1, 0, 0, 1, 0, 0)" xlink:href="#radial-gradient"/><radialGradient id="radial-gradient-6" cx="193.9" cy="208.65" r="9.39" gradientTransform="matrix(1, 0, 0, 1, 0, 0)" xlink:href="#radial-gradient"/><linearGradient id="linear-gradient-3" x1="166.26" y1="34.46" x2="184.98" y2="34.46" gradientUnits="userSpaceOnUse"><stop offset="0"/><stop offset="1" stop-color="#fff"/></linearGradient><radialGradient id="radial-gradient-7" cx="245.09" cy="131.28" r="55.05" gradientTransform="matrix(1, 0, 0, 1, 0, 0)" xlink:href="#radial-gradient"/><radialGradient id="radial-gradient-8" cx="277.47" cy="165.7" r="119.27" gradientTransform="matrix(1, 0, 0, 1, 0, 0)" xlink:href="#radial-gradient"/></defs><g class="cls-1"><g id="Layer_1" data-name="Layer 1"><path class="cls-2" d="M217.53,32.21S181.9,27.26,182,40.67"/><path class="cls-3" d="M215.45,31.87c4.2-3,33.41-23.36,71.52-14.2,39.93,9.6,56.59,43.63,58.63,48a83.88,83.88,0,0,0-18.37-6.55c-28.37-6.49-44.42,5.83-65.37,3.53C249.9,61.31,233.57,54.92,215.45,31.87Z"/><g class="cls-4"><path class="cls-5" d="M221,33a161.32,161.32,0,0,1,31.14-1.57,189.12,189.12,0,0,1,31,3.84c5.1,1.09,10.14,2.42,15.13,3.92s9.9,3.27,14.7,5.29a155.83,155.83,0,0,1,27.47,14.76c-4.42-2.75-8.88-5.43-13.53-7.74s-9.35-4.53-14.16-6.48-9.72-3.64-14.68-5.17S288.08,37.05,283,36a196.43,196.43,0,0,0-30.85-4c-5.19-.27-10.39-.34-15.58-.18A139.36,139.36,0,0,0,221,33Z"/></g><g class="cls-6"><path class="cls-5" d="M323.8,40.65q-4.85.33-9.69.58l-9.71.46.14-.29,4.8,6.71q2.39,3.36,4.72,6.76-2.49-3.28-4.94-6.6l-4.87-6.66-.21-.28h.35l9.7-.4C317.33,40.81,320.56,40.71,323.8,40.65Z"/></g><g class="cls-6"><path class="cls-5" d="M301.93,26.45c-4.49,1.35-9,2.65-13.51,3.93s-9,2.6-13.54,3.85l.09-.3,7.85,8.75c2.62,2.91,5.21,5.85,7.8,8.79-2.68-2.86-5.35-5.73-8-8.63l-7.94-8.67-.19-.21.28-.08c4.51-1.29,9-2.5,13.56-3.75S297.39,27.64,301.93,26.45Z"/></g><g class="cls-6"><path class="cls-5" d="M261.55,18.24q-4.82,3.41-9.66,6.75l-9.73,6.65,0-.27,6.88,8.17c2.29,2.72,4.55,5.47,6.81,8.22-2.36-2.67-4.7-5.34-7-8l-7-8.11-.14-.16.17-.11,9.77-6.6Q256.63,21.47,261.55,18.24Z"/></g><path class="cls-7" d="M215.45,31.87c4.2-3,33.41-23.36,71.52-14.2,39.93,9.6,56.59,43.63,58.63,48a83.88,83.88,0,0,0-18.37-6.55c-28.37-6.49-44.42,5.83-65.37,3.53C249.9,61.31,233.57,54.92,215.45,31.87Z"/><path class="cls-8" d="M232.34,61.58S192.07,23,180.05,39.94"/><path class="cls-9" d="M179.42,66.2c-63-1-104.28,46.56-109.1,52.29C37.77,157.19,36,200.91,35.16,220.82c-.58,14.16.6,89.41,51.24,140.8,13.46,13.66,39.52,41,87.61,38.17,21.66-1.28,44.62-11.05,52-34.28,2.56-8.08,4.54-19.7,5.28-31.08,1.82-28.22,13.57-46.7,22.54-64.47,13.6-26.94,32.09-63.56,29.75-102.78-.47-8-4.16-55.55-42.37-82.95C217.32,67.13,191.89,66.39,179.42,66.2Z"/><path class="cls-10" d="M82.15,287.24C74,301,65.32,315.66,57.22,320.47,41,288.24,36.49,255.12,35.38,235.69c.38-10.88,1-20.57,1.69-27.34a168.6,168.6,0,0,1,10.37-43.28c5.79-15.07,11.2-22.59,14.43-26.59,5.38-6.7,17.23-21.42,27.05-19.39,11.25,2.33,15,25.73,17.12,39.67C116.46,227.54,86.76,279.46,82.15,287.24Z"/><path class="cls-11" d="M152.76,146.6c0,.39,0,.76,0,1.14-.33-5.57-3.56-9.94-7.49-9.94s-7.14,4.37-7.47,9.94c0-.38,0-.75,0-1.14,0-7.18,3.37-13,7.51-13S152.76,139.42,152.76,146.6Z"/><ellipse class="cls-12" cx="145.25" cy="148.7" rx="7.51" ry="10.89"/><path class="cls-11" d="M164,127.07c0,.26,0,.51,0,.76-.22-3.7-2.36-6.6-5-6.6s-4.75,2.9-5,6.6c0-.25,0-.5,0-.76,0-4.76,2.24-8.62,5-8.62S164,122.31,164,127.07Z"/><ellipse class="cls-13" cx="159.01" cy="128.47" rx="4.99" ry="7.23"/><path class="cls-11" d="M185,127.07c0,.26,0,.51,0,.76-.22-3.7-2.36-6.6-5-6.6s-4.75,2.9-5,6.6c0-.25,0-.5,0-.76,0-4.76,2.23-8.62,5-8.62S185,122.31,185,127.07Z"/><ellipse class="cls-14" cx="180.05" cy="128.47" rx="4.99" ry="7.23"/><path class="cls-11" d="M223.66,204.91c0,.26,0,.51,0,.76-.21-3.7-2.36-6.6-5-6.6s-4.74,2.9-5,6.6c0-.25,0-.5,0-.76,0-4.77,2.23-8.63,5-8.63S223.66,200.14,223.66,204.91Z"/><ellipse class="cls-15" cx="218.67" cy="206.31" rx="4.99" ry="7.23"/><path class="cls-11" d="M200.37,204.91c0,.26,0,.51,0,.76-.22-3.7-2.36-6.6-5-6.6s-4.74,2.9-5,6.6c0-.25,0-.5,0-.76,0-4.77,2.23-8.63,5-8.63S200.37,200.14,200.37,204.91Z"/><ellipse class="cls-16" cx="195.38" cy="206.31" rx="4.99" ry="7.23"/><ellipse class="cls-17" cx="177.84" cy="68.55" rx="21.7" ry="2.37"/><path class="cls-18" d="M166.72,0s-1.58,17.36,1.13,22.77c0,0-1.81,9.69-.8,14.65l.8,11a40.74,40.74,0,0,0-1.59,9.69v9.47a34.6,34.6,0,0,0,18.72,0s-1.3-23.05-1.86-24.79c0,0,1.18-12.06,1-18.32s-.34-20.73-.34-20.73Z"/><path class="cls-19" d="M166.72,0s-1.58,17.36,1.13,22.77c0,0-1.81,9.69-.8,14.65l.8,11a40.74,40.74,0,0,0-1.59,9.69v9.47a34.6,34.6,0,0,0,18.72,0s-1.3-23.05-1.86-24.79c0,0,1.18-12.06,1-18.32s-.34-20.73-.34-20.73Z"/><path class="cls-20" d="M282.88,160.09c-10.28-4.72-20.05-9.69-28.87-17.67-12.42-11.25-25.54-30.84-29.42-67.6a89.54,89.54,0,0,1,16.59,9.41C273,107,280.86,143.8,282.88,160.09Z"/><path class="cls-17" d="M282.88,160.09c-10.28-4.72-20.05-9.69-28.87-17.67-12.42-11.25-25.54-30.84-29.42-67.6a89.54,89.54,0,0,1,16.59,9.41C273,107,280.86,143.8,282.88,160.09Z"/><path class="cls-3" d="M230,59.25c8,0,63.23,1,102.79,47.19,41.44,48.36,31.44,106.28,30.05,113.6a130,130,0,0,0-17.13-24.95c-29.75-33.94-61.12-33.05-85.35-55C246.55,127.57,231.85,104.69,230,59.25Z"/><g class="cls-4"><path class="cls-5" d="M236,65.71a248.74,248.74,0,0,1,40.57,26.34,294.3,294.3,0,0,1,35.45,33c5.41,6,10.54,12.27,15.45,18.69,2.37,3.27,4.82,6.48,7.05,9.85,1.13,1.68,2.32,3.32,3.39,5l3.22,5.13c4.19,6.91,8.17,13.95,11.65,21.24s6.58,14.75,9.45,22.29c-3-7.47-6.22-14.89-10-22-3.58-7.22-7.63-14.19-11.89-21s-8.92-13.41-13.76-19.84-10-12.58-15.46-18.55a305.26,305.26,0,0,0-35.14-33.07c-6.27-5.06-12.74-9.88-19.41-14.39A213.72,213.72,0,0,0,236,65.71Z"/></g><g class="cls-6"><path class="cls-5" d="M358.21,168.8q-6.39-4-12.71-8.09l-6.31-4.11-6.3-4.13.44-.24c0,4.26,0,8.53-.07,12.79s-.12,8.53-.21,12.79q-.15-6.39-.22-12.79c-.06-4.26,0-8.53-.07-12.79v-.54l.44.3,6.29,4.15,6.27,4.17Q352,164.51,358.21,168.8Z"/></g><g class="cls-6"><path class="cls-5" d="M343.64,131.08q-10.31-3.6-20.57-7.32l-20.49-7.5.38-.3,1.92,18.13q.94,9.06,1.79,18.14c-.76-6-1.51-12.06-2.21-18.1L302.39,116l-.05-.46.43.16,20.47,7.59Q333.46,127.15,343.64,131.08Z"/></g><g class="cls-6"><path class="cls-5" d="M300.36,84.05l-9.14-.13-9.14-.18-18.27-.48.3-.32,1.22,16.52q.59,8.27,1.07,16.53-.79-8.25-1.51-16.49L263.53,83l0-.32h.32l18.27.59,9.13.36Z"/></g><path class="cls-21" d="M230,59.25c8,0,63.23,1,102.79,47.19,41.44,48.36,31.44,106.28,30.05,113.6a130,130,0,0,0-17.13-24.95c-29.75-33.94-61.12-33.05-85.35-55C246.55,127.57,231.85,104.69,230,59.25Z"/></g></g></svg>