<svg id="Layer_1" data-name="Layer 1" xmlns="http://www.w3.org/2000/svg" viewBox="0 0 400 400"><defs><style>.cls-1{fill:#e8b134;}.cls-2{fill:#ffc938;}.cls-3{fill:#fff031;opacity:0.82;}.cls-4{fill:#ffd93b;}.cls-5{fill:#937c69;}.cls-6{fill:#776057;}.cls-7{fill:#f2bb40;}.cls-8{fill:#fce18a;}.cls-9{fill:#fff;opacity:0.34;}</style></defs><path class="cls-1" d="M129,268.4a88.65,88.65,0,0,1-.26-41.07c.58-2.46,1.36-5.07,3.35-6.65,3.3-2.62,8.41-1.06,11.38,1.94s4.56,7.06,6.87,10.59c5.87,8.93,16.07,14,26.15,17.51s20.67,6.1,29.67,11.86c3.9,2.5,7.7,6.07,8.1,10.69.41,4.89-3.13,9.21-6.88,12.37-12.86,10.81-30.76,14.31-46.94,10.42C143.52,292,133.58,287,129,268.4Z"/><path class="cls-1" d="M265.7,240.74c-2.45,7-5,13.45-7.27,21.91s-7.11,19.57.21,24.14c32,20,71.87,14.36,92.79,11.6,12.45-1.64,26.24-6.82,38.71-5.31,3.62.44,7.71,1.58,9.27,4.87,2.18,4.62-2.07,9.66-6.28,12.56C377.9,321,358.89,324.2,340.47,325.82a461.85,461.85,0,0,1-70.28.46c-8.11-.53-16.33-1.26-23.93-4.12s-14.63-8.15-17.88-15.59c-4.25-9.72-1.34-21.21,4-30.4a64.37,64.37,0,0,1,9.44-12.52Z"/><path class="cls-2" d="M254.05,269.79c14.91-30.89,20.67-60.71,19.81-76-2.1-37.18-21.85-59.16-37-65.94-10.36-4.62-28.09,4.77-37.15,26.45-8.72,20.87,2.09,41.06-22.48,89.43a245.48,245.48,0,0,1-15.37,26.08Z"/><path class="cls-2" d="M209.05,65.25a8.57,8.57,0,0,0-7.72,1.16,25.21,25.21,0,0,0-5.67,5.76,42.15,42.15,0,0,0-5,7.41,14.12,14.12,0,0,0-1.51,8.7A17.55,17.55,0,0,0,192,94.59a48,48,0,0,0,5.2,6.45,10.92,10.92,0,0,0,1.66,1.4A125,125,0,0,1,207,116.13c8.37,16.35,6,33.29,6,33.29l25.69-16.83a115.86,115.86,0,0,0-16.5-30.38l-1.41-1.81c-.87-5.22-1.74-10.5-.24-15.51a9.39,9.39,0,0,0,.7-3.47,7.12,7.12,0,0,0-1.22-3,102.61,102.61,0,0,0-6.34-9.14A11.87,11.87,0,0,0,209.05,65.25Z"/><path class="cls-1" d="M220.47,84.89a9.39,9.39,0,0,0,.7-3.47,7,7,0,0,0-1.23-3,100.46,100.46,0,0,0-6.33-9.14,11.87,11.87,0,0,0-4.56-4.07,8.57,8.57,0,0,0-7.72,1.16,19.67,19.67,0,0,0-4.16,3.89c4.15-.26,7.22,3.75,9.8,7.2.51.68,1.45,1.22,1.52,2.06a7.25,7.25,0,0,1-.52,2.11c-1.07,4.59-.91,5.8-1.36,10.39,2.72,6.32,5.4,10.39,8.63,16.85,2.89,5.78,4.94,12.3,9.21,17.28,3,3.51,8.51,5.11,12.69,7.37l1.48-1a115.86,115.86,0,0,0-16.5-30.38l-1.41-1.81C219.84,95.18,219,89.9,220.47,84.89Z"/><path class="cls-3" d="M205.71,155c-2.62,6.17-2.83,13.06-2.81,19.76q0,11.07.69,22.12c.13,2,.48,4.36,2.25,5.32a4.21,4.21,0,0,0,3.84-.21c3.54-1.83,4.66-6.32,4.9-10.3.63-10.38-2.13-21.14,1.16-31a41.32,41.32,0,0,0,2-6.16C219.62,143.38,208.42,148.64,205.71,155Z"/><path class="cls-3" d="M201.66,216.89l-4.36,12.39a6.21,6.21,0,0,0-.49,3.77c.59,2,3.11,2.84,5.06,2.19a7.77,7.77,0,0,0,4.19-4.27c.88-1.86,1.37-3.87,2.23-5.73,1-2.1,2.4-4,3.25-6.12s1-4.81-.49-6.59C207,207.67,202.93,213.3,201.66,216.89Z"/><path class="cls-4" d="M203.85,104.89a4.61,4.61,0,0,0,1.26,2.89,53.75,53.75,0,0,1,8.76,17.91,8.39,8.39,0,0,0,1.14,2.84,2.29,2.29,0,0,0,4.3-1.3,7.28,7.28,0,0,0-.76-3,164.89,164.89,0,0,0-9-18.36C208.77,104.47,204.1,101.5,203.85,104.89Z"/><path class="cls-5" d="M197.18,68.74c-1.47,1.7-2.69,3.61-4.06,5.38-1.74,2.24-3.72,4.28-5.24,6.66a10.76,10.76,0,0,0-1.53,3.36,9.62,9.62,0,0,0,.46,5.25,26.88,26.88,0,0,0,2.4,4.76A14,14,0,0,0,192,97.88c1.63,1.39,3.79,2,5.43,3.36-.52-1.73-1.7-4-1.08-5.66,1.75-4.83,2.62-6.39,7.2-12.92.93-1.33,2.51-3.52,3.46-4.84a13.15,13.15,0,0,0,2-2.84,4.65,4.65,0,0,0-.3-3.39,24,24,0,0,0-1.8-3A15.76,15.76,0,0,0,205,65.88c-1.07-1.06-2.23-1.45-3.53-.71A16.23,16.23,0,0,0,197.18,68.74Z"/><path class="cls-6" d="M199.78,68.71a12.31,12.31,0,0,0,2.16,2.35,20.48,20.48,0,0,1,3.61,4.67A4.39,4.39,0,0,0,207,77.5a1.31,1.31,0,0,0,1.1,0c3.25-1.11,8,.37,12.21,3.8.24.2.53.42.72.35s.13-.39.06-.67a19.4,19.4,0,0,0-2.18-4.76,48.54,48.54,0,0,0-7.62-9.68c-1.38-1.35-3-2.66-4.37-2.91a3.74,3.74,0,0,0-1.94.24C203.61,64.29,197.94,65.65,199.78,68.71Z"/><path class="cls-2" d="M138.35,282.13C95.24,296.25,49.43,301.51,4.12,299.39,1,299.25-.8,303.33.34,306.19s4.06,4.57,6.84,5.88c17.05,8,36.47,9.26,55.32,9.11a429.1,429.1,0,0,0,43.15-2.51,215.07,215.07,0,0,0,31.91-5.52,217.51,217.51,0,0,0,33.07-12.28c9-4,17.84-8.36,25.61-14.34s14.44-13.73,17.74-23c1-2.87,1.69-6.15.33-8.88-1.54-3.08-5.18-4.48-8.59-5-14-2.25-33.65,11.09-43.63,20.13C152.81,278.2,150.38,278.19,138.35,282.13Z"/><path class="cls-7" d="M274.7,192.93c-2.1-37.18-21.85-59.16-37-65.94a13.22,13.22,0,0,0-3.21-.94c-1.71.61-3.67,1.21-3.67,1.21l-11.55,5.54s4.86,1.58,10.05,22.63c4.26,17.29,7.09,57.85-13.15,98.26-6.77,10.73-27.78,45.22-46.75,48.05-6.81,1-9.38,10.29-12.12,16.6-1.1,2.53-1.77,5.67-.15,7.9a7.91,7.91,0,0,0,2.77,2.15c7.48,4,16.52,2.55,25,1.92,10.75-.79,22.23-.22,25.65-2.09,9.39-5.17,25-45,27.73-57.2L254.88,269C269.8,238.06,275.56,208.24,274.7,192.93Z"/><path class="cls-1" d="M254.61,164c8.12,19.82,4.95,57.14-11.2,96.72-1.11,2.72-4.12,9.37-5.59,12.18h16c14.92-30.89,21.73-64.61,20.87-79.92-2.1-37.18-21.85-59.16-37-65.94a13.41,13.41,0,0,0-3.43-1l-6.67,2.78S241.47,131.89,254.61,164Z"/><path class="cls-4" d="M185.86,240.82c12.39-31.35,10.43-53.65,12.77-81.93h0c-5.25,19.16,1.83,39.82-20.62,84a246.06,246.06,0,0,1-15.92,26.89S182.05,250.46,185.86,240.82Z"/><path class="cls-4" d="M5.63,306.43a7.49,7.49,0,0,0,3.09,1c19.8,3.27,40.37,6.51,59.67,1,1.86-.53,4.09-1.7,3.89-3.63-.25-2.23-3.33-2.59-5.56-2.35a325.59,325.59,0,0,1-36.81,1.84c-6.08,0-12.56.23-18.58-.66-1.28-.19-4-1.74-5.19-1.45C4,302.68,3.9,305.24,5.63,306.43Z"/><path class="cls-2" d="M205.47,299c5.06.67,15.17,1.65,23.49-1.52-2.85,9.88-4,11.49-9.06,20.44-2.64,4.69-5.94,9.52-11,11.32a15,15,0,0,1-10.3-.36A25.22,25.22,0,0,1,190,323a38.55,38.55,0,0,1-10.35-19.18c-.49-2.27-2.2-7.87.64-9,1.5-.61,6.63-5.59,8.08-5.25C190.34,290,196.21,297.77,205.47,299Z"/><path class="cls-8" d="M153,318.74c-1.52-10.29-.69-21.45,5.14-30.06,2.78-4.12,7.27-7.72,12.21-7.21,4.42.46,7.84,4,10.37,7.69,5.94,8.59,10.72,17.85,17,26.19,6.52,8.68,13.26,12.45,12.79,12.87-3.16,2.75-11.95,2.65-16.11,3.16a95.21,95.21,0,0,1-27.23-.55C159,329.48,154.34,327.67,153,318.74Z"/><path class="cls-9" d="M157.7,318.13a16.1,16.1,0,0,0,2.25,5.95,6.42,6.42,0,0,0,5.39,2.92c3.65-.25,5.76-4.46,5.73-8.11s-1.41-7.2-1.36-10.85a21,21,0,0,1,3.08-9.75c2.13-3.8.69-7.67-3.5-9.41-4-1.65-7.33,1.38-9.28,4.64C155.66,300.8,156,310.12,157.7,318.13Z"/></svg>