<svg id="Layer_1" data-name="Layer 1" xmlns="http://www.w3.org/2000/svg" xmlns:xlink="http://www.w3.org/1999/xlink" viewBox="0 0 400 400"><defs><style>.cls-1{fill:none;}.cls-2{fill:#fff698;}.cls-3{fill:#231f20;}.cls-4{clip-path:url(#clip-path);}.cls-5{fill:#fff;}.cls-6{fill:url(#linear-gradient);}.cls-7{clip-path:url(#clip-path-2);}.cls-8{fill:url(#linear-gradient-2);}.cls-9{fill:#ec1c24;stroke:#231f20;stroke-linecap:round;stroke-linejoin:round;stroke-width:2px;}</style><clipPath id="clip-path"><path class="cls-1" d="M170.53,145c-.22,4.41-3.31,7.63-6.9,7.18s-6.31-4.4-6.09-8.81,3.31-7.63,6.9-7.18,6.32,4.39,6.09,8.81"/></clipPath><linearGradient id="linear-gradient" x1="252.88" y1="3608.22" x2="256.51" y2="3608.22" gradientTransform="matrix(3.59, 0.31, 0.8, -9.25, -3626.79, 33426.67)" gradientUnits="userSpaceOnUse"><stop offset="0" stop-color="#fff"/><stop offset="1" stop-color="#f6921e"/></linearGradient><clipPath id="clip-path-2"><path class="cls-1" d="M204.4,133.8c-.22,4.42-3.31,7.63-6.9,7.18s-6.31-4.4-6.09-8.81,3.31-7.63,6.9-7.18,6.31,4.4,6.09,8.81"/></clipPath><linearGradient id="linear-gradient-2" x1="259.51" y1="3609.27" x2="263.14" y2="3609.27" gradientTransform="matrix(3.59, 0.31, 0.8, -9.25, -3618.25, 33428.22)" xlink:href="#linear-gradient"/></defs><path class="cls-2" d="M162.6,57.09C156,69.83,148.69,101.62,149,141c.67,79.46,29.5,184,43.91,216,40,82.87,90.07,21.29,80.87-39.81-14.08-93.57-28.25-146.79-58.42-200.53-6.45-11.49-11.46-24.91-19.83-36.71-21.69-30.6-30.14-24.23-30.14-24.23-1.83-.23-3.67-.46-3.56-2.49"/><path class="cls-3" d="M161.94,56.84c-15.48,31.77-15.07,71.66-13.1,106,2.55,44.63,11.57,89.07,22.79,132.26,7.66,29.49,38.35,139.46,85.69,92.51,19.71-19.54,20.51-52,16.65-77.46-6.39-42-14.08-84-27-124.61-11.2-35.13-28.36-69.24-46.83-101.06-5.74-9.9-15.85-24.85-27.32-29.41-3.08-1.21-8.42.37-10-2.38-.69-1.25-2.7-.32-2,1,.87,1.61,2.67,4.55,5.16,3,8.71-5.5,25.14,19.46,28.56,24.1,10.6,14.41,17.7,32.4,26,48.23a374.76,374.76,0,0,1,18,40.46c12,31.43,19.38,64.48,25.62,97.46,6.53,34.58,16,71,1,104.58-5.83,13.08-17.15,25-32.38,24.28-19.41-.93-33.25-26.45-39.88-41.54-11.12-25.3-17.79-52.93-24.25-79.7a703.55,703.55,0,0,1-17.51-106.45c-2.93-35.34-3.38-77.84,12-110.75.39-.83-.92-1.29-1.31-.49"/><path class="cls-3" d="M136.33.16c-.46,2.39-1,4.83.6,7,4,5.55,6.52,9.56,7.16,17.1,1.07,12.64,14.43,18.22,18.25,29.87.1.31.56.09.45-.22-3.56-10.87-15-16.15-18-27.26-.85-3.07.73-7.74-.81-10.8-2.71-5.38-8.44-8.42-7.27-15.65,0-.25-.34-.27-.38,0"/><path class="cls-3" d="M169.87,2.65c-2.88-.33-7,.17-7.4,4-.19,1.87-.25,3.9.92,5.54-.26-.36,2.76,4,2.8,3.29-.2,4-1.11,1.3-1.23,2.35s-.46,1.91.48,2.78c3.32,3.05,2.13,7.4.85,11.08-.4,1.16.79,2.12,1.38,2.81,3.41,3.94-1,12.13-2.56,16.09a.32.32,0,0,0,.6.23,149,149,0,0,0,4.8-15,.33.33,0,0,0-.13-.39c-5.08-3.16,1.14-9.18-2.24-13.33-2.32-2.86-1.43-19.16,1.69-18.94a.23.23,0,0,0,0-.45"/><path class="cls-3" d="M183.46,11.81c-14.46-.94,1.92,17.8-4.17,23.18-3.17,2.81-4.79,3.44-3,7.91.23.58-6.88,11.34-7.62,12.17-.23.26.19.62.44.4,3.38-2.95,3-10,8.72-10.35a.35.35,0,0,0,.26-.5c-4.73-8.33,4.59-7.46,4.07-13.53-.36-4.14-9.87-19.38,1.27-18.87a.21.21,0,0,0,0-.41"/><path class="cls-3" d="M126.27,33.94q3.22-6.81,10.42.8c0,1.52-.41,2.93-.35,4.46,0,1.16,1.34,2.33,2.07,2.95-.83-.69,2.62,3.34,4,3,1.52-.37,5.31-2,5.31,1.83,0,.14-.53,4.23-1.27,4.8a.32.32,0,0,0,.09.54c1.87.79,3.54,1.4,5.53.45,4.49-2.15,3.24,1.08,2.63,4.73a.38.38,0,0,0,.54.38l7.91-.68c.48.21.76-.56.28-.76-1.58-.69-2.48-1.35-4.25-1-4,.71-4.51-.42-2.74-5,.1-.27-.21-.59-.47-.43-1.72,1-10.26,5.53-8.61,1.37a12.1,12.1,0,0,0,1-5.68c-.59-3.32-5.92-1-7.93-2.64-5.49-4.57-.29-10.27-6-13.47-3.27-1.83-7,1.74-8.4,4.21-.12.22.2.46.33.23"/><path class="cls-3" d="M151,.52c-.15,2.83-.14,4.41,1.51,6.75.71,1,2.81,12,3.18,12.15-.2-.09-.47.17-.34.38,2.94,4.6,7,8.38,4.53,15.22a.32.32,0,0,0,.18.41c6.83,1.83,4.61,1.83,2.39,7.37-1.66,4.19.24,8.38,2.52,11.77.23.34.72-.08.49-.42-1.59-2.45,0-12,.31-17.59a.32.32,0,0,0-.2-.33C159.07,34.52,163,23.4,155.64,20a.27.27,0,0,0,.37-.23,70.85,70.85,0,0,0-.79-7.54C154.69,8.12,151.33,5,151.45.56c0-.28-.43-.32-.44,0"/><path class="cls-3" d="M142.9,1c0,6,6.45,8.6,3.17,15.93a.33.33,0,0,0,.19.41c7,3.32,2.81,11.85,7.36,17.91,1.53,2,6,4.3,5.6,7.35-.6,4.35,3.61,9.68,4.24,13.87.06.42.7.31.65-.11-.78-6-4.7-10.38-3.85-16.75a.32.32,0,0,0-.28-.35c-7.48-1.54-10.87-13-8.1-19.22a.33.33,0,0,0-.19-.41c-5.59-2.67-2.64-3-3.45-7.54-.76-4.21-4.72-6.51-4.8-11,0-.34-.54-.4-.54-.05"/><g class="cls-4"><path class="cls-5" d="M170.53,145c-.22,4.41-3.31,7.63-6.9,7.18s-6.31-4.4-6.09-8.81,3.31-7.63,6.9-7.18,6.32,4.39,6.09,8.81"/><path class="cls-6" d="M170.53,145c-.22,4.41-3.31,7.63-6.9,7.18s-6.31-4.4-6.09-8.81,3.31-7.63,6.9-7.18,6.32,4.39,6.09,8.81"/></g><g class="cls-7"><path class="cls-5" d="M204.4,133.8c-.22,4.42-3.31,7.63-6.9,7.18s-6.31-4.4-6.09-8.81,3.31-7.63,6.9-7.18,6.31,4.4,6.09,8.81"/><path class="cls-8" d="M204.4,133.8c-.22,4.42-3.31,7.63-6.9,7.18s-6.31-4.4-6.09-8.81,3.31-7.63,6.9-7.18,6.31,4.4,6.09,8.81"/></g><path class="cls-3" d="M176.94,141.5c-.32,6.4-5.27,11-11,10.28s-10.18-6.5-9.85-12.91,5.26-11,11-10.29,10.18,6.5,9.85,12.92"/><path class="cls-3" d="M176.39,141.44c-.59,5.77-4.39,10.16-10.43,9.79s-9.35-7-9.36-12.3a9.76,9.76,0,0,1,10.44-9.8c6.08.37,9.35,7,9.35,12.31,0,.71,1.1.81,1.1.1,0-6.54-3.7-12.24-10.35-13.51s-11,5.08-11.63,10.79c-.67,6.47,4.19,12.35,10.35,13.52,6.58,1.25,11-5.08,11.63-10.8a.55.55,0,0,0-1.1-.1"/><path class="cls-5" d="M175.67,143.66c-.23,4.53-3.73,7.8-7.81,7.29s-7.21-4.61-7-9.15,3.73-7.8,7.81-7.29,7.21,4.61,7,9.15"/><path class="cls-5" d="M175,143.59c-.41,3.89-2.93,6.88-7,6.63s-6.32-4.77-6.32-8.35a6.56,6.56,0,0,1,7-6.63c4.11.25,6.32,4.76,6.33,8.35,0,.93,1.45,1.07,1.45.14,0-4.84-2.74-9-7.64-9.94s-8.17,3.72-8.6,7.94a9.41,9.41,0,0,0,7.63,9.94c4.84.92,8.17-3.73,8.61-7.94a.73.73,0,0,0-1.45-.14"/><path class="cls-3" d="M175.36,144.83c-.18,3.39-2.79,5.84-5.85,5.45s-5.39-3.45-5.22-6.84,2.79-5.84,5.84-5.46,5.4,3.45,5.23,6.85"/><path class="cls-3" d="M210.57,134.81c-.33,6.41-5.26,11-11,10.29s-10.18-6.5-9.85-12.9,5.26-11,11-10.3,10.18,6.5,9.85,12.91"/><path class="cls-3" d="M210,134.76c-.59,5.76-4.38,10.16-10.43,9.79s-9.35-7-9.35-12.3a9.75,9.75,0,0,1,10.43-9.8c6.08.37,9.35,7,9.35,12.31,0,.7,1.1.81,1.1.1,0-6.55-3.7-12.25-10.35-13.51s-11,5.08-11.63,10.79c-.67,6.47,4.19,12.34,10.35,13.51,6.58,1.26,11-5.08,11.63-10.79a.55.55,0,0,0-1.1-.1"/><path class="cls-5" d="M209.3,137c-.23,4.54-3.72,7.8-7.81,7.29s-7.21-4.61-7-9.14,3.73-7.8,7.81-7.29,7.21,4.6,7,9.14"/><path class="cls-5" d="M208.58,136.91c-.4,3.89-2.93,6.87-7,6.63s-6.32-4.77-6.32-8.35a6.57,6.57,0,0,1,7-6.64c4.12.26,6.32,4.77,6.33,8.36,0,.93,1.45,1.07,1.45.13,0-4.84-2.73-9-7.64-9.93s-8.17,3.72-8.6,7.94a9.4,9.4,0,0,0,7.63,9.94c4.84.91,8.17-3.73,8.61-8a.73.73,0,0,0-1.45-.13"/><path class="cls-3" d="M209,138.15c-.17,3.39-2.79,5.83-5.85,5.45s-5.39-3.45-5.22-6.85,2.79-5.84,5.85-5.46,5.39,3.45,5.22,6.86"/><path class="cls-3" d="M195.61,160.06c1.12,4.25-.21,8.3-3,9.05s-5.92-2.08-7-6.33.21-8.3,3-9.05,5.92,2.08,7.05,6.33"/><path class="cls-3" d="M194.52,160.25c.55,2.51.82,6.08-1.75,7.64-3,1.79-5.49-3.35-6.09-5.31-.74-2.41-.69-6.15,1.75-7.63,2.95-1.79,5.49,3.34,6.09,5.3.41,1.34,2.59,1,2.17-.38-1.14-3.71-3.84-8-8.32-7.23s-4.59,7.05-3.87,10.33c.84,3.79,4.05,8,8.32,7.23,4.46-.76,4.6-7.06,3.87-10.33-.3-1.39-2.48-1-2.17.38"/><path class="cls-9" d="M175.26,199.91s6.45-14.89,18-18a26.17,26.17,0,0,1,27,9c-8.45,2.26-17.51-1.69-23.24-.42C178.71,194.54,175.26,199.91,175.26,199.91Z"/></svg>