<svg id="Layer_1" data-name="Layer 1" xmlns="http://www.w3.org/2000/svg" viewBox="0 0 400 400"><defs><style>.cls-1{fill:#3cb10d;}.cls-1,.cls-2,.cls-3,.cls-4{stroke:#000;stroke-miterlimit:10;stroke-width:2.95px;}.cls-2{fill:#f03819;}.cls-3{fill:#fa513a;}.cls-4{fill:#f87261;}</style></defs><path class="cls-1" d="M317.71,103.55a7,7,0,0,1-5.45-11.49c12.45-15.29,15.3-35.6,7.25-51.75s-24.19-22-28.94-23.35a7,7,0,0,1,3.94-13.53c6.14,1.79,27,9.28,37.6,30.59,10.52,21.1,7,47.37-8.93,66.94A7,7,0,0,1,317.71,103.55Z"/><path class="cls-2" d="M261,344.23c-67,49.47-147.51,68.49-222.81,37.14-4.41-1.84-3.24-8.39,1.51-8.8,10.84-.93,20.82-2.14,30.08-3.62C126.88,374,184.21,354.09,234,317.25c68.82-50.85,113.4-125.36,101.71-210.52l26.83,25.64C374.87,218.09,330.14,293.1,261,344.23Z"/><path class="cls-3" d="M234,317.25C184.21,354.09,126.88,374,69.76,369c54.51-8.8,82.4-27,99.94-53.18,55.57-83,77.62-169.88,91.28-196.36L318.8,90.53l16.91,16.2C347.4,191.89,302.82,266.4,234,317.25Z"/><path class="cls-1" d="M261,119.44c9.62-20.37,30.44-32.87,52.15-31.47,24.2,1.55,44.88,20.07,49.46,44.95-8.75-7.32-21-15.26-31.47-11.68C320.23,125,317.59,139,310.46,138.32c-7.72-.68-7.68-17.31-18.88-23.38C282.19,109.85,269.7,114.79,261,119.44Z"/><ellipse class="cls-4" cx="273.1" cy="170.14" rx="31.69" ry="18.88" transform="translate(2.66 344.47) rotate(-64.73)"/></svg>