<svg id="Layer_1" data-name="Layer 1" xmlns="http://www.w3.org/2000/svg" viewBox="0 0 400 400"><defs><style>.cls-1{fill:#fff698;stroke:#231f20;stroke-linecap:round;stroke-linejoin:round;}.cls-2{fill:#f9ab56;}.cls-3{fill:#231f20;}.cls-4{fill:#bcbf33;}</style></defs><path class="cls-1" d="M133.82,133.08c0,.09,0,.2-.06.29-7.93-.78-29.55.59-32.62.81,16.75,28.51,54.82,33.67,85.77,36.65,40.55,1.94,95.76,9.09,124.07-26.27a218.92,218.92,0,0,0-53.71-11.26"/><path class="cls-2" d="M306.39,143.54c-.4.74-.83,1.46-1.29,2.17a.25.25,0,0,1,0,.07c-4.68,7.18-11.87,12.4-19.8,15.77-1,.44-2.07.85-3.12,1.22l-.49.17-1.11.38c-9.73,3.18-20.07,4-30.3,4.45-2.92.12-5.83.22-8.75.29L235,142.37l0-.17-.14-.53-2.28-9-.18-.71c1,0,2.08,0,3.11,0h1.23c1.3,0,2.6,0,3.89,0,2.74,0,5.44.14,8.12.29q1.38.06,2.76.15l.72,0A198,198,0,0,1,306.39,143.54Z"/><path class="cls-3" d="M306.5,143.36l-.11.18c-.4.74-.83,1.46-1.29,2.17A227.57,227.57,0,0,0,252,134l-.8-.08c-.81-.09-1.63-.16-2.44-.24-2-.18-4-.34-6-.48l-4.41-.27-1.26-.06c-1.53-.08-3-.14-4.58-.19h-.24c-.92,0-.76-1.38.12-1.41l1.76,0h1.28c1.25,0,2.5,0,3.75,0q4.6,0,9.23.31c1,0,1.93.1,2.89.17l.67.05A201.27,201.27,0,0,1,306.5,143.36Z"/><path class="cls-2" d="M282.14,162.77l-.49.17-1.11.38c-9.73,3.18-20.07,4-30.3,4.45-2.92.12-5.83.22-8.75.29l-3,.05c-.58,0-1.15,0-1.73,0l-1.95,0q-12.06.1-24.11-.47l-6.58-39.62h0l-.43-2.6-.34-2-.58-3.47s0,0,0-.06l-.76-4.67h0l-.14-.83.61.25a264.85,264.85,0,0,1,32.95,16.6c.41.23.83.47,1.24.72l1.68,1q3.72,2.2,7.49,4.55l1.12.7.18.11A425.13,425.13,0,0,1,282.14,162.77Z"/><path class="cls-3" d="M245.44,137.74q-4.16-2.49-8.37-4.86l-1.65-.92q-.64-.37-1.29-.72c-10.31-5.71-20.77-10.88-31.11-15.56l-1-.47h0l-.37-.17a.71.71,0,0,1-.37-.94.6.6,0,0,1,.74-.4l.11,0a345.54,345.54,0,0,1,37.07,17.51c.46.24.92.5,1.38.75l2.2,1.22q2.4,1.35,4.82,2.76l1.36.8.39.22a314,314,0,0,1,35.95,24.56c-1,.44-2.07.85-3.12,1.22l-.49.17a307.38,307.38,0,0,0-34.93-24.43l-.16-.1Z"/><path class="cls-2" d="M149.62,135.71l-.09.7-1.22,9.4,0,.32-1.74,13.47a87.15,87.15,0,0,1-17.28-6.16c-1.51-.75-3-1.57-4.57-2.47-.35-.2-.7-.4-1-.62s-.71-.44-1.06-.67c-5.55-3.55-10.73-8.12-14-13.68-.39-.65-.75-1.33-1.08-2l-.11-.24q4.13-.34,8.46-.45H116a173.72,173.72,0,0,1,21.5.85l.67.07c1.49.15,3,.32,4.5.51l3.09.42.25,0Z"/><path class="cls-3" d="M149.56,136.41h0c-1.53-.19-3.05-.36-4.57-.51l-.32,0c-1.06-.11-2.12-.2-3.17-.28l-3.2-.24-.79,0a169,169,0,0,0-28.89.69c-.39-.65-.75-1.33-1.08-2,2.75-.31,5.54-.54,8.35-.69H116a161.11,161.11,0,0,1,21.58.34c.19,0,.38,0,.58.05,1.75.13,3.51.31,5.28.51,1.06.12,2.14.25,3.21.39l.19,0,2.81.39C150.58,135.14,150.46,136.52,149.56,136.41Z"/><path class="cls-2" d="M192.56,118.41l-.1,1-.42,4-2.1,19.79-.06.54-.11,1.08L187.52,166q-9.17-.9-18.3-2.22c-.58-.07-1.16-.16-1.74-.25a1.45,1.45,0,0,1-.28,0L164,163c-5.87-.9-11.75-1.94-17.5-3.41a87.15,87.15,0,0,1-17.28-6.16c-1.51-.75-3-1.57-4.57-2.47-.35-.2-.7-.4-1-.62,4.88-3.63,9.87-7.16,14.83-10.47l.58-.39q2.8-1.86,5.59-3.62l1.16-.73.89-.56q1.23-.77,2.46-1.5c.47-.29.95-.57,1.42-.84l.16-.1a169.06,169.06,0,0,1,15.71-8.34C177.19,118.87,186.46,116.54,192.56,118.41Z"/><path class="cls-3" d="M192.47,119.36h0c-8.25-1.36-17.16.66-26,4.44a116.5,116.5,0,0,0-15.71,8.34l-.16.1-1.39.88-2.3,1.49-.83.56-1.09.73c-2,1.32-3.88,2.68-5.76,4l-.54.4c-5.08,3.68-9.8,7.37-14,10.64-.35-.2-.7-.4-1-.62s-.71-.44-1.06-.67c4.59-3.49,9.77-7.52,15.32-11.54l.67-.49c1-.69,1.92-1.38,2.9-2.06l1.24-.87.77-.53c1.47-1,3-2,4.48-3,14.4-9.3,30.29-16.58,44.69-13.75C193.83,117.7,193.69,119.56,192.47,119.36Z"/><path class="cls-2" d="M236.76,168.14l-1.95,0q-12.06.1-24.11-.47-11.61-.54-23.18-1.7-9.17-.9-18.3-2.22c-.58-.07-1.16-.16-1.74-.25,3.67-5.59,7.76-11.3,12.33-17.15.14-.19.29-.37.44-.56.58-.75,1.17-1.5,1.78-2.25s1.33-1.66,2-2.5l.32-.71,7.67-17,5.43-12,.9-2c0,.4,1,2,2.87,4.77l.74,1.11h0c3.59,5.27,9.57,13.77,16.72,24.51.23.35.46.7.7,1.05s.39.58.58.88h0C225.18,149.51,230.92,158.45,236.76,168.14Z"/><path class="cls-3" d="M184.71,141.52c-.65.84-1.3,1.69-1.94,2.54l-1.35,1.79-.48.66q-6.18,8.37-11.72,17.26c-.58-.07-1.16-.16-1.74-.25a1.45,1.45,0,0,1-.28,0q5.51-8.82,11.87-17.27c.12-.18.26-.35.39-.53.66-.88,1.33-1.76,2-2.63l1.93-2.46a.79.79,0,0,1,1-.24A.74.74,0,0,1,184.71,141.52Z"/><path class="cls-3" d="M238.49,168.11c-.58,0-1.15,0-1.73,0l-1.95,0c-6.64-9.93-14.94-20.17-22.34-30.64,0,0,0,0,0,0l-.72-1a0,0,0,0,0,0,0c-3-4.32-5.87-8.67-8.38-13.06-.37-.64-.73-1.28-1.08-1.93-.73-1.33-1.43-2.66-2.08-4-.1-.2-.2-.39-.28-.59,0,0,0,0,0,0q-1.36-2.77-2.44-5.56c-.18-.44-.35-.89-.51-1.33-.69-1.87,2.14-3.24,2.83-1.34a52.29,52.29,0,0,0,2.19,5q.22.47.48.93c.18.35.36.7.56,1.05,4.62,8.52,11.51,16.85,17.53,24.84h0l.63.83.67.89h0c1.8,2.45,3.51,4.85,5,7.23C230.8,155.63,234.69,161.84,238.49,168.11Z"/><path class="cls-4" d="M159,102.25c-31.33.8-43.81-40.54-28.15-60.55,19.35-24.82,64.52-29.61,83.87-3.2,9.22,12,10.13,27.21,9.22,41.63-.92,5.59-4.61,12.8-1.85,18.41,1.85,4,20,28.34,24.38,29.7,22.48,7.1-38.13,34.46-45.57-12.9-3.68,8.81,1.83,23.22-10.13,28-13.84,5.6-18.24,2.73-14.33-17.88l-2.27-3.73c-8.39,23.35-36,34.22-36,11.81,0-10.4,26.74-20.61,35-23.82,21.21-8.8,34.1-36.82,13.84-55.23-28.58-23.22-57.14,1.59-45.16,30.42,2.76,8,11,15.21,16.58,16.81Z"/><path class="cls-3" d="M159,101.8C139,100.58,128.1,86.6,125,68c-3.38-20.29,11.79-34.42,28.57-42.1,17.17-7.84,37.65-5.24,53,5.13,13.93,9.43,16.61,26.68,17.06,41.83-.62-21.41-1.85,27.56-3.08,19.82,1.92,12.12,13.65,28.65,23.91,35.08,11,6.88-1.42,12.14-8,13.64-18.74,4.2-31.21-9.06-34.86-26.11-.12-.56-1-.74-1.19-.11-2.44,9.21,0,21.5-9.81,27.7-14,8.79-12.5-15.93-15.81-21.34a.6.6,0,0,0-1.09.05q-2.76,5.2-5.5,10.41c-7.32,12.93-38.3,13.92-23.55-7.1,5.82-5.49,14.8-8.8,22.08-11.91,10.09-4.32,17.53-8.37,24.57-17,13.12-16.17,5.25-35.62-9.89-46.16-35.27-24.56-60.48,34.53-23,52.57.73.36,1.16-.83.44-1.17-46.48-22.24,5.16-86,35.31-36.52,13.38,21.94-11.45,40.73-27.84,47.34-9.92,4-25.64,9.71-28.5,21.4-1.09,4.47,2.47,12.69,7.92,12.84,12.28.35,20.48-8.83,26.57-18.56,6.37-10.16,2.07,5.6,2.31,9.15.21,3,.12,6.68,3,8.68,4.24,3,15.49-.91,17.92-4.37,3-4.27,3.75-7.34,4.34-12.5,1.45-12.85,1.15-5.06,5.44,1.12,5.8,8.36,14.39,13.93,24.94,13.43,4.34-.19,30.92-6.11,19-14.49A69.12,69.12,0,0,1,233.83,114c-10.25-12.71-9.6-24.92-9-41,.72-19-6.45-35.46-22.14-46.08C181.51,12.49,139,21,127.77,45.21c-11.57,25,2.32,56.17,31.18,57.5.59,0,.67-.88.09-.91Z"/></svg>