<svg xmlns="http://www.w3.org/2000/svg" xmlns:xlink="http://www.w3.org/1999/xlink" viewBox="0 0 400 400"><defs><style>.cls-1{isolation:isolate;}.cls-2{fill:#bc7200;}.cls-3,.cls-9{fill:none;stroke:#149207;stroke-miterlimit:10;}.cls-3{stroke-width:3.04px;}.cls-4{fill:#0d8d07;}.cls-12,.cls-5{opacity:0.4;}.cls-5,.cls-7{mix-blend-mode:overlay;}.cls-6{fill:#fff;}.cls-7{opacity:0.2;}.cls-13,.cls-14,.cls-8{mix-blend-mode:soft-light;}.cls-8{fill:url(#radial-gradient);}.cls-9{stroke-width:4.71px;}.cls-10{fill:url(#linear-gradient);}.cls-11{fill:#149207;}.cls-12{mix-blend-mode:multiply;fill:url(#linear-gradient-2);}.cls-13{fill:url(#radial-gradient-2);}.cls-14{fill:url(#radial-gradient-3);}</style><radialGradient id="radial-gradient" cx="627.1" cy="-254.14" r="76.9" gradientTransform="translate(-78.62 643.05) rotate(-35.89)" gradientUnits="userSpaceOnUse"><stop offset="0" stop-color="#fff"/><stop offset="1" stop-color="#fff" stop-opacity="0"/></radialGradient><linearGradient id="linear-gradient" x1="212.57" y1="67.11" x2="212.57" y2="326" gradientUnits="userSpaceOnUse"><stop offset="0" stop-color="#ff9800"/><stop offset="0.5" stop-color="#ffbe22"/><stop offset="1" stop-color="#cacf10"/></linearGradient><linearGradient id="linear-gradient-2" x1="166.26" y1="34.46" x2="184.98" y2="34.46" gradientUnits="userSpaceOnUse"><stop offset="0"/><stop offset="1" stop-color="#fff"/></linearGradient><radialGradient id="radial-gradient-2" cx="245.09" cy="131.28" r="55.05" gradientTransform="matrix(1, 0, 0, 1, 0, 0)" xlink:href="#radial-gradient"/><radialGradient id="radial-gradient-3" cx="277.47" cy="165.7" r="119.27" gradientTransform="matrix(1, 0, 0, 1, 0, 0)" xlink:href="#radial-gradient"/></defs><g class="cls-1"><g id="Layer_1" data-name="Layer 1"><path class="cls-2" d="M283.67,183.07l-83.75-70.4C181,96.75,161.43,80.47,138,72.85l-.52-.16a127,127,0,0,1,15.94-3.78c3.14-.54,6.36-1,9.62-1.27,2.8-.25,5.64-.43,8.51-.5h.1c.9,0,1.8,0,2.71,0h2.21c1.66,0,3.55.06,5.64.14,2.89.12,6.15.31,9.68.71H192a102.62,102.62,0,0,1,35.16,10l.15.07c.68.34,1.36.69,2.05,1.07.08,0,.18.08.26.13l.65.35,1,.57c1.76,1,3.51,2.06,5.27,3.21l1.15.77.17.11c.71.49,1.42,1,2.13,1.5s1.22.89,1.82,1.35,1.18.91,1.76,1.38,1.15.92,1.71,1.39L247,91.34c.53.48,1.07,1,1.59,1.43s1.14,1.07,1.7,1.62.94.91,1.4,1.38.73.73,1.07,1.1.48.5.72.76c1.26,1.32,2.44,2.67,3.58,4l.76.92c.5.62,1,1.23,1.46,1.84l.94,1.23c.35.45.69.92,1,1.38.65.89,1.29,1.78,1.88,2.68l.92,1.36c.26.41.53.82.79,1.24a2.68,2.68,0,0,1,.18.28c.18.29.35.57.54.85v0c.07.11.14.22.21.35q1.69,2.75,3.17,5.52a126.3,126.3,0,0,1,12,33.52c.17.75.32,1.51.46,2.24s.26,1.34.37,2c.09.44.16.86.23,1.28l.27,1.65c.1.62.19,1.22.27,1.81.13.88.23,1.72.33,2.51.43,3.41.6,5.94.68,7.33Q283.89,177.41,283.67,183.07Z"/><path class="cls-3" d="M217.53,32.21S181.9,27.26,182,40.67"/><path class="cls-4" d="M215.45,31.87c4.2-3,33.41-23.36,71.52-14.2,39.93,9.6,56.59,43.63,58.63,48a83.88,83.88,0,0,0-18.37-6.55c-28.37-6.49-44.42,5.83-65.37,3.53C249.9,61.31,233.57,54.92,215.45,31.87Z"/><g class="cls-5"><path class="cls-6" d="M221,33a161.32,161.32,0,0,1,31.14-1.57,189.12,189.12,0,0,1,31,3.84c5.1,1.09,10.14,2.42,15.13,3.92s9.9,3.27,14.7,5.29a155.83,155.83,0,0,1,27.47,14.76c-4.42-2.75-8.88-5.43-13.53-7.74s-9.35-4.53-14.16-6.48-9.72-3.64-14.68-5.17S288.08,37.05,283,36a196.43,196.43,0,0,0-30.85-4c-5.19-.27-10.39-.34-15.58-.18A139.36,139.36,0,0,0,221,33Z"/></g><g class="cls-7"><path class="cls-6" d="M323.8,40.65q-4.85.33-9.69.58l-9.71.46.14-.29,4.8,6.71q2.39,3.36,4.72,6.76-2.49-3.28-4.94-6.6l-4.87-6.66-.21-.28h.35l9.7-.4C317.33,40.81,320.56,40.71,323.8,40.65Z"/></g><g class="cls-7"><path class="cls-6" d="M301.93,26.45c-4.49,1.35-9,2.65-13.51,3.93s-9,2.6-13.54,3.85l.09-.3,7.85,8.75c2.62,2.91,5.21,5.85,7.8,8.79-2.68-2.86-5.35-5.73-8-8.63l-7.94-8.67-.19-.21.28-.08c4.51-1.29,9-2.5,13.56-3.75S297.39,27.64,301.93,26.45Z"/></g><g class="cls-7"><path class="cls-6" d="M261.55,18.24q-4.82,3.41-9.66,6.75l-9.73,6.65,0-.27,6.88,8.17c2.29,2.72,4.55,5.47,6.81,8.22-2.36-2.67-4.7-5.34-7-8l-7-8.11-.14-.16.17-.11,9.77-6.6Q256.63,21.47,261.55,18.24Z"/></g><path class="cls-8" d="M215.45,31.87c4.2-3,33.41-23.36,71.52-14.2,39.93,9.6,56.59,43.63,58.63,48a83.88,83.88,0,0,0-18.37-6.55c-28.37-6.49-44.42,5.83-65.37,3.53C249.9,61.31,233.57,54.92,215.45,31.87Z"/><path class="cls-9" d="M232.34,61.58S192.07,23,180.05,39.94"/><path class="cls-10" d="M283.67,178.19q-40.74-34-81.49-68c-18.42-15.38-37.45-31.1-60.29-38.46l-.5-.16a125.89,125.89,0,0,1,15.51-3.65c3-.52,6.18-.93,9.36-1.22,2.72-.25,5.48-.42,8.28-.49h.09q1.32,0,2.64,0h2.15c1.62,0,3.46.06,5.49.14,2.81.11,6,.3,9.42.68h.13a100.72,100.72,0,0,1,34.21,9.69l.14.07c.67.33,1.33.67,2,1l.25.13.63.34,1,.55c1.71,1,3.41,2,5.12,3.1l1.12.74.17.11c.69.47,1.38,1,2.07,1.45s1.19.86,1.77,1.3,1.15.88,1.71,1.33,1.12.89,1.67,1.35L248,89.59,249.5,91q.84.77,1.65,1.56c.46.44.92.88,1.37,1.34s.71.7,1,1.06.47.48.7.73c1.22,1.28,2.37,2.58,3.48,3.89l.74.89c.49.59,1,1.18,1.42,1.77.31.4.62.79.92,1.19s.67.89,1,1.33c.63.86,1.25,1.72,1.83,2.59l.89,1.32c.26.39.52.79.77,1.19.07.09.12.18.18.27l.52.83v0l.21.34q1.65,2.65,3.08,5.33A121.63,121.63,0,0,1,281,149c.16.73.31,1.46.45,2.17s.25,1.29.36,1.92c.08.42.15.83.22,1.23s.17,1.08.26,1.6.19,1.18.26,1.75c.13.85.23,1.66.33,2.42.41,3.29.58,5.74.66,7.08Q283.88,172.72,283.67,178.19Z"/><ellipse class="cls-2" cx="177.84" cy="68.55" rx="21.7" ry="2.37"/><path class="cls-11" d="M166.72,0s-1.58,17.36,1.13,22.77c0,0-1.81,9.69-.8,14.65l.8,11a40.74,40.74,0,0,0-1.59,9.69v9.47a34.6,34.6,0,0,0,18.72,0s-1.3-23.05-1.86-24.79c0,0,1.18-12.06,1-18.32s-.34-20.73-.34-20.73Z"/><path class="cls-12" d="M166.72,0s-1.58,17.36,1.13,22.77c0,0-1.81,9.69-.8,14.65l.8,11a40.74,40.74,0,0,0-1.59,9.69v9.47a34.6,34.6,0,0,0,18.72,0s-1.3-23.05-1.86-24.79c0,0,1.18-12.06,1-18.32s-.34-20.73-.34-20.73Z"/><path class="cls-13" d="M282.88,160.09c-10.28-4.72-20.05-9.69-28.87-17.67-12.42-11.25-25.54-30.84-29.42-67.6a89.54,89.54,0,0,1,16.59,9.41C273,107,280.86,143.8,282.88,160.09Z"/><path class="cls-2" d="M282.88,160.09c-10.28-4.72-20.05-9.69-28.87-17.67-12.42-11.25-25.54-30.84-29.42-67.6a89.54,89.54,0,0,1,16.59,9.41C273,107,280.86,143.8,282.88,160.09Z"/><path class="cls-4" d="M230,59.25c8,0,63.23,1,102.79,47.19,41.44,48.36,31.44,106.28,30.05,113.6a130,130,0,0,0-17.13-24.95c-29.75-33.94-61.12-33.05-85.35-55C246.55,127.57,231.85,104.69,230,59.25Z"/><g class="cls-5"><path class="cls-6" d="M236,65.71a248.74,248.74,0,0,1,40.57,26.34,294.3,294.3,0,0,1,35.45,33c5.41,6,10.54,12.27,15.45,18.69,2.37,3.27,4.82,6.48,7.05,9.85,1.13,1.68,2.32,3.32,3.39,5l3.22,5.13c4.19,6.91,8.17,13.95,11.65,21.24s6.58,14.75,9.45,22.29c-3-7.47-6.22-14.89-10-22-3.58-7.22-7.63-14.19-11.89-21s-8.92-13.41-13.76-19.84-10-12.58-15.46-18.55a305.26,305.26,0,0,0-35.14-33.07c-6.27-5.06-12.74-9.88-19.41-14.39A213.72,213.72,0,0,0,236,65.71Z"/></g><g class="cls-7"><path class="cls-6" d="M358.21,168.8q-6.39-4-12.71-8.09l-6.31-4.11-6.3-4.13.44-.24c0,4.26,0,8.53-.07,12.79s-.12,8.53-.21,12.79q-.15-6.39-.22-12.79c-.06-4.26,0-8.53-.07-12.79v-.54l.44.3,6.29,4.15,6.27,4.17Q352,164.51,358.21,168.8Z"/></g><g class="cls-7"><path class="cls-6" d="M343.64,131.08q-10.31-3.6-20.57-7.32l-20.49-7.5.38-.3,1.92,18.13q.94,9.06,1.79,18.14c-.76-6-1.51-12.06-2.21-18.1L302.39,116l-.05-.46.43.16,20.47,7.59Q333.46,127.15,343.64,131.08Z"/></g><g class="cls-7"><path class="cls-6" d="M300.36,84.05l-9.14-.13-9.14-.18-18.27-.48.3-.32,1.22,16.52q.59,8.27,1.07,16.53-.79-8.25-1.51-16.49L263.53,83l0-.32h.32l18.27.59,9.13.36Z"/></g><path class="cls-14" d="M230,59.25c8,0,63.23,1,102.79,47.19,41.44,48.36,31.44,106.28,30.05,113.6a130,130,0,0,0-17.13-24.95c-29.75-33.94-61.12-33.05-85.35-55C246.55,127.57,231.85,104.69,230,59.25Z"/></g></g></svg>