<?xml version="1.0" encoding="utf-8"?>
<!-- Generator: Adobe Illustrator 24.3.0, SVG Export Plug-In . SVG Version: 6.00 Build 0)  -->
<svg version="1.1" id="Layer_1" xmlns="http://www.w3.org/2000/svg" xmlns:xlink="http://www.w3.org/1999/xlink" x="0px" y="0px"
	 viewBox="0 0 400 400" style="enable-background:new 0 0 400 400;" xml:space="preserve">
<style type="text/css">
	.st0{fill:#69BC45;}
	.st1{fill:none;stroke:#2E5629;stroke-width:5.86;}
	.st2{fill:#F16822;}
	.st3{fill:none;stroke:#80361A;stroke-width:7.81;}
	.st4{fill:#F79858;}
	.st5{fill:none;stroke:#80351A;stroke-width:5.86;}
</style>
<polygon class="st0" points="207.2,150.3 194.5,72.5 212.9,69.7 217.8,150.3 "/>
<polygon class="st1" points="207.2,150.3 194.5,72.5 212.9,69.7 217.8,150.3 "/>
<path class="st2" d="M161.1,195.9l4.6,11.1c11.4,1.7,22.7,6.4,33,12.6c4.7-2.8,9.9-4.8,15.2-6c11.8-2.3,24.1-1.9,35.7,1.3
	c5.5-6.3,12.4-11.3,20.1-14.7c4.6-2,9.3-3.7,14.1-4.9l2.1-8.9C271.1,140.9,168.8,132.8,161.1,195.9"/>
<path class="st3" d="M161.1,195.9l4.6,11.1c11.4,1.7,22.7,6.4,33,12.6c4.7-2.8,9.9-4.8,15.2-6c11.8-2.3,24.1-1.9,35.7,1.3
	c5.5-6.3,12.4-11.3,20.1-14.7c4.6-2,9.3-3.7,14.1-4.9l2.1-8.9C271.1,141,168.8,132.8,161.1,195.9z"/>
<path class="st4" d="M194.6,217c1.5,0.8,2.8,1.7,4.3,2.6c4.7-2.8,9.8-4.8,15.1-5.9c2.1-0.4,4.3-0.8,6.5-1c-2.6-7.9-7.4-14-15.5-16
	c8.9-12.7,4.7-20.5,0-28.1c-5.7-1.7-11.3-0.1-17,13.6c-2.2,14,1.9,21.1,6.6,27.5C194.6,212.1,194.6,214.5,194.6,217"/>
<path class="st5" d="M190.3,209.1c20.8-10.4,45.1-14.6,67.3-6.5"/>
<path class="st0" d="M187.4,123.2c-18.7,30-55.7,27.3-48.1-12c-20.6,10.3-37.3-15.8-7.8-24.8c-26.6-23-23.5-52,12-53
	c11.8-15.8,33.8-31,58.6,13.4c28.2-6.9,43.2,18.1,19.8,38.2C267.3,121,203.7,151.5,187.4,123.2"/>
<path class="st1" d="M187.4,123.2c-18.7,30-55.7,27.3-48.1-12c-20.6,10.3-37.3-15.8-7.8-24.8c-26.6-23-23.5-52,12-53
	c11.8-15.8,33.8-31,58.6,13.4c28.2-6.9,43.2,18.1,19.8,38.2C267.3,120.9,203.7,151.4,187.4,123.2z"/>
<path class="st0" d="M209.6,126.2c18.7,30,55.7,27.3,48-12c20.6,10.3,37.3-15.8,7.8-24.7c26.6-23,25.4-48-3-52
	c12.5-26.6-33.8-55-58.6-10.6c-28.2-6.9-38.2,27-14.8,47.1C143.7,109.9,193.3,154.4,209.6,126.2"/>
<path class="st1" d="M209.6,126.2c18.7,30,55.7,27.3,48-12c20.6,10.3,37.3-15.8,7.8-24.7c26.6-23,25.4-48-3-52
	c12.5-26.6-33.8-55-58.6-10.6c-28.2-6.9-38.2,27-14.8,47.1C143.7,109.9,193.3,154.4,209.6,126.2z"/>
</svg>
