<svg id="Layer_1" data-name="Layer 1" xmlns="http://www.w3.org/2000/svg" xmlns:xlink="http://www.w3.org/1999/xlink" viewBox="0 0 400 400"><defs><style>.cls-1,.cls-12,.cls-15,.cls-16,.cls-5,.cls-6,.cls-9{fill:none;}.cls-2{clip-path:url(#clip-path);}.cls-3{fill:url(#linear-gradient);}.cls-4{clip-path:url(#clip-path-2);}.cls-12,.cls-15,.cls-16,.cls-5,.cls-6,.cls-9{stroke:#315126;}.cls-5{stroke-width:5.79px;}.cls-6{stroke-width:3.86px;}.cls-7{clip-path:url(#clip-path-3);}.cls-8{fill:url(#linear-gradient-2);}.cls-9{stroke-width:5.7px;}.cls-10{clip-path:url(#clip-path-5);}.cls-11{fill:url(#linear-gradient-3);}.cls-12{stroke-width:3.8px;}.cls-13{clip-path:url(#clip-path-7);}.cls-14{fill:url(#linear-gradient-4);}.cls-15{stroke-width:5.49px;}.cls-16{stroke-width:3.66px;}.cls-17{clip-path:url(#clip-path-9);}.cls-18{fill:url(#linear-gradient-5);}</style><clipPath id="clip-path"><path class="cls-1" d="M248.89,126.62c-52.61-31.19-43.15,34.21-58.16,48.49-26.72-1.35-9.09,27.94-14.26,41.5,7.4-.62,16.38,7.41,25.67,15.43,15.87,13.7,32.71,27.4,44.39-1.91,33.34,10.3,57.53,28,69.09-27.4,41.93-21.31,25.65-28.51,33.84-64.48-36-14.35-59-23.48-75.47-23.48-10.39,0-18.21,3.62-25.1,11.85"/></clipPath><linearGradient id="linear-gradient" x1="1678.37" y1="2734.03" x2="1688.37" y2="2734.03" gradientTransform="matrix(-12.74, 6.36, 5.51, 14.17, 6641.23, -49256.27)" gradientUnits="userSpaceOnUse"><stop offset="0" stop-color="#2c9345"/><stop offset="1" stop-color="#81c241"/></linearGradient><clipPath id="clip-path-2"><rect class="cls-1" x="47.17" width="305.67" height="400"/></clipPath><clipPath id="clip-path-3"><path class="cls-1" d="M50.89,383l22.56,12.78c27-79.71,80.36-142.15,123.43-211.32l-11.68-5.84C137.25,244.87,86.27,309.28,50.89,383"/></clipPath><linearGradient id="linear-gradient-2" x1="1581.71" y1="2783.15" x2="1591.71" y2="2783.15" gradientTransform="matrix(-18.45, 0, 0, 18.45, 29390.86, -51068.24)" gradientUnits="userSpaceOnUse"><stop offset="0" stop-color="#559341"/><stop offset="1" stop-color="#efeb64"/></linearGradient><clipPath id="clip-path-5"><path class="cls-1" d="M183.11,95c-64,6.59-20,52.72-25.72,73-24.62,14.81,7,27.52,9.76,41.33,6.1-4.74,17.9-3.93,30.15-3.12,22,1.45,45.43,2.9,39.87-27.79,35.4-11.67,66.65-12,46.91-62.76,26-41.8,7.48-37.82-4.71-71.18C214.21,60.83,187.5,67.59,183.11,95"/></clipPath><linearGradient id="linear-gradient-3" x1="1553.68" y1="2749.17" x2="1563.68" y2="2749.17" gradientTransform="matrix(-14.9, 0, 0, 14.9, 23425.48, -40843.77)" xlink:href="#linear-gradient"/><clipPath id="clip-path-7"><path class="cls-1" d="M101.82,114.54C62.16,167.41,126.25,170.13,137,190c-6.33,29.81,24.89,16,36.85,24.58,2.17-23,66.91-45.76,26.13-76.14C216.11,103,237.55,79.36,187,55c-12.37-51.61-22.32-34.75-55-51.34-33.38,61.29-47,86.45-30.09,110.89"/></clipPath><linearGradient id="linear-gradient-4" x1="1467.11" y1="2864.53" x2="1477.11" y2="2864.53" gradientTransform="matrix(3.66, 15.65, 14.54, -3.3, -46865.61, -13470.14)" xlink:href="#linear-gradient"/><clipPath id="clip-path-9"><path class="cls-1" d="M49.17-43.88l23,13.05C99.75-112.11,154.11-175.77,198-246.31l-11.9-6C137.22-184.74,85.24-119.09,49.17-43.88"/></clipPath><linearGradient id="linear-gradient-5" x1="1562.94" y1="2762.61" x2="1573.14" y2="2762.61" gradientTransform="matrix(-18.45, 0, 0, 18.45, 29042.81, -51112.7)" xlink:href="#linear-gradient-2"/></defs><g class="cls-2"><polygon class="cls-3" points="410.93 232.78 195.48 340.39 110.64 122.09 326.09 14.48 410.93 232.78"/></g><g class="cls-4"><path class="cls-5" d="M176.46,216.61c20.07-1.69,51.55,60,70.06,13.53,33.35,10.29,57.53,28,69.09-27.41,41.94-21.32,25.67-28.51,33.86-64.48-58.67-23.39-82.77-32.91-100.58-11.64-52.62-31.18-43.14,34.22-58.16,48.5C164,173.76,181.64,203.06,176.46,216.61Z"/><path class="cls-6" d="M192.54,201.09c14.05-24.86,30.35-28.38,54.9-22.78,53.77,12.28,41.17.31,45.25-32.5,1.64-13.2,15.38-14.93,31.54,1.09"/></g><g class="cls-7"><rect class="cls-8" x="-6.93" y="166.94" width="261.63" height="240.57" transform="translate(-184.55 235.12) rotate(-57.08)"/></g><g class="cls-4"><path class="cls-9" d="M50.89,383c35.38-73.76,86.36-138.16,134.31-204.39l11.68,5.84c-43.07,69.18-96.4,131.62-123.43,211.33Z"/></g><g class="cls-10"><rect class="cls-11" x="93.95" y="2.18" width="241.24" height="249.41" transform="translate(-7.15 240.81) rotate(-57.79)"/></g><g class="cls-4"><path class="cls-9" d="M167.16,209.31c17-13.27,78.66,16.88,70-30.92,35.4-11.66,66.65-12,46.92-62.75,26-41.8,7.48-37.82-4.71-71.17C214.22,60.81,187.5,67.59,183.1,95c-64,6.59-20,52.73-25.7,73C132.77,182.79,164.43,195.49,167.16,209.31Z"/><path class="cls-12" d="M173.11,187.46c-.91-28,11.76-40.49,36.75-50.63,54.75-22.25,37-24.23,22.84-52.64-5.69-11.42,5.65-21,28.8-17.87"/></g><g class="cls-13"><polygon class="cls-14" points="231.79 -35.08 288.76 208.91 71.14 258.26 14.17 14.26 231.79 -35.08"/></g><g class="cls-4"><path class="cls-15" d="M173.86,214.56c2.18-23,66.91-45.76,26.14-76.15C216.11,103,237.55,79.36,187,55c-12.38-51.61-22.32-34.74-55-51.35-33.37,61.29-47,86.47-30.1,110.89C62.16,167.4,126.25,170.13,137,190,130.69,219.79,161.92,206,173.86,214.56Z"/><path class="cls-16" d="M162.11,193.26c-21-20.93-21.29-40-11.31-66.49,21.86-58,8.08-46.3-22.42-57.63-12.26-4.57-11.31-20.38,7-35.29"/></g><g class="cls-17"><rect class="cls-18" x="-9.8" y="-264.2" width="266.78" height="245.29" transform="matrix(0.54, -0.84, 0.84, 0.54, 175.25, 39.12)"/></g></svg>