<svg xmlns="http://www.w3.org/2000/svg" xmlns:xlink="http://www.w3.org/1999/xlink" viewBox="0 0 400 400"><defs><style>.cls-1{isolation:isolate;}.cls-2{fill:#f50000;}.cls-3,.cls-5{opacity:0.4;}.cls-3{fill:url(#radial-gradient);}.cls-4{fill:#0d5407;}.cls-5,.cls-7{mix-blend-mode:overlay;}.cls-6{fill:#fff;}.cls-7{opacity:0.2;}.cls-11,.cls-8{mix-blend-mode:soft-light;}.cls-8{fill:url(#radial-gradient-2);}.cls-9{fill:#63360b;}.cls-10{fill:#0d8d07;}.cls-11{fill:url(#radial-gradient-3);}</style><radialGradient id="radial-gradient" cx="134.51" cy="153.48" r="289.37" gradientUnits="userSpaceOnUse"><stop offset="0" stop-color="#fff"/><stop offset="1" stop-color="#fff" stop-opacity="0"/></radialGradient><radialGradient id="radial-gradient-2" cx="569.39" cy="424.76" r="44.38" gradientTransform="matrix(-0.14, -0.99, -0.99, 0.14, 656.51, 594.08)" xlink:href="#radial-gradient"/><radialGradient id="radial-gradient-3" cx="544.85" cy="128.04" r="60.19" gradientTransform="translate(150.58 625.24) rotate(-93.08)" xlink:href="#radial-gradient"/></defs><g class="cls-1"><g id="Layer_1" data-name="Layer 1"><path class="cls-2" d="M197.29,90.44c-11.4-3.55-59.16-17-103.34,8.27C31.74,134.35,32.36,215,32.47,229.43,33.09,311.25,94,398.33,158,399.94c15.84.39,29.47-4.5,39.79-9.82,11.45,5.72,25.91,10.49,42.36,9.82,67.48-2.78,132.07-95.75,127.11-181.88-.8-13.91-5.11-88.57-66.14-121.42C255.64,72.15,208.14,86.79,197.29,90.44Z"/><path class="cls-3" d="M197.29,90.44c-11.4-3.55-59.16-17-103.34,8.27C31.74,134.35,32.36,215,32.47,229.43,33.09,311.25,94,398.33,158,399.94c15.84.39,29.47-4.5,39.79-9.82,11.45,5.72,25.91,10.49,42.36,9.82,67.48-2.78,132.07-95.75,127.11-181.88-.8-13.91-5.11-88.57-66.14-121.42C255.64,72.15,208.14,86.79,197.29,90.44Z"/><path class="cls-4" d="M198.72,101C198.3,98,195.09,77.7,176,65.5c-20-12.79-40.79-6.12-43.42-5.23a48.11,48.11,0,0,1,10.08,5c14,9.22,15.33,20.82,24.66,28.62C172.69,98.38,181.88,102.62,198.72,101Z"/><g class="cls-5"><path class="cls-6" d="M196,99.06a84.26,84.26,0,0,0-5.73-6.93q-1.52-1.66-3.08-3.28c-1.07-1-2.12-2.12-3.21-3.15a106.34,106.34,0,0,0-14-11.2c-2.43-1.76-5-3.22-7.6-4.79l-4-2.09c-.67-.33-1.31-.72-2-1l-2.06-.91c-1.38-.59-2.73-1.25-4.13-1.78L146,62.41c-.71-.25-1.4-.55-2.12-.75l-2.17-.61-4.33-1.22a91.23,91.23,0,0,1,17.1,5.6l2.07.9c.69.29,1.34.67,2,1l4,2.06c2.57,1.55,5.22,3,7.67,4.75a107.32,107.32,0,0,1,14,11.35A90.79,90.79,0,0,1,196,99.06Z"/></g><g class="cls-7"><path class="cls-6" d="M151.74,59.35q1.9,2.05,3.76,4.16c1.24,1.4,2.5,2.78,3.73,4.19l.12.15-.19,0c-3.15.41-6.29.86-9.44,1.22,3.13-.53,6.27-1,9.41-1.42l-.06.17c-1.24-1.4-2.45-2.82-3.68-4.23S152.94,60.78,151.74,59.35Z"/></g><g class="cls-7"><path class="cls-6" d="M166.4,62.78c1.32,2.36,2.61,4.74,3.9,7.12l3.86,7.15.08.15h-.17c-4.52.1-9,.24-13.56.29,4.51-.22,9-.33,13.55-.5l-.08.16L170.16,70C168.89,67.58,167.63,65.19,166.4,62.78Z"/></g><g class="cls-7"><path class="cls-6" d="M186,76.31c.42,2.22.83,4.45,1.21,6.69l1.17,6.7,0,.12h-.12c-4.1.22-8.2.49-12.31.65,4.1-.34,8.2-.57,12.3-.86l-.1.12L187,83C186.65,80.79,186.29,78.55,186,76.31Z"/></g><path class="cls-8" d="M198.72,101C198.3,98,195.09,77.7,176,65.5c-20-12.79-40.79-6.12-43.42-5.23a48.11,48.11,0,0,1,10.08,5c14,9.22,15.33,20.82,24.66,28.62C172.69,98.38,181.88,102.62,198.72,101Z"/><path class="cls-9" d="M205.43,15.4A167.27,167.27,0,0,0,197.64,36c-.5,1.72-.94,3.43-1.3,5.09-.2.85-.32,1.64-.48,2.45s-.24,1.83-.36,2.74A72.74,72.74,0,0,0,194.89,57a55,55,0,0,0,4.34,20.4c3.73,6,6,12.75,7.63,21.91A27.17,27.17,0,0,1,188,82.73a72.09,72.09,0,0,1-7.78-24.59,115,115,0,0,1-.78-12.69V42.34c0-1.14,0-2.3.11-3.38.12-2.22.33-4.36.59-6.47.51-4.22,1.22-8.31,2-12.36S183.87,12.19,185,8a10.88,10.88,0,0,1,21,5.81,10.65,10.65,0,0,1-.53,1.5Z"/><path class="cls-10" d="M196.83,101.09c-.21-4-1.19-31.89,21-53.08,23.25-22.19,52.71-18.72,56.43-18.22a65.5,65.5,0,0,0-12.11,9.31c-16.3,15.91-15,31.7-25.4,44.5C230.81,90.91,219.68,98.94,196.83,101.09Z"/><g class="cls-5"><path class="cls-6" d="M199.93,97.88a122.53,122.53,0,0,1,12.2-21.14A150.83,150.83,0,0,1,227.77,58c2.88-2.89,5.89-5.64,9-8.29s6.35-5.13,9.72-7.43a122.22,122.22,0,0,1,21.36-11.81c-3.68,1.74-7.33,3.54-10.83,5.62s-6.94,4.23-10.27,6.56-6.52,4.86-9.63,7.47-6.06,5.41-8.92,8.3A150,150,0,0,0,212.45,77c-2.37,3.31-4.62,6.7-6.7,10.19A109.88,109.88,0,0,0,199.93,97.88Z"/></g><g class="cls-7"><path class="cls-6" d="M248.56,33.53q-1.83,3.33-3.74,6.61c-1.27,2.2-2.51,4.41-3.8,6.59l-.13-.21c4.3-.19,8.6-.44,12.9-.56-4.29.35-8.59.56-12.89.84h-.26l.14-.22c1.26-2.2,2.57-4.37,3.86-6.55S247.23,35.68,248.56,33.53Z"/></g><g class="cls-7"><path class="cls-6" d="M230,41.89q-1.53,5.3-3.15,10.56c-1.07,3.51-2.11,7-3.21,10.53l-.15-.17c6.05-1,12.1-2,18.17-2.86-6,1.11-12.09,2.09-18.13,3.13l-.22,0,.06-.22c1.07-3.51,2.19-7,3.29-10.51S228.81,45.38,230,41.89Z"/></g><g class="cls-7"><path class="cls-6" d="M207.42,65q.21,4.6.33,9.21l.26,9.22-.16-.13c5.53-.69,11.05-1.44,16.59-2.06-5.51.86-11,1.56-16.55,2.34l-.16,0v-.16l-.18-9.22C207.48,71.13,207.44,68.05,207.42,65Z"/></g><path class="cls-11" d="M196.83,101.09c-.21-4-1.19-31.89,21-53.08,23.25-22.19,52.71-18.72,56.43-18.22a65.5,65.5,0,0,0-12.11,9.31c-16.3,15.91-15,31.7-25.4,44.5C230.81,90.91,219.68,98.94,196.83,101.09Z"/></g></g></svg>