<svg id="Layer_1" data-name="Layer 1" xmlns="http://www.w3.org/2000/svg" viewBox="0 0 400 400"><defs><style>.cls-1{fill:#ffc938;}.cls-2{fill:#f2bb40;}.cls-3{fill:#e8b134;}.cls-4{fill:#ffd93b;}.cls-5{fill:#776057;}.cls-6{fill:#fff031;opacity:0.82;}.cls-7{fill:#3f332f;}.cls-8{fill:#937c69;}</style></defs><path class="cls-1" d="M253.32,7.22c-3.06-1.38-6.73-.62-9.6,1.11s-5.09,4.33-7.26,6.89a52.14,52.14,0,0,0-6.57,9,17.46,17.46,0,0,0-2.22,10.71A21.33,21.33,0,0,0,231,42.81a59.94,59.94,0,0,0,6.16,8.2,13.11,13.11,0,0,0,2,1.8,156,156,0,0,1,9.41,17.29c9.67,20.59,6,41.46,6,41.46l32.49-19.75a143.18,143.18,0,0,0-19.13-38.3l-1.67-2.29c-.85-6.5-1.71-13.08.36-19.21a11.54,11.54,0,0,0,1-4.27A8.79,8.79,0,0,0,266.25,24a128.21,128.21,0,0,0-7.45-11.59C257.31,10.37,255.65,8.27,253.32,7.22Z"/><path class="cls-1" d="M59.13,360.46l-2.87,14,10.53,15.29S113.28,418.14,220.05,352C299.36,302.79,330,203.86,329.18,168c-1-46.09-24.54-74.13-43-83.16-12.62-6.16-35,4.71-47.09,31.16-11.68,25.47.85,50.91-31.6,109.73C174.77,285,128.38,320.64,112.23,331A589.8,589.8,0,0,1,59.13,360.46Z"/><path class="cls-2" d="M286.15,84.84a16.22,16.22,0,0,0-3.93-1.31c-2.14.69-4.6,1.35-4.6,1.35l-14.53,6.36s6,2.16,11.49,28.44c5.36,25.46,6.9,91-37.8,147.33C160,363.86,70.3,372.5,70.3,372.5a41.85,41.85,0,0,0-11.53,5.64l8,11.65S113.28,418.14,220.05,352C299.36,302.79,330,203.86,329.18,168,328.15,121.91,304.64,93.87,286.15,84.84Z"/><path class="cls-3" d="M329.18,168c-1-46.09-24.54-74.13-43-83.16a16.45,16.45,0,0,0-4.21-1.35l-8,4.05s16.7,3.52,31.6,43.75c9.22,24.87,1,70.83-20.61,119.14-15.1,33.68-53.07,72.54-125,113.43-42.8,24.35-84.79,14.89-84.79,14.89L63.8,385.46l3,4.33S113.28,418.14,220.05,352C299.36,302.79,330,203.86,329.18,168Z"/><path class="cls-3" d="M266.63,32a11.54,11.54,0,0,0,1-4.27A8.79,8.79,0,0,0,266.25,24a128.21,128.21,0,0,0-7.45-11.59c-1.49-2.07-3.15-4.17-5.48-5.22-3.06-1.38-6.73-.62-9.6,1.11A24.17,24.17,0,0,0,238.41,13c5.15-.15,8.77,4.94,11.82,9.32.6.86,1.74,1.57,1.8,2.62a8.85,8.85,0,0,1-.74,2.59c-1.52,5.62-1.37,7.14-2.11,12.8,3.09,7.94,6.23,13.09,10,21.21,3.33,7.28,5.6,15.44,10.68,21.78,3.58,4.47,10.3,6.68,15.38,9.65l1.87-1.13a143.18,143.18,0,0,0-19.13-38.3l-1.67-2.29C265.42,44.72,264.56,38.14,266.63,32Z"/><path class="cls-4" d="M236.48,122.67h0c-7.31,23.49.58,49.36-29.06,103.1C174.72,285,128.33,320.67,112.19,331a590.76,590.76,0,0,1-53.11,29.51l-.94,4.61c4.8,3.94,13.2.42,17.83-1.77,61.1-28.78,117.4-85,141.24-139.81C233.87,185.25,232.39,157.57,236.48,122.67Z"/><path class="cls-5" d="M59.13,360.46l-2.87,14,10.53,15.29,7.73-8.06a2.94,2.94,0,0,0,.66-3l-3.07-9a2.92,2.92,0,0,0-1.17-1.51Z"/><path class="cls-6" d="M245.41,118.14c-3.51,7.52-4.06,16-4.32,24.34q-.43,13.7-.07,27.4c.07,2.5.4,5.42,2.55,6.68a5.22,5.22,0,0,0,4.77-.09c4.45-2.12,6-7.64,6.5-12.55,1.21-12.81-1.74-26.25,2.74-38.31.93-2.51,2.18-4.92,2.72-7.54C263.11,104.35,249,110.4,245.41,118.14Z"/><path class="cls-6" d="M237.78,194.58l-5.92,15.15c-.58,1.49-1.17,3.1-.77,4.65.65,2.45,3.74,3.64,6.17,2.92s4.21-2.85,5.37-5.11,1.86-4.74,3-7c1.3-2.56,3.14-4.81,4.28-7.44s1.43-5.91-.33-8.17C244.8,183.4,239.5,190.19,237.78,194.58Z"/><path class="cls-4" d="M245.21,56.06c-.14,1.32.69,2.53,1.45,3.62a66.85,66.85,0,0,1,10.08,22.54A10.33,10.33,0,0,0,258,85.79a3.23,3.23,0,0,0,3.25,1.5,3.18,3.18,0,0,0,2.13-2.93,9,9,0,0,0-.82-3.76,203,203,0,0,0-10.34-23.09C251.33,55.74,245.67,51.88,245.21,56.06Z"/><path class="cls-7" d="M56.26,374.5l9.58,13.81s3.15-3.13,3.48-6.49-2-5-1.73-7.77,1.14-3.29,1-4.25-3.32-4.34-5.48-4.3a35.29,35.29,0,0,1-5-.4Z"/><path class="cls-8" d="M238.49,11c-1.89,2-3.48,4.35-5.26,6.49-2.24,2.69-4.78,5.14-6.77,8a13.58,13.58,0,0,0-2,4.09,12,12,0,0,0,.34,6.52,33.59,33.59,0,0,0,2.77,6,17.56,17.56,0,0,0,3.33,4.74c1.94,1.78,4.6,2.63,6.57,4.39-.57-2.17-1.94-5-1.1-7.06,2.37-5.91,3.51-7.8,9.45-15.68,1.22-1.61,3.26-4.26,4.49-5.86.88-1.14,2.08-2.08,2.62-3.42a5.69,5.69,0,0,0-.22-4.21,29,29,0,0,0-2.11-3.77,19,19,0,0,0-2.27-3.45c-1.28-1.36-2.7-1.89-4.33-1A19.9,19.9,0,0,0,238.49,11Z"/><path class="cls-5" d="M241.71,11.11a15.18,15.18,0,0,0,2.56,3,25.68,25.68,0,0,1,4.29,6,5.25,5.25,0,0,0,1.67,2.24,1.64,1.64,0,0,0,1.37,0c4.07-1.24,9.89.79,14.94,5.21.29.26.65.55.88.46s.18-.47.11-.82a24.22,24.22,0,0,0-2.51-6,60.17,60.17,0,0,0-9-12.3c-1.65-1.72-3.54-3.42-5.28-3.79a4.68,4.68,0,0,0-2.41.22C246.63,5.81,239.55,7.25,241.71,11.11Z"/><path class="cls-6" d="M118.39,350.81a138.33,138.33,0,0,0,44.32-27c1.89-1.71,3.91-4.1,3.09-6.52s-4.09-3.08-6.41-2.09-3.95,3.09-5.61,5a49.89,49.89,0,0,1-11.63,9.75c-6.72,4.07-14.48,6.57-20.64,11.56-1.47,1.2-6.33,5-6.86,6.36C113.53,350.73,115,352.09,118.39,350.81Z"/></svg>