<svg id="Layer_1" data-name="Layer 1" xmlns="http://www.w3.org/2000/svg" viewBox="0 0 400 400"><defs><style>.cls-1{fill:#3cb10d;}.cls-1,.cls-2,.cls-3{stroke:#000;stroke-miterlimit:10;stroke-width:2.95px;}.cls-2{fill:#f03819;}.cls-3{fill:#fa513a;}</style></defs><path class="cls-1" d="M315.82,103.1a7.05,7.05,0,0,1-5.46-11.49c12.46-15.29,15.3-35.61,7.25-51.76s-24.18-22-28.93-23.35A7,7,0,0,1,292.62,3c6.13,1.78,27,9.27,37.6,30.59,10.51,21.09,7,47.36-8.93,66.93A7,7,0,0,1,315.82,103.1Z"/><path class="cls-2" d="M362.61,154.51c-7.24,2.85-14.9,4.73-22.09,2.26-2-.7-4-1.74-6-2.62q.17-1.53.3-3.06c0-.45.09-.89.12-1.34.06-.63.11-1.27.15-1.91q.18-2.28.3-4.59c.05-.86.09-1.73.12-2.59,0-.42,0-.83,0-1.25,0-.63,0-1.25.05-1.87,0-.45,0-.91,0-1.37q.14-8.05-.43-16.26-.47-6.76-1.4-13.63l26.78,25.58.06.06A199.12,199.12,0,0,1,362.61,154.51Z"/><path class="cls-3" d="M335.65,136.17c0,.46,0,.92,0,1.37,0,.62,0,1.24-.05,1.87,0,.42,0,.83,0,1.25,0,.86-.07,1.73-.12,2.59q-.12,2.31-.3,4.59c0,.64-.09,1.28-.15,1.91,0,.45-.07.89-.12,1.34q-.14,1.53-.3,3.06a17.06,17.06,0,0,0-5.74-1.66c-5.6-.42-10.79,3.47-16.41,3.32-6.34-.18-11.33-5.36-15.08-10.47S289.9,134.48,284,132.12c-8.39-3.34-21.22,2.06-31.26,1.46,2.33-6,4.42-10.89,6.35-14.62l.06,0,2.33-1.16L309.11,94l7.81-3.9L324,96.9l9.79,9.38q.94,6.85,1.4,13.63Q335.79,128.12,335.65,136.17Z"/><path class="cls-1" d="M259.11,119c9.62-20.37,30.44-32.86,52.15-31.47,24.2,1.56,44.88,20.07,49.46,45-8.75-7.33-21-15.27-31.47-11.69-10.91,3.72-13.55,17.71-20.68,17.08-7.72-.68-7.68-17.31-18.89-23.38C280.3,109.4,267.81,114.33,259.11,119Z"/></svg>