<svg id="Layer_1" data-name="Layer 1" xmlns="http://www.w3.org/2000/svg" xmlns:xlink="http://www.w3.org/1999/xlink" viewBox="0 0 400 400"><defs><style>.cls-1,.cls-11{isolation:isolate;}.cls-2{clip-path:url(#clip-path);}.cls-10,.cls-18,.cls-3{fill:none;}.cls-4{fill:url(#linear-gradient);}.cls-5{clip-path:url(#clip-path-2);}.cls-6{fill:url(#linear-gradient-2);}.cls-7{clip-path:url(#clip-path-3);}.cls-8{fill:url(#linear-gradient-3);}.cls-9{clip-path:url(#clip-path-4);}.cls-10{stroke:#678138;stroke-linecap:round;stroke-linejoin:round;stroke-width:7.46px;}.cls-11{opacity:0.91;}.cls-12{clip-path:url(#clip-path-5);}.cls-13{clip-path:url(#clip-path-6);}.cls-14{mask:url(#mask);}.cls-15{clip-path:url(#clip-path-8);}.cls-16{fill:url(#linear-gradient-4);}.cls-17{fill:#46aa48;}.cls-18{stroke:#2e5629;stroke-width:8.09px;}.cls-19{clip-path:url(#clip-path-9);}.cls-20{fill:url(#linear-gradient-5);}.cls-21{clip-path:url(#clip-path-10);}.cls-22{clip-path:url(#clip-path-11);}.cls-23{mask:url(#mask-2);}.cls-24{clip-path:url(#clip-path-13);}.cls-25{fill:url(#linear-gradient-6);}</style><clipPath id="clip-path"><polygon class="cls-3" points="87.85 122.77 135.99 419.39 314.76 386.84 266.63 90.22 87.85 122.77"/></clipPath><linearGradient id="linear-gradient" x1="2383.31" y1="2821.83" x2="2393.69" y2="2821.83" gradientTransform="matrix(3.24, 19.98, 18.86, -3.43, -60768.62, -37741.07)" gradientUnits="userSpaceOnUse"><stop offset="0" stop-color="#231f20"/><stop offset="1" stop-color="#fff"/></linearGradient><clipPath id="clip-path-2"><polygon class="cls-3" points="131.09 -239.82 166 -20.88 252.09 -36.82 217.18 -255.77 131.09 -239.82"/></clipPath><linearGradient id="linear-gradient-2" x1="2416.57" y1="2855.08" x2="2425.86" y2="2855.08" gradientTransform="matrix(4.86, 30.48, 28.27, -5.24, -92297.27, -59003.22)" xlink:href="#linear-gradient"/><clipPath id="clip-path-3"><path class="cls-3" d="M179.33,191.84c-17.55-14.8-15-7.65-31.18-32.43l-17.06,7.21c5.4,31.3,20.34,38.9,38.68,56.75,13.61,57.35,5.41,107,4,159.06,31.93,27.92,78.41-.71,78.41-.71C244.7,332.45,226.41,286.46,236,232c13.79-6.91,28.83-15.8,36.83-32.07l-12.61-11.72C254,199.92,247.27,211.92,231,204c6.37-.85,39.37-58.19,30.76-66.17l-12.62-11.71c-5.51,16.17-17.54,53.71-45.28,63.95-6.3-31.24-10.81-37.53-1.48-71.17L186,116.18c-8.38,32.09-9.93,41.22-6.68,75.66"/></clipPath><linearGradient id="linear-gradient-3" x1="2145.45" y1="2665.83" x2="2155.83" y2="2665.83" gradientTransform="matrix(1.57, 7.49, 7.07, -1.67, -22036.12, -11407.18)" gradientUnits="userSpaceOnUse"><stop offset="0" stop-color="#81bb41"/><stop offset="1" stop-color="#a8ce38"/></linearGradient><clipPath id="clip-path-4"><rect class="cls-3" x="24.6" width="350.81" height="400"/></clipPath><clipPath id="clip-path-5"><rect class="cls-3" x="87.85" y="90.22" width="226.91" height="329.17"/></clipPath><clipPath id="clip-path-6"><path class="cls-3" d="M186.36,122l-.11.45c-5.8,19.77-8.26,40.5-5.86,61.15-.37,3.3,2.64,13-.3,11.33-9.16-8.21-20.6-13.72-27.06-24.89-2.85-2.77-4.24-10.57-8.89-6.89-2.73,2.46-10.55,2.08-10.68,6v.2a4.29,4.29,0,0,0,.2,1.09c2.82,16.32,12.87,30.14,24.94,40.11,4.19,4.32,9.83,7.86,13,12.77,15.07,47.93,13.13,102,4.16,158.36,9.07,7.79,20.38,11,31.82,11.07h.83a73,73,0,0,0,21.2-3.4,145.1,145.1,0,0,1-7.82-44c-2.47-21.17-13-40.65-13.27-62.37-1.05-19.23,0-38.57.59-57.78,2.65-8.62,13-9,20.13-9.7a146.25,146.25,0,0,1,15.23.14c4.61.21,9.21.4,13.64.21a54.31,54.31,0,0,0,12.52-15.47v0c-3.48-1.37-8.27-11.4-10.92-7.36-4.2,8.51-12.11,17.32-22.05,15.15-4.56-.71-8.59-3.16-12.83-5,4.74.33,8.39-2.13,10.76-6.16,10.64-15.42,20.43-32.07,25.28-50.53,1.35-4.2.4-8.51-3.76-10.42-4.08-4.15-8.43-9.61-9.34-.52-8,22.32-19.86,46.44-42,55.82-5.18,3.85-3.74-5.08-5.22-8.27-4-16.44-7.6-33.8-3.36-50.63.84-4,1.74-8,2.87-12-1.52.24-3.55-.34-5.58-.93a19.08,19.08,0,0,0-4.84-1c-1.81,0-3.11.81-3.28,3.49"/></clipPath><mask id="mask" x="13.61" y="50.1" width="353.03" height="413.39" maskUnits="userSpaceOnUse"><rect x="87.85" y="90.22" width="226.91" height="329.17"/><g class="cls-1"><g class="cls-2"><polygon class="cls-4" points="308.25 50.1 366.64 409.95 94.36 459.51 35.97 99.67 308.25 50.1"/></g></g></mask><clipPath id="clip-path-8"><polygon class="cls-3" points="87.85 122.77 135.99 419.39 314.76 386.84 266.63 90.22 87.85 122.77"/></clipPath><linearGradient id="linear-gradient-4" x1="2383.3" y1="2820.65" x2="2393.68" y2="2820.65" gradientTransform="matrix(3.24, 19.98, 18.86, -3.43, -60768.62, -37741.07)" gradientUnits="userSpaceOnUse"><stop offset="0" stop-color="#a8ce38"/><stop offset="1" stop-color="#6a8438"/></linearGradient><clipPath id="clip-path-9"><path class="cls-3" d="M204.28-246c-14.16,0-28.38,0-42.54,1.54,8.68,69.62,2,131.81.72,196.59,32.18,38.57,79-1,79-1-7.2-65.13-24.14-126.25-17.09-197.3-6.72.17-13.41.17-20.14.17"/></clipPath><linearGradient id="linear-gradient-5" x1="2235.36" y1="2748.77" x2="2244.64" y2="2748.77" gradientTransform="matrix(2.34, 11.36, 10.54, -2.53, -34035.37, -18714.14)" xlink:href="#linear-gradient-3"/><clipPath id="clip-path-10"><rect class="cls-3" x="131.09" y="-255.77" width="121.01" height="234.9"/></clipPath><clipPath id="clip-path-11"><path class="cls-3" d="M164.72-244.66c10.13,60.33,7.73,126.78-.28,195.76C173.58-38.13,185-33.71,196.5-33.59h1a55.93,55.93,0,0,0,21.27-4.7,270.14,270.14,0,0,1-7.89-60.79c-2.48-29.25-13.14-56.16-13.38-86.16-.8-20.21-.37-40.5.14-60.75-11,0-21.93.26-32.89,1.33"/></clipPath><mask id="mask-2" x="94.71" y="-277.55" width="193.76" height="278.45" maskUnits="userSpaceOnUse"><g class="cls-1"><g class="cls-5"><polygon class="cls-6" points="248.62 -277.55 288.47 -27.62 134.56 0.9 94.71 -249.03 248.62 -277.55"/></g></g></mask><clipPath id="clip-path-13"><polygon class="cls-3" points="131.09 -239.82 166 -20.88 252.09 -36.82 217.18 -255.77 131.09 -239.82"/></clipPath><linearGradient id="linear-gradient-6" x1="2416.57" y1="2855.08" x2="2425.85" y2="2855.08" gradientTransform="matrix(4.86, 30.48, 28.27, -5.24, -92297.29, -59003.24)" xlink:href="#linear-gradient-4"/></defs><g class="cls-7"><polygon class="cls-8" points="266.19 84.38 331.67 396.51 137.76 442.15 72.27 130.02 266.19 84.38"/></g><g class="cls-9"><path class="cls-10" d="M173.77,382.43c1.41-52.06,9.62-101.71-4-159.06-18.34-17.85-33.29-25.44-38.7-56.75l17.07-7.2c16.13,24.77,13.63,17.63,31.18,32.43-3.24-34.44-1.7-43.59,6.69-75.66l16.32,2.68C193,152.5,197.53,158.8,203.83,190c27.72-10.24,39.77-47.78,45.28-63.95l12.62,11.71c9.09,8.43-28.21,71.86-31.56,65.77,16.89,8.74,23.71-3.46,30.08-15.33L272.86,200c-8,16.26-23,25.17-36.82,32.07-9.63,54.44,8.66,100.44,16.13,149.7C252.17,381.72,205.69,410.35,173.77,382.43Z"/><g class="cls-11"><g class="cls-12"><g class="cls-13"><g class="cls-14"><g class="cls-12"><g class="cls-15"><polygon class="cls-16" points="285.89 54.08 344.28 413.92 72 463.49 13.61 103.64 285.89 54.08"/></g></g></g></g></g></g><path class="cls-17" d="M54.58,108.62c3.67-23.18,13.68-33,33.66-21.6,13.35-13.87,23.71-10.27,31.62,7.55,14.21-10.31,35-.6,31.62,22.69,24.18-4,29.08,23.84,11.23,33.49C174,172,169.22,179.1,152.5,174.51c5.66,44.19-18,31-30.6,31.33-18,28.38-42.37,21.76-40.8,1.08C38.87,215.28,38,184,46.42,174.51c-17.75,1.74-28-30.41-2-41-17.83-18.68,3.8-40.44,10.2-24.85"/><path class="cls-18" d="M54.58,108.62c3.67-23.18,13.68-33,33.66-21.6,13.35-13.87,23.71-10.27,31.62,7.55,14.21-10.31,35-.6,31.62,22.69,24.18-4,29.08,23.84,11.23,33.49C174,172,169.22,179.1,152.5,174.51c5.66,44.19-18,31-30.6,31.33-18,28.38-42.37,21.76-40.8,1.08C38.87,215.28,38,184,46.42,174.51c-17.75,1.74-28-30.41-2-41C26.55,114.79,48.18,93,54.58,108.62Z"/><path class="cls-17" d="M121.9,34.08c3.68-23.18,13.68-32.95,33.66-21.6C168.91-1.38,179.26,2.22,187.18,20c14.21-10.32,35-.6,31.62,22.68,24.19-4,29.09,23.84,11.22,33.5,11.31,21.28,6.52,28.34-10.2,23.76,5.67,44.19-18,31-30.6,31.32-18,28.38-42.36,21.76-40.8,1.08-42.22,8.36-43.12-22.88-34.68-32.4-17.75,1.73-28-30.42-2-41.05-17.82-18.68,3.8-40.44,10.2-24.85"/><path class="cls-18" d="M121.9,34.08c3.68-23.18,13.68-32.95,33.66-21.6C168.91-1.38,179.26,2.22,187.18,20c14.21-10.32,35-.6,31.62,22.68,24.19-4,29.09,23.84,11.22,33.5,11.31,21.28,6.52,28.34-10.2,23.76,5.67,44.19-18,31-30.6,31.32-18,28.38-42.36,21.76-40.8,1.08-42.22,8.36-43.12-22.88-34.68-32.4-17.75,1.73-28-30.42-2-41.05C93.88,40.25,115.5,18.49,121.9,34.08Z"/><path class="cls-17" d="M252.46,109.69c3.67-23.16,13.68-32.94,33.66-21.6,13.35-13.85,23.71-10.25,31.62,7.56,14.21-10.32,35-.6,31.62,22.69,24.2-4,29.08,23.83,11.22,33.5,11.31,21.28,6.53,28.34-10.19,23.76,5.65,44.19-18,31-30.6,31.32-18,28.39-42.38,21.76-40.81,1.09-42.22,8.35-43.11-22.89-34.68-32.41-17.75,1.73-28-30.43-2-41-17.83-18.69,3.8-40.44,10.19-24.86"/><path class="cls-18" d="M252.46,109.69c3.67-23.16,13.68-32.94,33.66-21.6,13.35-13.85,23.71-10.25,31.62,7.56,14.21-10.32,35-.6,31.62,22.69,24.2-4,29.08,23.83,11.22,33.5,11.31,21.28,6.53,28.34-10.19,23.76,5.65,44.19-18,31-30.6,31.32-18,28.39-42.38,21.76-40.81,1.09-42.22,8.35-43.11-22.89-34.68-32.41-17.75,1.73-28-30.43-2-41C224.44,115.86,246.07,94.11,252.46,109.69Z"/><path class="cls-17" d="M198.4,55.69c3.67-23.18,13.68-33,33.66-21.61,13.35-13.85,23.71-10.25,31.62,7.56,14.21-10.32,35-.6,31.62,22.68,24.18-4,29.08,23.85,11.22,33.5,11.31,21.28,6.52,28.35-10.19,23.77,5.65,44.18-18,31-30.6,31.32-18,28.38-42.38,21.76-40.81,1.08-42.22,8.36-43.11-22.88-34.68-32.4-17.75,1.72-28-30.42-2-41C170.37,61.85,192,40.11,198.4,55.69"/><path class="cls-18" d="M198.4,55.69c3.67-23.18,13.68-33,33.66-21.61,13.35-13.85,23.71-10.25,31.62,7.56,14.21-10.32,35-.6,31.62,22.68,24.18-4,29.08,23.85,11.22,33.5,11.31,21.28,6.52,28.35-10.19,23.77,5.65,44.18-18,31-30.6,31.32-18,28.38-42.38,21.76-40.81,1.08-42.22,8.36-43.11-22.88-34.68-32.4-17.75,1.72-28-30.42-2-41C170.37,61.85,192,40.11,198.4,55.69Z"/></g><g class="cls-19"><polygon class="cls-20" points="237.76 -264.36 288.04 -20.43 165.49 8.93 115.2 -235 237.76 -264.36"/></g><g class="cls-11"><g class="cls-21"><g class="cls-22"><g class="cls-23"><g class="cls-21"><g class="cls-24"><polygon class="cls-25" points="248.62 -277.55 288.47 -27.62 134.56 0.9 94.71 -249.03 248.62 -277.55"/></g></g></g></g></g></g></svg>