<svg xmlns="http://www.w3.org/2000/svg" xmlns:xlink="http://www.w3.org/1999/xlink" viewBox="0 0 400 400"><defs><style>.cls-1{isolation:isolate;}.cls-2{fill:#f50000;}.cls-3,.cls-5{opacity:0.4;}.cls-3{fill:url(#radial-gradient);}.cls-4{fill:#0d5407;}.cls-5,.cls-7{mix-blend-mode:overlay;}.cls-6{fill:#fff;}.cls-7{opacity:0.2;}.cls-11,.cls-8{mix-blend-mode:soft-light;}.cls-8{fill:url(#radial-gradient-2);}.cls-9{fill:#63360b;}.cls-10{fill:#0d8d07;}.cls-11{fill:url(#radial-gradient-3);}</style><radialGradient id="radial-gradient" cx="166.41" cy="153.47" r="233.71" gradientUnits="userSpaceOnUse"><stop offset="0" stop-color="#fff"/><stop offset="1" stop-color="#fff" stop-opacity="0"/></radialGradient><radialGradient id="radial-gradient-2" cx="992.47" cy="798.66" r="44.38" gradientTransform="matrix(-0.14, -0.99, -0.99, 0.14, 1078.66, 961.35)" xlink:href="#radial-gradient"/><radialGradient id="radial-gradient-3" cx="970.85" cy="570.49" r="60.19" gradientTransform="translate(-275.06 1074.37) rotate(-93.08)" xlink:href="#radial-gradient"/></defs><g class="cls-1"><g id="Layer_1" data-name="Layer 1"><path class="cls-2" d="M243.17,398.9a66.21,66.21,0,0,1-9.69,1,84.09,84.09,0,0,1-42.37-9.83c-10.31,5.32-23.94,10.22-39.79,9.83a69.83,69.83,0,0,1-7.08-.54,86.89,86.89,0,0,1-30.17-9.8,38.76,38.76,0,0,0,4.47.25,42.05,42.05,0,0,0,30.51-71,42.06,42.06,0,0,0,3.08-54.24,42,42,0,0,0,8.46-25.33A41.57,41.57,0,0,0,157.72,224,42,42,0,0,0,162,176.75a42,42,0,0,0-14.29-57.51A42,42,0,0,0,129.3,84.75C158.2,81,182.83,88,190.6,90.44c7.2-2.41,30.54-9.69,58.73-7.14a44.33,44.33,0,0,0-8.69,26.45,45.29,45.29,0,0,0,1.44,11.31A44.57,44.57,0,0,0,231.29,173a44.57,44.57,0,0,0-4,45,44.51,44.51,0,0,0-1.88,55.57,44.47,44.47,0,0,0,8.09,43.14,44.23,44.23,0,0,0-6.31,22.85,44.7,44.7,0,0,0,2.16,13.77c.51,1.57,4.45,13.3,12.73,19.48,10.67,8,28.42,6.64,43.85-3.32C278.33,379.47,263.84,395,243.17,398.9Z"/><path class="cls-3" d="M243.17,398.9a66.21,66.21,0,0,1-9.69,1,84.09,84.09,0,0,1-42.37-9.83c-10.31,5.32-23.94,10.22-39.79,9.83a69.83,69.83,0,0,1-7.08-.54,86.89,86.89,0,0,1-30.17-9.8,38.76,38.76,0,0,0,4.47.25,42.05,42.05,0,0,0,30.51-71,42.06,42.06,0,0,0,3.08-54.24,42,42,0,0,0,8.46-25.33A41.57,41.57,0,0,0,157.72,224,42,42,0,0,0,162,176.75a42,42,0,0,0-14.29-57.51A42,42,0,0,0,129.3,84.75C158.2,81,182.83,88,190.6,90.44c7.2-2.41,30.54-9.69,58.73-7.14a44.33,44.33,0,0,0-8.69,26.45,45.29,45.29,0,0,0,1.44,11.31A44.57,44.57,0,0,0,231.29,173a44.57,44.57,0,0,0-4,45,44.51,44.51,0,0,0-1.88,55.57,44.47,44.47,0,0,0,8.09,43.14,44.23,44.23,0,0,0-6.31,22.85,44.7,44.7,0,0,0,2.16,13.77c.51,1.57,4.45,13.3,12.73,19.48,10.67,8,28.42,6.64,43.85-3.32C278.33,379.47,263.84,395,243.17,398.9Z"/><path class="cls-4" d="M192,100.94c-.42-3-3.63-23.24-22.68-35.45-20-12.78-40.79-6.11-43.42-5.22a48.11,48.11,0,0,1,10.08,5c14,9.21,15.33,20.82,24.66,28.62C166,98.37,175.18,102.62,192,100.94Z"/><g class="cls-5"><path class="cls-6" d="M189.33,99.06a81,81,0,0,0-5.73-6.93c-1-1.11-2-2.2-3.07-3.28s-2.12-2.12-3.21-3.15a105.78,105.78,0,0,0-14-11.2c-2.42-1.76-5.05-3.22-7.6-4.79l-4-2.09c-.67-.33-1.31-.72-2-1l-2.06-.9c-1.37-.59-2.72-1.25-4.12-1.78l-4.24-1.52c-.71-.24-1.4-.54-2.12-.74L135,61.05l-4.34-1.22a90.75,90.75,0,0,1,17.1,5.6l2.07.89c.7.29,1.35.68,2,1l4,2.06c2.57,1.55,5.22,3,7.67,4.74a108.16,108.16,0,0,1,14,11.36A91.3,91.3,0,0,1,189.33,99.06Z"/></g><g class="cls-7"><path class="cls-6" d="M145.05,59.35q1.9,2.05,3.76,4.16c1.24,1.4,2.49,2.78,3.72,4.19l.13.15-.2,0c-3.14.41-6.28.86-9.44,1.22,3.13-.53,6.28-1,9.42-1.42l-.07.17c-1.24-1.4-2.45-2.82-3.68-4.23S146.25,60.78,145.05,59.35Z"/></g><g class="cls-7"><path class="cls-6" d="M159.7,62.78c1.32,2.36,2.62,4.74,3.9,7.12l3.86,7.15.08.14h-.17c-4.52.1-9,.24-13.56.29,4.52-.22,9-.33,13.56-.5l-.09.15L163.47,70C162.19,67.58,160.94,65.19,159.7,62.78Z"/></g><g class="cls-7"><path class="cls-6" d="M179.26,76.3q.65,3.35,1.21,6.7l1.17,6.7,0,.11h-.12c-4.11.21-8.21.48-12.31.64,4.09-.34,8.19-.57,12.29-.85l-.09.12L180.33,83C180,80.79,179.6,78.55,179.26,76.3Z"/></g><path class="cls-8" d="M192,100.94c-.42-3-3.63-23.24-22.68-35.45-20-12.78-40.79-6.11-43.42-5.22a48.11,48.11,0,0,1,10.08,5c14,9.21,15.33,20.82,24.66,28.62C166,98.37,175.18,102.62,192,100.94Z"/><path class="cls-9" d="M198.73,15.4A167.22,167.22,0,0,0,191,36c-.51,1.72-.95,3.43-1.31,5.09-.2.85-.32,1.64-.47,2.45s-.24,1.83-.37,2.74A72.74,72.74,0,0,0,188.19,57a55.08,55.08,0,0,0,4.34,20.4c3.74,6,6,12.75,7.63,21.91a27.19,27.19,0,0,1-18.87-16.54,71.93,71.93,0,0,1-7.77-24.59,117.77,117.77,0,0,1-.79-12.7v-3.1c0-1.14,0-2.3.11-3.38.12-2.22.33-4.36.6-6.47.51-4.22,1.21-8.31,2-12.36s1.72-7.94,2.89-12.15a10.88,10.88,0,0,1,21,5.81,10.65,10.65,0,0,1-.53,1.5Z"/><path class="cls-10" d="M190.14,101.08c-.22-4-1.2-31.88,21-53.07,23.25-22.19,52.71-18.72,56.43-18.22a65.5,65.5,0,0,0-12.11,9.31c-16.3,15.91-15,31.69-25.4,44.5C224.11,90.91,213,98.94,190.14,101.08Z"/><g class="cls-5"><path class="cls-6" d="M193.23,97.88a122.8,122.8,0,0,1,12.2-21.14A150.83,150.83,0,0,1,221.07,58c2.88-2.89,5.89-5.64,9-8.29s6.35-5.13,9.72-7.43a122.22,122.22,0,0,1,21.36-11.81c-3.68,1.74-7.33,3.54-10.83,5.62s-6.94,4.23-10.27,6.56-6.51,4.86-9.63,7.47-6.06,5.41-8.92,8.29A150.94,150.94,0,0,0,205.75,77q-3.56,4.95-6.7,10.19A107.61,107.61,0,0,0,193.23,97.88Z"/></g><g class="cls-7"><path class="cls-6" d="M241.87,33.53q-1.85,3.33-3.75,6.61c-1.27,2.2-2.51,4.41-3.8,6.59l-.13-.21c4.3-.19,8.6-.44,12.9-.56-4.29.35-8.59.56-12.88.84h-.27l.14-.22c1.26-2.2,2.58-4.37,3.86-6.55S240.53,35.68,241.87,33.53Z"/></g><g class="cls-7"><path class="cls-6" d="M223.25,41.89q-1.53,5.3-3.14,10.56C219,56,218,59.48,216.89,63l-.15-.18c6.06-.95,12.1-2,18.17-2.85-6,1.11-12.08,2.09-18.13,3.13l-.22,0,.07-.22c1.06-3.51,2.19-7,3.28-10.51S222.11,45.38,223.25,41.89Z"/></g><g class="cls-7"><path class="cls-6" d="M200.73,65q.2,4.62.32,9.22l.27,9.22-.17-.14c5.53-.68,11-1.44,16.59-2-5.51.85-11,1.56-16.55,2.34l-.16,0v-.16l-.18-9.22C200.78,71.12,200.74,68.05,200.73,65Z"/></g><path class="cls-11" d="M190.14,101.08c-.22-4-1.2-31.88,21-53.07,23.25-22.19,52.71-18.72,56.43-18.22a65.5,65.5,0,0,0-12.11,9.31c-16.3,15.91-15,31.69-25.4,44.5C224.11,90.91,213,98.94,190.14,101.08Z"/></g></g></svg>