<svg id="Layer_1" data-name="Layer 1" xmlns="http://www.w3.org/2000/svg" viewBox="0 0 400 400"><defs><style>.cls-1{fill:#87ab3e;}.cls-2,.cls-3{fill:none;stroke:#678138;stroke-linecap:round;stroke-linejoin:round;}.cls-2{stroke-width:9.4px;}.cls-3{stroke-width:6.26px;}.cls-4{fill:#dae153;}</style></defs><path class="cls-1" d="M131.86,356.88l26.57,11.06c16-4.31,39.58-1.71,48.82,13.74,12.83,7.49,12.42,8.86,26.26,10.32,16.05-50.53-75.58-54.07-101.65-35.12"/><path class="cls-2" d="M131.86,356.88l26.57,11.06c16-4.31,39.58-1.71,48.82,13.74,12.83,7.49,12.42,8.86,26.26,10.32C249.56,341.47,157.93,337.93,131.86,356.88Z"/><path class="cls-1" d="M225,391.35s10.11-8.53,10.82-15.62c22.85-228.22,38.26-297.64,30-335.22-2.5-11.41-26.44-26.44-26.44-26.44L205.82,380.54Z"/><path class="cls-3" d="M225,391.35s10.11-8.53,10.82-15.62c22.85-228.22,38.26-297.64,30-335.22-2.5-11.41-26.44-26.44-26.44-26.44L205.82,380.54Z"/><path class="cls-4" d="M160.16,363.71,181.79,33.3s19.23-8.41,44.46,1.2,10.81,25.23,10.81,25.23L215.43,391.35s-1.2-32.44-55.27-27.64"/><path class="cls-1" d="M159.51,23.62,180.06,37c7.17-5.83,29.09-8,43.94-2.45,7.44,2.75,12.58,6.82,14.48,10.18S241.2,51,237,58.32l21.73,12.43c7.35-13,7.65-27.63,1.56-38.36S243.85,15.07,232.71,11C198,4,180.75,5.71,159.51,23.62"/><path class="cls-2" d="M159.51,23.62,180.06,37c7.17-5.83,29.09-8,43.94-2.45,7.44,2.75,12.58,6.82,14.48,10.18S241.2,51,237,58.32l21.73,12.43c7.35-13,7.65-27.63,1.56-38.36S243.85,15.07,232.71,11C198,4,180.75,5.71,159.51,23.62Z"/><polygon class="cls-4" points="235.86 60.94 205.82 381.74 225.05 391.36 257.48 69.35 235.86 60.94"/><polygon class="cls-2" points="235.86 60.94 205.82 381.74 225.05 391.36 257.48 69.35 235.86 60.94"/><polygon class="cls-4" points="155.36 27.29 133.74 357.71 155.36 366.12 176.98 35.71 155.36 27.29"/><polygon class="cls-2" points="155.36 27.29 133.74 357.71 155.36 366.12 176.98 35.71 155.36 27.29"/></svg>