<svg id="Layer_1" data-name="Layer 1" xmlns="http://www.w3.org/2000/svg" xmlns:xlink="http://www.w3.org/1999/xlink" viewBox="0 0 400 400"><defs><style>.cls-1,.cls-8{fill:none;}.cls-2{clip-path:url(#clip-path);}.cls-3{fill:url(#linear-gradient);}.cls-4{clip-path:url(#clip-path-2);}.cls-5{fill:url(#linear-gradient-2);}.cls-6{clip-path:url(#clip-path-3);}.cls-7{fill:url(#linear-gradient-3);}.cls-8{stroke:#315126;stroke-width:5.81px;}</style><clipPath id="clip-path"><path class="cls-1" d="M183.11,521.28c-64,6.58-20,52.72-25.72,73-24.62,14.81,7,27.52,9.76,41.34,6.1-4.74,17.9-3.93,30.15-3.12,22,1.45,45.43,2.9,39.87-27.8,35.4-11.67,66.65-12,46.91-62.76,26-41.79,7.48-37.81-4.71-71.18-65.16,16.37-91.87,23.14-96.26,50.57"/></clipPath><linearGradient id="linear-gradient" x1="1553.68" y1="3175.43" x2="1563.68" y2="3175.43" gradientTransform="matrix(-14.9, 0, 0, 14.9, 23425.48, -46769.96)" gradientUnits="userSpaceOnUse"><stop offset="0" stop-color="#2c9345"/><stop offset="1" stop-color="#81c241"/></linearGradient><clipPath id="clip-path-2"><path class="cls-1" d="M101.82,540.79c-39.66,52.87,24.43,55.59,35.2,75.44-6.33,29.82,24.89,16,36.85,24.59,2.17-23,66.91-45.77,26.13-76.14,16.11-35.45,37.55-59.06-13.05-83.44-12.37-51.6-22.32-34.74-55-51.33-33.38,61.29-47,86.45-30.09,110.88"/></clipPath><linearGradient id="linear-gradient-2" x1="1467.11" y1="3290.79" x2="1477.11" y2="3290.79" gradientTransform="matrix(3.66, 15.65, 14.54, -3.3, -53062.04, -11638.87)" xlink:href="#linear-gradient"/><clipPath id="clip-path-3"><path class="cls-1" d="M49.17,382.38l23,13C99.75,314.14,154.11,250.49,198,180l-11.9-6C137.22,241.51,85.24,307.17,49.17,382.38"/></clipPath><linearGradient id="linear-gradient-3" x1="1562.94" y1="3188.87" x2="1573.14" y2="3188.87" gradientTransform="matrix(-18.45, 0, 0, 18.45, 29042.81, -58551.01)" gradientUnits="userSpaceOnUse"><stop offset="0" stop-color="#559341"/><stop offset="1" stop-color="#efeb64"/></linearGradient></defs><g class="cls-2"><rect class="cls-3" x="93.95" y="428.44" width="241.24" height="249.41" transform="translate(-367.81 439.88) rotate(-57.79)"/></g><g class="cls-4"><polygon class="cls-5" points="231.79 391.17 288.76 635.17 71.14 684.51 14.17 440.52 231.79 391.17"/></g><g class="cls-6"><rect class="cls-7" x="-9.8" y="162.05" width="266.78" height="245.29" transform="matrix(0.54, -0.84, 0.84, 0.54, -182.56, 233.72)"/></g><path class="cls-8" d="M49.17,382.38C85.25,307.17,137.23,241.52,186.1,174L198,179.94C154.11,250.48,99.74,314.15,72.16,395.41Z"/></svg>