<svg id="Layer_1" data-name="Layer 1" xmlns="http://www.w3.org/2000/svg" xmlns:xlink="http://www.w3.org/1999/xlink" viewBox="0 0 400 400"><defs><style>.cls-1{fill:none;}.cls-2{fill:#fff698;}.cls-3{fill:#231f20;}.cls-4{clip-path:url(#clip-path);}.cls-5{fill:#fff;}.cls-6{fill:url(#linear-gradient);}.cls-7{clip-path:url(#clip-path-2);}.cls-8{fill:url(#linear-gradient-2);}.cls-9{clip-path:url(#clip-path-3);}.cls-10{fill:url(#linear-gradient-3);}.cls-11{clip-path:url(#clip-path-4);}.cls-12{fill:url(#linear-gradient-4);}.cls-13{clip-path:url(#clip-path-5);}.cls-14{fill:url(#linear-gradient-5);}.cls-15{clip-path:url(#clip-path-6);}.cls-16{fill:url(#linear-gradient-6);}.cls-17{clip-path:url(#clip-path-7);}.cls-18{fill:url(#linear-gradient-7);}.cls-19{clip-path:url(#clip-path-8);}.cls-20{fill:url(#linear-gradient-8);}.cls-21{clip-path:url(#clip-path-9);}.cls-22{fill:url(#linear-gradient-9);}.cls-23{clip-path:url(#clip-path-10);}.cls-24{fill:url(#linear-gradient-10);}.cls-25{clip-path:url(#clip-path-11);}.cls-26{fill:url(#linear-gradient-11);}.cls-27{clip-path:url(#clip-path-12);}.cls-28{fill:url(#linear-gradient-12);}.cls-29{clip-path:url(#clip-path-13);}.cls-30{fill:url(#linear-gradient-13);}.cls-31{clip-path:url(#clip-path-14);}.cls-32{fill:url(#linear-gradient-14);}.cls-33{clip-path:url(#clip-path-15);}.cls-34{fill:url(#linear-gradient-15);}.cls-35{clip-path:url(#clip-path-16);}.cls-36{fill:url(#linear-gradient-16);}.cls-37{clip-path:url(#clip-path-17);}.cls-38{fill:url(#linear-gradient-17);}.cls-39{clip-path:url(#clip-path-18);}.cls-40{fill:url(#linear-gradient-18);}.cls-41{clip-path:url(#clip-path-19);}.cls-42{fill:url(#linear-gradient-19);}.cls-43{clip-path:url(#clip-path-20);}.cls-44{fill:url(#linear-gradient-20);}.cls-45{clip-path:url(#clip-path-21);}.cls-46{fill:url(#linear-gradient-21);}.cls-47{clip-path:url(#clip-path-22);}.cls-48{fill:url(#linear-gradient-22);}.cls-49{clip-path:url(#clip-path-23);}.cls-50{fill:url(#linear-gradient-23);}.cls-51{clip-path:url(#clip-path-24);}.cls-52{fill:url(#linear-gradient-24);}.cls-53{clip-path:url(#clip-path-25);}.cls-54{fill:url(#linear-gradient-25);}.cls-55{clip-path:url(#clip-path-26);}.cls-56{fill:url(#linear-gradient-26);}.cls-57{clip-path:url(#clip-path-27);}.cls-58{fill:url(#linear-gradient-27);}.cls-59{clip-path:url(#clip-path-28);}.cls-60{fill:url(#linear-gradient-28);}.cls-61{clip-path:url(#clip-path-29);}.cls-62{fill:url(#linear-gradient-29);}.cls-63{clip-path:url(#clip-path-30);}.cls-64{fill:url(#linear-gradient-30);}.cls-65{clip-path:url(#clip-path-31);}.cls-66{fill:url(#linear-gradient-31);}.cls-67{clip-path:url(#clip-path-32);}.cls-68{fill:url(#linear-gradient-32);}.cls-69{clip-path:url(#clip-path-33);}.cls-70{fill:url(#linear-gradient-33);}.cls-71{clip-path:url(#clip-path-34);}.cls-72{fill:url(#linear-gradient-34);}.cls-73{clip-path:url(#clip-path-35);}.cls-74{fill:url(#linear-gradient-35);}.cls-75{fill:#0bb04b;}.cls-76{fill:#ec1c24;}.cls-77{fill:#6cbf71;}</style><clipPath id="clip-path"><path class="cls-1" d="M170.22,97.48c-.22,4.41-3.31,7.62-6.89,7.18s-6.32-4.4-6.1-8.81,3.31-7.63,6.9-7.18,6.32,4.4,6.09,8.81"/></clipPath><linearGradient id="linear-gradient" x1="262.17" y1="3139.89" x2="265.81" y2="3139.89" gradientTransform="matrix(3.59, 0.31, 0.8, -9.25, -3287.28, 29046.29)" gradientUnits="userSpaceOnUse"><stop offset="0" stop-color="#fff"/><stop offset="1" stop-color="#f6921e"/></linearGradient><clipPath id="clip-path-2"><path class="cls-1" d="M186.36,94.08c-.22,4.42-3.31,7.63-6.9,7.18s-6.31-4.39-6.09-8.81,3.31-7.62,6.9-7.17,6.32,4.39,6.09,8.8"/></clipPath><linearGradient id="linear-gradient-2" x1="265.31" y1="3140.28" x2="268.94" y2="3140.28" gradientTransform="matrix(3.59, 0.31, 0.8, -9.25, -3282.31, 29043.89)" xlink:href="#linear-gradient"/><clipPath id="clip-path-3"><path class="cls-1" d="M169.42,123.22c-.22,4.41-3.31,7.62-6.9,7.17s-6.32-4.39-6.09-8.81,3.31-7.63,6.9-7.17,6.31,4.39,6.09,8.81"/></clipPath><linearGradient id="linear-gradient-3" x1="262.42" y1="3137.89" x2="266.05" y2="3137.89" gradientTransform="matrix(3.59, 0.31, 0.8, -9.25, -3287.09, 29053.3)" xlink:href="#linear-gradient"/><clipPath id="clip-path-4"><path class="cls-1" d="M185.16,116.89c-.23,4.41-3.32,7.62-6.91,7.18s-6.31-4.4-6.09-8.82,3.32-7.62,6.9-7.17,6.32,4.39,6.1,8.81"/></clipPath><linearGradient id="linear-gradient-4" x1="265.48" y1="3138.51" x2="269.11" y2="3138.51" gradientTransform="matrix(3.59, 0.31, 0.8, -9.24, -3282.72, 29048.73)" xlink:href="#linear-gradient"/><clipPath id="clip-path-5"><path class="cls-1" d="M200.18,112.93c-.22,4.42-3.31,7.63-6.9,7.18s-6.32-4.4-6.09-8.81,3.31-7.62,6.9-7.17,6.32,4.39,6.09,8.8"/></clipPath><linearGradient id="linear-gradient-5" x1="268.4" y1="3138.89" x2="272.04" y2="3138.89" gradientTransform="matrix(3.59, 0.31, 0.8, -9.25, -3278.64, 29050.73)" xlink:href="#linear-gradient"/><clipPath id="clip-path-6"><path class="cls-1" d="M170.53,145c-.22,4.41-3.31,7.63-6.9,7.18s-6.31-4.4-6.09-8.81,3.31-7.63,6.9-7.18,6.32,4.39,6.09,8.81"/></clipPath><linearGradient id="linear-gradient-6" x1="263.04" y1="3136.2" x2="266.67" y2="3136.2" gradientTransform="matrix(3.59, 0.31, 0.8, -9.25, -3286.99, 29059.29)" xlink:href="#linear-gradient"/><clipPath id="clip-path-7"><path class="cls-1" d="M187.85,139.67c-.22,4.41-3.32,7.62-6.9,7.17s-6.32-4.39-6.09-8.8,3.31-7.63,6.9-7.18,6.32,4.39,6.09,8.81"/></clipPath><linearGradient id="linear-gradient-7" x1="266.43" y1="3136.77" x2="270.07" y2="3136.77" gradientTransform="matrix(3.59, 0.31, 0.8, -9.24, -3282.07, 29053.84)" xlink:href="#linear-gradient"/><clipPath id="clip-path-8"><path class="cls-1" d="M204.4,133.8c-.22,4.42-3.31,7.63-6.9,7.18s-6.31-4.4-6.09-8.81,3.31-7.63,6.9-7.18,6.31,4.4,6.09,8.81"/></clipPath><linearGradient id="linear-gradient-8" x1="269.66" y1="3137.26" x2="273.3" y2="3137.26" gradientTransform="matrix(3.59, 0.31, 0.8, -9.25, -3278.4, 29060.24)" xlink:href="#linear-gradient"/><clipPath id="clip-path-9"><path class="cls-1" d="M172.16,168.06c-.22,4.41-3.31,7.62-6.9,7.17s-6.31-4.39-6.09-8.8,3.31-7.63,6.9-7.18,6.32,4.4,6.09,8.81"/></clipPath><linearGradient id="linear-gradient-9" x1="263.8" y1="3134.42" x2="267.43" y2="3134.42" gradientTransform="matrix(3.59, 0.31, 0.8, -9.25, -3286.93, 29065.6)" xlink:href="#linear-gradient"/><clipPath id="clip-path-10"><path class="cls-1" d="M187.77,164.31c-.23,4.41-3.32,7.62-6.9,7.17s-6.32-4.39-6.1-8.8,3.32-7.63,6.91-7.19,6.31,4.41,6.09,8.82"/></clipPath><linearGradient id="linear-gradient-10" x1="266.82" y1="3134.84" x2="270.46" y2="3134.84" gradientTransform="matrix(3.59, 0.31, 0.8, -9.24, -3282, 29061.79)" xlink:href="#linear-gradient"/><clipPath id="clip-path-11"><path class="cls-1" d="M202.82,159.84c-.23,4.42-3.31,7.63-6.9,7.18s-6.32-4.4-6.09-8.81,3.31-7.63,6.9-7.18,6.31,4.4,6.09,8.81"/></clipPath><linearGradient id="linear-gradient-11" x1="269.76" y1="3135.29" x2="273.39" y2="3135.29" gradientTransform="matrix(3.59, 0.31, 0.8, -9.24, -3277.85, 29060.56)" xlink:href="#linear-gradient"/><clipPath id="clip-path-12"><path class="cls-1" d="M173.67,193.68c-.23,4.41-3.32,7.62-6.91,7.17s-6.31-4.39-6.09-8.81,3.32-7.62,6.9-7.17,6.32,4.39,6.1,8.81"/></clipPath><linearGradient id="linear-gradient-12" x1="264.52" y1="3132.41" x2="268.16" y2="3132.41" gradientTransform="matrix(3.59, 0.31, 0.8, -9.25, -3286.58, 29075.71)" xlink:href="#linear-gradient"/><clipPath id="clip-path-13"><path class="cls-1" d="M189.27,189.92c-.22,4.42-3.32,7.63-6.9,7.18s-6.32-4.39-6.09-8.81,3.31-7.63,6.9-7.17,6.31,4.39,6.09,8.8"/></clipPath><linearGradient id="linear-gradient-13" x1="267.58" y1="3132.83" x2="271.22" y2="3132.83" gradientTransform="matrix(3.59, 0.31, 0.8, -9.25, -3282.04, 29071.75)" xlink:href="#linear-gradient"/><clipPath id="clip-path-14"><path class="cls-1" d="M207.51,182.49c-.22,4.4-3.32,7.62-6.9,7.17s-6.32-4.4-6.1-8.8,3.32-7.64,6.91-7.18,6.31,4.4,6.09,8.81"/></clipPath><linearGradient id="linear-gradient-14" x1="271.13" y1="3133.48" x2="274.76" y2="3133.48" gradientTransform="matrix(3.59, 0.31, 0.8, -9.25, -3277.68, 29075.18)" xlink:href="#linear-gradient"/><clipPath id="clip-path-15"><path class="cls-1" d="M174.73,218.72c-.22,4.42-3.32,7.62-6.91,7.18s-6.31-4.4-6.08-8.82,3.31-7.62,6.9-7.18,6.31,4.4,6.09,8.82"/></clipPath><linearGradient id="linear-gradient-15" x1="265.15" y1="3130.52" x2="268.78" y2="3130.52" gradientTransform="matrix(3.59, 0.31, 0.8, -9.24, -3285.6, 29076.9)" xlink:href="#linear-gradient"/><clipPath id="clip-path-16"><path class="cls-1" d="M190.33,215c-.22,4.41-3.31,7.62-6.9,7.17s-6.32-4.4-6.09-8.8,3.31-7.63,6.9-7.18,6.31,4.39,6.09,8.81"/></clipPath><linearGradient id="linear-gradient-16" x1="268.25" y1="3130.87" x2="271.88" y2="3130.87" gradientTransform="matrix(3.59, 0.31, 0.8, -9.25, -3282.17, 29081.32)" xlink:href="#linear-gradient"/><clipPath id="clip-path-17"><path class="cls-1" d="M205.39,210.5c-.23,4.41-3.32,7.63-6.91,7.18s-6.31-4.4-6.09-8.81,3.32-7.63,6.91-7.18,6.31,4.4,6.09,8.81"/></clipPath><linearGradient id="linear-gradient-17" x1="271.19" y1="3131.31" x2="274.82" y2="3131.31" gradientTransform="matrix(3.59, 0.31, 0.8, -9.25, -3278.03, 29080.21)" xlink:href="#linear-gradient"/><clipPath id="clip-path-18"><path class="cls-1" d="M183.79,242.7c-.23,4.4-3.32,7.61-6.9,7.16s-6.32-4.39-6.1-8.8,3.32-7.63,6.91-7.18,6.31,4.39,6.09,8.82"/></clipPath><linearGradient id="linear-gradient-18" x1="267.4" y1="3128.69" x2="271.03" y2="3128.69" gradientTransform="matrix(3.59, 0.31, 0.8, -9.25, -3283.56, 29086.43)" xlink:href="#linear-gradient"/><clipPath id="clip-path-19"><path class="cls-1" d="M199.39,238.94c-.22,4.41-3.32,7.62-6.9,7.18s-6.32-4.4-6.1-8.82,3.32-7.62,6.91-7.17,6.31,4.39,6.09,8.81"/></clipPath><linearGradient id="linear-gradient-19" x1="270.49" y1="3129.09" x2="274.13" y2="3129.09" gradientTransform="matrix(3.59, 0.31, 0.8, -9.25, -3279.63, 29085.1)" xlink:href="#linear-gradient"/><clipPath id="clip-path-20"><path class="cls-1" d="M214.44,234.47c-.22,4.41-3.31,7.63-6.9,7.18s-6.31-4.4-6.09-8.81,3.32-7.63,6.9-7.18,6.32,4.4,6.09,8.81"/></clipPath><linearGradient id="linear-gradient-20" x1="273.41" y1="3129.48" x2="277.05" y2="3129.48" gradientTransform="matrix(3.59, 0.31, 0.8, -9.25, -3275.78, 29089.61)" xlink:href="#linear-gradient"/><clipPath id="clip-path-21"><path class="cls-1" d="M197.1,265.63c-.22,4.42-3.32,7.62-6.9,7.18s-6.32-4.4-6.09-8.81,3.31-7.62,6.9-7.18,6.31,4.4,6.09,8.81"/></clipPath><linearGradient id="linear-gradient-21" x1="270.44" y1="3127.02" x2="274.07" y2="3127.02" gradientTransform="matrix(3.59, 0.31, 0.8, -9.24, -3279.44, 29089.82)" xlink:href="#linear-gradient"/><clipPath id="clip-path-22"><path class="cls-1" d="M212.7,261.88c-.22,4.42-3.31,7.62-6.9,7.18s-6.31-4.4-6.09-8.81,3.31-7.62,6.9-7.18,6.32,4.4,6.09,8.81"/></clipPath><linearGradient id="linear-gradient-22" x1="273.54" y1="3127.41" x2="277.17" y2="3127.41" gradientTransform="matrix(3.59, 0.31, 0.8, -9.24, -3275.53, 29088.75)" xlink:href="#linear-gradient"/><clipPath id="clip-path-23"><path class="cls-1" d="M227.91,254.45c-.23,4.41-3.32,7.63-6.9,7.18s-6.32-4.39-6.1-8.81,3.32-7.63,6.91-7.17,6.31,4.39,6.09,8.8"/></clipPath><linearGradient id="linear-gradient-23" x1="276.44" y1="3128.05" x2="280.07" y2="3128.05" gradientTransform="matrix(3.59, 0.31, 0.8, -9.25, -3271.62, 29092.22)" xlink:href="#linear-gradient"/><clipPath id="clip-path-24"><path class="cls-1" d="M245.14,246.24c-.23,4.41-3.32,7.63-6.91,7.18s-6.31-4.4-6.09-8.82,3.32-7.62,6.91-7.17,6.31,4.39,6.09,8.81"/></clipPath><linearGradient id="linear-gradient-24" x1="279.75" y1="3128.85" x2="283.38" y2="3128.85" gradientTransform="matrix(3.59, 0.31, 0.8, -9.25, -3266.43, 29084.72)" xlink:href="#linear-gradient"/><clipPath id="clip-path-25"><path class="cls-1" d="M248.35,274.24c-.23,4.41-3.32,7.63-6.91,7.17s-6.31-4.38-6.09-8.8,3.32-7.63,6.91-7.18,6.31,4.4,6.09,8.81"/></clipPath><linearGradient id="linear-gradient-25" x1="280.89" y1="3126.69" x2="284.52" y2="3126.69" gradientTransform="matrix(3.59, 0.31, 0.8, -9.25, -3265.74, 29092.42)" xlink:href="#linear-gradient"/><clipPath id="clip-path-26"><path class="cls-1" d="M254.05,299.86c-.22,4.42-3.31,7.64-6.9,7.18s-6.31-4.39-6.09-8.81,3.31-7.63,6.9-7.17,6.32,4.39,6.09,8.8"/></clipPath><linearGradient id="linear-gradient-26" x1="282.47" y1="3124.66" x2="286.11" y2="3124.66" gradientTransform="matrix(3.59, 0.31, 0.8, -9.25, -3264.87, 29107.63)" xlink:href="#linear-gradient"/><clipPath id="clip-path-27"><path class="cls-1" d="M242.8,198.77c-.23,4.4-3.32,7.62-6.9,7.17s-6.32-4.39-6.1-8.81,3.32-7.63,6.9-7.18,6.32,4.4,6.1,8.82"/></clipPath><linearGradient id="linear-gradient-27" x1="278.47" y1="3132.5" x2="282.11" y2="3132.5" gradientTransform="matrix(3.59, 0.31, 0.8, -9.25, -3267.47, 29073.94)" xlink:href="#linear-gradient"/><clipPath id="clip-path-28"><path class="cls-1" d="M214.61,288.59c-.22,4.41-3.31,7.63-6.89,7.17s-6.32-4.38-6.1-8.8,3.32-7.63,6.9-7.18,6.32,4.4,6.09,8.81"/></clipPath><linearGradient id="linear-gradient-28" x1="274.36" y1="3125.32" x2="278" y2="3125.32" gradientTransform="matrix(3.59, 0.31, 0.8, -9.25, -3275.07, 29099.08)" xlink:href="#linear-gradient"/><clipPath id="clip-path-29"><path class="cls-1" d="M230.22,284.84c-.23,4.41-3.32,7.63-6.91,7.18s-6.31-4.4-6.09-8.81,3.32-7.63,6.91-7.18,6.32,4.4,6.09,8.81"/></clipPath><linearGradient id="linear-gradient-29" x1="277.43" y1="3125.67" x2="281.06" y2="3125.67" gradientTransform="matrix(3.59, 0.31, 0.8, -9.25, -3271.27, 29103.89)" xlink:href="#linear-gradient"/><clipPath id="clip-path-30"><path class="cls-1" d="M223.21,206.65c-.22,4.4-3.32,7.62-6.9,7.16s-6.32-4.39-6.09-8.8,3.31-7.63,6.9-7.18,6.32,4.4,6.09,8.82"/></clipPath><linearGradient id="linear-gradient-30" x1="274.67" y1="3131.73" x2="278.3" y2="3131.73" gradientTransform="matrix(3.59, 0.31, 0.8, -9.25, -3272.94, 29079.28)" xlink:href="#linear-gradient"/><clipPath id="clip-path-31"><path class="cls-1" d="M225.64,177.37c-.23,4.41-3.31,7.63-6.9,7.18s-6.32-4.4-6.09-8.82,3.31-7.62,6.9-7.17,6.31,4.4,6.09,8.81"/></clipPath><linearGradient id="linear-gradient-31" x1="274.63" y1="3134" x2="278.27" y2="3134" gradientTransform="matrix(3.59, 0.31, 0.8, -9.25, -3272.3, 29073.92)" xlink:href="#linear-gradient"/><clipPath id="clip-path-32"><path class="cls-1" d="M219.15,153.19c-.22,4.42-3.31,7.64-6.9,7.19s-6.31-4.39-6.09-8.81,3.32-7.63,6.9-7.18,6.32,4.39,6.09,8.8"/></clipPath><linearGradient id="linear-gradient-32" x1="272.94" y1="3135.89" x2="276.57" y2="3135.89" gradientTransform="matrix(3.59, 0.31, 0.8, -9.25, -3273.81, 29061.64)" xlink:href="#linear-gradient"/><clipPath id="clip-path-33"><path class="cls-1" d="M236.33,308.25c-.23,4.42-3.32,7.63-6.9,7.18s-6.32-4.4-6.1-8.8,3.32-7.63,6.91-7.19,6.31,4.39,6.09,8.81"/></clipPath><linearGradient id="linear-gradient-33" x1="279.07" y1="3123.99" x2="282.7" y2="3123.99" gradientTransform="matrix(3.59, 0.31, 0.8, -9.24, -3268.78, 29098.72)" xlink:href="#linear-gradient"/><clipPath id="clip-path-34"><path class="cls-1" d="M245.37,326.7c-.22,4.42-3.32,7.63-6.9,7.17s-6.32-4.39-6.09-8.8,3.31-7.63,6.9-7.18,6.32,4.4,6.09,8.81"/></clipPath><linearGradient id="linear-gradient-34" x1="281.18" y1="3122.59" x2="284.82" y2="3122.59" gradientTransform="matrix(3.59, 0.31, 0.8, -9.24, -3266.34, 29106.62)" xlink:href="#linear-gradient"/><clipPath id="clip-path-35"><path class="cls-1" d="M231.93,227.13c-.23,4.42-3.32,7.63-6.91,7.18s-6.31-4.39-6.09-8.81,3.32-7.62,6.91-7.17,6.31,4.39,6.09,8.8"/></clipPath><linearGradient id="linear-gradient-35" x1="276.8" y1="3130.22" x2="280.44" y2="3130.22" gradientTransform="matrix(3.59, 0.31, 0.8, -9.25, -3270.69, 29082.11)" xlink:href="#linear-gradient"/></defs><path class="cls-2" d="M162.6,57.09C156,69.83,148.69,101.62,149,141c.67,79.46,29.5,184,43.91,216,40,82.87,90.07,21.29,80.87-39.81-14.08-93.57-28.25-146.79-58.42-200.53-6.45-11.49-11.46-24.91-19.83-36.71-21.69-30.6-30.14-24.23-30.14-24.23-1.83-.23-3.67-.46-3.56-2.49"/><path class="cls-3" d="M161.94,56.84c-15.48,31.77-15.07,71.66-13.1,106,2.55,44.63,11.57,89.07,22.79,132.26,7.66,29.49,38.35,139.46,85.69,92.51,19.71-19.54,20.51-52,16.65-77.46-6.39-42-14.08-84-27-124.61-11.2-35.13-28.36-69.24-46.83-101.06-5.74-9.9-15.85-24.85-27.32-29.41-3.08-1.21-8.42.37-10-2.38-.69-1.25-2.7-.32-2,1,.87,1.61,2.67,4.55,5.16,3,8.71-5.5,25.14,19.46,28.56,24.1,10.6,14.41,17.7,32.4,26,48.23a374.76,374.76,0,0,1,18,40.46c12,31.43,19.38,64.48,25.62,97.46,6.53,34.58,16,71,1,104.58-5.83,13.08-17.15,25-32.38,24.28-19.41-.93-33.25-26.45-39.88-41.54-11.12-25.3-17.79-52.93-24.25-79.7a703.55,703.55,0,0,1-17.51-106.45c-2.93-35.34-2.88-78.44,12.53-111.35.38-.83-1.43-.69-1.82.11"/><path class="cls-3" d="M136.33.16c-.46,2.39-1,4.83.6,7,4,5.55,6.52,9.56,7.16,17.1,1.07,12.64,14.43,18.22,18.25,29.87.1.31.56.09.45-.22-3.56-10.87-15-16.15-18-27.26-.85-3.07.73-7.74-.81-10.8-2.71-5.38-8.44-8.42-7.27-15.65,0-.25-.34-.27-.38,0"/><path class="cls-3" d="M169.87,2.65c-2.88-.33-7,.17-7.4,4-.19,1.87-.25,3.9.92,5.54-.26-.36,2.76,4,2.8,3.29-.2,4-1.11,1.3-1.23,2.35s-.46,1.91.48,2.78c3.32,3.05,2.13,7.4.85,11.08-.4,1.16.79,2.12,1.38,2.81,3.41,3.94-1,12.13-2.56,16.09a.32.32,0,0,0,.6.23,149,149,0,0,0,4.8-15,.33.33,0,0,0-.13-.39c-5.08-3.16,1.14-9.18-2.24-13.33-2.32-2.86-1.43-19.16,1.69-18.94a.23.23,0,0,0,0-.45"/><path class="cls-3" d="M183.46,11.81c-14.46-.94,1.92,17.8-4.17,23.18-3.17,2.81-4.79,3.44-3,7.91.23.58-6.88,11.34-7.62,12.17-.23.26.19.62.44.4,3.38-2.95,3-10,8.72-10.35a.35.35,0,0,0,.26-.5c-4.73-8.33,4.59-7.46,4.07-13.53-.36-4.14-9.87-19.38,1.27-18.87a.21.21,0,0,0,0-.41"/><path class="cls-3" d="M126.27,33.94q3.22-6.81,10.42.8c0,1.52-.41,2.93-.35,4.46,0,1.16,1.34,2.33,2.07,2.95-.83-.69,2.62,3.34,4,3,1.52-.37,5.31-2,5.31,1.83,0,.14-.53,4.23-1.27,4.8a.32.32,0,0,0,.09.54c1.87.79,3.54,1.4,5.53.45,4.49-2.15,3.24,1.08,2.63,4.73a.38.38,0,0,0,.54.38l7.91-.68c.48.21.76-.56.28-.76-1.58-.69-2.48-1.35-4.25-1-4,.71-4.51-.42-2.74-5,.1-.27-.21-.59-.47-.43-1.72,1-10.26,5.53-8.61,1.37a12.1,12.1,0,0,0,1-5.68c-.59-3.32-5.92-1-7.93-2.64-5.49-4.57-.29-10.27-6-13.47-3.27-1.83-7,1.74-8.4,4.21-.12.22.2.46.33.23"/><path class="cls-3" d="M151,.52c-.15,2.83-.14,4.41,1.51,6.75.71,1,2.81,12,3.18,12.15-.2-.09-.47.17-.34.38,2.94,4.6,7,8.38,4.53,15.22a.32.32,0,0,0,.18.41c6.83,1.83,4.61,1.83,2.39,7.37-1.66,4.19.24,8.38,2.52,11.77.23.34.72-.08.49-.42-1.59-2.45,0-12,.31-17.59a.32.32,0,0,0-.2-.33C159.07,34.52,163,23.4,155.64,20a.27.27,0,0,0,.37-.23,70.85,70.85,0,0,0-.79-7.54C154.69,8.12,151.33,5,151.45.56c0-.28-.43-.32-.44,0"/><path class="cls-3" d="M142.9,1c0,6,6.45,8.6,3.17,15.93a.33.33,0,0,0,.19.41c7,3.32,2.81,11.85,7.36,17.91,1.53,2,6,4.3,5.6,7.35-.6,4.35,3.61,9.68,4.24,13.87.06.42.7.31.65-.11-.78-6-4.7-10.38-3.85-16.75a.32.32,0,0,0-.28-.35c-7.48-1.54-10.87-13-8.1-19.22a.33.33,0,0,0-.19-.41c-5.59-2.67-2.64-3-3.45-7.54-.76-4.21-4.72-6.51-4.8-11,0-.34-.54-.4-.54-.05"/><g class="cls-4"><path class="cls-5" d="M170.22,97.48c-.22,4.41-3.31,7.62-6.89,7.18s-6.32-4.4-6.1-8.81,3.31-7.63,6.9-7.18,6.32,4.4,6.09,8.81"/><path class="cls-6" d="M170.22,97.48c-.22,4.41-3.31,7.62-6.89,7.18s-6.32-4.4-6.1-8.81,3.31-7.63,6.9-7.18,6.32,4.4,6.09,8.81"/></g><g class="cls-7"><path class="cls-5" d="M186.36,94.08c-.22,4.42-3.31,7.63-6.9,7.18s-6.31-4.39-6.09-8.81,3.31-7.62,6.9-7.17,6.32,4.39,6.09,8.8"/><path class="cls-8" d="M186.36,94.08c-.22,4.42-3.31,7.63-6.9,7.18s-6.31-4.39-6.09-8.81,3.31-7.62,6.9-7.17,6.32,4.39,6.09,8.8"/></g><g class="cls-9"><path class="cls-5" d="M169.42,123.22c-.22,4.41-3.31,7.62-6.9,7.17s-6.32-4.39-6.09-8.81,3.31-7.63,6.9-7.17,6.31,4.39,6.09,8.81"/><path class="cls-10" d="M169.42,123.22c-.22,4.41-3.31,7.62-6.9,7.17s-6.32-4.39-6.09-8.81,3.31-7.63,6.9-7.17,6.31,4.39,6.09,8.81"/></g><g class="cls-11"><path class="cls-5" d="M185.16,116.89c-.23,4.41-3.32,7.62-6.91,7.18s-6.31-4.4-6.09-8.82,3.32-7.62,6.9-7.17,6.32,4.39,6.1,8.81"/><path class="cls-12" d="M185.16,116.89c-.23,4.41-3.32,7.62-6.91,7.18s-6.31-4.4-6.09-8.82,3.32-7.62,6.9-7.17,6.32,4.39,6.1,8.81"/></g><g class="cls-13"><path class="cls-5" d="M200.18,112.93c-.22,4.42-3.31,7.63-6.9,7.18s-6.32-4.4-6.09-8.81,3.31-7.62,6.9-7.17,6.32,4.39,6.09,8.8"/><path class="cls-14" d="M200.18,112.93c-.22,4.42-3.31,7.63-6.9,7.18s-6.32-4.4-6.09-8.81,3.31-7.62,6.9-7.17,6.32,4.39,6.09,8.8"/></g><g class="cls-15"><path class="cls-5" d="M170.53,145c-.22,4.41-3.31,7.63-6.9,7.18s-6.31-4.4-6.09-8.81,3.31-7.63,6.9-7.18,6.32,4.39,6.09,8.81"/><path class="cls-16" d="M170.53,145c-.22,4.41-3.31,7.63-6.9,7.18s-6.31-4.4-6.09-8.81,3.31-7.63,6.9-7.18,6.32,4.39,6.09,8.81"/></g><g class="cls-17"><path class="cls-5" d="M187.85,139.67c-.22,4.41-3.32,7.62-6.9,7.17s-6.32-4.39-6.09-8.8,3.31-7.63,6.9-7.18,6.32,4.39,6.09,8.81"/><path class="cls-18" d="M187.85,139.67c-.22,4.41-3.32,7.62-6.9,7.17s-6.32-4.39-6.09-8.8,3.31-7.63,6.9-7.18,6.32,4.39,6.09,8.81"/></g><g class="cls-19"><path class="cls-5" d="M204.4,133.8c-.22,4.42-3.31,7.63-6.9,7.18s-6.31-4.4-6.09-8.81,3.31-7.63,6.9-7.18,6.31,4.4,6.09,8.81"/><path class="cls-20" d="M204.4,133.8c-.22,4.42-3.31,7.63-6.9,7.18s-6.31-4.4-6.09-8.81,3.31-7.63,6.9-7.18,6.31,4.4,6.09,8.81"/></g><g class="cls-21"><path class="cls-5" d="M172.16,168.06c-.22,4.41-3.31,7.62-6.9,7.17s-6.31-4.39-6.09-8.8,3.31-7.63,6.9-7.18,6.32,4.4,6.09,8.81"/><path class="cls-22" d="M172.16,168.06c-.22,4.41-3.31,7.62-6.9,7.17s-6.31-4.39-6.09-8.8,3.31-7.63,6.9-7.18,6.32,4.4,6.09,8.81"/></g><g class="cls-23"><path class="cls-5" d="M187.77,164.31c-.23,4.41-3.32,7.62-6.9,7.17s-6.32-4.39-6.1-8.8,3.32-7.63,6.91-7.19,6.31,4.41,6.09,8.82"/><path class="cls-24" d="M187.77,164.31c-.23,4.41-3.32,7.62-6.9,7.17s-6.32-4.39-6.1-8.8,3.32-7.63,6.91-7.19,6.31,4.41,6.09,8.82"/></g><g class="cls-25"><path class="cls-5" d="M202.82,159.84c-.23,4.42-3.31,7.63-6.9,7.18s-6.32-4.4-6.09-8.81,3.31-7.63,6.9-7.18,6.31,4.4,6.09,8.81"/><path class="cls-26" d="M202.82,159.84c-.23,4.42-3.31,7.63-6.9,7.18s-6.32-4.4-6.09-8.81,3.31-7.63,6.9-7.18,6.31,4.4,6.09,8.81"/></g><g class="cls-27"><path class="cls-5" d="M173.67,193.68c-.23,4.41-3.32,7.62-6.91,7.17s-6.31-4.39-6.09-8.81,3.32-7.62,6.9-7.17,6.32,4.39,6.1,8.81"/><path class="cls-28" d="M173.67,193.68c-.23,4.41-3.32,7.62-6.91,7.17s-6.31-4.39-6.09-8.81,3.32-7.62,6.9-7.17,6.32,4.39,6.1,8.81"/></g><g class="cls-29"><path class="cls-5" d="M189.27,189.92c-.22,4.42-3.32,7.63-6.9,7.18s-6.32-4.39-6.09-8.81,3.31-7.63,6.9-7.17,6.31,4.39,6.09,8.8"/><path class="cls-30" d="M189.27,189.92c-.22,4.42-3.32,7.63-6.9,7.18s-6.32-4.39-6.09-8.81,3.31-7.63,6.9-7.17,6.31,4.39,6.09,8.8"/></g><g class="cls-31"><path class="cls-5" d="M207.51,182.49c-.22,4.4-3.32,7.62-6.9,7.17s-6.32-4.4-6.1-8.8,3.32-7.64,6.91-7.18,6.31,4.4,6.09,8.81"/><path class="cls-32" d="M207.51,182.49c-.22,4.4-3.32,7.62-6.9,7.17s-6.32-4.4-6.1-8.8,3.32-7.64,6.91-7.18,6.31,4.4,6.09,8.81"/></g><g class="cls-33"><path class="cls-5" d="M174.73,218.72c-.22,4.42-3.32,7.62-6.91,7.18s-6.31-4.4-6.08-8.82,3.31-7.62,6.9-7.18,6.31,4.4,6.09,8.82"/><path class="cls-34" d="M174.73,218.72c-.22,4.42-3.32,7.62-6.91,7.18s-6.31-4.4-6.08-8.82,3.31-7.62,6.9-7.18,6.31,4.4,6.09,8.82"/></g><g class="cls-35"><path class="cls-5" d="M190.33,215c-.22,4.41-3.31,7.62-6.9,7.17s-6.32-4.4-6.09-8.8,3.31-7.63,6.9-7.18,6.31,4.39,6.09,8.81"/><path class="cls-36" d="M190.33,215c-.22,4.41-3.31,7.62-6.9,7.17s-6.32-4.4-6.09-8.8,3.31-7.63,6.9-7.18,6.31,4.39,6.09,8.81"/></g><g class="cls-37"><path class="cls-5" d="M205.39,210.5c-.23,4.41-3.32,7.63-6.91,7.18s-6.31-4.4-6.09-8.81,3.32-7.63,6.91-7.18,6.31,4.4,6.09,8.81"/><path class="cls-38" d="M205.39,210.5c-.23,4.41-3.32,7.63-6.91,7.18s-6.31-4.4-6.09-8.81,3.32-7.63,6.91-7.18,6.31,4.4,6.09,8.81"/></g><g class="cls-39"><path class="cls-5" d="M183.79,242.7c-.23,4.4-3.32,7.61-6.9,7.16s-6.32-4.39-6.1-8.8,3.32-7.63,6.91-7.18,6.31,4.39,6.09,8.82"/><path class="cls-40" d="M183.79,242.7c-.23,4.4-3.32,7.61-6.9,7.16s-6.32-4.39-6.1-8.8,3.32-7.63,6.91-7.18,6.31,4.39,6.09,8.82"/></g><g class="cls-41"><path class="cls-5" d="M199.39,238.94c-.22,4.41-3.32,7.62-6.9,7.18s-6.32-4.4-6.1-8.82,3.32-7.62,6.91-7.17,6.31,4.39,6.09,8.81"/><path class="cls-42" d="M199.39,238.94c-.22,4.41-3.32,7.62-6.9,7.18s-6.32-4.4-6.1-8.82,3.32-7.62,6.91-7.17,6.31,4.39,6.09,8.81"/></g><g class="cls-43"><path class="cls-5" d="M214.44,234.47c-.22,4.41-3.31,7.63-6.9,7.18s-6.31-4.4-6.09-8.81,3.32-7.63,6.9-7.18,6.32,4.4,6.09,8.81"/><path class="cls-44" d="M214.44,234.47c-.22,4.41-3.31,7.63-6.9,7.18s-6.31-4.4-6.09-8.81,3.32-7.63,6.9-7.18,6.32,4.4,6.09,8.81"/></g><g class="cls-45"><path class="cls-5" d="M197.1,265.63c-.22,4.42-3.32,7.62-6.9,7.18s-6.32-4.4-6.09-8.81,3.31-7.62,6.9-7.18,6.31,4.4,6.09,8.81"/><path class="cls-46" d="M197.1,265.63c-.22,4.42-3.32,7.62-6.9,7.18s-6.32-4.4-6.09-8.81,3.31-7.62,6.9-7.18,6.31,4.4,6.09,8.81"/></g><g class="cls-47"><path class="cls-5" d="M212.7,261.88c-.22,4.42-3.31,7.62-6.9,7.18s-6.31-4.4-6.09-8.81,3.31-7.63,6.9-7.18,6.32,4.4,6.09,8.81"/><path class="cls-48" d="M212.7,261.88c-.22,4.42-3.31,7.62-6.9,7.18s-6.31-4.4-6.09-8.81,3.31-7.63,6.9-7.18,6.32,4.4,6.09,8.81"/></g><g class="cls-49"><path class="cls-5" d="M227.91,254.45c-.23,4.41-3.32,7.63-6.9,7.18s-6.32-4.39-6.1-8.81,3.32-7.63,6.91-7.17,6.31,4.39,6.09,8.8"/><path class="cls-50" d="M227.91,254.45c-.23,4.41-3.32,7.63-6.9,7.18s-6.32-4.39-6.1-8.81,3.32-7.63,6.91-7.17,6.31,4.39,6.09,8.8"/></g><g class="cls-51"><path class="cls-5" d="M245.14,246.24c-.23,4.41-3.32,7.63-6.91,7.18s-6.31-4.4-6.09-8.82,3.32-7.62,6.91-7.17,6.31,4.39,6.09,8.81"/><path class="cls-52" d="M245.14,246.24c-.23,4.41-3.32,7.63-6.91,7.18s-6.31-4.4-6.09-8.82,3.32-7.62,6.91-7.17,6.31,4.39,6.09,8.81"/></g><g class="cls-53"><path class="cls-5" d="M248.35,274.24c-.23,4.41-3.32,7.63-6.91,7.17s-6.31-4.38-6.09-8.8,3.32-7.63,6.91-7.18,6.31,4.4,6.09,8.81"/><path class="cls-54" d="M248.35,274.24c-.23,4.41-3.32,7.63-6.91,7.17s-6.31-4.38-6.09-8.8,3.32-7.63,6.91-7.18,6.31,4.4,6.09,8.81"/></g><g class="cls-55"><path class="cls-5" d="M254.05,299.86c-.22,4.42-3.31,7.64-6.9,7.18s-6.31-4.39-6.09-8.81,3.31-7.63,6.9-7.17,6.32,4.39,6.09,8.8"/><path class="cls-56" d="M254.05,299.86c-.22,4.42-3.31,7.64-6.9,7.18s-6.31-4.39-6.09-8.81,3.31-7.63,6.9-7.17,6.32,4.39,6.09,8.8"/></g><g class="cls-57"><path class="cls-5" d="M242.8,198.77c-.23,4.4-3.32,7.62-6.9,7.17s-6.32-4.39-6.1-8.81,3.32-7.63,6.9-7.18,6.32,4.4,6.1,8.82"/><path class="cls-58" d="M242.8,198.77c-.23,4.4-3.32,7.62-6.9,7.17s-6.32-4.39-6.1-8.81,3.32-7.63,6.9-7.18,6.32,4.4,6.1,8.82"/></g><g class="cls-59"><path class="cls-5" d="M214.61,288.59c-.22,4.41-3.31,7.63-6.89,7.17s-6.32-4.38-6.1-8.8,3.32-7.63,6.9-7.18,6.32,4.4,6.09,8.81"/><path class="cls-60" d="M214.61,288.59c-.22,4.41-3.31,7.63-6.89,7.17s-6.32-4.38-6.1-8.8,3.32-7.63,6.9-7.18,6.32,4.4,6.09,8.81"/></g><g class="cls-61"><path class="cls-5" d="M230.22,284.84c-.23,4.41-3.32,7.63-6.91,7.18s-6.31-4.4-6.09-8.81,3.32-7.63,6.91-7.18,6.32,4.4,6.09,8.81"/><path class="cls-62" d="M230.22,284.84c-.23,4.41-3.32,7.63-6.91,7.18s-6.31-4.4-6.09-8.81,3.32-7.63,6.91-7.18,6.32,4.4,6.09,8.81"/></g><g class="cls-63"><path class="cls-5" d="M223.21,206.65c-.22,4.4-3.32,7.62-6.9,7.16s-6.32-4.39-6.09-8.8,3.31-7.63,6.9-7.18,6.32,4.4,6.09,8.82"/><path class="cls-64" d="M223.21,206.65c-.22,4.4-3.32,7.62-6.9,7.16s-6.32-4.39-6.09-8.8,3.31-7.63,6.9-7.18,6.32,4.4,6.09,8.82"/></g><g class="cls-65"><path class="cls-5" d="M225.64,177.37c-.23,4.41-3.31,7.63-6.9,7.18s-6.32-4.4-6.09-8.82,3.31-7.62,6.9-7.17,6.31,4.4,6.09,8.81"/><path class="cls-66" d="M225.64,177.37c-.23,4.41-3.31,7.63-6.9,7.18s-6.32-4.4-6.09-8.82,3.31-7.62,6.9-7.17,6.31,4.4,6.09,8.81"/></g><g class="cls-67"><path class="cls-5" d="M219.15,153.19c-.22,4.42-3.31,7.64-6.9,7.19s-6.31-4.39-6.09-8.81,3.32-7.63,6.9-7.18,6.32,4.39,6.09,8.8"/><path class="cls-68" d="M219.15,153.19c-.22,4.42-3.31,7.64-6.9,7.19s-6.31-4.39-6.09-8.81,3.32-7.63,6.9-7.18,6.32,4.39,6.09,8.8"/></g><g class="cls-69"><path class="cls-5" d="M236.33,308.25c-.23,4.42-3.32,7.63-6.9,7.18s-6.32-4.4-6.1-8.8,3.32-7.63,6.91-7.19,6.31,4.39,6.09,8.81"/><path class="cls-70" d="M236.33,308.25c-.23,4.42-3.32,7.63-6.9,7.18s-6.32-4.4-6.1-8.8,3.32-7.63,6.91-7.19,6.31,4.39,6.09,8.81"/></g><g class="cls-71"><path class="cls-5" d="M245.37,326.7c-.22,4.42-3.32,7.63-6.9,7.17s-6.32-4.39-6.09-8.8,3.31-7.63,6.9-7.18,6.32,4.4,6.09,8.81"/><path class="cls-72" d="M245.37,326.7c-.22,4.42-3.32,7.63-6.9,7.17s-6.32-4.39-6.09-8.8,3.31-7.63,6.9-7.18,6.32,4.4,6.09,8.81"/></g><g class="cls-73"><path class="cls-5" d="M231.93,227.13c-.23,4.42-3.32,7.63-6.91,7.18s-6.31-4.39-6.09-8.81,3.32-7.62,6.91-7.17,6.31,4.39,6.09,8.8"/><path class="cls-74" d="M231.93,227.13c-.23,4.42-3.32,7.63-6.91,7.18s-6.31-4.39-6.09-8.81,3.32-7.62,6.91-7.17,6.31,4.39,6.09,8.8"/></g><path class="cls-75" d="M238.73,390.6c19.18-50.85-2.33-135.49-1.27-192.71.85-53.16,17.68-94.06,41.94-136.08-11.33,41.59-24.08,74.82-17.2,120.75,5.26,41.62,31.19,75.61,38.39,115.43,7.4,35.75-18.72,114.42-60.13,94.88l.1-2"/><path class="cls-3" d="M239.65,390.94c18.51-51.09,3.93-111.07,0-163.52-2.54-33.6.35-66.4,10.27-98.68,4.39-14.26,10.49-27.95,17-41.34,3.09-6.33,8.47-15.35,9.7-19.82-2.72,9.87-5.6,19.7-8.29,29.57-7.7,28.29-11.05,56.44-7.25,85.61,4.06,31.21,19.64,59.06,30.64,88.12,10.57,27.92,10.91,53.75,1.41,81.92-4,11.77-10.07,22.9-18.62,31.94-3.14,3.33-33.61,17.7-32.63,6.21.14-1.68-2.56-1.91-2.59-.25,0,.69,0,1.37-.07,2a1.31,1.31,0,0,0,.82,1.31c44.7,18.43,65.21-55.38,62.93-86.8-2.76-38-26.08-71.42-36.19-107.49-13.17-47,1.23-92.4,13.73-137.55.32-1.19-1.35-2.29-2-1.07-26.88,46.87-44.33,96.69-42,151.38,2.46,57.79,20.37,121.3,1.36,177.74a1,1,0,0,0,1.83.68"/><path class="cls-3" d="M176.94,141.5c-.32,6.4-5.27,11-11,10.28s-10.18-6.5-9.85-12.91,5.26-11,11-10.29,10.18,6.5,9.85,12.92"/><path class="cls-3" d="M176.39,141.44c-.59,5.77-4.39,10.16-10.43,9.79s-9.35-7-9.36-12.3a9.76,9.76,0,0,1,10.44-9.8c6.08.37,9.35,7,9.35,12.31,0,.71,1.1.81,1.1.1,0-6.54-3.7-12.24-10.35-13.51s-11,5.08-11.63,10.79c-.67,6.47,4.19,12.35,10.35,13.52,6.58,1.25,11-5.08,11.63-10.8a.55.55,0,0,0-1.1-.1"/><path class="cls-5" d="M175.67,143.66c-.23,4.53-3.73,7.8-7.81,7.29s-7.21-4.61-7-9.15,3.73-7.8,7.81-7.29,7.21,4.61,7,9.15"/><path class="cls-5" d="M175,143.59c-.41,3.89-2.93,6.88-7,6.63s-6.32-4.77-6.32-8.35a6.56,6.56,0,0,1,7-6.63c4.11.25,6.32,4.76,6.33,8.35,0,.93,1.45,1.07,1.45.14,0-4.84-2.74-9-7.64-9.94s-8.17,3.72-8.6,7.94a9.41,9.41,0,0,0,7.63,9.94c4.84.92,8.17-3.73,8.61-7.94a.73.73,0,0,0-1.45-.14"/><path class="cls-3" d="M175.36,144.83c-.18,3.39-2.79,5.84-5.85,5.45s-5.39-3.45-5.22-6.84,2.79-5.84,5.84-5.46,5.4,3.45,5.23,6.85"/><path class="cls-3" d="M210.57,134.81c-.33,6.41-5.26,11-11,10.29s-10.18-6.5-9.85-12.9,5.26-11,11-10.3,10.18,6.5,9.85,12.91"/><path class="cls-3" d="M210,134.76c-.59,5.76-4.38,10.16-10.43,9.79s-9.35-7-9.35-12.3a9.75,9.75,0,0,1,10.43-9.8c6.08.37,9.35,7,9.35,12.31,0,.7,1.1.81,1.1.1,0-6.55-3.7-12.25-10.35-13.51s-11,5.08-11.63,10.79c-.67,6.47,4.19,12.34,10.35,13.51,6.58,1.26,11-5.08,11.63-10.79a.55.55,0,0,0-1.1-.1"/><path class="cls-5" d="M209.3,137c-.23,4.54-3.72,7.8-7.81,7.29s-7.21-4.61-7-9.14,3.73-7.8,7.81-7.29,7.21,4.6,7,9.14"/><path class="cls-5" d="M208.58,136.91c-.4,3.89-2.93,6.87-7,6.63s-6.32-4.77-6.32-8.35a6.57,6.57,0,0,1,7-6.64c4.12.26,6.32,4.77,6.33,8.36,0,.93,1.45,1.07,1.45.13,0-4.84-2.73-9-7.64-9.93s-8.17,3.72-8.6,7.94a9.4,9.4,0,0,0,7.63,9.94c4.84.91,8.17-3.73,8.61-8a.73.73,0,0,0-1.45-.13"/><path class="cls-3" d="M209,138.15c-.17,3.39-2.79,5.83-5.85,5.45s-5.39-3.45-5.22-6.85,2.79-5.84,5.85-5.46,5.39,3.45,5.22,6.86"/><path class="cls-76" d="M172.76,181.25c5.55,1.21,15.25,5.84,22.75,5.3,10.52-.74,14.17-12.22,18.37-21.56.55-1.49.62-3,1.17-4.52-1.72,15.35-11.76,29.13-8.88,46.1-4.4-14.56-15.66-14.48-26-20.66-2.72-1.61-5.42-3.52-7.69-4.84"/><path class="cls-3" d="M172.62,181.64c8.24,2.32,21.32,9.47,29.52,3.25,3.84-2.91,6.16-6.6,8.33-10.86,1.46-2.87,2.64-5.9,3.94-8.85,1.23-2,1.12-2.64-.31-2.07a67.38,67.38,0,0,1-2.72,10.42c-1.94,6.24-4.16,12.32-5.52,18.72a46,46,0,0,0-.69,11.3c0,.1-.83-3.2-1.91-4.54a28.87,28.87,0,0,0-10.52-8c-6.83-3.32-13.44-6.81-20.17-10.33-.39-.2-.68.42-.35.66,11.52,8.37,28.18,10.92,33.38,25.47.25.7,1.27.3,1.19-.37-2.12-16.31,6.58-30.24,8.82-45.95.09-.62-.93-.87-1.09-.25-2.05,7.93-5.51,16.63-11.39,22.5-7.88,7.88-21.4.2-30.23-1.91-.5-.12-.8.63-.28.78"/><path class="cls-3" d="M195.61,160.06c1.12,4.25-.21,8.3-3,9.05s-5.92-2.08-7-6.33.21-8.3,3-9.05,5.92,2.08,7.05,6.33"/><path class="cls-3" d="M194.52,160.25c.55,2.51.82,6.08-1.75,7.64-3,1.79-5.49-3.35-6.09-5.31-.74-2.41-.69-6.15,1.75-7.63,2.95-1.79,5.49,3.34,6.09,5.3.41,1.34,2.59,1,2.17-.38-1.14-3.71-3.84-8-8.32-7.23s-4.59,7.05-3.87,10.33c.84,3.79,4.05,8,8.32,7.23,4.46-.76,4.6-7.06,3.87-10.33-.3-1.39-2.48-1-2.17.38"/><path class="cls-77" d="M253.47,348.86c-4.78-14.94-32.44-51.19-48.2-67.5-34.67-43.27-49.09-86.06-72.15-140.16-13.11-32.37-51.65-72-26.76-17.71,14.73,36.68,20.61,66.1,26.08,103.66,6.47,54.07,40.6,144.39,87.3,168.68,8.95,5.23,24.89,3.92,34.37-1l.1-2.08c.21-4.07,5.92-22.32-1.83-46.73"/><path class="cls-3" d="M254.33,348.45c-8.75-24.17-28.6-46.39-45.57-65.12-26.4-29.15-42.77-66.8-57.85-102.65-11.45-27.22-20.75-55.56-40.74-77.93-2.36-2.64-14.9-13-13.12-2,2.35,14.53,10.4,28.3,15.27,42.1,7.48,21.19,12.18,43.21,16,65.32,5.29,30.76,10.24,60.19,21,89.65,14.12,38.71,51.18,121.33,105.37,98.18a1.32,1.32,0,0,0,.74-1.06c.9-17.75,3-31.32-2.12-49.09-.33-1.13-2.13-.85-1.82.32a100.41,100.41,0,0,1,2,42.87c-2.95,17.39-33.49,6.12-42.58-.22-23.22-16.22-38.1-43.95-49.83-68.93-25.89-55.18-25.59-115-44.58-172-5.06-15.18-12.78-29.79-16.7-45.28-2.1-8.28,9.95,3.26,10.6,4a130.17,130.17,0,0,1,12.72,17.67c16.06,25.58,24.75,56.43,37.11,83.93,12,26.64,26.5,55.24,46.76,76.67,17.17,18.16,36.7,40.85,45.65,64.41.44,1.15,2.14.32,1.73-.82"/></svg>