<svg id="Layer_1" data-name="Layer 1" xmlns="http://www.w3.org/2000/svg" viewBox="0 0 400 400"><defs><style>.cls-1{fill:#ac1522;}.cls-1,.cls-2,.cls-3{stroke:#0a0a0a;stroke-miterlimit:10;stroke-width:2.95px;}.cls-2{fill:#00773f;}.cls-3{fill:#de6d75;}</style></defs><path class="cls-1" d="M95.09,70.74C18.63,114,17.6,228.29,17.67,243.92,18,308.74,45.3,357.72,63.55,383.69a30.76,30.76,0,0,0,28,13c44.82-4.2,123.81-19.51,193.44-79.38,32-27.51,80.53-69.24,77.41-119.71C357,108.84,193,15.27,95.09,70.74Z"/><path class="cls-2" d="M340.61,7.15a37.33,37.33,0,0,1-3.3,13.19,35.86,35.86,0,0,1-5.9,9.46,19.41,19.41,0,0,1-8.5,5.74c-3.37,1.13-6.85,2.12-10,3.55l-9.55,4.22-9.81,3.86C286.89,49.58,280.27,52,273.32,54A1.55,1.55,0,0,1,271.39,53a1.59,1.59,0,0,1,.24-1.36c4.27-5.82,8.87-11.18,13.44-16.57l7-7.87,7.27-7.5a104.76,104.76,0,0,0,6.8-8.17,19.49,19.49,0,0,1,8.33-6A35.78,35.78,0,0,1,325.4,3.25a37.35,37.35,0,0,1,13.52,1.47A2.34,2.34,0,0,1,340.61,7.15Z"/><path class="cls-2" d="M72.11,88.35c14.37-59.73,109.63-98.5,208.68-57.47,69.93,29,115.73,117.53,97.54,177.69-5.7,18.84-19.39,40.6-31,39.31-22.59-2.49-14.39-75.18-50.66-90-39.64-16.17-98.19,53.7-120.22,39.31-20.46-13.36,16.82-66.69-11.34-94.51C138.16,76.09,71.11,92.49,72.11,88.35Z"/><ellipse class="cls-3" cx="150.15" cy="259.73" rx="13.02" ry="6.05" transform="translate(-137.02 172.9) rotate(-43.14)"/><ellipse class="cls-3" cx="190.13" cy="294.39" rx="13.02" ry="6.05" transform="translate(-149.91 209.6) rotate(-43.14)"/><ellipse class="cls-3" cx="129.43" cy="361.57" rx="13.02" ry="6.05" transform="translate(-212.26 186.26) rotate(-43.14)"/><ellipse class="cls-3" cx="99.17" cy="167.56" rx="13.02" ry="6.05" transform="translate(-87.77 113.11) rotate(-43.14)"/><ellipse class="cls-3" cx="237.54" cy="310.21" rx="13.02" ry="6.05" transform="translate(-147.91 246.3) rotate(-43.14)"/><ellipse class="cls-3" cx="300.79" cy="269.67" rx="13.02" ry="6.05" transform="translate(-103.09 278.59) rotate(-43.14)"/><ellipse class="cls-3" cx="247.9" cy="234.14" rx="13.02" ry="6.05" transform="translate(-93.09 232.82) rotate(-43.14)"/><ellipse class="cls-3" cx="198.89" cy="208.64" rx="13.02" ry="6.05" transform="translate(-88.9 192.41) rotate(-43.14)"/><ellipse class="cls-3" cx="284.42" cy="187.43" rx="13.02" ry="6.05" transform="translate(-51.28 245.17) rotate(-43.14)"/><ellipse class="cls-3" cx="143.92" cy="136.69" rx="13.02" ry="6.05" transform="translate(-54.57 135.37) rotate(-43.14)"/><ellipse class="cls-3" cx="95.17" cy="112.6" rx="13.02" ry="6.05" transform="translate(-51.27 95.52) rotate(-43.14)"/><ellipse class="cls-3" cx="130.25" cy="310.65" rx="13.02" ry="6.05" transform="translate(-177.22 173.05) rotate(-43.14)"/><ellipse class="cls-3" cx="52.03" cy="167.56" rx="13.02" ry="6.05" transform="translate(-100.52 80.88) rotate(-43.14)"/><ellipse class="cls-3" cx="184.48" cy="351.64" rx="13.02" ry="6.05" transform="translate(-190.58 221.22) rotate(-43.14)"/><ellipse class="cls-3" cx="62.39" cy="208.64" rx="13.02" ry="6.05" transform="translate(-125.8 99.07) rotate(-43.14)"/><ellipse class="cls-3" cx="119.89" cy="214.27" rx="13.02" ry="6.05" transform="translate(-114.11 139.91) rotate(-43.14)"/><ellipse class="cls-3" cx="95.17" cy="269.67" rx="13.02" ry="6.05" transform="translate(-158.68 137.98) rotate(-43.14)"/><ellipse class="cls-3" cx="78.45" cy="331.18" rx="13.02" ry="6.05" transform="translate(-205.26 143.18) rotate(-43.14)"/><ellipse class="cls-3" cx="49" cy="269.67" rx="13.02" ry="6.05" transform="translate(-171.16 106.41) rotate(-43.14)"/></svg>