<svg id="Layer_1" data-name="Layer 1" xmlns="http://www.w3.org/2000/svg" viewBox="0 0 400 400"><defs><style>.cls-1{fill:#f9ab56;}.cls-2{fill:#231f20;}.cls-3{fill:#bcbf33;}</style></defs><path class="cls-1" d="M232.31,132c127.52-2,190.85,93.84,157.15,176.35C380,331.46,342.3,391.07,291,362.63Z"/><path class="cls-2" d="M232.25,132.68c69.22,2.23,139.88,29.48,160.91,101.72,16.47,56.51-30.3,160.51-101.64,126.76-1.83-.87-2.89,2.07-1.09,2.93,61.81,29.22,112.32-48,109.45-103.52-4.5-87-88.19-131-167.51-129.29-.88,0-1,1.37-.12,1.4Z"/><path class="cls-1" d="M201.85,114.39c36.88,14.68,100.84,57.9,120.82,88.61,18.44,26.69,27.66,57.39,20,89.44-4.59,18.68-42.4,87.88-98.62,75.87Z"/><path class="cls-2" d="M201.61,115c53.53,24,110.5,61.3,134.87,116.5,27,61.2-25.16,141-92.36,135.75a1,1,0,0,0-.19,2c54.62,12,99.39-49.2,102.86-97.9C352.17,196,262.14,137.69,202.1,113.73c-.85-.34-1.31.94-.49,1.31Z"/><path class="cls-1" d="M149.62,135.71C24.82,115.81-1,221.74,1.82,256.23c4.31,61.84,44.57,126.31,117.73,112.08Z"/><path class="cls-2" d="M149.69,135C78,124.38,17.49,158,2.45,231c-15,72.8,40.84,150,117.35,138.69,1.81-.27,1.31-3.09-.5-2.81C38.46,379.43-10.37,294.52,6.64,222.72c16.17-68.27,77.65-94.39,142.92-86.31.9.11,1-1.27.13-1.4Z"/><path class="cls-1" d="M192.56,118.42c-26.13-8-110.51,61.21-119.72,79.91-20,40-23.41,93.9,2.71,129.95,4.6,8,44.51,60.84,91,36.24Z"/><path class="cls-2" d="M192.65,117.47c-25-4.91-54.51,20.67-72.91,34.34-31.85,23.65-51.43,43.85-61,83-14.1,58,33,166.59,108.26,130.83a1.25,1.25,0,0,0-1.07-2.26c-35.09,14.14-64.88-4.09-86.25-31.58-28-36.08-25-83.83-9.66-124.24,8.7-22.93,32.54-39.44,51.22-53.95,17.42-13.53,47.15-38.21,71.19-34.26,1.22.2,1.36-1.65.18-1.89Z"/><path class="cls-1" d="M184.05,141.06c-36.65,44.84-45.37,81.15-47.9,118.47-3.07,38.72,6.39,101.78,54,115.13s79.88-22.69,90.67-60.07c20.74-71.91-82.5-201.23-82.5-205.26Z"/><path class="cls-2" d="M183.4,140.6c-40,50.43-58.55,111.81-43.76,175.47,10.17,43.8,59.35,84,103.73,53.35,47.7-32.93,46.8-85.76,28.5-135-11.14-30-27.86-58-45-84.94-8.09-12.73-21.89-26.62-27.1-40.83-.69-1.9-3.52-.54-2.83,1.34,8.16,22.26,29.6,44,41.72,64.23,22.71,37.92,46.19,83,43.08,128.41-2.36,34.67-30,65.91-63.35,73-43.8,9.25-69.66-31.48-78.06-67.28-14-59.65,8.13-120,44.36-166.8.64-.83-.68-1.74-1.31-.92Z"/><path class="cls-3" d="M159,102.25c-31.33.8-43.81-40.54-28.15-60.55,19.35-24.82,64.52-29.61,83.87-3.2,9.22,12,10.13,27.21,9.22,41.63-.92,5.59-4.61,12.8-1.85,18.41,1.85,4,20,28.34,24.38,29.7,22.48,7.1-38.13,34.46-45.57-12.9-3.68,8.81,1.83,23.22-10.13,28-13.84,5.6-18.24,2.73-14.33-17.88l-2.27-3.73c-8.39,23.35-36,34.22-36,11.81,0-10.4,26.74-20.61,35-23.82,21.21-8.8,34.1-36.82,13.84-55.23-28.58-23.22-57.14,1.59-45.16,30.42,2.76,8,11,15.21,16.58,16.81Z"/><path class="cls-2" d="M159,101.8C139,100.58,128.1,86.6,125,68c-3.38-20.29,11.79-34.42,28.57-42.1,17.17-7.84,37.65-5.24,53,5.13,13.93,9.43,16.61,26.68,17.06,41.83-.62-21.41-1.85,27.56-3.08,19.82,1.92,12.12,13.65,28.65,23.91,35.08,11,6.88-1.42,12.14-8,13.64-18.74,4.2-31.21-9.06-34.86-26.11-.12-.56-1-.74-1.19-.11-2.44,9.21,0,21.5-9.81,27.7-14,8.79-12.5-15.93-15.81-21.34a.6.6,0,0,0-1.09.05q-2.76,5.2-5.5,10.41c-7.32,12.93-37.9,15.49-23.55-7.1,5.82-5.49,14.8-8.8,22.08-11.91,10.09-4.32,17.53-8.37,24.57-17,13.12-16.17,5.25-35.62-9.89-46.16-35.27-24.56-60.48,34.53-23,52.57.73.36,1.16-.83.44-1.17-46.48-22.24,5.16-86,35.31-36.52,13.38,21.94-11.45,40.73-27.84,47.34-9.92,4-25.64,9.71-28.5,21.4-1.09,4.47,2.47,12.69,7.92,12.84,12.28.35,20.48-8.83,26.57-18.56,6.37-10.16,2.07,5.6,2.31,9.15.21,3,.12,6.68,3,8.68,4.24,3,15.49-.91,17.92-4.37,3-4.27,3.75-7.34,4.34-12.5,1.45-12.85,1.15-5.06,5.44,1.12,5.8,8.36,14.39,13.93,24.94,13.43,4.34-.19,30.92-6.11,19-14.49A69.12,69.12,0,0,1,233.83,114c-10.25-12.71-9.6-24.92-9-41,.72-19-6.45-35.46-22.14-46.08C181.51,12.49,139,21,127.77,45.21c-11.57,25,2.32,56.17,31.18,57.5.59,0,.67-.88.09-.91Z"/></svg>