<svg id="Layer_1" data-name="Layer 1" xmlns="http://www.w3.org/2000/svg" xmlns:xlink="http://www.w3.org/1999/xlink" viewBox="0 0 400 400"><defs><style>.cls-1,.cls-8{isolation:isolate;}.cls-2{clip-path:url(#clip-path);}.cls-3,.cls-7{fill:none;}.cls-4{fill:url(#linear-gradient);}.cls-5{clip-path:url(#clip-path-2);}.cls-6{fill:url(#linear-gradient-2);}.cls-7{stroke:#678138;stroke-width:7.46px;}.cls-8{opacity:0.91;}.cls-9{clip-path:url(#clip-path-3);}.cls-10{clip-path:url(#clip-path-4);}.cls-11{mask:url(#mask);}.cls-12{clip-path:url(#clip-path-6);}.cls-13{fill:url(#linear-gradient-3);}</style><clipPath id="clip-path"><polygon class="cls-3" points="131.09 186.44 166 405.38 252.09 389.44 217.18 170.48 131.09 186.44"/></clipPath><linearGradient id="linear-gradient" x1="2416.57" y1="3281.34" x2="2425.86" y2="3281.34" gradientTransform="matrix(4.86, 30.48, 28.27, -5.24, -104348.35, -56344.19)" gradientUnits="userSpaceOnUse"><stop offset="0" stop-color="#231f20"/><stop offset="1" stop-color="#fff"/></linearGradient><clipPath id="clip-path-2"><path class="cls-3" d="M204.28,180.28c-14.16,0-28.38,0-42.54,1.54,8.68,69.62,2,131.81.72,196.59,32.18,38.57,79-1,79-1-7.2-65.13-24.14-126.24-17.09-197.3-6.72.18-13.41.18-20.14.18"/></clipPath><linearGradient id="linear-gradient-2" x1="2235.36" y1="3175.02" x2="2244.64" y2="3175.02" gradientTransform="matrix(2.34, 11.36, 10.54, -2.53, -38528.5, -17211.56)" gradientUnits="userSpaceOnUse"><stop offset="0" stop-color="#81bb41"/><stop offset="1" stop-color="#a8ce38"/></linearGradient><clipPath id="clip-path-3"><rect class="cls-3" x="131.09" y="170.48" width="121.01" height="234.9"/></clipPath><clipPath id="clip-path-4"><path class="cls-3" d="M164.72,181.6c10.13,60.32,7.73,126.77-.28,195.76,9.14,10.77,20.53,15.19,32.06,15.31h1A56,56,0,0,0,218.74,388a270.14,270.14,0,0,1-7.89-60.79C208.37,297.93,197.71,271,197.47,241c-.8-20.21-.37-40.51.14-60.75-11,0-21.93.26-32.89,1.33"/></clipPath><mask id="mask" x="94.71" y="148.71" width="193.76" height="278.45" maskUnits="userSpaceOnUse"><rect x="131.09" y="170.48" width="121.01" height="234.9"/><g class="cls-1"><g class="cls-2"><polygon class="cls-4" points="248.62 148.71 288.47 398.64 134.56 427.16 94.71 177.22 248.62 148.71"/></g></g></mask><clipPath id="clip-path-6"><polygon class="cls-3" points="131.09 186.44 166 405.38 252.09 389.44 217.18 170.48 131.09 186.44"/></clipPath><linearGradient id="linear-gradient-3" x1="2416.57" y1="3281.34" x2="2425.85" y2="3281.34" gradientTransform="matrix(4.86, 30.48, 28.27, -5.24, -104348.36, -56344.21)" gradientUnits="userSpaceOnUse"><stop offset="0" stop-color="#a8ce38"/><stop offset="1" stop-color="#6a8438"/></linearGradient></defs><g class="cls-5"><polygon class="cls-6" points="237.76 161.89 288.04 405.83 165.49 435.19 115.2 191.25 237.76 161.89"/></g><path class="cls-7" d="M224.42,180.12c-20.81.51-41.79-.62-62.68,1.71,8.68,69.61,2,131.79.71,196.56,32.2,38.59,79.06-1,79.06-1C234.3,312.27,217.37,251.16,224.42,180.12Z"/><g class="cls-8"><g class="cls-9"><g class="cls-10"><g class="cls-11"><g class="cls-9"><g class="cls-12"><polygon class="cls-13" points="248.62 148.71 288.47 398.64 134.56 427.16 94.71 177.22 248.62 148.71"/></g></g></g></g></g></g></svg>