<svg id="Layer_1" data-name="Layer 1" xmlns="http://www.w3.org/2000/svg" viewBox="0 0 400 400"><defs><style>.cls-1{fill:#87ab3e;}.cls-2,.cls-3{fill:none;stroke:#678138;stroke-linecap:round;stroke-linejoin:round;}.cls-2{stroke-width:9.54px;}.cls-3{stroke-width:6.36px;}.cls-4{fill:#dae153;}</style></defs><path class="cls-1" d="M173.75,349.41c-.9,6.7-1.72,13.4-2.42,20.16,13.35.16,27.3,4.63,34,15.76,13,7.6,12.61,9,26.67,10.48,10.55-33.27-24.81-46.46-58.21-46.4"/><path class="cls-2" d="M173.75,349.41c-.9,6.7-1.72,13.4-2.42,20.16,13.35.16,27.3,4.63,34,15.76,13,7.6,12.61,9,26.67,10.48C242.51,362.54,207.15,349.35,173.75,349.41Z"/><path class="cls-1" d="M223.35,395.13s10.27-8.65,11-15.86c23.2-231.73,38.84-302.22,30.49-340.37C262.3,27.31,238,12.06,238,12.06l-34.16,372.1Z"/><path class="cls-3" d="M223.35,395.13s10.27-8.65,11-15.86c23.2-231.73,38.84-302.22,30.49-340.37C262.3,27.31,238,12.06,238,12.06l-34.16,372.1Z"/><path class="cls-4" d="M224.58,32.8a68.87,68.87,0,0,0-23.18-4.57c-1.92,18.39,0,38.16.95,53.55,1,16.08-14.08,23.81-27.7,22.92l-.57,8.61c4.24,18.76,15.28,62.51,19.56,73.56,4.75,12.31-3.36,24.68-12.82,31.5-24.4,17.63,2.24,62.43-.89,86.67-2.68,20.78-6,41.09-8.26,61.7,40.78,1.56,41.92,28.39,41.92,28.39l22-336.71s14.64-15.86-11-25.62"/><path class="cls-1" d="M259.17,30.65c-6.17-10.89-16.72-17.58-28-21.76A196.4,196.4,0,0,0,206.6,5.34a89.54,89.54,0,0,0-5.35,24.32c7.21-.07,14.74.84,21,3.17,7.56,2.8,12.78,6.94,14.71,10.35s2.76,6.31-1.48,13.81l22,12.62c7.48-13.16,7.76-28.06,1.6-39"/><path class="cls-2" d="M259.17,30.65c-6.17-10.89-16.72-17.58-28-21.76A196.4,196.4,0,0,0,206.6,5.34a89.54,89.54,0,0,0-5.35,24.32c7.21-.07,14.74.84,21,3.17,7.56,2.8,12.78,6.94,14.71,10.35s2.76,6.31-1.48,13.81l22,12.62C265.05,56.45,265.33,41.55,259.17,30.65Z"/><polygon class="cls-4" points="234.33 59.64 203.84 385.38 223.35 395.13 256.29 68.18 234.33 59.64"/><polygon class="cls-2" points="234.33 59.64 203.84 385.38 223.35 395.13 256.29 68.18 234.33 59.64"/></svg>