<svg id="Layer_1" data-name="Layer 1" xmlns="http://www.w3.org/2000/svg" viewBox="0 0 352.77 402.77"><defs><style>.cls-1{fill:#dfdfdf;}.cls-1,.cls-2,.cls-4{stroke:#231f20;stroke-miterlimit:10;}.cls-1,.cls-2,.cls-3,.cls-4{stroke-width:1.49px;}.cls-2{fill:#f3959f;}.cls-3,.cls-4{fill:none;}.cls-3{stroke:#000;stroke-linecap:round;stroke-linejoin:round;}</style></defs><polygon class="cls-1" points="169.74 118.29 169.74 165.44 101.15 194.37 101.15 135.97 169.74 118.29"/><polygon class="cls-1" points="101.15 135.97 101.15 194.37 23.35 166.81 23.35 115.51 101.15 135.97"/><path class="cls-2" d="M149.4,46.71l-17.87-20v-.42l-69.28,8V22.08l69.28-7.38V13.19l-3.93-2.27-68.95,7.8v16.2L23.35,69.5v46L101.15,136l68.59-17.68V69.5ZM29.49,69.5l3-3.08h0L60.17,38.16,98.4,82.68Z"/><polygon class="cls-3" points="98.4 82.68 29.49 69.5 32.48 66.42 32.51 66.42 60.17 38.16 98.4 82.68"/><polygon class="cls-1" points="131.53 14.7 131.53 26.25 62.25 34.29 62.25 22.08 131.53 14.7"/><polyline class="cls-2" points="60.17 38.16 99.93 83.48 101.15 135.97"/><polygon class="cls-1" points="131.53 14.7 131.53 26.25 62.25 34.29 62.25 22.08 131.53 14.7"/><line class="cls-4" x1="78.71" y1="59.3" x2="149.41" y2="46.73"/><line class="cls-4" x1="99.5" y1="82.99" x2="169.73" y2="69.51"/><polygon class="cls-1" points="98.4 82.68 29.49 69.5 32.48 66.42 32.51 66.42 60.17 38.16 62.45 40.82 98.4 82.68"/><line class="cls-4" x1="72.92" y1="53.01" x2="29.49" y2="69.5"/><polygon class="cls-1" points="329.42 118.29 329.42 165.44 260.84 194.37 260.84 135.97 329.42 118.29"/><polygon class="cls-1" points="260.84 135.97 260.84 194.37 183.03 166.81 183.03 115.51 260.84 135.97"/><path class="cls-2" d="M309.08,46.71l-17.87-20v-.42l-69.28,8V22.08l69.28-7.38V13.19l-3.93-2.27-68.95,7.8v16.2L183,69.5v46L260.84,136l68.58-17.68V69.5ZM189.17,69.5l3-3.08h0l27.66-28.26,38.24,44.52Z"/><polygon class="cls-3" points="258.09 82.68 189.17 69.5 192.16 66.42 192.19 66.42 219.85 38.16 258.09 82.68"/><polygon class="cls-1" points="291.21 14.7 291.21 26.25 221.93 34.29 221.93 22.08 291.21 14.7"/><polyline class="cls-2" points="219.85 38.16 259.61 83.48 260.84 135.97"/><polygon class="cls-1" points="291.21 14.7 291.21 26.25 221.93 34.29 221.93 22.08 291.21 14.7"/><line class="cls-4" x1="238.4" y1="59.3" x2="309.09" y2="46.73"/><line class="cls-4" x1="259.19" y1="82.99" x2="329.41" y2="69.51"/><polygon class="cls-1" points="258.09 82.68 189.17 69.5 192.16 66.42 192.19 66.42 219.85 38.16 222.13 40.82 258.09 82.68"/><line class="cls-4" x1="232.6" y1="53.01" x2="189.17" y2="69.5"/><polygon class="cls-1" points="169.74 310.82 169.74 357.97 101.15 386.9 101.15 328.5 169.74 310.82"/><polygon class="cls-1" points="101.15 328.5 101.15 386.9 23.35 359.33 23.35 308.04 101.15 328.5"/><path class="cls-2" d="M149.4,239.24l-17.87-20v-.42l-69.28,8V214.61l69.28-7.38v-1.51l-3.93-2.27-68.95,7.8v16.2L23.35,262v46l77.8,20.46,68.59-17.68V262ZM29.49,262l3-3.08h0l27.66-28.26L98.4,275.21Z"/><polygon class="cls-3" points="98.4 275.21 29.49 262.03 32.48 258.95 32.51 258.95 60.17 230.69 98.4 275.21"/><polygon class="cls-1" points="131.53 207.23 131.53 218.78 62.25 226.82 62.25 214.61 131.53 207.23"/><polyline class="cls-2" points="60.17 230.69 99.93 276.01 101.15 328.5"/><polygon class="cls-1" points="131.53 207.23 131.53 218.78 62.25 226.82 62.25 214.61 131.53 207.23"/><line class="cls-4" x1="78.71" y1="251.83" x2="149.41" y2="239.26"/><line class="cls-4" x1="99.5" y1="275.52" x2="169.73" y2="262.04"/><polygon class="cls-1" points="98.4 275.21 29.49 262.03 32.48 258.95 32.51 258.95 60.17 230.69 62.45 233.35 98.4 275.21"/><line class="cls-4" x1="72.92" y1="245.54" x2="29.49" y2="262.03"/><polygon class="cls-1" points="329.42 310.82 329.42 357.97 260.84 386.9 260.84 328.5 329.42 310.82"/><polygon class="cls-1" points="260.84 328.5 260.84 386.9 183.03 359.33 183.03 308.04 260.84 328.5"/><path class="cls-2" d="M309.08,239.24l-17.87-20v-.42l-69.28,8V214.61l69.28-7.38v-1.51l-3.93-2.27-68.95,7.8v16.2L183,262v46l77.81,20.46,68.58-17.68V262ZM189.17,262l3-3.08h0l27.66-28.26,38.24,44.52Z"/><polygon class="cls-3" points="258.09 275.21 189.17 262.03 192.16 258.95 192.19 258.95 219.85 230.69 258.09 275.21"/><polygon class="cls-1" points="291.21 207.23 291.21 218.78 221.93 226.82 221.93 214.61 291.21 207.23"/><polyline class="cls-2" points="219.85 230.69 259.61 276.01 260.84 328.5"/><polygon class="cls-1" points="291.21 207.23 291.21 218.78 221.93 226.82 221.93 214.61 291.21 207.23"/><line class="cls-4" x1="238.4" y1="251.83" x2="309.09" y2="239.26"/><line class="cls-4" x1="259.19" y1="275.52" x2="329.41" y2="262.04"/><polygon class="cls-1" points="258.09 275.21 189.17 262.03 192.16 258.95 192.19 258.95 219.85 230.69 222.13 233.35 258.09 275.21"/><line class="cls-4" x1="232.6" y1="245.54" x2="189.17" y2="262.03"/></svg>