<svg id="Layer_1" data-name="Layer 1" xmlns="http://www.w3.org/2000/svg" viewBox="0 0 352.77 402.77"><defs><style>.cls-1{fill:#cae9f2;stroke:#231f20;stroke-miterlimit:10;stroke-width:1.72px;}.cls-2{fill:#231f20;}</style></defs><path class="cls-1" d="M139.68,159.36a5.75,5.75,0,0,1-4.77-5.66c0-.17,0-.35,0-.54a6,6,0,0,0-1.45-4.44c-3.12-3.53-11.34-9.37-31.23-8.58,0,0-33.53-1.86-49.18-8.39S12,128,10.86,134.28c3.91,2.38,6.56,6.42,8.13,10.72a61.32,61.32,0,0,1,2.68,13.41q5.67,46,11.35,92c.16,1.23.3,2.46.46,3.69A21.46,21.46,0,0,0,44,270.1c5.76,3.3,12.57,4.16,19.19,4.48,11.75.56,41.57.49,50.48-8.7,1.76-1.81,2-9.88,2-9.88a4.48,4.48,0,0,0,.41-.2l0,0c.51-.25,1.42-.71,2.63-1.38l.06,0c9-5,34.9-21.16,42.49-46C168.56,184.59,169.11,164.56,139.68,159.36Zm-4.33,70.13c-9.68,6.95-13.66-4.47-13.66-4.47l8.95-46.45c7-10.68,22.1-5.21,23.35,7.21S145,222.53,135.35,229.49Z"/><path class="cls-2" d="M113.3,145.54a21.1,21.1,0,0,1,7.94.61,9.28,9.28,0,0,1,3.64,1.83,2.67,2.67,0,0,1,1,2,1.51,1.51,0,0,1-.2.63,1.42,1.42,0,0,1-.52.45,10,10,0,0,1-.9.49c-1.22.59-2.43,1.11-3.7,1.59s-2.61.66-3.92,1-2.61.54-3.91.81-2.64.43-4,.65a84.84,84.84,0,0,1-16,.7,96.48,96.48,0,0,1-15.88-2.2,129.48,129.48,0,0,1-15.36-4.53c-5-1.81-9.91-4-14.71-6.21a127.29,127.29,0,0,0-14.67-6,47.33,47.33,0,0,0-15.57-2.55,45.3,45.3,0,0,1,15.81,1.74,125.57,125.57,0,0,1,15,5.56,160.07,160.07,0,0,0,29.9,10.27,94,94,0,0,0,31.36,1.87c1.3-.17,2.61-.31,3.91-.52s2.6-.43,3.9-.69,2.61-.55,3.82-.85,2.47-.92,3.66-1.44a8.58,8.58,0,0,0,.86-.41,1.37,1.37,0,0,0,.26-.16.66.66,0,0,0,.12-.3,2.08,2.08,0,0,0-.72-1.47,8.71,8.71,0,0,0-3.33-1.86,19.07,19.07,0,0,0-3.84-.85A21.81,21.81,0,0,0,113.3,145.54Z"/><path class="cls-2" d="M125.69,160.06a21.51,21.51,0,0,1,.1,3.19c0,1.05-.11,2.08-.21,3.1s-.23,2.06-.41,3.08a20,20,0,0,1-.72,3.12,12.19,12.19,0,0,1-.62-3.17,18,18,0,0,1,0-3.2,17.79,17.79,0,0,1,.59-3.13A12.49,12.49,0,0,1,125.69,160.06Z"/><path class="cls-2" d="M116.07,231.13c-.5,1.5-.95,2.93-1.29,4.39a32.15,32.15,0,0,0-.81,8.82c.07,1.5.25,3,.47,4.56a12.31,12.31,0,0,1-1.8-4.38,15.91,15.91,0,0,1,.87-9.41A12.35,12.35,0,0,1,116.07,231.13Z"/><path class="cls-2" d="M39.89,167.43a162.69,162.69,0,0,0,28.73,4.47,162.57,162.57,0,0,0,29.07-1,93.81,93.81,0,0,1-29.17,2.66A94,94,0,0,1,39.89,167.43Z"/><path class="cls-2" d="M41.49,191c9.4,1.35,18.68,3.2,28.05,4a92.71,92.71,0,0,0,28.09-1.34,53.76,53.76,0,0,1-13.93,3.09,79.53,79.53,0,0,1-14.31,0A147.46,147.46,0,0,1,41.49,191Z"/><path class="cls-2" d="M42.46,215.28A113.55,113.55,0,0,0,99.89,218a76.64,76.64,0,0,1-29,4.05A76.81,76.81,0,0,1,42.46,215.28Z"/><path class="cls-2" d="M43.47,239.3a228.11,228.11,0,0,0,26.73,3.07A228,228,0,0,0,97.1,242a102.67,102.67,0,0,1-27,2A103.35,103.35,0,0,1,43.47,239.3Z"/><path class="cls-2" d="M32.9,250.23a38,38,0,0,0,9.23,6.4c.84.4,1.66.85,2.52,1.23L47.23,259a55.92,55.92,0,0,0,5.33,1.7c1.79.54,3.63.86,5.46,1.23.91.22,1.84.29,2.76.42l2.78.34c1.86.08,3.72.28,5.59.29s3.73,0,5.59-.12,3.73-.26,5.6-.44l5.6-.67c3.74-.46,7.47-1,11.18-1.58s7.42-1.29,11.08-2.17c1.83-.41,3.65-.9,5.44-1.45a25.51,25.51,0,0,0,5.2-2.17,22.08,22.08,0,0,1-5,2.6c-1.77.68-3.57,1.3-5.39,1.84-3.64,1.05-7.33,1.92-11,2.65s-7.46,1.33-11.2,1.9l-5.63.72c-1.89.2-3.8.33-5.7.49s-3.81.05-5.72.08-3.81-.22-5.72-.35a60.27,60.27,0,0,1-11.2-2.34,49.43,49.43,0,0,1-10.47-4.56A35.2,35.2,0,0,1,32.9,250.23Z"/><path class="cls-1" d="M316.13,159.36a5.73,5.73,0,0,1-4.77-5.66c0-.17,0-.35,0-.54a6,6,0,0,0-1.45-4.44c-3.12-3.53-11.34-9.37-31.23-8.58,0,0-33.53-1.86-49.18-8.39s-41.1-3.8-42.22,2.53c3.9,2.38,6.55,6.42,8.12,10.72s2.13,8.87,2.69,13.41q5.65,46,11.35,92l.45,3.69a21.47,21.47,0,0,0,10.48,16c5.76,3.3,12.56,4.16,19.18,4.48,11.76.56,41.57.49,50.49-8.7,1.75-1.81,2.05-9.88,2.05-9.88l.41-.2.05,0c.51-.25,1.41-.71,2.62-1.38l.07,0c9-5,34.89-21.16,42.49-46C345,184.59,345.55,164.56,316.13,159.36Zm-4.33,70.13c-9.68,6.95-13.66-4.47-13.66-4.47l8.94-46.45c7-10.68,22.1-5.21,23.35,7.21S321.49,222.53,311.8,229.49Z"/><path class="cls-2" d="M289.75,145.54a21.12,21.12,0,0,1,7.94.61,9.41,9.41,0,0,1,3.64,1.83,2.7,2.7,0,0,1,1,2,1.21,1.21,0,0,1-.71,1.08,10.11,10.11,0,0,1-.91.49c-1.21.59-2.43,1.11-3.7,1.59s-2.6.66-3.91,1-2.61.54-3.92.81-2.64.43-3.95.65a84.88,84.88,0,0,1-16,.7,96.6,96.6,0,0,1-15.89-2.2A129.32,129.32,0,0,1,238,149.56c-5-1.81-9.92-4-14.71-6.21a127.44,127.44,0,0,0-14.68-6A47.24,47.24,0,0,0,193,134.84a45.27,45.27,0,0,1,15.81,1.74,124.3,124.3,0,0,1,15,5.56,160.16,160.16,0,0,0,29.91,10.27,93.9,93.9,0,0,0,31.35,1.87c1.31-.17,2.62-.31,3.92-.52s2.6-.43,3.89-.69,2.62-.55,3.83-.85,2.46-.92,3.66-1.44c.29-.13.59-.26.86-.41a1.93,1.93,0,0,0,.26-.16.77.77,0,0,0,.11-.3,2.07,2.07,0,0,0-.71-1.47,8.86,8.86,0,0,0-3.33-1.86,19.22,19.22,0,0,0-3.84-.85A21.86,21.86,0,0,0,289.75,145.54Z"/><path class="cls-2" d="M302.14,160.06a20.2,20.2,0,0,1,.09,3.19c0,1.05-.1,2.08-.2,3.1s-.23,2.06-.41,3.08a21.23,21.23,0,0,1-.72,3.12,12.19,12.19,0,0,1-.62-3.17,17.1,17.1,0,0,1,0-3.2,16.93,16.93,0,0,1,.59-3.13A12.09,12.09,0,0,1,302.14,160.06Z"/><path class="cls-2" d="M292.52,231.13c-.51,1.5-.95,2.93-1.3,4.39a32.15,32.15,0,0,0-.81,8.82c.08,1.5.25,3,.47,4.56a12.31,12.31,0,0,1-1.8-4.38,16.25,16.25,0,0,1-.28-4.77,16,16,0,0,1,1.15-4.64A12.22,12.22,0,0,1,292.52,231.13Z"/><path class="cls-2" d="M216.34,167.43A155.69,155.69,0,0,0,274.13,171a96.84,96.84,0,0,1-57.79-3.52Z"/><path class="cls-2" d="M217.93,191c9.4,1.35,18.68,3.2,28.06,4a92.64,92.64,0,0,0,28.08-1.34,53.78,53.78,0,0,1-13.92,3.09,79.64,79.64,0,0,1-14.32,0A147.62,147.62,0,0,1,217.93,191Z"/><path class="cls-2" d="M218.91,215.28A113.55,113.55,0,0,0,276.34,218a78.93,78.93,0,0,1-57.43-2.73Z"/><path class="cls-2" d="M219.92,239.3a228.18,228.18,0,0,0,26.72,3.07,227.93,227.93,0,0,0,26.9-.33,107.23,107.23,0,0,1-53.62-2.74Z"/><path class="cls-2" d="M209.35,250.23a37.78,37.78,0,0,0,9.22,6.4c.85.4,1.67.85,2.52,1.23l2.59,1.09a55,55,0,0,0,5.33,1.7c1.79.54,3.63.86,5.45,1.23.91.22,1.85.29,2.77.42l2.77.34c1.87.08,3.73.28,5.59.29s3.74,0,5.6-.12,3.72-.26,5.59-.44l5.61-.67c3.74-.46,7.46-1,11.18-1.58s7.41-1.29,11.07-2.17c1.84-.41,3.65-.9,5.45-1.45a25.42,25.42,0,0,0,5.19-2.17,21.67,21.67,0,0,1-5,2.6c-1.77.68-3.56,1.3-5.38,1.84-3.64,1.05-7.34,1.92-11.05,2.65s-7.46,1.33-11.21,1.9L257,264c-1.88.2-3.79.33-5.69.49s-3.82.05-5.72.08-3.82-.22-5.72-.35a60.1,60.1,0,0,1-11.2-2.34,49,49,0,0,1-10.47-4.56A35,35,0,0,1,209.35,250.23Z"/></svg>