<svg id="Layer_1" data-name="Layer 1" xmlns="http://www.w3.org/2000/svg" viewBox="0 0 352.77 402.77"><defs><style>.cls-1{fill:#cae9f2;stroke-width:1.72px;}.cls-1,.cls-3,.cls-4,.cls-6{stroke:#231f20;stroke-miterlimit:10;}.cls-2{fill:#231f20;}.cls-3{fill:#dfdfdf;}.cls-3,.cls-4,.cls-5,.cls-6{stroke-width:1.58px;}.cls-4{fill:#f3959f;}.cls-5,.cls-6{fill:none;}.cls-5{stroke:#000;stroke-linecap:round;stroke-linejoin:round;}</style></defs><path class="cls-1" d="M139.68,265.33a5.75,5.75,0,0,1-4.77-5.66c0-.17,0-.35,0-.54a6,6,0,0,0-1.45-4.43c-3.12-3.54-11.34-9.38-31.23-8.59,0,0-33.53-1.86-49.18-8.39s-41.1-3.8-42.22,2.53c3.91,2.38,6.56,6.42,8.13,10.72a61.32,61.32,0,0,1,2.68,13.41q5.67,46,11.35,92c.16,1.23.3,2.46.46,3.69a21.46,21.46,0,0,0,10.47,16c5.76,3.3,12.57,4.16,19.19,4.48,11.75.56,41.57.49,50.48-8.7,1.76-1.81,2-9.88,2-9.88a4.48,4.48,0,0,0,.41-.2l0,0c.51-.25,1.42-.71,2.63-1.38l.06-.05c9-5,34.9-21.16,42.49-46C168.56,290.56,169.11,270.53,139.68,265.33Zm-4.33,70.13c-9.68,7-13.66-4.47-13.66-4.47l8.95-46.45c7-10.68,22.1-5.21,23.35,7.21S145,328.5,135.35,335.46Z"/><path class="cls-2" d="M113.3,251.51a21.31,21.31,0,0,1,7.94.61,9.28,9.28,0,0,1,3.64,1.83,2.71,2.71,0,0,1,1,2,1.6,1.6,0,0,1-.2.64,1.47,1.47,0,0,1-.52.44,10,10,0,0,1-.9.49c-1.22.59-2.43,1.11-3.7,1.59s-2.61.66-3.92,1-2.61.54-3.91.81-2.64.43-4,.65a84.84,84.84,0,0,1-16,.7,96.48,96.48,0,0,1-15.88-2.2,129.48,129.48,0,0,1-15.36-4.53c-5-1.81-9.91-4-14.71-6.21a127.29,127.29,0,0,0-14.67-6,47.33,47.33,0,0,0-15.57-2.55,45.3,45.3,0,0,1,15.81,1.74,127.33,127.33,0,0,1,15,5.56,160.07,160.07,0,0,0,29.9,10.27,94,94,0,0,0,31.36,1.87c1.3-.17,2.61-.31,3.91-.52s2.6-.43,3.9-.69,2.61-.55,3.82-.85,2.47-.92,3.66-1.44a8.58,8.58,0,0,0,.86-.41,1.37,1.37,0,0,0,.26-.16.66.66,0,0,0,.12-.3,2.08,2.08,0,0,0-.72-1.47,8.74,8.74,0,0,0-3.32-1.86,19.31,19.31,0,0,0-3.85-.85A21.81,21.81,0,0,0,113.3,251.51Z"/><path class="cls-2" d="M125.69,266a21.51,21.51,0,0,1,.1,3.19c0,1-.11,2.08-.21,3.11s-.23,2.05-.41,3.08a20.17,20.17,0,0,1-.72,3.11,12.19,12.19,0,0,1-.62-3.17,18,18,0,0,1,0-3.2,17.79,17.79,0,0,1,.59-3.13A12.49,12.49,0,0,1,125.69,266Z"/><path class="cls-2" d="M116.07,337.1c-.5,1.5-.95,2.94-1.29,4.39a32.25,32.25,0,0,0-.81,8.82c.07,1.5.25,3,.46,4.56a12.47,12.47,0,0,1-1.79-4.38,15.91,15.91,0,0,1,.87-9.41A12.35,12.35,0,0,1,116.07,337.1Z"/><path class="cls-2" d="M39.89,273.4a162.69,162.69,0,0,0,28.73,4.47,162.57,162.57,0,0,0,29.07-.95,93.81,93.81,0,0,1-29.17,2.66A94,94,0,0,1,39.89,273.4Z"/><path class="cls-2" d="M41.49,297c9.4,1.35,18.68,3.2,28.05,4a93,93,0,0,0,28.09-1.33,54.16,54.16,0,0,1-13.93,3.08,79.53,79.53,0,0,1-14.31,0A147.46,147.46,0,0,1,41.49,297Z"/><path class="cls-2" d="M42.46,321.25A113.55,113.55,0,0,0,99.89,324a76.64,76.64,0,0,1-29,4A76.81,76.81,0,0,1,42.46,321.25Z"/><path class="cls-2" d="M43.47,345.27a228.11,228.11,0,0,0,26.73,3.07A228,228,0,0,0,97.1,348a103.1,103.1,0,0,1-27,2.05A103.79,103.79,0,0,1,43.47,345.27Z"/><path class="cls-2" d="M32.9,356.2a38,38,0,0,0,9.23,6.4c.84.4,1.66.85,2.52,1.23l2.58,1.09a53.21,53.21,0,0,0,5.33,1.7c1.79.54,3.63.86,5.46,1.23.91.22,1.84.29,2.76.42l2.78.35c1.86.07,3.72.27,5.59.28s3.73,0,5.59-.12,3.73-.26,5.6-.44l5.6-.67c3.74-.46,7.47-1,11.18-1.58s7.42-1.29,11.08-2.17c1.83-.41,3.65-.9,5.44-1.45a25.51,25.51,0,0,0,5.2-2.17,22.08,22.08,0,0,1-5,2.6c-1.77.68-3.57,1.3-5.39,1.84-3.64,1.05-7.33,1.92-11,2.65s-7.46,1.33-11.2,1.9l-5.63.72c-1.89.2-3.8.33-5.7.49s-3.81.05-5.72.08-3.81-.22-5.72-.35a60.27,60.27,0,0,1-11.2-2.34,49.43,49.43,0,0,1-10.47-4.56A35.2,35.2,0,0,1,32.9,356.2Z"/><path class="cls-1" d="M316.13,265.33a5.73,5.73,0,0,1-4.77-5.66c0-.17,0-.35,0-.54a6,6,0,0,0-1.45-4.43c-3.12-3.54-11.34-9.38-31.23-8.59,0,0-33.53-1.86-49.18-8.39s-41.1-3.8-42.22,2.53c3.9,2.38,6.55,6.42,8.12,10.72s2.13,8.87,2.69,13.41q5.65,46,11.35,92l.45,3.69a21.47,21.47,0,0,0,10.48,16c5.76,3.3,12.56,4.16,19.18,4.48,11.76.56,41.57.49,50.49-8.7,1.75-1.81,2.05-9.88,2.05-9.88l.41-.2.05,0c.51-.25,1.41-.71,2.62-1.38l.07-.05c9-5,34.89-21.16,42.49-46C345,290.56,345.55,270.53,316.13,265.33Zm-4.33,70.13c-9.68,7-13.66-4.47-13.66-4.47l8.94-46.45c7-10.68,22.1-5.21,23.35,7.21S321.49,328.5,311.8,335.46Z"/><path class="cls-2" d="M289.75,251.51a21.32,21.32,0,0,1,7.94.61,9.41,9.41,0,0,1,3.64,1.83,2.7,2.7,0,0,1,1,2,1.58,1.58,0,0,1-.19.64,1.56,1.56,0,0,1-.52.44c-.31.19-.61.34-.91.49-1.21.59-2.43,1.11-3.7,1.59s-2.6.66-3.91,1-2.61.54-3.92.81-2.64.43-3.95.65a85,85,0,0,1-16,.7,96.63,96.63,0,0,1-15.88-2.2A129.32,129.32,0,0,1,238,255.53c-5-1.81-9.92-4-14.71-6.21a127.44,127.44,0,0,0-14.68-6A47.24,47.24,0,0,0,193,240.81a45.27,45.27,0,0,1,15.81,1.74,126,126,0,0,1,15,5.56,160.16,160.16,0,0,0,29.91,10.27,93.9,93.9,0,0,0,31.35,1.87c1.31-.17,2.62-.31,3.92-.52s2.6-.43,3.89-.69,2.62-.55,3.83-.85,2.46-.92,3.66-1.44c.29-.13.59-.26.86-.41a1.93,1.93,0,0,0,.26-.16.77.77,0,0,0,.11-.3,2.07,2.07,0,0,0-.71-1.47,8.86,8.86,0,0,0-3.33-1.86,19.22,19.22,0,0,0-3.84-.85A21.86,21.86,0,0,0,289.75,251.51Z"/><path class="cls-2" d="M302.14,266a21.48,21.48,0,0,1,.09,3.19c0,1-.1,2.08-.2,3.11s-.23,2.05-.41,3.08a21.41,21.41,0,0,1-.72,3.11,12.19,12.19,0,0,1-.62-3.17,17.1,17.1,0,0,1,0-3.2,16.93,16.93,0,0,1,.59-3.13A12.09,12.09,0,0,1,302.14,266Z"/><path class="cls-2" d="M292.52,337.1c-.51,1.5-.95,2.94-1.3,4.39a32.25,32.25,0,0,0-.81,8.82c.08,1.5.25,3,.47,4.56a12.31,12.31,0,0,1-1.8-4.38,16.25,16.25,0,0,1-.28-4.77,16,16,0,0,1,1.15-4.64A12.22,12.22,0,0,1,292.52,337.1Z"/><path class="cls-2" d="M216.34,273.4a155.69,155.69,0,0,0,57.79,3.52,96.84,96.84,0,0,1-57.79-3.52Z"/><path class="cls-2" d="M217.93,297c9.4,1.35,18.69,3.2,28.06,4a93,93,0,0,0,28.09-1.33,54.34,54.34,0,0,1-13.93,3.08,79.64,79.64,0,0,1-14.32,0A147.62,147.62,0,0,1,217.93,297Z"/><path class="cls-2" d="M218.91,321.25A113.55,113.55,0,0,0,276.34,324a78.93,78.93,0,0,1-57.43-2.73Z"/><path class="cls-2" d="M219.92,345.27A212.51,212.51,0,0,0,273.54,348a106.93,106.93,0,0,1-53.62-2.74Z"/><path class="cls-2" d="M209.35,356.2a37.78,37.78,0,0,0,9.22,6.4c.85.4,1.67.85,2.52,1.23l2.59,1.09a52.4,52.4,0,0,0,5.33,1.7c1.79.54,3.63.86,5.45,1.23.91.22,1.85.29,2.77.42l2.77.35c1.87.07,3.72.27,5.59.28s3.74,0,5.6-.12,3.72-.26,5.59-.44l5.61-.67c3.74-.46,7.46-1,11.18-1.58s7.41-1.29,11.07-2.17c1.84-.41,3.65-.9,5.45-1.45a25.42,25.42,0,0,0,5.19-2.17,21.67,21.67,0,0,1-5,2.6c-1.77.68-3.56,1.3-5.38,1.84-3.65,1.05-7.34,1.92-11.05,2.65s-7.46,1.33-11.21,1.9L257,370c-1.88.2-3.79.33-5.69.49s-3.82.05-5.72.08-3.82-.22-5.72-.35a60.1,60.1,0,0,1-11.2-2.34,49,49,0,0,1-10.47-4.56A35,35,0,0,1,209.35,356.2Z"/><polygon class="cls-3" points="169.34 135.85 169.34 185.83 96.63 216.5 96.63 154.59 169.34 135.85"/><polygon class="cls-3" points="96.63 154.59 96.63 216.5 14.16 187.28 14.16 132.9 96.63 154.59"/><path class="cls-4" d="M147.77,60,128.84,38.72v-.44L55.39,46.8V33.85L128.84,26V24.43L124.67,22,51.58,30.3V47.47L14.16,84.13V132.9l82.47,21.69,72.71-18.74V84.13ZM20.66,84.13l3.17-3.27h0l29.31-30L93.72,98.1Z"/><polygon class="cls-5" points="93.72 98.1 20.66 84.13 23.83 80.86 23.86 80.86 53.18 50.9 93.72 98.1"/><polygon class="cls-3" points="128.84 26.04 128.84 38.28 55.4 46.8 55.4 33.85 128.84 26.04"/><polyline class="cls-4" points="53.18 50.9 95.34 98.94 96.63 154.59"/><polygon class="cls-3" points="128.84 26.04 128.84 38.28 55.4 46.8 55.4 33.85 128.84 26.04"/><line class="cls-6" x1="72.85" y1="73.31" x2="147.79" y2="59.98"/><line class="cls-6" x1="94.89" y1="98.43" x2="169.33" y2="84.14"/><polygon class="cls-3" points="93.72 98.1 20.66 84.13 23.83 80.86 23.86 80.86 53.18 50.9 55.61 53.73 93.72 98.1"/><line class="cls-6" x1="66.71" y1="66.65" x2="20.66" y2="84.13"/><polygon class="cls-3" points="338.61 135.85 338.61 185.83 265.91 216.5 265.91 154.59 338.61 135.85"/><polygon class="cls-3" points="265.91 154.59 265.91 216.5 183.43 187.28 183.43 132.9 265.91 154.59"/><path class="cls-4" d="M317.05,60,298.11,38.72v-.44L224.67,46.8V33.85L298.11,26V24.43L294,22l-73.1,8.27V47.47L183.43,84.13V132.9l82.48,21.69,72.7-18.74V84.13ZM189.94,84.13l3.17-3.27h0l29.32-30L263,98.1Z"/><polygon class="cls-5" points="262.99 98.1 189.94 84.13 193.11 80.86 193.14 80.86 222.46 50.9 262.99 98.1"/><polygon class="cls-3" points="298.11 26.04 298.11 38.28 224.67 46.8 224.67 33.85 298.11 26.04"/><polyline class="cls-4" points="222.46 50.9 264.61 98.94 265.91 154.59"/><polygon class="cls-3" points="298.11 26.04 298.11 38.28 224.67 46.8 224.67 33.85 298.11 26.04"/><line class="cls-6" x1="242.12" y1="73.31" x2="317.06" y2="59.98"/><line class="cls-6" x1="264.16" y1="98.43" x2="338.6" y2="84.14"/><polygon class="cls-3" points="262.99 98.1 189.94 84.13 193.11 80.86 193.14 80.86 222.46 50.9 224.88 53.73 262.99 98.1"/><line class="cls-6" x1="235.98" y1="66.65" x2="189.94" y2="84.13"/></svg>