<svg id="Layer_1" data-name="Layer 1" xmlns="http://www.w3.org/2000/svg" viewBox="0 0 352.77 402.77"><defs><style>.cls-1,.cls-3,.cls-6{fill:#dfdfdf;}.cls-1,.cls-2,.cls-5,.cls-6,.cls-7,.cls-9{stroke:#231f20;stroke-miterlimit:10;}.cls-1,.cls-2,.cls-5{stroke-width:1.74px;}.cls-2,.cls-7{fill:#f3959f;}.cls-4{fill:#231f20;}.cls-5,.cls-8,.cls-9{fill:none;}.cls-6,.cls-7,.cls-8,.cls-9{stroke-width:1.37px;}.cls-8{stroke:#000;stroke-linecap:round;stroke-linejoin:round;}</style></defs><polygon class="cls-1" points="164.4 291.92 164.4 317.15 97.34 358.76 97.34 327.01 164.4 291.92"/><polygon class="cls-1" points="164.4 109.78 164.4 159.35 97.34 176.4 97.34 124.16 164.4 109.78"/><polygon class="cls-2" points="164.4 159.35 164.4 291.92 97.34 327.01 97.34 176.4 164.4 159.35"/><polygon class="cls-1" points="97.34 327.01 97.34 358.76 20.94 319.65 20.94 290.58 97.34 327.01"/><polygon class="cls-2" points="97.34 176.4 97.34 327.01 20.94 290.58 20.94 156.34 97.34 176.4"/><polygon class="cls-1" points="97.34 124.16 97.34 176.4 20.94 156.34 20.94 110.11 97.34 124.16"/><polygon class="cls-1" points="20.94 110.12 55.3 76.53 55.3 60.99 127.81 53.86 127.2 68.34 165.23 109.95 97.53 124.77 20.94 110.12"/><polyline class="cls-3" points="145.38 88.62 77.88 100.76 76.1 102.99"/><polygon class="cls-4" points="145.38 88.62 78.03 101.58 78.53 101.28 76.78 103.53 75.42 102.44 77.23 100.24 77.43 99.99 77.73 99.94 145.38 88.62"/><path class="cls-4" d="M68.54,94.3c-3.43,1.34-6.87,2.64-10.31,3.93s-6.87,2.62-10.33,3.88l-20.7,7.61-.63-1.38h0l-.16.12L41.26,93.74l14.9-14.63.65-.64.58.69q9.17,10.91,18.2,21.9c3,3.67,6.06,7.3,9,11s6,7.37,8.94,11.09c-3.19-3.52-6.32-7.09-9.47-10.64s-6.25-7.14-9.37-10.71Q65.35,91.08,56.11,80.25l1.23,0L42.46,95l-15,14.57-.07.07-.09.05h0l-.63-1.37,20.89-7.1c3.48-1.19,7-2.32,10.47-3.48S65,95.41,68.54,94.3Z"/><path class="cls-4" d="M60.42,80.26c6.36,6.41,12.32,13.16,18.18,20s11.54,13.82,16.85,21.12c-6.36-6.41-12.32-13.16-18.18-20S65.74,87.56,60.42,80.26Z"/><polyline class="cls-3" points="127.81 56.09 59.2 63.89 59.2 76.36 127.2 68.34"/><path class="cls-4" d="M127.81,56.09c-5.7.83-11.4,1.56-17.11,2.34L93.58,60.61,85,61.69l-8.57,1-17.15,2,.75-.84q0,6.24,0,12.47l-.94-.84,17-1.93,8.5-1,8.51-.89,17-1.77c5.69-.54,11.36-1.13,17-1.62-5.65.85-11.3,1.6-17,2.4L93.27,73l-8.49,1.11-8.49,1-17,2.07-.94.12v-1q0-6.24,0-12.47v-.76l.74-.08,17.16-1.88,8.58-.94,8.59-.87,17.18-1.71C116.35,57.13,122.07,56.56,127.81,56.09Z"/><line class="cls-5" x1="55.3" y1="60.99" x2="59.2" y2="63.89"/><polygon class="cls-6" points="331.83 305.36 331.83 348.79 268.67 375.43 268.67 321.65 331.83 305.36"/><polygon class="cls-6" points="268.67 321.65 268.67 375.43 197.02 350.04 197.02 302.8 268.67 321.65"/><path class="cls-7" d="M313.1,239.45,296.64,221v-.39L232.84,228V216.76l63.8-6.79v-1.39L293,206.49l-63.5,7.18v14.92L197,260.43V302.8l71.65,18.85,63.16-16.29V260.43Zm-110.43,21,2.76-2.83h0l25.47-26,35.22,41Z"/><polygon class="cls-8" points="266.14 272.57 202.67 260.44 205.43 257.6 205.45 257.6 230.92 231.57 266.14 272.57"/><polygon class="cls-6" points="296.64 209.97 296.64 220.6 232.84 228.01 232.84 216.76 296.64 209.97"/><polyline class="cls-7" points="230.92 231.57 267.54 273.3 268.67 321.65"/><polygon class="cls-6" points="296.64 209.97 296.64 220.6 232.84 228.01 232.84 216.76 296.64 209.97"/><line class="cls-9" x1="248" y1="251.04" x2="313.11" y2="239.46"/><line class="cls-9" x1="267.15" y1="272.86" x2="331.82" y2="260.44"/><polygon class="cls-6" points="266.14 272.57 202.67 260.44 205.43 257.6 205.45 257.6 230.92 231.57 233.03 234.02 266.14 272.57"/><line class="cls-9" x1="242.67" y1="245.25" x2="202.67" y2="260.43"/><polygon class="cls-6" points="331.83 126.22 331.83 169.64 268.67 196.28 268.67 142.5 331.83 126.22"/><polygon class="cls-6" points="268.67 142.5 268.67 196.28 197.02 170.9 197.02 123.66 268.67 142.5"/><path class="cls-7" d="M313.1,60.3,296.64,41.85v-.39l-63.8,7.4V37.62l63.8-6.8V29.43L293,27.35l-63.5,7.18V49.45L197,81.29v42.37l71.65,18.84,63.16-16.28V81.29Zm-110.43,21,2.76-2.84h0l25.47-26,35.22,41Z"/><polygon class="cls-8" points="266.14 93.43 202.67 81.29 205.43 78.45 205.45 78.45 230.92 52.43 266.14 93.43"/><polygon class="cls-6" points="296.64 30.82 296.64 41.46 232.84 48.86 232.84 37.62 296.64 30.82"/><polyline class="cls-7" points="230.92 52.43 267.54 94.16 268.67 142.5"/><polygon class="cls-6" points="296.64 30.82 296.64 41.46 232.84 48.86 232.84 37.62 296.64 30.82"/><line class="cls-9" x1="248" y1="71.89" x2="313.11" y2="60.32"/><line class="cls-9" x1="267.15" y1="93.71" x2="331.82" y2="81.3"/><polygon class="cls-6" points="266.14 93.43 202.67 81.29 205.43 78.45 205.45 78.45 230.92 52.43 233.03 54.88 266.14 93.43"/><line class="cls-9" x1="242.67" y1="66.1" x2="202.67" y2="81.29"/></svg>