<svg id="Layer_1" data-name="Layer 1" xmlns="http://www.w3.org/2000/svg" viewBox="0 0 352.77 402.77"><defs><style>.cls-1{fill:#dfdfdf;}.cls-1,.cls-2,.cls-4{stroke:#231f20;stroke-miterlimit:10;}.cls-1,.cls-2,.cls-3,.cls-4{stroke-width:1.58px;}.cls-2{fill:#f3959f;}.cls-3,.cls-4{fill:none;}.cls-3{stroke:#000;stroke-linecap:round;stroke-linejoin:round;}</style></defs><polygon class="cls-1" points="169.34 217.97 169.34 267.95 96.63 298.62 96.63 236.71 169.34 217.97"/><polygon class="cls-1" points="96.63 236.71 96.63 298.62 14.16 269.4 14.16 215.02 96.63 236.71"/><path class="cls-2" d="M147.77,142.09l-18.93-21.24v-.45l-73.45,8.52V116l73.45-7.82v-1.61l-4.17-2.4-73.09,8.27v17.17L14.16,166.25V215l82.47,21.69L169.34,218V166.25ZM20.66,166.25,23.83,163h0l29.31-30,40.54,47.2Z"/><polygon class="cls-3" points="93.72 180.22 20.66 166.25 23.83 162.98 23.86 162.98 53.18 133.02 93.72 180.22"/><polygon class="cls-1" points="128.84 108.16 128.84 120.4 55.4 128.92 55.4 115.97 128.84 108.16"/><polyline class="cls-2" points="53.18 133.02 95.34 181.06 96.63 236.71"/><polygon class="cls-1" points="128.84 108.16 128.84 120.4 55.4 128.92 55.4 115.97 128.84 108.16"/><line class="cls-4" x1="72.85" y1="155.43" x2="147.79" y2="142.11"/><line class="cls-4" x1="94.89" y1="180.55" x2="169.33" y2="166.26"/><polygon class="cls-1" points="93.72 180.22 20.66 166.25 23.83 162.98 23.86 162.98 53.18 133.02 55.61 135.85 93.72 180.22"/><line class="cls-4" x1="66.71" y1="148.77" x2="20.66" y2="166.25"/><polygon class="cls-1" points="338.61 217.97 338.61 267.95 265.91 298.62 265.91 236.71 338.61 217.97"/><polygon class="cls-1" points="265.91 236.71 265.91 298.62 183.43 269.4 183.43 215.02 265.91 236.71"/><path class="cls-2" d="M317.05,142.09l-18.94-21.24v-.45l-73.44,8.52V116l73.44-7.82v-1.61l-4.16-2.4-73.1,8.27v17.17l-37.43,36.66V215l82.48,21.69L338.61,218V166.25ZM189.94,166.25l3.17-3.27h0l29.32-30L263,180.22Z"/><polygon class="cls-3" points="262.99 180.22 189.94 166.25 193.11 162.98 193.14 162.98 222.46 133.02 262.99 180.22"/><polygon class="cls-1" points="298.11 108.16 298.11 120.4 224.67 128.92 224.67 115.97 298.11 108.16"/><polyline class="cls-2" points="222.46 133.02 264.61 181.06 265.91 236.71"/><polygon class="cls-1" points="298.11 108.16 298.11 120.4 224.67 128.92 224.67 115.97 298.11 108.16"/><line class="cls-4" x1="242.12" y1="155.43" x2="317.06" y2="142.11"/><line class="cls-4" x1="264.16" y1="180.55" x2="338.6" y2="166.26"/><polygon class="cls-1" points="262.99 180.22 189.94 166.25 193.11 162.98 193.14 162.98 222.46 133.02 224.88 135.85 262.99 180.22"/><line class="cls-4" x1="235.98" y1="148.77" x2="189.94" y2="166.25"/></svg>