<svg id="Layer_1" data-name="Layer 1" xmlns="http://www.w3.org/2000/svg" viewBox="0 0 352.77 402.77"><defs><style>.cls-1{fill:#cae9f2;stroke:#231f20;stroke-miterlimit:10;stroke-width:1.15px;}.cls-2{fill:#231f20;}</style></defs><path class="cls-1" d="M92.8,111.22a3.82,3.82,0,0,1-3.19-3.78c0-.12,0-.24,0-.37a4,4,0,0,0-1-3c-2.09-2.37-7.59-6.27-20.9-5.75,0,0-22.44-1.24-32.91-5.61S7.35,90.21,6.6,94.44A13.72,13.72,0,0,1,12,101.61a40.73,40.73,0,0,1,1.79,9q3.8,30.76,7.6,61.53c.1.82.2,1.64.31,2.47a14.35,14.35,0,0,0,7,10.73c3.86,2.21,8.41,2.78,12.84,3,7.87.37,27.81.32,33.78-5.83,1.17-1.21,1.37-6.6,1.37-6.6l.28-.14,0,0c.34-.16.95-.48,1.76-.92a.05.05,0,0,1,0,0c6-3.34,23.35-14.16,28.43-30.8C112.12,128.1,112.49,114.7,92.8,111.22Zm-2.9,46.93c-6.48,4.65-9.14-3-9.14-3l6-31.08c4.66-7.15,14.79-3.49,15.63,4.82S96.38,153.49,89.9,158.15Z"/><path class="cls-2" d="M75.15,102a14.24,14.24,0,0,1,5.31.4,6.29,6.29,0,0,1,2.43,1.23,1.82,1.82,0,0,1,.68,1.33,1.09,1.09,0,0,1-.14.43.91.91,0,0,1-.34.29c-.21.13-.41.23-.61.33-.81.4-1.62.74-2.47,1.07s-1.75.44-2.62.66-1.75.37-2.62.55-1.77.28-2.65.43a60.55,60.55,0,0,1-21.34-1,99,99,0,0,1-20.12-7.19,84.13,84.13,0,0,0-9.82-4,31.73,31.73,0,0,0-10.41-1.7A30.33,30.33,0,0,1,21,96,85.79,85.79,0,0,1,31,99.7c3.28,1.39,6.5,2.82,9.85,4A85.86,85.86,0,0,0,51,106.57a62,62,0,0,0,21,1.26c.87-.12,1.75-.21,2.62-.35s1.74-.29,2.61-.47,1.75-.37,2.56-.57,1.65-.61,2.44-1a5.14,5.14,0,0,0,.58-.27.92.92,0,0,0,.17-.11.39.39,0,0,0,.08-.2,1.39,1.39,0,0,0-.48-1,5.85,5.85,0,0,0-2.22-1.25A15.07,15.07,0,0,0,75.15,102Z"/><path class="cls-2" d="M83.44,111.69a21.8,21.8,0,0,1-.08,4.21,20.53,20.53,0,0,1-.76,4.15,10.28,10.28,0,0,1-.38-4.26A10.4,10.4,0,0,1,83.44,111.69Z"/><path class="cls-2" d="M77,159.24a24.11,24.11,0,0,0-1.34,5.88,24.94,24.94,0,0,0,.24,6A10.12,10.12,0,0,1,77,159.24Z"/><path class="cls-2" d="M26,116.62c.8.18,1.59.36,2.38.56l2.39.5,2.39.48,2.4.4c3.21.49,6.43.87,9.66,1s6.47.23,9.72.13l2.43-.11,2.43-.18,2.43-.21c.81-.1,1.62-.19,2.44-.26-1.58.42-3.19.72-4.8,1l-2.43.35-2.45.26a64.65,64.65,0,0,1-9.84.14,65.3,65.3,0,0,1-9.75-1.33L33,118.87l-2.38-.64C29.1,117.73,27.55,117.23,26,116.62Z"/><path class="cls-2" d="M27.1,132.41c1.57.21,3.13.49,4.7.72s3.12.53,4.69.76c3.12.47,6.24.93,9.37,1.2a76,76,0,0,0,9.42.28A46.29,46.29,0,0,0,60,135c1.57-.17,3.12-.46,4.68-.78a34.8,34.8,0,0,1-4.58,1.34,47.53,47.53,0,0,1-4.74.71,52,52,0,0,1-9.58,0,76.42,76.42,0,0,1-9.43-1.47c-1.56-.34-3.1-.7-4.64-1.08S28.62,132.87,27.1,132.41Z"/><path class="cls-2" d="M27.75,148.64c.78.22,1.57.44,2.35.68l2.36.61,2.37.55,2.38.47a75,75,0,0,0,19.32.91l2.42-.23,2.41-.33,2.41-.38,2.4-.46c-.77.27-1.55.52-2.33.76l-2.37.63-2.41.5-2.43.39a53.58,53.58,0,0,1-19.6-.93l-2.38-.62-2.35-.72-2.3-.86C29.24,149.3,28.49,149,27.75,148.64Z"/><path class="cls-2" d="M28.42,164.71c.75.11,1.49.23,2.23.37l2.24.33c1.48.23,3,.43,4.46.6,3,.34,6,.61,8.95.75s6,.2,9,.17c1.5,0,3-.07,4.5-.14l2.25-.11c.75-.06,1.51-.1,2.26-.13-1.47.33-3,.56-4.46.8s-3,.34-4.51.46a70.55,70.55,0,0,1-9.08.1,73.81,73.81,0,0,1-9-1q-2.23-.42-4.44-.93C31.32,165.57,29.85,165.19,28.42,164.71Z"/><path class="cls-2" d="M21.35,172a25.47,25.47,0,0,0,6.17,4.29,33.24,33.24,0,0,0,7,2.69,46,46,0,0,0,7.36,1.35c1.25.06,2.49.18,3.74.19s2.5,0,3.75-.1,2.49-.16,3.74-.28l3.75-.44c2.5-.31,5-.69,7.48-1.08s5-.86,7.41-1.45a27.47,27.47,0,0,0,7.12-2.42,14.94,14.94,0,0,1-3.37,1.74c-1.19.45-2.39.87-3.61,1.23-2.43.7-4.9,1.28-7.39,1.77s-5,.88-7.5,1.25l-3.77.49c-1.26.14-2.53.23-3.8.34a43.35,43.35,0,0,1-15.15-1.74,33.6,33.6,0,0,1-7-3A23.54,23.54,0,0,1,21.35,172Z"/><path class="cls-1" d="M210.86,111.22a3.82,3.82,0,0,1-3.19-3.78c0-.12,0-.24,0-.37a4,4,0,0,0-1-3c-2.09-2.37-7.59-6.27-20.9-5.75,0,0-22.44-1.24-32.91-5.61s-27.5-2.54-28.25,1.69a13.72,13.72,0,0,1,5.44,7.17,40.73,40.73,0,0,1,1.79,9q3.8,30.76,7.6,61.53c.1.82.2,1.64.31,2.47a14.35,14.35,0,0,0,7,10.73c3.86,2.21,8.41,2.78,12.84,3,7.87.37,27.81.32,33.78-5.83,1.17-1.21,1.37-6.6,1.37-6.6l.28-.14,0,0c.34-.16,1-.48,1.76-.92l0,0c6-3.34,23.35-14.16,28.43-30.8C230.18,128.1,230.55,114.7,210.86,111.22ZM208,158.15c-6.48,4.65-9.14-3-9.14-3l6-31.08c4.66-7.15,14.79-3.49,15.63,4.82S214.44,153.49,208,158.15Z"/><path class="cls-2" d="M193.21,102a14.24,14.24,0,0,1,5.31.4,6.4,6.4,0,0,1,2.44,1.23,1.85,1.85,0,0,1,.67,1.33,1.26,1.26,0,0,1-.13.43,1,1,0,0,1-.35.29,5.15,5.15,0,0,1-.61.33c-.81.4-1.62.74-2.47,1.07s-1.75.44-2.62.66-1.75.37-2.62.55-1.77.28-2.65.43a60.55,60.55,0,0,1-21.34-1,99,99,0,0,1-20.12-7.19,84.7,84.7,0,0,0-9.81-4,31.83,31.83,0,0,0-10.42-1.7A30.33,30.33,0,0,1,139.07,96a85.79,85.79,0,0,1,10,3.72c3.28,1.39,6.5,2.82,9.85,4a85.86,85.86,0,0,0,10.16,2.91,62,62,0,0,0,21,1.26c.87-.12,1.75-.21,2.62-.35s1.74-.29,2.61-.47,1.75-.37,2.56-.57,1.65-.61,2.44-1a5.14,5.14,0,0,0,.58-.27,1.32,1.32,0,0,0,.18-.11.48.48,0,0,0,.07-.2,1.39,1.39,0,0,0-.48-1,5.85,5.85,0,0,0-2.22-1.25A15.07,15.07,0,0,0,193.21,102Z"/><path class="cls-2" d="M201.5,111.69a21.8,21.8,0,0,1-.08,4.21,21.22,21.22,0,0,1-.75,4.15,10.13,10.13,0,0,1-.39-4.26A10.4,10.4,0,0,1,201.5,111.69Z"/><path class="cls-2" d="M195.06,159.24a24.11,24.11,0,0,0-1.34,5.88,24.94,24.94,0,0,0,.24,6,10.12,10.12,0,0,1,1.1-11.89Z"/><path class="cls-2" d="M144.09,116.62c.8.18,1.59.36,2.38.56l2.39.5,2.39.48,2.4.4c3.21.49,6.43.87,9.66,1s6.48.23,9.72.13l2.43-.11,2.43-.18,2.43-.21c.81-.1,1.62-.19,2.44-.26-1.58.42-3.19.72-4.8,1l-2.43.35-2.45.26a64.65,64.65,0,0,1-9.84.14,65.48,65.48,0,0,1-9.75-1.33l-2.39-.56-2.38-.64C147.16,117.73,145.61,117.23,144.09,116.62Z"/><path class="cls-2" d="M145.16,132.41c1.57.21,3.13.49,4.7.72s3.12.53,4.69.76c3.12.47,6.24.93,9.38,1.2a75.8,75.8,0,0,0,9.41.28A46.29,46.29,0,0,0,178,135c1.57-.17,3.12-.46,4.68-.78a34.36,34.36,0,0,1-4.58,1.34,47.53,47.53,0,0,1-4.74.71,52,52,0,0,1-9.58,0,76.42,76.42,0,0,1-9.43-1.47c-1.56-.34-3.1-.7-4.64-1.08S146.68,132.87,145.16,132.41Z"/><path class="cls-2" d="M145.81,148.64c.79.22,1.57.44,2.35.68l2.36.61,2.37.55,2.38.47a75,75,0,0,0,19.32.91l2.42-.23,2.41-.33,2.41-.38,2.4-.46c-.77.27-1.55.52-2.33.76l-2.37.63-2.41.5-2.43.39a53.58,53.58,0,0,1-19.6-.93l-2.38-.62-2.35-.72-2.3-.86C147.3,149.3,146.55,149,145.81,148.64Z"/><path class="cls-2" d="M146.48,164.71c.75.11,1.49.23,2.23.37l2.24.33c1.48.23,3,.43,4.46.6,3,.34,6,.61,9,.75s6,.2,9,.17c1.5,0,3-.07,4.5-.14l2.26-.11c.75-.06,1.5-.1,2.25-.13-1.47.33-3,.56-4.46.8s-3,.34-4.51.46a70.55,70.55,0,0,1-9.08.1,73.81,73.81,0,0,1-9-1q-2.24-.42-4.44-.93C149.38,165.57,147.92,165.19,146.48,164.71Z"/><path class="cls-2" d="M139.41,172a25.47,25.47,0,0,0,6.17,4.29,33.24,33.24,0,0,0,7,2.69,46,46,0,0,0,7.36,1.35c1.25.06,2.49.18,3.74.19s2.5,0,3.75-.1,2.49-.16,3.74-.28l3.75-.44c2.5-.31,5-.69,7.48-1.08s5-.86,7.41-1.45a27.47,27.47,0,0,0,7.12-2.42,14.94,14.94,0,0,1-3.37,1.74c-1.19.45-2.39.87-3.6,1.23-2.44.7-4.91,1.28-7.4,1.77s-5,.88-7.5,1.25l-3.76.49c-1.27.14-2.54.23-3.81.34a43.35,43.35,0,0,1-15.15-1.74,33.6,33.6,0,0,1-7-3A23.54,23.54,0,0,1,139.41,172Z"/><path class="cls-1" d="M328.92,111.22a3.82,3.82,0,0,1-3.19-3.78c0-.12,0-.24,0-.37a4,4,0,0,0-1-3c-2.09-2.37-7.59-6.27-20.9-5.75,0,0-22.44-1.24-32.91-5.61s-27.5-2.54-28.25,1.69a13.72,13.72,0,0,1,5.44,7.17,41.33,41.33,0,0,1,1.8,9q3.78,30.76,7.59,61.53c.1.82.2,1.64.31,2.47a14.35,14.35,0,0,0,7,10.73c3.86,2.21,8.41,2.78,12.84,3,7.87.37,27.81.32,33.78-5.83,1.18-1.21,1.37-6.6,1.37-6.6l.28-.14,0,0c.34-.16.95-.48,1.76-.92l0,0c6.05-3.34,23.35-14.16,28.43-30.8C348.24,128.1,348.61,114.7,328.92,111.22ZM326,158.15c-6.48,4.65-9.14-3-9.14-3l6-31.08c4.65-7.15,14.78-3.49,15.62,4.82S332.51,153.49,326,158.15Z"/><path class="cls-2" d="M311.27,102a14.24,14.24,0,0,1,5.31.4,6.4,6.4,0,0,1,2.44,1.23,1.85,1.85,0,0,1,.67,1.33,1.26,1.26,0,0,1-.13.43,1,1,0,0,1-.35.29,5.15,5.15,0,0,1-.61.33c-.81.4-1.62.74-2.47,1.07s-1.74.44-2.62.66-1.75.37-2.62.55-1.77.28-2.65.43a60.55,60.55,0,0,1-21.34-1,98.73,98.73,0,0,1-20.11-7.19,85.58,85.58,0,0,0-9.82-4,31.79,31.79,0,0,0-10.42-1.7A30.33,30.33,0,0,1,257.13,96a85.79,85.79,0,0,1,10,3.72c3.28,1.39,6.5,2.82,9.85,4a85.86,85.86,0,0,0,10.16,2.91,62,62,0,0,0,21,1.26c.87-.12,1.75-.21,2.62-.35s1.74-.29,2.61-.47,1.75-.37,2.56-.57,1.65-.61,2.45-1a5.94,5.94,0,0,0,.57-.27,1.32,1.32,0,0,0,.18-.11.48.48,0,0,0,.07-.2,1.39,1.39,0,0,0-.48-1,5.85,5.85,0,0,0-2.22-1.25A15.07,15.07,0,0,0,311.27,102Z"/><path class="cls-2" d="M319.56,111.69a21.8,21.8,0,0,1-.08,4.21,21.22,21.22,0,0,1-.75,4.15,10.13,10.13,0,0,1-.39-4.26A10.4,10.4,0,0,1,319.56,111.69Z"/><path class="cls-2" d="M313.12,159.24a24.58,24.58,0,0,0-1.34,5.88,24.94,24.94,0,0,0,.24,6,10.12,10.12,0,0,1,1.1-11.89Z"/><path class="cls-2" d="M262.15,116.62c.8.18,1.59.36,2.38.56l2.39.5,2.39.48,2.4.4c3.21.49,6.43.87,9.66,1s6.48.23,9.72.13l2.43-.11,2.43-.18,2.43-.21c.81-.1,1.62-.19,2.44-.26-1.58.42-3.19.72-4.8,1l-2.43.35-2.45.26a64.65,64.65,0,0,1-9.84.14,65.48,65.48,0,0,1-9.75-1.33l-2.39-.56-2.37-.64C265.22,117.73,263.67,117.23,262.15,116.62Z"/><path class="cls-2" d="M263.22,132.41c1.57.21,3.13.49,4.7.72s3.12.53,4.69.76c3.12.47,6.24.93,9.38,1.2a75.8,75.8,0,0,0,9.41.28,46.29,46.29,0,0,0,4.7-.39c1.57-.17,3.12-.46,4.68-.78a34.36,34.36,0,0,1-4.58,1.34,47.53,47.53,0,0,1-4.74.71,52,52,0,0,1-9.58,0,76.42,76.42,0,0,1-9.43-1.47c-1.56-.34-3.1-.7-4.64-1.08S264.74,132.87,263.22,132.41Z"/><path class="cls-2" d="M263.87,148.64c.79.22,1.57.44,2.35.68l2.36.61,2.37.55,2.38.47a75,75,0,0,0,19.32.91l2.42-.23,2.41-.33,2.41-.38,2.4-.46c-.77.27-1.55.52-2.33.76l-2.37.63-2.41.5-2.43.39a53.58,53.58,0,0,1-19.6-.93l-2.38-.62-2.35-.72-2.3-.86C265.36,149.3,264.61,149,263.87,148.64Z"/><path class="cls-2" d="M264.54,164.71c.75.11,1.5.23,2.24.37l2.23.33c1.48.23,3,.43,4.46.6,3,.34,6,.61,9,.75s6,.2,9,.17c1.5,0,3-.07,4.5-.14l2.26-.11c.75-.06,1.5-.1,2.25-.13-1.47.33-3,.56-4.46.8s-3,.34-4.51.46a70.55,70.55,0,0,1-9.08.1,73.81,73.81,0,0,1-9-1q-2.23-.42-4.44-.93C267.44,165.57,266,165.19,264.54,164.71Z"/><path class="cls-2" d="M257.47,172a25.47,25.47,0,0,0,6.17,4.29,33.12,33.12,0,0,0,7,2.69,45.72,45.72,0,0,0,7.35,1.35c1.25.06,2.49.18,3.74.19s2.5,0,3.75-.1,2.49-.16,3.74-.28l3.75-.44c2.5-.31,5-.69,7.48-1.08s5-.86,7.41-1.45a27.34,27.34,0,0,0,7.12-2.42,14.94,14.94,0,0,1-3.37,1.74c-1.19.45-2.39.87-3.6,1.23-2.44.7-4.91,1.28-7.4,1.77s-5,.88-7.5,1.25l-3.76.49c-1.27.14-2.54.23-3.81.34a43.35,43.35,0,0,1-15.15-1.74,33.6,33.6,0,0,1-7-3A23.54,23.54,0,0,1,257.47,172Z"/><path class="cls-1" d="M92.8,235.31a3.84,3.84,0,0,1-3.19-3.79c0-.11,0-.24,0-.36a4,4,0,0,0-1-3c-2.09-2.36-7.59-6.27-20.9-5.74,0,0-22.44-1.25-32.91-5.61s-27.5-2.55-28.25,1.69A13.72,13.72,0,0,1,12,225.7a40.64,40.64,0,0,1,1.79,9q3.8,30.77,7.6,61.53c.1.82.2,1.65.31,2.47a14.37,14.37,0,0,0,7,10.74c3.86,2.2,8.41,2.78,12.84,3,7.87.37,27.81.33,33.78-5.82,1.17-1.21,1.37-6.61,1.37-6.61l.28-.13,0,0c.34-.17.95-.48,1.76-.93l0,0c6-3.34,23.35-14.16,28.43-30.8C112.12,252.19,112.49,238.79,92.8,235.31Zm-2.9,46.92c-6.48,4.65-9.14-3-9.14-3l6-31.08c4.66-7.14,14.79-3.49,15.63,4.82S96.38,277.58,89.9,282.23Z"/><path class="cls-2" d="M75.15,226.06a14,14,0,0,1,5.31.41,6.13,6.13,0,0,1,2.43,1.22,1.83,1.83,0,0,1,.68,1.34,1.1,1.1,0,0,1-.14.42,1,1,0,0,1-.34.3c-.21.13-.41.23-.61.33-.81.39-1.62.74-2.47,1.06s-1.75.44-2.62.67-1.75.36-2.62.54-1.77.29-2.65.44a60.55,60.55,0,0,1-21.34-1,98.4,98.4,0,0,1-20.12-7.18,84.13,84.13,0,0,0-9.82-4,31.74,31.74,0,0,0-10.41-1.71A30.11,30.11,0,0,1,21,220.07a82.31,82.31,0,0,1,10,3.72c3.28,1.38,6.5,2.81,9.85,4A85.9,85.9,0,0,0,51,230.66a61.7,61.7,0,0,0,21,1.25c.87-.12,1.75-.21,2.62-.35s1.74-.29,2.61-.46,1.75-.37,2.56-.57,1.65-.61,2.44-1c.2-.09.4-.18.58-.28l.17-.1a.42.42,0,0,0,.08-.21,1.4,1.4,0,0,0-.48-1,5.83,5.83,0,0,0-2.22-1.24A15.32,15.32,0,0,0,75.15,226.06Z"/><path class="cls-2" d="M83.44,235.78a21.82,21.82,0,0,1-.08,4.21,20.44,20.44,0,0,1-.76,4.14,11.35,11.35,0,0,1,.84-8.35Z"/><path class="cls-2" d="M77,283.33a24.14,24.14,0,0,0-1.34,5.87,25,25,0,0,0,.24,6A10.12,10.12,0,0,1,77,283.33Z"/><path class="cls-2" d="M26,240.71c.8.17,1.59.36,2.38.55l2.39.51,2.39.47,2.4.41c3.21.48,6.43.86,9.66,1s6.47.22,9.72.12l2.43-.1,2.43-.19,2.43-.21c.81-.1,1.62-.18,2.44-.26-1.58.42-3.19.73-4.8,1l-2.43.35-2.45.27a66.2,66.2,0,0,1-19.59-1.2L33,243l-2.38-.64C29.1,241.82,27.55,241.32,26,240.71Z"/><path class="cls-2" d="M27.1,256.49c1.57.21,3.13.49,4.7.72s3.12.53,4.69.77c3.12.47,6.24.93,9.37,1.19a74.12,74.12,0,0,0,9.42.28c1.57-.05,3.14-.18,4.7-.38s3.12-.47,4.68-.79a34.8,34.8,0,0,1-4.58,1.34,44.82,44.82,0,0,1-4.74.72,52,52,0,0,1-9.58,0,78.39,78.39,0,0,1-9.43-1.48c-1.56-.34-3.1-.7-4.64-1.08S28.62,257,27.1,256.49Z"/><path class="cls-2" d="M27.75,272.73c.78.21,1.57.44,2.35.68l2.36.6,2.37.56,2.38.46a76.07,76.07,0,0,0,9.63,1.08,74.63,74.63,0,0,0,9.69-.16l2.42-.24,2.41-.33,2.41-.38c.79-.16,1.6-.31,2.4-.45-.77.26-1.55.51-2.33.75l-2.37.64-2.41.49-2.43.4a53.1,53.1,0,0,1-9.84.43A54.35,54.35,0,0,1,37,275.9l-2.38-.63-2.35-.72L30,273.7C29.24,273.38,28.49,273.06,27.75,272.73Z"/><path class="cls-2" d="M28.42,288.79l2.23.37,2.24.34c1.48.22,3,.43,4.46.6,3,.33,6,.61,8.95.75s6,.19,9,.16c1.5,0,3-.06,4.5-.14l2.25-.1c.75-.06,1.51-.1,2.26-.14-1.47.33-3,.56-4.46.8s-3,.34-4.51.47A73,73,0,0,1,37.22,291c-1.49-.28-3-.58-4.44-.92S29.85,289.28,28.42,288.79Z"/><path class="cls-2" d="M21.35,296.11a25.43,25.43,0,0,0,6.17,4.28,32.7,32.7,0,0,0,7,2.69,47.2,47.2,0,0,0,7.36,1.36c1.25.05,2.49.17,3.74.18s2.5,0,3.75-.09,2.49-.17,3.74-.29l3.75-.43c2.5-.32,5-.7,7.48-1.08s5-.87,7.41-1.45a27.87,27.87,0,0,0,7.12-2.43,14.17,14.17,0,0,1-3.37,1.74c-1.19.46-2.39.87-3.61,1.23-2.43.7-4.9,1.29-7.39,1.78s-5,.87-7.5,1.25l-3.77.49c-1.26.14-2.53.23-3.8.34a43.35,43.35,0,0,1-15.15-1.75,33.08,33.08,0,0,1-7-3.05A23.51,23.51,0,0,1,21.35,296.11Z"/><path class="cls-1" d="M210.86,235.31a3.84,3.84,0,0,1-3.19-3.79c0-.11,0-.24,0-.36a4,4,0,0,0-1-3c-2.09-2.36-7.59-6.27-20.9-5.74,0,0-22.44-1.25-32.91-5.61s-27.5-2.55-28.25,1.69a13.72,13.72,0,0,1,5.44,7.17,40.64,40.64,0,0,1,1.79,9q3.8,30.77,7.6,61.53c.1.82.2,1.65.31,2.47a14.37,14.37,0,0,0,7,10.74c3.86,2.2,8.41,2.78,12.84,3,7.87.37,27.81.33,33.78-5.82,1.17-1.21,1.37-6.61,1.37-6.61l.28-.13,0,0c.34-.17,1-.48,1.76-.93l0,0c6-3.34,23.35-14.16,28.43-30.8C230.18,252.19,230.55,238.79,210.86,235.31ZM208,282.23c-6.48,4.65-9.14-3-9.14-3l6-31.08c4.66-7.14,14.79-3.49,15.63,4.82S214.44,277.58,208,282.23Z"/><path class="cls-2" d="M193.21,226.06a14,14,0,0,1,5.31.41,6.24,6.24,0,0,1,2.44,1.22,1.85,1.85,0,0,1,.67,1.34,1.28,1.28,0,0,1-.13.42,1.07,1.07,0,0,1-.35.3,5.15,5.15,0,0,1-.61.33c-.81.39-1.62.74-2.47,1.06s-1.75.44-2.62.67-1.75.36-2.62.54-1.77.29-2.65.44a60.55,60.55,0,0,1-21.34-1,98.4,98.4,0,0,1-20.12-7.18,84.7,84.7,0,0,0-9.81-4,31.84,31.84,0,0,0-10.42-1.71,30.11,30.11,0,0,1,10.58,1.17,82.31,82.31,0,0,1,10,3.72c3.28,1.38,6.5,2.81,9.85,4a85.9,85.9,0,0,0,10.16,2.92,61.7,61.7,0,0,0,21,1.25c.87-.12,1.75-.21,2.62-.35s1.74-.29,2.61-.46,1.75-.37,2.56-.57,1.65-.61,2.44-1c.2-.09.4-.18.58-.28l.18-.1a.52.52,0,0,0,.07-.21,1.4,1.4,0,0,0-.48-1,5.83,5.83,0,0,0-2.22-1.24A15.32,15.32,0,0,0,193.21,226.06Z"/><path class="cls-2" d="M201.5,235.78a21.82,21.82,0,0,1-.08,4.21,21.12,21.12,0,0,1-.75,4.14,10.13,10.13,0,0,1-.39-4.26A10.35,10.35,0,0,1,201.5,235.78Z"/><path class="cls-2" d="M195.06,283.33a24.14,24.14,0,0,0-1.34,5.87,25,25,0,0,0,.24,6,10.12,10.12,0,0,1,1.1-11.89Z"/><path class="cls-2" d="M144.09,240.71c.8.17,1.59.36,2.38.55l2.39.51,2.39.47,2.4.41c3.21.48,6.43.86,9.66,1s6.48.22,9.72.12l2.43-.1,2.43-.19,2.43-.21c.81-.1,1.62-.18,2.44-.26-1.58.42-3.19.73-4.8,1l-2.43.35-2.45.27a66.2,66.2,0,0,1-19.59-1.2L151.1,243l-2.38-.64C147.16,241.82,145.61,241.32,144.09,240.71Z"/><path class="cls-2" d="M145.16,256.49c1.57.21,3.13.49,4.7.72s3.12.53,4.69.77c3.12.47,6.24.93,9.38,1.19a73.91,73.91,0,0,0,9.41.28c1.57-.05,3.14-.18,4.7-.38s3.12-.47,4.68-.79a34.36,34.36,0,0,1-4.58,1.34,44.82,44.82,0,0,1-4.74.72,52,52,0,0,1-9.58,0,78.39,78.39,0,0,1-9.43-1.48c-1.56-.34-3.1-.7-4.64-1.08S146.68,257,145.16,256.49Z"/><path class="cls-2" d="M145.81,272.73c.79.21,1.57.44,2.35.68l2.36.6,2.37.56,2.38.46a76.07,76.07,0,0,0,9.63,1.08,74.63,74.63,0,0,0,9.69-.16l2.42-.24,2.41-.33,2.41-.38q1.2-.24,2.4-.45c-.77.26-1.55.51-2.33.75l-2.37.64-2.41.49-2.43.4a53.1,53.1,0,0,1-9.84.43,54.35,54.35,0,0,1-9.76-1.36l-2.38-.63-2.35-.72-2.3-.85C147.3,273.38,146.55,273.06,145.81,272.73Z"/><path class="cls-2" d="M146.48,288.79l2.23.37,2.24.34c1.48.22,3,.43,4.46.6,3,.33,6,.61,9,.75s6,.19,9,.16c1.5,0,3-.06,4.5-.14l2.26-.1c.75-.06,1.5-.1,2.25-.14-1.47.33-3,.56-4.46.8s-3,.34-4.51.47a73,73,0,0,1-18.11-.93c-1.49-.28-3-.58-4.44-.92S147.92,289.28,146.48,288.79Z"/><path class="cls-2" d="M139.41,296.11a25.43,25.43,0,0,0,6.17,4.28,32.7,32.7,0,0,0,7,2.69,47.2,47.2,0,0,0,7.36,1.36c1.25.05,2.49.17,3.74.18s2.5,0,3.75-.09,2.49-.17,3.74-.29l3.75-.43c2.5-.32,5-.7,7.48-1.08s5-.87,7.41-1.45a27.87,27.87,0,0,0,7.12-2.43,14.17,14.17,0,0,1-3.37,1.74q-1.78.69-3.6,1.23-3.66,1.05-7.4,1.78c-2.48.53-5,.87-7.5,1.25l-3.76.49c-1.27.14-2.54.23-3.81.34a43.35,43.35,0,0,1-15.15-1.75,33.08,33.08,0,0,1-7-3.05A23.51,23.51,0,0,1,139.41,296.11Z"/><path class="cls-1" d="M328.92,235.31a3.84,3.84,0,0,1-3.19-3.79c0-.11,0-.24,0-.36a4,4,0,0,0-1-3c-2.09-2.36-7.59-6.27-20.9-5.74,0,0-22.44-1.25-32.91-5.61s-27.5-2.55-28.25,1.69a13.72,13.72,0,0,1,5.44,7.17,41.24,41.24,0,0,1,1.8,9q3.78,30.77,7.59,61.53c.1.82.2,1.65.31,2.47a14.37,14.37,0,0,0,7,10.74c3.86,2.2,8.41,2.78,12.84,3,7.87.37,27.81.33,33.78-5.82,1.18-1.21,1.37-6.61,1.37-6.61l.28-.13,0,0c.34-.17.95-.48,1.76-.93l0,0c6.05-3.34,23.35-14.16,28.43-30.8C348.24,252.19,348.61,238.79,328.92,235.31ZM326,282.23c-6.48,4.65-9.14-3-9.14-3l6-31.08c4.65-7.14,14.78-3.49,15.62,4.82S332.51,277.58,326,282.23Z"/><path class="cls-2" d="M311.27,226.06a14,14,0,0,1,5.31.41,6.24,6.24,0,0,1,2.44,1.22,1.85,1.85,0,0,1,.67,1.34,1.28,1.28,0,0,1-.13.42,1.07,1.07,0,0,1-.35.3,5.15,5.15,0,0,1-.61.33c-.81.39-1.62.74-2.47,1.06s-1.74.44-2.62.67-1.75.36-2.62.54-1.77.29-2.65.44a60.55,60.55,0,0,1-21.34-1,98.1,98.1,0,0,1-20.11-7.18,85.58,85.58,0,0,0-9.82-4,31.8,31.8,0,0,0-10.42-1.71,30.11,30.11,0,0,1,10.58,1.17,82.31,82.31,0,0,1,10,3.72c3.28,1.38,6.5,2.81,9.85,4a85.9,85.9,0,0,0,10.16,2.92,61.7,61.7,0,0,0,21,1.25c.87-.12,1.75-.21,2.62-.35s1.74-.29,2.61-.46,1.75-.37,2.56-.57,1.65-.61,2.45-1c.19-.09.39-.18.57-.28l.18-.1a.52.52,0,0,0,.07-.21,1.4,1.4,0,0,0-.48-1,5.83,5.83,0,0,0-2.22-1.24A15.32,15.32,0,0,0,311.27,226.06Z"/><path class="cls-2" d="M319.56,235.78a21.82,21.82,0,0,1-.08,4.21,21.12,21.12,0,0,1-.75,4.14,10.13,10.13,0,0,1-.39-4.26A10.35,10.35,0,0,1,319.56,235.78Z"/><path class="cls-2" d="M313.12,283.33a24.61,24.61,0,0,0-1.34,5.87,25,25,0,0,0,.24,6,10.12,10.12,0,0,1,1.1-11.89Z"/><path class="cls-2" d="M262.15,240.71c.8.17,1.59.36,2.38.55l2.39.51,2.39.47,2.4.41c3.21.48,6.43.86,9.66,1s6.48.22,9.72.12l2.43-.1,2.43-.19,2.43-.21c.81-.1,1.62-.18,2.44-.26-1.58.42-3.19.73-4.8,1l-2.43.35-2.45.27a66.2,66.2,0,0,1-19.59-1.2l-2.39-.56-2.37-.64C265.22,241.82,263.67,241.32,262.15,240.71Z"/><path class="cls-2" d="M263.22,256.49c1.57.21,3.13.49,4.7.72s3.12.53,4.69.77c3.12.47,6.24.93,9.38,1.19a73.91,73.91,0,0,0,9.41.28c1.57-.05,3.14-.18,4.7-.38s3.12-.47,4.68-.79a34.36,34.36,0,0,1-4.58,1.34,44.82,44.82,0,0,1-4.74.72,52,52,0,0,1-9.58,0,78.39,78.39,0,0,1-9.43-1.48c-1.56-.34-3.1-.7-4.64-1.08S264.74,257,263.22,256.49Z"/><path class="cls-2" d="M263.87,272.73c.79.21,1.57.44,2.35.68l2.36.6,2.37.56,2.38.46a76.07,76.07,0,0,0,9.63,1.08,74.63,74.63,0,0,0,9.69-.16l2.42-.24,2.41-.33,2.41-.38q1.2-.24,2.4-.45c-.77.26-1.55.51-2.33.75l-2.37.64-2.41.49-2.43.4a53.1,53.1,0,0,1-9.84.43,54.35,54.35,0,0,1-9.76-1.36l-2.38-.63-2.35-.72-2.3-.85C265.36,273.38,264.61,273.06,263.87,272.73Z"/><path class="cls-2" d="M264.54,288.79l2.24.37,2.23.34c1.48.22,3,.43,4.46.6,3,.33,6,.61,9,.75s6,.19,9,.16c1.5,0,3-.06,4.5-.14l2.26-.1c.75-.06,1.5-.1,2.25-.14-1.47.33-3,.56-4.46.8s-3,.34-4.51.47a73,73,0,0,1-18.11-.93c-1.49-.28-3-.58-4.44-.92S266,289.28,264.54,288.79Z"/><path class="cls-2" d="M257.47,296.11a25.43,25.43,0,0,0,6.17,4.28,32.58,32.58,0,0,0,7,2.69,46.86,46.86,0,0,0,7.35,1.36c1.25.05,2.49.17,3.74.18s2.5,0,3.75-.09,2.49-.17,3.74-.29l3.75-.43c2.5-.32,5-.7,7.48-1.08s5-.87,7.41-1.45a27.74,27.74,0,0,0,7.12-2.43,14.17,14.17,0,0,1-3.37,1.74q-1.78.69-3.6,1.23-3.66,1.05-7.4,1.78c-2.48.53-5,.87-7.5,1.25l-3.76.49c-1.27.14-2.54.23-3.81.34a43.35,43.35,0,0,1-15.15-1.75,33.08,33.08,0,0,1-7-3.05A23.51,23.51,0,0,1,257.47,296.11Z"/></svg>