<svg id="Layer_1" data-name="Layer 1" xmlns="http://www.w3.org/2000/svg" viewBox="0 0 352.77 402.77"><defs><style>.cls-1,.cls-3{fill:#dfdfdf;}.cls-1,.cls-2,.cls-5{stroke:#231f20;stroke-miterlimit:10;stroke-width:2.17px;}.cls-2{fill:#f3959f;}.cls-4{fill:#231f20;}.cls-5{fill:none;}</style></defs><polygon class="cls-1" points="265.05 306.91 265.05 338.28 181.67 390.02 181.67 350.54 265.05 306.91"/><polygon class="cls-1" points="265.05 80.45 265.05 142.08 181.67 163.28 181.67 98.33 265.05 80.45"/><polygon class="cls-2" points="265.05 142.08 265.05 306.91 181.67 350.54 181.67 163.28 265.05 142.08"/><polygon class="cls-1" points="181.67 350.54 181.67 390.02 86.68 341.4 86.68 305.26 181.67 350.54"/><polygon class="cls-2" points="181.67 163.28 181.67 350.54 86.68 305.26 86.68 138.35 181.67 163.28"/><polygon class="cls-1" points="181.67 98.33 181.67 163.28 86.68 138.35 86.68 80.86 181.67 98.33"/><polygon class="cls-1" points="86.68 80.87 129.41 39.11 129.41 19.79 219.56 10.92 218.8 28.93 266.09 80.66 181.91 99.08 86.68 80.87"/><polyline class="cls-3" points="241.41 54.14 157.48 69.23 155.26 72"/><polygon class="cls-4" points="241.41 54.14 157.66 70.26 158.29 69.88 156.11 72.68 154.42 71.33 156.66 68.59 156.92 68.27 157.29 68.21 241.41 54.14"/><path class="cls-4" d="M145.86,61.2c-4.26,1.66-8.53,3.28-12.81,4.9s-8.55,3.25-12.84,4.81l-12.87,4.74c-4.29,1.58-8.57,3.19-12.88,4.71l-.77-1.69,0,0-.19.15L112,60.52c3.07-3.05,6.13-6.11,9.24-9.12l9.3-9.06.78-.76.69.83L143.35,56l11.28,13.65c3.75,4.56,7.53,9.08,11.23,13.68s7.45,9.16,11.11,13.78c-4-4.37-7.85-8.81-11.77-13.22S157.43,75,153.55,70.53L141.94,57.16l-11.5-13.45,1.47.06-9.22,9.15C119.63,56,116.52,59,113.43,62L94.83,80.13l-.09.09-.1.06,0,0-.77-1.69c4.31-1.53,8.65-3,13-4.44l13-4.4c4.33-1.48,8.68-2.89,13-4.32S141.5,62.59,145.86,61.2Z"/><path class="cls-4" d="M135.77,43.75c4,4,7.78,8.08,11.53,12.23s7.42,8.38,11.07,12.62,7.21,8.56,10.71,12.93,7,8.78,10.24,13.33c-4-4-7.78-8.07-11.53-12.23S160.37,74.25,156.72,70s-7.21-8.57-10.7-12.94S139.06,48.3,135.77,43.75Z"/><polyline class="cls-3" points="219.56 13.69 134.25 23.39 134.25 38.9 218.8 28.93"/><path class="cls-4" d="M219.56,13.69c-7.08,1-14.18,2-21.27,2.91L177,19.32l-10.65,1.34-10.66,1.26-21.31,2.51.93-1,0,7.76,0,7.75-1.18-1,21.15-2.4,10.58-1.21,10.58-1.11,21.17-2.2c7.07-.67,14.13-1.4,21.2-2-7,1.05-14.05,2-21.08,3l-21.1,2.78-10.56,1.38L155.5,37.36l-21.13,2.58-1.17.15V38.9l0-7.75,0-7.76v-.94l.93-.1L155.47,20l10.67-1.17,10.68-1.08,21.36-2.13C205.3,15,212.43,14.28,219.56,13.69Z"/><line class="cls-5" x1="129.41" y1="19.79" x2="134.25" y2="23.39"/></svg>