<svg id="Layer_1" data-name="Layer 1" xmlns="http://www.w3.org/2000/svg" viewBox="0 0 352.77 402.77"><defs><style>.cls-1{fill:#cae9f2;stroke:#231f20;stroke-miterlimit:10;stroke-width:1.72px;}.cls-2{fill:#231f20;}</style></defs><path class="cls-1" d="M139.68,66.64A5.76,5.76,0,0,1,134.91,61c0-.17,0-.35,0-.54A6,6,0,0,0,133.49,56c-3.12-3.54-11.34-9.37-31.23-8.59,0,0-33.53-1.86-49.18-8.38S12,35.22,10.86,41.56C14.77,43.93,17.42,48,19,52.27a61.55,61.55,0,0,1,2.68,13.41q5.67,46,11.35,92c.16,1.23.3,2.46.46,3.69a21.48,21.48,0,0,0,10.47,16c5.76,3.29,12.57,4.15,19.19,4.47,11.75.56,41.57.49,50.48-8.7,1.76-1.81,2-9.87,2-9.87l.41-.21,0,0c.51-.25,1.42-.72,2.63-1.39l.06,0c9-5,34.9-21.16,42.49-46C168.56,91.86,169.11,71.84,139.68,66.64Zm-4.33,70.12c-9.68,7-13.66-4.46-13.66-4.46l8.95-46.45c7-10.68,22.1-5.22,23.35,7.2S145,129.81,135.35,136.76Z"/><path class="cls-2" d="M113.3,52.82a21.1,21.1,0,0,1,7.94.6,9.17,9.17,0,0,1,3.64,1.84,2.71,2.71,0,0,1,1,2,1.55,1.55,0,0,1-.2.63,1.52,1.52,0,0,1-.52.45c-.3.19-.6.33-.9.49-1.22.59-2.43,1.1-3.7,1.59s-2.61.66-3.92,1-2.61.55-3.91.82-2.64.43-4,.64a83.21,83.21,0,0,1-16,.7,96.46,96.46,0,0,1-15.88-2.19,127.67,127.67,0,0,1-15.36-4.54c-5-1.8-9.91-4-14.71-6.2a125.53,125.53,0,0,0-14.67-6,47.33,47.33,0,0,0-15.57-2.55,45.06,45.06,0,0,1,15.81,1.74,125.57,125.57,0,0,1,15,5.56,160.8,160.8,0,0,0,29.9,10.27,94,94,0,0,0,31.36,1.87c1.3-.18,2.61-.31,3.91-.52s2.6-.43,3.9-.69,2.61-.56,3.82-.86,2.47-.91,3.66-1.43c.3-.13.6-.27.86-.41a2.45,2.45,0,0,0,.26-.16.74.74,0,0,0,.12-.31,2.06,2.06,0,0,0-.72-1.46,8.86,8.86,0,0,0-3.33-1.87,19.77,19.77,0,0,0-3.84-.85A20.94,20.94,0,0,0,113.3,52.82Z"/><path class="cls-2" d="M125.69,67.33a21.64,21.64,0,0,1,.1,3.2c0,1-.11,2.07-.21,3.1s-.23,2.05-.41,3.08a19.91,19.91,0,0,1-.72,3.11,12,12,0,0,1-.62-3.17,18.46,18.46,0,0,1,.63-6.33A12.83,12.83,0,0,1,125.69,67.33Z"/><path class="cls-2" d="M116.07,138.4c-.5,1.5-.95,2.94-1.29,4.4a32.15,32.15,0,0,0-.81,8.82c.07,1.49.25,3,.46,4.55a12.5,12.5,0,0,1-1.79-4.37,15.93,15.93,0,0,1,.87-9.42A12.46,12.46,0,0,1,116.07,138.4Z"/><path class="cls-2" d="M39.89,74.7a160.87,160.87,0,0,0,28.73,4.47,162.57,162.57,0,0,0,29.07-1,93.82,93.82,0,0,1-29.17,2.67A94,94,0,0,1,39.89,74.7Z"/><path class="cls-2" d="M41.49,98.29c9.4,1.35,18.68,3.2,28.05,4A92.7,92.7,0,0,0,97.63,101a53.75,53.75,0,0,1-13.93,3.08,78.62,78.62,0,0,1-14.31,0A146.68,146.68,0,0,1,41.49,98.29Z"/><path class="cls-2" d="M42.46,122.56a113.4,113.4,0,0,0,57.43,2.72,78.87,78.87,0,0,1-57.43-2.72Z"/><path class="cls-2" d="M43.47,146.57a226,226,0,0,0,26.73,3.07,230.14,230.14,0,0,0,26.9-.32,103.09,103.09,0,0,1-27,2A103.36,103.36,0,0,1,43.47,146.57Z"/><path class="cls-2" d="M32.9,157.5a37.75,37.75,0,0,0,9.23,6.4c.84.4,1.66.86,2.52,1.23l2.58,1.09c1.77.61,3.51,1.28,5.33,1.71s3.63.85,5.46,1.23c.91.21,1.84.28,2.76.41l2.78.35c1.86.08,3.72.27,5.58.29s3.74,0,5.6-.12,3.73-.26,5.6-.45l5.6-.66c3.74-.46,7.47-1,11.18-1.58s7.42-1.3,11.08-2.17c1.83-.41,3.65-.91,5.44-1.46a24.43,24.43,0,0,0,5.2-2.17,21.31,21.31,0,0,1-5,2.6c-1.77.68-3.57,1.31-5.39,1.84q-5.46,1.58-11,2.66c-3.71.78-7.46,1.33-11.2,1.89l-5.63.72c-1.89.21-3.8.33-5.7.5s-3.81,0-5.72.08-3.81-.23-5.72-.35a61.11,61.11,0,0,1-11.2-2.35,49.91,49.91,0,0,1-10.47-4.55A35,35,0,0,1,32.9,157.5Z"/><path class="cls-1" d="M316.13,66.64A5.74,5.74,0,0,1,311.36,61c0-.17,0-.35,0-.54A6,6,0,0,0,309.94,56c-3.12-3.54-11.34-9.37-31.23-8.59,0,0-33.53-1.86-49.18-8.38s-41.1-3.81-42.22,2.53c3.9,2.37,6.55,6.42,8.12,10.71a61,61,0,0,1,2.69,13.41q5.65,46,11.35,92l.45,3.69a21.49,21.49,0,0,0,10.48,16c5.76,3.29,12.56,4.15,19.18,4.47,11.76.56,41.57.49,50.49-8.7,1.75-1.81,2.05-9.87,2.05-9.87l.41-.21.05,0c.51-.25,1.41-.72,2.62-1.39l.07,0c9-5,34.89-21.16,42.49-46C345,91.86,345.55,71.84,316.13,66.64Zm-4.33,70.12c-9.68,7-13.66-4.46-13.66-4.46l8.94-46.45c7-10.68,22.1-5.22,23.35,7.2S321.49,129.81,311.8,136.76Z"/><path class="cls-2" d="M289.75,52.82a21.11,21.11,0,0,1,7.94.6,9.3,9.3,0,0,1,3.64,1.84,2.7,2.7,0,0,1,1,2,1.54,1.54,0,0,1-.19.63,1.62,1.62,0,0,1-.52.45c-.31.19-.6.33-.91.49-1.21.59-2.43,1.1-3.7,1.59s-2.6.66-3.91,1-2.61.55-3.92.82-2.64.43-3.95.64a83.24,83.24,0,0,1-16,.7,96.58,96.58,0,0,1-15.89-2.19A127.52,127.52,0,0,1,238,56.83c-5-1.8-9.92-4-14.71-6.2a125.67,125.67,0,0,0-14.68-6A47.24,47.24,0,0,0,193,42.12a45,45,0,0,1,15.81,1.74,124.3,124.3,0,0,1,15,5.56,160.89,160.89,0,0,0,29.91,10.27,93.9,93.9,0,0,0,31.35,1.87c1.31-.18,2.62-.31,3.92-.52s2.6-.43,3.89-.69,2.62-.56,3.83-.86,2.46-.91,3.66-1.43c.29-.13.59-.27.86-.41l.26-.16a.89.89,0,0,0,.11-.31,2,2,0,0,0-.71-1.46,9,9,0,0,0-3.33-1.87,19.94,19.94,0,0,0-3.84-.85A21,21,0,0,0,289.75,52.82Z"/><path class="cls-2" d="M302.14,67.33a20.33,20.33,0,0,1,.09,3.2c0,1-.1,2.07-.2,3.1s-.23,2.05-.41,3.08a21.11,21.11,0,0,1-.72,3.11,12,12,0,0,1-.62-3.17,18.46,18.46,0,0,1,.63-6.33A12.42,12.42,0,0,1,302.14,67.33Z"/><path class="cls-2" d="M292.52,138.4c-.5,1.5-.95,2.94-1.3,4.4a32.15,32.15,0,0,0-.81,8.82c.08,1.49.25,3,.47,4.55a12.34,12.34,0,0,1-1.8-4.37,16.3,16.3,0,0,1-.28-4.78,16.11,16.11,0,0,1,1.15-4.64A12.32,12.32,0,0,1,292.52,138.4Z"/><path class="cls-2" d="M216.34,74.7a160.73,160.73,0,0,0,28.73,4.47,162.45,162.45,0,0,0,29.06-1A93.75,93.75,0,0,1,245,80.89,94,94,0,0,1,216.34,74.7Z"/><path class="cls-2" d="M217.93,98.29c9.4,1.35,18.69,3.2,28.06,4A92.72,92.72,0,0,0,274.08,101a53.93,53.93,0,0,1-13.93,3.08,78.73,78.73,0,0,1-14.32,0A146.84,146.84,0,0,1,217.93,98.29Z"/><path class="cls-2" d="M218.91,122.56a116.14,116.14,0,0,0,28.54,5.06,116.24,116.24,0,0,0,28.89-2.34,78.86,78.86,0,0,1-57.43-2.72Z"/><path class="cls-2" d="M219.92,146.57a226.06,226.06,0,0,0,26.72,3.07,230.09,230.09,0,0,0,26.9-.32,107.08,107.08,0,0,1-53.62-2.75Z"/><path class="cls-2" d="M209.35,157.5a37.51,37.51,0,0,0,9.22,6.4c.85.4,1.67.86,2.52,1.23l2.59,1.09a55.09,55.09,0,0,0,5.33,1.71c1.79.53,3.63.85,5.45,1.23.91.21,1.85.28,2.77.41l2.77.35c1.87.08,3.73.27,5.59.29s3.74,0,5.6-.12,3.72-.26,5.59-.45l5.61-.66c3.74-.46,7.46-1,11.18-1.58s7.42-1.3,11.07-2.17c1.84-.41,3.65-.91,5.45-1.46a24.35,24.35,0,0,0,5.19-2.17,20.93,20.93,0,0,1-5,2.6c-1.77.68-3.56,1.31-5.38,1.84-3.64,1.05-7.34,1.93-11.05,2.66s-7.46,1.33-11.21,1.89l-5.63.72c-1.88.21-3.79.33-5.69.5s-3.82,0-5.72.08-3.82-.23-5.72-.35a60.94,60.94,0,0,1-11.2-2.35,49.46,49.46,0,0,1-10.47-4.55A34.84,34.84,0,0,1,209.35,157.5Z"/><path class="cls-1" d="M139.68,252.09a5.76,5.76,0,0,1-4.77-5.67c0-.17,0-.35,0-.54a6,6,0,0,0-1.45-4.43c-3.12-3.54-11.34-9.37-31.23-8.59,0,0-33.53-1.86-49.18-8.38S12,220.67,10.86,227c3.91,2.37,6.56,6.42,8.13,10.71a61.55,61.55,0,0,1,2.68,13.41q5.67,46,11.35,92c.16,1.23.3,2.46.46,3.69A21.48,21.48,0,0,0,44,362.83c5.76,3.29,12.57,4.15,19.19,4.47,11.75.56,41.57.49,50.48-8.7,1.76-1.81,2-9.87,2-9.87l.41-.21,0,0c.51-.25,1.42-.72,2.63-1.39l.06,0c9-5,34.9-21.17,42.49-46C168.56,277.31,169.11,257.29,139.68,252.09Zm-4.33,70.12c-9.68,7-13.66-4.46-13.66-4.46l8.95-46.45c7-10.68,22.1-5.22,23.35,7.2S145,315.26,135.35,322.21Z"/><path class="cls-2" d="M113.3,238.26a21.31,21.31,0,0,1,7.94.61,9.17,9.17,0,0,1,3.64,1.84,2.69,2.69,0,0,1,1,2,1.55,1.55,0,0,1-.2.63,1.52,1.52,0,0,1-.52.45c-.3.19-.6.33-.9.49-1.22.59-2.43,1.1-3.7,1.59s-2.61.66-3.92,1-2.61.55-3.91.82-2.64.43-4,.64a83.21,83.21,0,0,1-16,.7,96.46,96.46,0,0,1-15.88-2.19,127.67,127.67,0,0,1-15.36-4.54c-5-1.81-9.91-4-14.71-6.2a125.53,125.53,0,0,0-14.67-6,47.33,47.33,0,0,0-15.57-2.55,44.83,44.83,0,0,1,15.81,1.74,125.57,125.57,0,0,1,15,5.56,160.8,160.8,0,0,0,29.9,10.27A94,94,0,0,0,108.62,247c1.3-.18,2.61-.31,3.91-.52s2.6-.44,3.9-.7,2.61-.55,3.82-.85,2.47-.91,3.66-1.43c.3-.13.6-.27.86-.41a2.45,2.45,0,0,0,.26-.16.74.74,0,0,0,.12-.31,2.06,2.06,0,0,0-.72-1.46,8.86,8.86,0,0,0-3.33-1.87,19.77,19.77,0,0,0-3.84-.85A21.81,21.81,0,0,0,113.3,238.26Z"/><path class="cls-2" d="M125.69,252.78a21.64,21.64,0,0,1,.1,3.2c0,1-.11,2.07-.21,3.1s-.23,2.05-.41,3.08a19.91,19.91,0,0,1-.72,3.11,12.11,12.11,0,0,1-.62-3.17,18.46,18.46,0,0,1,.63-6.33A12.83,12.83,0,0,1,125.69,252.78Z"/><path class="cls-2" d="M116.07,323.85c-.5,1.5-.95,2.94-1.29,4.4a32.15,32.15,0,0,0-.81,8.82c.07,1.49.25,3,.46,4.55a12.5,12.5,0,0,1-1.79-4.37,15.93,15.93,0,0,1,.87-9.42A12.46,12.46,0,0,1,116.07,323.85Z"/><path class="cls-2" d="M39.89,260.15a160.87,160.87,0,0,0,28.73,4.47,162.57,162.57,0,0,0,29.07-.95,93.82,93.82,0,0,1-29.17,2.67A94,94,0,0,1,39.89,260.15Z"/><path class="cls-2" d="M41.49,283.74c9.4,1.35,18.68,3.2,28.05,4a92.7,92.7,0,0,0,28.09-1.33A53.75,53.75,0,0,1,83.7,289.5a78.62,78.62,0,0,1-14.31,0A146.68,146.68,0,0,1,41.49,283.74Z"/><path class="cls-2" d="M42.46,308a113.4,113.4,0,0,0,57.43,2.72A78.87,78.87,0,0,1,42.46,308Z"/><path class="cls-2" d="M43.47,332a226,226,0,0,0,26.73,3.07,230.14,230.14,0,0,0,26.9-.32,103.09,103.09,0,0,1-27,2A103.36,103.36,0,0,1,43.47,332Z"/><path class="cls-2" d="M32.9,343a38,38,0,0,0,9.23,6.4c.84.4,1.66.86,2.52,1.23l2.58,1.09c1.77.61,3.51,1.28,5.33,1.71s3.63.85,5.46,1.23c.91.21,1.84.28,2.76.41l2.78.35c1.86.08,3.72.27,5.58.29s3.74,0,5.6-.12,3.73-.26,5.6-.45l5.6-.66c3.74-.46,7.47-1,11.18-1.58s7.42-1.3,11.08-2.17c1.83-.41,3.65-.91,5.44-1.46a24.43,24.43,0,0,0,5.2-2.17,21.31,21.31,0,0,1-5,2.6c-1.77.68-3.57,1.31-5.39,1.84-3.64,1.05-7.33,1.92-11,2.66s-7.46,1.33-11.2,1.89l-5.63.72c-1.89.21-3.8.33-5.7.5s-3.81,0-5.72.08-3.81-.23-5.72-.35a61.11,61.11,0,0,1-11.2-2.35,49.91,49.91,0,0,1-10.47-4.55A35,35,0,0,1,32.9,343Z"/><path class="cls-1" d="M316.13,252.09a5.74,5.74,0,0,1-4.77-5.67c0-.17,0-.35,0-.54a6,6,0,0,0-1.45-4.43c-3.12-3.54-11.34-9.37-31.23-8.59,0,0-33.53-1.86-49.18-8.38s-41.1-3.81-42.22,2.53c3.9,2.37,6.55,6.42,8.12,10.71a61,61,0,0,1,2.69,13.41q5.65,46,11.35,92l.45,3.69a21.49,21.49,0,0,0,10.48,16.05c5.76,3.29,12.56,4.15,19.18,4.47,11.76.56,41.57.49,50.49-8.7,1.75-1.81,2.05-9.87,2.05-9.87l.41-.21.05,0c.51-.25,1.41-.72,2.62-1.39l.07,0c9-5,34.89-21.17,42.49-46C345,277.31,345.55,257.29,316.13,252.09Zm-4.33,70.12c-9.68,7-13.66-4.46-13.66-4.46l8.94-46.45c7-10.68,22.1-5.22,23.35,7.2S321.49,315.26,311.8,322.21Z"/><path class="cls-2" d="M289.75,238.26a21.32,21.32,0,0,1,7.94.61,9.3,9.3,0,0,1,3.64,1.84,2.68,2.68,0,0,1,1,2,1.54,1.54,0,0,1-.19.63,1.62,1.62,0,0,1-.52.45c-.31.19-.6.33-.91.49-1.21.59-2.43,1.1-3.7,1.59s-2.6.66-3.91,1-2.61.55-3.92.82-2.64.43-3.95.64a83.24,83.24,0,0,1-16,.7,96.58,96.58,0,0,1-15.89-2.19A127.52,127.52,0,0,1,238,242.28c-5-1.81-9.92-4-14.71-6.2a125.67,125.67,0,0,0-14.68-6A47.24,47.24,0,0,0,193,227.57a44.8,44.8,0,0,1,15.81,1.74,124.3,124.3,0,0,1,15,5.56,160.89,160.89,0,0,0,29.91,10.27A93.9,93.9,0,0,0,285.06,247c1.31-.18,2.62-.31,3.92-.52s2.6-.44,3.89-.7,2.62-.55,3.83-.85,2.46-.91,3.66-1.43c.29-.13.59-.27.86-.41l.26-.16a.89.89,0,0,0,.11-.31,2,2,0,0,0-.71-1.46,9,9,0,0,0-3.33-1.87,19.94,19.94,0,0,0-3.84-.85A21.86,21.86,0,0,0,289.75,238.26Z"/><path class="cls-2" d="M302.14,252.78a20.33,20.33,0,0,1,.09,3.2c0,1-.1,2.07-.2,3.1s-.23,2.05-.41,3.08a21.11,21.11,0,0,1-.72,3.11,12.11,12.11,0,0,1-.62-3.17,18.46,18.46,0,0,1,.63-6.33A12.42,12.42,0,0,1,302.14,252.78Z"/><path class="cls-2" d="M292.52,323.85c-.5,1.5-.95,2.94-1.3,4.4a32.15,32.15,0,0,0-.81,8.82c.08,1.49.25,3,.47,4.55a12.34,12.34,0,0,1-1.8-4.37,16.3,16.3,0,0,1-.28-4.78,16.11,16.11,0,0,1,1.15-4.64A12.32,12.32,0,0,1,292.52,323.85Z"/><path class="cls-2" d="M216.34,260.15a160.73,160.73,0,0,0,28.73,4.47,162.45,162.45,0,0,0,29.06-.95,96.63,96.63,0,0,1-57.79-3.52Z"/><path class="cls-2" d="M217.93,283.74c9.4,1.35,18.69,3.2,28.06,4a92.72,92.72,0,0,0,28.09-1.33,53.93,53.93,0,0,1-13.93,3.08,78.73,78.73,0,0,1-14.32,0A146.84,146.84,0,0,1,217.93,283.74Z"/><path class="cls-2" d="M218.91,308a113.4,113.4,0,0,0,57.43,2.72A78.86,78.86,0,0,1,218.91,308Z"/><path class="cls-2" d="M219.92,332a226.06,226.06,0,0,0,26.72,3.07,230.09,230.09,0,0,0,26.9-.32A107.08,107.08,0,0,1,219.92,332Z"/><path class="cls-2" d="M209.35,343a37.78,37.78,0,0,0,9.22,6.4c.85.4,1.67.86,2.52,1.23l2.59,1.09a55.09,55.09,0,0,0,5.33,1.71c1.79.53,3.63.85,5.45,1.23.91.21,1.85.28,2.77.41l2.77.35c1.87.08,3.73.27,5.59.29s3.74,0,5.6-.12,3.72-.26,5.59-.45l5.61-.66c3.74-.46,7.46-1,11.18-1.58s7.42-1.3,11.07-2.17c1.84-.41,3.65-.91,5.45-1.46a24.35,24.35,0,0,0,5.19-2.17,20.93,20.93,0,0,1-5,2.6c-1.77.68-3.56,1.31-5.38,1.84-3.64,1.05-7.34,1.92-11.05,2.66s-7.46,1.33-11.21,1.89l-5.63.72c-1.88.21-3.79.33-5.69.5s-3.82,0-5.72.08-3.82-.23-5.72-.35a60.94,60.94,0,0,1-11.2-2.35,49.46,49.46,0,0,1-10.47-4.55A34.84,34.84,0,0,1,209.35,343Z"/></svg>