<svg id="Layer_1" data-name="Layer 1" xmlns="http://www.w3.org/2000/svg" viewBox="0 0 352.77 402.77"><defs><style>.cls-1{fill:#cae9f2;stroke-width:1.72px;}.cls-1,.cls-3,.cls-4,.cls-6{stroke:#231f20;stroke-miterlimit:10;}.cls-2{fill:#231f20;}.cls-3{fill:#dfdfdf;}.cls-3,.cls-4,.cls-5,.cls-6{stroke-width:1.58px;}.cls-4{fill:#f3959f;}.cls-5,.cls-6{fill:none;}.cls-5{stroke:#000;stroke-linecap:round;stroke-linejoin:round;}</style></defs><path class="cls-1" d="M227.9,265.33a5.73,5.73,0,0,1-4.76-5.66c0-.17,0-.35,0-.54a6,6,0,0,0-1.44-4.43c-3.13-3.54-11.35-9.38-31.24-8.59,0,0-33.53-1.86-49.17-8.39s-41.11-3.8-42.23,2.53c3.91,2.38,6.56,6.42,8.13,10.72s2.12,8.87,2.68,13.41q5.67,46,11.35,92c.16,1.23.31,2.46.46,3.69a21.47,21.47,0,0,0,10.48,16c5.75,3.3,12.56,4.16,19.18,4.48,11.76.56,41.57.49,50.48-8.7,1.76-1.81,2-9.88,2-9.88s.15-.06.42-.2l.05,0c.51-.25,1.41-.71,2.62-1.38l.06-.05c9-5,34.9-21.16,42.49-46C256.78,290.56,257.33,270.53,227.9,265.33Zm-4.32,70.13c-9.69,7-13.66-4.47-13.66-4.47l8.94-46.45c6.95-10.68,22.1-5.21,23.35,7.21S233.27,328.5,223.58,335.46Z"/><path class="cls-2" d="M201.53,251.51a21.27,21.27,0,0,1,7.93.61,9.39,9.39,0,0,1,3.65,1.83,2.7,2.7,0,0,1,1,2,1.22,1.22,0,0,1-.71,1.08c-.31.19-.61.34-.91.49-1.22.59-2.43,1.11-3.7,1.59s-2.6.66-3.91,1-2.62.54-3.92.81-2.64.43-4,.65a84.81,84.81,0,0,1-16,.7,96.48,96.48,0,0,1-15.88-2.2,128.77,128.77,0,0,1-15.35-4.53c-5-1.81-9.92-4-14.71-6.21a128.17,128.17,0,0,0-14.68-6,47.28,47.28,0,0,0-15.57-2.55,45.3,45.3,0,0,1,15.81,1.74,126.67,126.67,0,0,1,15,5.56,160.07,160.07,0,0,0,29.9,10.27,94,94,0,0,0,31.36,1.87c1.3-.17,2.62-.31,3.92-.52s2.6-.43,3.89-.69,2.62-.55,3.83-.85,2.46-.92,3.65-1.44c.3-.13.6-.26.87-.41a1.93,1.93,0,0,0,.26-.16.77.77,0,0,0,.11-.3,2.11,2.11,0,0,0-.71-1.47,8.86,8.86,0,0,0-3.33-1.86,19.37,19.37,0,0,0-3.84-.85A21.86,21.86,0,0,0,201.53,251.51Z"/><path class="cls-2" d="M213.92,266a21.48,21.48,0,0,1,.09,3.19c0,1-.11,2.08-.2,3.11s-.23,2.05-.41,3.08a21.47,21.47,0,0,1-.73,3.11,12.19,12.19,0,0,1-.62-3.17,18.08,18.08,0,0,1,.64-6.33A11.72,11.72,0,0,1,213.92,266Z"/><path class="cls-2" d="M204.29,337.1c-.5,1.5-.95,2.94-1.29,4.39a32.25,32.25,0,0,0-.81,8.82c.07,1.5.25,3,.47,4.56a12.31,12.31,0,0,1-1.8-4.38,15.91,15.91,0,0,1-.28-4.77,15.72,15.72,0,0,1,1.15-4.64A12.35,12.35,0,0,1,204.29,337.1Z"/><path class="cls-2" d="M128.12,273.4a155.69,155.69,0,0,0,57.79,3.52,96.83,96.83,0,0,1-57.79-3.52Z"/><path class="cls-2" d="M129.71,297c9.4,1.35,18.68,3.2,28,4a93,93,0,0,0,28.09-1.33,54.16,54.16,0,0,1-13.93,3.08,79.53,79.53,0,0,1-14.31,0A147.62,147.62,0,0,1,129.71,297Z"/><path class="cls-2" d="M130.68,321.25A113.55,113.55,0,0,0,188.11,324a78.93,78.93,0,0,1-57.43-2.73Z"/><path class="cls-2" d="M131.69,345.27a228.35,228.35,0,0,0,26.73,3.07,228,228,0,0,0,26.9-.33,107,107,0,0,1-53.63-2.74Z"/><path class="cls-2" d="M121.12,356.2a38,38,0,0,0,9.23,6.4c.84.4,1.66.85,2.52,1.23l2.58,1.09a53.21,53.21,0,0,0,5.33,1.7c1.79.54,3.63.86,5.46,1.23.91.22,1.84.29,2.77.42l2.77.35c1.86.07,3.72.27,5.59.28s3.73,0,5.6-.12,3.72-.26,5.59-.44l5.61-.67c3.73-.46,7.46-1,11.18-1.58s7.41-1.29,11.07-2.17c1.83-.41,3.65-.9,5.45-1.45a25.42,25.42,0,0,0,5.19-2.17,21.87,21.87,0,0,1-5,2.6c-1.77.68-3.57,1.3-5.38,1.84-3.65,1.05-7.34,1.92-11.06,2.65s-7.45,1.33-11.2,1.9l-5.63.72c-1.89.2-3.8.33-5.69.49s-3.82.05-5.73.08-3.81-.22-5.71-.35a60.21,60.21,0,0,1-11.21-2.34,49.43,49.43,0,0,1-10.47-4.56A35.2,35.2,0,0,1,121.12,356.2Z"/><polygon class="cls-3" points="169.34 135.85 169.34 185.83 96.63 216.5 96.63 154.59 169.34 135.85"/><polygon class="cls-3" points="96.63 154.59 96.63 216.5 14.16 187.28 14.16 132.9 96.63 154.59"/><path class="cls-4" d="M147.77,60,128.84,38.72v-.44L55.39,46.8V33.85L128.84,26V24.43L124.67,22,51.58,30.3V47.47L14.16,84.13V132.9l82.47,21.69,72.71-18.74V84.13ZM20.66,84.13l3.17-3.27h0l29.31-30L93.72,98.1Z"/><polygon class="cls-5" points="93.72 98.1 20.66 84.13 23.83 80.86 23.86 80.86 53.18 50.9 93.72 98.1"/><polygon class="cls-3" points="128.84 26.04 128.84 38.28 55.4 46.8 55.4 33.85 128.84 26.04"/><polyline class="cls-4" points="53.18 50.9 95.34 98.94 96.63 154.59"/><polygon class="cls-3" points="128.84 26.04 128.84 38.28 55.4 46.8 55.4 33.85 128.84 26.04"/><line class="cls-6" x1="72.85" y1="73.31" x2="147.79" y2="59.98"/><line class="cls-6" x1="94.89" y1="98.43" x2="169.33" y2="84.14"/><polygon class="cls-3" points="93.72 98.1 20.66 84.13 23.83 80.86 23.86 80.86 53.18 50.9 55.61 53.73 93.72 98.1"/><line class="cls-6" x1="66.71" y1="66.65" x2="20.66" y2="84.13"/><polygon class="cls-3" points="338.61 135.85 338.61 185.83 265.91 216.5 265.91 154.59 338.61 135.85"/><polygon class="cls-3" points="265.91 154.59 265.91 216.5 183.43 187.28 183.43 132.9 265.91 154.59"/><path class="cls-4" d="M317.05,60,298.11,38.72v-.44L224.67,46.8V33.85L298.11,26V24.43L294,22l-73.1,8.27V47.47L183.43,84.13V132.9l82.48,21.69,72.7-18.74V84.13ZM189.94,84.13l3.17-3.27h0l29.32-30L263,98.1Z"/><polygon class="cls-5" points="262.99 98.1 189.94 84.13 193.11 80.86 193.14 80.86 222.46 50.9 262.99 98.1"/><polygon class="cls-3" points="298.11 26.04 298.11 38.28 224.67 46.8 224.67 33.85 298.11 26.04"/><polyline class="cls-4" points="222.46 50.9 264.61 98.94 265.91 154.59"/><polygon class="cls-3" points="298.11 26.04 298.11 38.28 224.67 46.8 224.67 33.85 298.11 26.04"/><line class="cls-6" x1="242.12" y1="73.31" x2="317.06" y2="59.98"/><line class="cls-6" x1="264.16" y1="98.43" x2="338.6" y2="84.14"/><polygon class="cls-3" points="262.99 98.1 189.94 84.13 193.11 80.86 193.14 80.86 222.46 50.9 224.88 53.73 262.99 98.1"/><line class="cls-6" x1="235.98" y1="66.65" x2="189.94" y2="84.13"/></svg>