<svg xmlns="http://www.w3.org/2000/svg" xmlns:xlink="http://www.w3.org/1999/xlink" viewBox="0 0 402.37 140.55"><defs><style>.cls-1{isolation:isolate;}.cls-2{opacity:0.2;mix-blend-mode:multiply;}.cls-3,.cls-6{fill:#fff;}.cls-4{fill:#b2574f;}.cls-5{fill:url(#linear-gradient);}.cls-6{opacity:0.31;mix-blend-mode:screen;}.cls-7{fill:#b8ffde;}</style><linearGradient id="linear-gradient" x1="344.65" y1="13.58" x2="57.42" y2="123.88" gradientUnits="userSpaceOnUse"><stop offset="0" stop-color="#f53115"/><stop offset="1" stop-color="#f31a35"/></linearGradient></defs><g class="cls-1"><g id="Layer_2" data-name="Layer 2"><g id="Layer_1-2" data-name="Layer 1"><rect class="cls-2" y="3.32" width="402.37" height="137.23" rx="68.47"/><rect class="cls-3" x="1.31" width="400.04" height="137.23" rx="68.61"/><path class="cls-4" d="M69.93,122.06a53.45,53.45,0,1,1,0-106.89H332.74a53.45,53.45,0,1,1,0,106.89Z"/><path class="cls-5" d="M69.93,119.89a51.28,51.28,0,1,1,0-102.55H332.74a51.28,51.28,0,1,1,0,102.55Z"/><path class="cls-6" d="M384,68.62a51.15,51.15,0,0,1-18.27,39.18,51.24,51.24,0,0,0-36.41-83.33L168.49,17.34H332.74A51.33,51.33,0,0,1,384,68.62Z"/><path class="cls-2" d="M307.36,119.89H69.92a51.28,51.28,0,0,1,0-102.55h5.29a46,46,0,0,0,7.65,90.5Z"/><path class="cls-7" d="M56.63,92.26c-2.12-.89-5-.52-6.11,1.49a5.33,5.33,0,0,0,.22,4.71c1.88,4.12,10.7,10.24,15.05,5.78C69.33,100.6,59.54,93.48,56.63,92.26Z"/><path class="cls-7" d="M343.27,35.73a5.38,5.38,0,0,1-1.51-2.07c-.67-2,1.11-4.13,3.16-4.6s4.15.27,6.06,1.12a49.54,49.54,0,0,1,6.84,3.69c2,1.27,4,3,4.16,5.31.27,4.24-4.8,6.3-8.09,4.78C350.09,42.21,346.24,38.63,343.27,35.73Z"/></g></g></g></svg>